<?xml version="1.0" encoding="UTF-8"?>
<svg xmlns="http://www.w3.org/2000/svg" xmlns:xlink="http://www.w3.org/1999/xlink" width="315.92pt" height="74.91581pt" viewBox="0 0 315.92 74.91581" version="1.1">
<g id="surface1">
<path style="fill:none;stroke-width:0.3985;stroke-linecap:butt;stroke-linejoin:miter;stroke:rgb(0%,0%,0%);stroke-opacity:1;stroke-miterlimit:10;" d="M 0.0000625 -0.00164125 L 72.285219 -0.00164125 L 72.285219 72.283515 L 0.0000625 72.283515 Z M 0.0000625 -0.00164125 " transform="matrix(1,0,0,-1,1.414,73.51789)"/>
<path style="fill:none;stroke-width:0.3985;stroke-linecap:butt;stroke-linejoin:miter;stroke:rgb(0%,0%,0%);stroke-opacity:1;stroke-miterlimit:10;" d="M 48.191469 -0.00164125 L 48.191469 72.283515 " transform="matrix(1,0,0,-1,1.414,73.51789)"/>
<path style="fill:none;stroke-width:0.3985;stroke-linecap:butt;stroke-linejoin:miter;stroke:rgb(0%,0%,0%);stroke-opacity:1;stroke-miterlimit:10;" d="M 48.191469 24.096015 L 72.285219 24.096015 " transform="matrix(1,0,0,-1,1.414,73.51789)"/>
<path style="fill:none;stroke-width:0.3985;stroke-linecap:butt;stroke-linejoin:miter;stroke:rgb(0%,0%,0%);stroke-opacity:1;stroke-miterlimit:10;" d="M 48.191469 48.189765 L 72.285219 48.189765 " transform="matrix(1,0,0,-1,1.414,73.51789)"/>
<path style="fill:none;stroke-width:0.3985;stroke-linecap:butt;stroke-linejoin:miter;stroke:rgb(0%,0%,0%);stroke-opacity:1;stroke-miterlimit:10;" d="M 24.093813 48.189765 L 24.093813 72.283515 " transform="matrix(1,0,0,-1,1.414,73.51789)"/>
<path style="fill:none;stroke-width:0.3985;stroke-linecap:butt;stroke-linejoin:miter;stroke:rgb(0%,0%,0%);stroke-opacity:1;stroke-miterlimit:10;" d="M 0.0000625 48.189765 L 48.191469 48.189765 " transform="matrix(1,0,0,-1,1.414,73.51789)"/>
<path style="fill:none;stroke-width:0.3985;stroke-linecap:butt;stroke-linejoin:miter;stroke:rgb(0%,0%,0%);stroke-opacity:1;stroke-miterlimit:10;" d="M 120.476625 -0.00164125 L 192.757875 -0.00164125 L 192.757875 72.283515 L 120.476625 72.283515 Z M 120.476625 -0.00164125 " transform="matrix(1,0,0,-1,1.414,73.51789)"/>
<path style="fill:none;stroke-width:0.3985;stroke-linecap:butt;stroke-linejoin:miter;stroke:rgb(0%,0%,0%);stroke-opacity:1;stroke-miterlimit:10;" d="M 156.61725 -0.00164125 L 156.61725 72.283515 " transform="matrix(1,0,0,-1,1.414,73.51789)"/>
<path style="fill:none;stroke-width:0.3985;stroke-linecap:butt;stroke-linejoin:miter;stroke:rgb(0%,0%,0%);stroke-opacity:1;stroke-miterlimit:10;" d="M 120.476625 36.14289 L 192.757875 36.14289 " transform="matrix(1,0,0,-1,1.414,73.51789)"/>
<path style="fill:none;stroke-width:0.3985;stroke-linecap:butt;stroke-linejoin:miter;stroke:rgb(0%,0%,0%);stroke-opacity:1;stroke-miterlimit:10;" d="M 138.546938 -0.00164125 L 138.546938 36.14289 " transform="matrix(1,0,0,-1,1.414,73.51789)"/>
<path style="fill:none;stroke-width:0.3985;stroke-linecap:butt;stroke-linejoin:miter;stroke:rgb(0%,0%,0%);stroke-opacity:1;stroke-miterlimit:10;" d="M 120.476625 18.072577 L 156.61725 18.072577 " transform="matrix(1,0,0,-1,1.414,73.51789)"/>
<path style="fill:none;stroke-width:0.3985;stroke-linecap:butt;stroke-linejoin:miter;stroke:rgb(0%,0%,0%);stroke-opacity:1;stroke-miterlimit:10;" d="M 240.949281 -0.00164125 L 313.234438 -0.00164125 L 313.234438 72.283515 L 240.949281 72.283515 Z M 240.949281 -0.00164125 " transform="matrix(1,0,0,-1,1.414,73.51789)"/>
<path style="fill:none;stroke-width:0.3985;stroke-linecap:butt;stroke-linejoin:miter;stroke:rgb(0%,0%,0%);stroke-opacity:1;stroke-miterlimit:10;" d="M 295.164125 -0.00164125 L 295.164125 72.283515 " transform="matrix(1,0,0,-1,1.414,73.51789)"/>
<path style="fill:none;stroke-width:0.3985;stroke-linecap:butt;stroke-linejoin:miter;stroke:rgb(0%,0%,0%);stroke-opacity:1;stroke-miterlimit:10;" d="M 295.164125 18.072577 L 313.234438 18.072577 " transform="matrix(1,0,0,-1,1.414,73.51789)"/>
<path style="fill:none;stroke-width:0.3985;stroke-linecap:butt;stroke-linejoin:miter;stroke:rgb(0%,0%,0%);stroke-opacity:1;stroke-miterlimit:10;" d="M 295.164125 36.14289 L 313.234438 36.14289 " transform="matrix(1,0,0,-1,1.414,73.51789)"/>
<path style="fill:none;stroke-width:0.3985;stroke-linecap:butt;stroke-linejoin:miter;stroke:rgb(0%,0%,0%);stroke-opacity:1;stroke-miterlimit:10;" d="M 240.949281 54.213202 L 313.234438 54.213202 " transform="matrix(1,0,0,-1,1.414,73.51789)"/>
<path style="fill:none;stroke-width:0.3985;stroke-linecap:butt;stroke-linejoin:miter;stroke:rgb(0%,0%,0%);stroke-opacity:1;stroke-miterlimit:10;" d="M 259.019594 54.213202 L 259.019594 72.283515 " transform="matrix(1,0,0,-1,1.414,73.51789)"/>
<path style="fill:none;stroke-width:0.3985;stroke-linecap:butt;stroke-linejoin:miter;stroke:rgb(0%,0%,0%);stroke-opacity:1;stroke-miterlimit:10;" d="M 277.093813 54.213202 L 277.093813 72.283515 " transform="matrix(1,0,0,-1,1.414,73.51789)"/>
</g>
</svg>
