<?xml version="1.0" encoding="UTF-8"?>
<svg xmlns="http://www.w3.org/2000/svg" xmlns:xlink="http://www.w3.org/1999/xlink" width="171.44pt" height="60.52453pt" viewBox="0 0 171.44 60.52453" version="1.1">
<defs>
<clipPath id="clip1">
  <path d="M 0 41 L 41 41 L 41 60.523438 L 0 60.523438 Z M 0 41 "/>
</clipPath>
<clipPath id="clip2">
  <path d="M 27 49 L 43 49 L 43 60.523438 L 27 60.523438 Z M 27 49 "/>
</clipPath>
<clipPath id="clip3">
  <path d="M 29 24 L 61 24 L 61 60.523438 L 29 60.523438 Z M 29 24 "/>
</clipPath>
<clipPath id="clip4">
  <path d="M 160 22 L 171.441406 22 L 171.441406 38 L 160 38 Z M 160 22 "/>
</clipPath>
<clipPath id="clip5">
  <path d="M 111 7 L 171.441406 7 L 171.441406 36 L 111 36 Z M 111 7 "/>
</clipPath>
<clipPath id="clip6">
  <path d="M 111 7 L 155 7 L 155 60.523438 L 111 60.523438 Z M 111 7 "/>
</clipPath>
<clipPath id="clip7">
  <path d="M 111 24 L 171.441406 24 L 171.441406 53 L 111 53 Z M 111 24 "/>
</clipPath>
<clipPath id="clip8">
  <path d="M 140 49 L 157 49 L 157 60.523438 L 140 60.523438 Z M 140 49 "/>
</clipPath>
</defs>
<g id="surface1">
<path style="fill-rule:nonzero;fill:rgb(0%,0%,0%);fill-opacity:1;stroke-width:0.3985;stroke-linecap:butt;stroke-linejoin:miter;stroke:rgb(0%,0%,0%);stroke-opacity:1;stroke-miterlimit:10;" d="M 30.339688 -0.00161 C 30.339688 1.099952 29.449063 1.994484 28.3475 1.994484 C 27.245938 1.994484 26.355313 1.099952 26.355313 -0.00161 C 26.355313 -1.099266 27.245938 -1.993798 28.3475 -1.993798 C 29.449063 -1.993798 30.339688 -1.099266 30.339688 -0.00161 Z M 30.339688 -0.00161 " transform="matrix(1,0,0,-1,26.34,30.18589)"/>
<path style="fill:none;stroke-width:0.3985;stroke-linecap:butt;stroke-linejoin:miter;stroke:rgb(0%,0%,0%);stroke-opacity:1;stroke-miterlimit:10;" d="M 28.3475 -0.00161 L 8.761563 26.959327 " transform="matrix(1,0,0,-1,26.34,30.18589)"/>
<path style="fill-rule:nonzero;fill:rgb(0%,0%,0%);fill-opacity:1;stroke-width:0.3985;stroke-linecap:butt;stroke-linejoin:miter;stroke:rgb(0%,0%,0%);stroke-opacity:1;stroke-miterlimit:10;" d="M 10.75375 26.959327 C 10.75375 28.06089 9.859219 28.951515 8.761563 28.951515 C 7.66 28.951515 6.765469 28.06089 6.765469 26.959327 C 6.765469 25.857765 7.66 24.96714 8.761563 24.96714 C 9.859219 24.96714 10.75375 25.857765 10.75375 26.959327 Z M 10.75375 26.959327 " transform="matrix(1,0,0,-1,26.34,30.18589)"/>
<path style="fill:none;stroke-width:0.3985;stroke-linecap:butt;stroke-linejoin:miter;stroke:rgb(0%,0%,0%);stroke-opacity:1;stroke-miterlimit:10;" d="M 8.761563 26.959327 L -22.93375 16.662452 " transform="matrix(1,0,0,-1,26.34,30.18589)"/>
<path style="fill-rule:nonzero;fill:rgb(0%,0%,0%);fill-opacity:1;stroke-width:0.3985;stroke-linecap:butt;stroke-linejoin:miter;stroke:rgb(0%,0%,0%);stroke-opacity:1;stroke-miterlimit:10;" d="M -20.941562 16.662452 C -20.941562 17.764015 -21.832187 18.65464 -22.93375 18.65464 C -24.035312 18.65464 -24.925937 17.764015 -24.925937 16.662452 C -24.925937 15.56089 -24.035312 14.670265 -22.93375 14.670265 C -21.832187 14.670265 -20.941562 15.56089 -20.941562 16.662452 Z M -20.941562 16.662452 " transform="matrix(1,0,0,-1,26.34,30.18589)"/>
<path style="fill:none;stroke-width:0.3985;stroke-linecap:butt;stroke-linejoin:miter;stroke:rgb(0%,0%,0%);stroke-opacity:1;stroke-miterlimit:10;" d="M -22.93375 16.662452 L -22.93375 -16.661766 " transform="matrix(1,0,0,-1,26.34,30.18589)"/>
<path style="fill-rule:nonzero;fill:rgb(0%,0%,0%);fill-opacity:1;stroke-width:0.3985;stroke-linecap:butt;stroke-linejoin:miter;stroke:rgb(0%,0%,0%);stroke-opacity:1;stroke-miterlimit:10;" d="M -20.941562 -16.661766 C -20.941562 -15.560204 -21.832187 -14.669579 -22.93375 -14.669579 C -24.035312 -14.669579 -24.925937 -15.560204 -24.925937 -16.661766 C -24.925937 -17.763329 -24.035312 -18.653954 -22.93375 -18.653954 C -21.832187 -18.653954 -20.941562 -17.763329 -20.941562 -16.661766 Z M -20.941562 -16.661766 " transform="matrix(1,0,0,-1,26.34,30.18589)"/>
<g clip-path="url(#clip1)" clip-rule="nonzero">
<path style="fill:none;stroke-width:0.3985;stroke-linecap:butt;stroke-linejoin:miter;stroke:rgb(0%,0%,0%);stroke-opacity:1;stroke-miterlimit:10;" d="M -22.93375 -16.661766 L 8.761563 -26.958641 " transform="matrix(1,0,0,-1,26.34,30.18589)"/>
</g>
<path style=" stroke:none;fill-rule:nonzero;fill:rgb(0%,0%,0%);fill-opacity:1;" d="M 37.09375 57.144531 C 37.09375 56.046875 36.199219 55.152344 35.101562 55.152344 C 34 55.152344 33.105469 56.046875 33.105469 57.144531 C 33.105469 58.246094 34 59.136719 35.101562 59.136719 C 36.199219 59.136719 37.09375 58.246094 37.09375 57.144531 Z M 37.09375 57.144531 "/>
<g clip-path="url(#clip2)" clip-rule="nonzero">
<path style="fill:none;stroke-width:0.3985;stroke-linecap:butt;stroke-linejoin:miter;stroke:rgb(0%,0%,0%);stroke-opacity:1;stroke-miterlimit:10;" d="M 10.75375 -26.958641 C 10.75375 -25.860985 9.859219 -24.966454 8.761563 -24.966454 C 7.66 -24.966454 6.765469 -25.860985 6.765469 -26.958641 C 6.765469 -28.060204 7.66 -28.950829 8.761563 -28.950829 C 9.859219 -28.950829 10.75375 -28.060204 10.75375 -26.958641 Z M 10.75375 -26.958641 " transform="matrix(1,0,0,-1,26.34,30.18589)"/>
</g>
<g clip-path="url(#clip3)" clip-rule="nonzero">
<path style="fill:none;stroke-width:0.3985;stroke-linecap:butt;stroke-linejoin:miter;stroke:rgb(0%,0%,0%);stroke-opacity:1;stroke-miterlimit:10;" d="M 8.761563 -26.958641 L 28.3475 -0.00161 " transform="matrix(1,0,0,-1,26.34,30.18589)"/>
</g>
<path style=" stroke:none;fill-rule:nonzero;fill:rgb(0%,0%,0%);fill-opacity:1;" d="M 170.066406 30.1875 C 170.066406 29.085938 169.175781 28.191406 168.074219 28.191406 C 166.972656 28.191406 166.082031 29.085938 166.082031 30.1875 C 166.082031 31.285156 166.972656 32.179688 168.074219 32.179688 C 169.175781 32.179688 170.066406 31.285156 170.066406 30.1875 Z M 170.066406 30.1875 "/>
<g clip-path="url(#clip4)" clip-rule="nonzero">
<path style="fill:none;stroke-width:0.3985;stroke-linecap:butt;stroke-linejoin:miter;stroke:rgb(0%,0%,0%);stroke-opacity:1;stroke-miterlimit:10;" d="M 143.726406 -0.00161 C 143.726406 1.099952 142.835781 1.994484 141.734219 1.994484 C 140.632656 1.994484 139.742031 1.099952 139.742031 -0.00161 C 139.742031 -1.099266 140.632656 -1.993798 141.734219 -1.993798 C 142.835781 -1.993798 143.726406 -1.099266 143.726406 -0.00161 Z M 143.726406 -0.00161 " transform="matrix(1,0,0,-1,26.34,30.18589)"/>
</g>
<g clip-path="url(#clip5)" clip-rule="nonzero">
<path style="fill:none;stroke-width:0.3985;stroke-linecap:butt;stroke-linejoin:miter;stroke:rgb(0%,0%,0%);stroke-opacity:1;stroke-miterlimit:10;" d="M 141.734219 -0.00161 L 90.452969 16.662452 " transform="matrix(1,0,0,-1,26.34,30.18589)"/>
</g>
<path style="fill-rule:nonzero;fill:rgb(0%,0%,0%);fill-opacity:1;stroke-width:0.3985;stroke-linecap:butt;stroke-linejoin:miter;stroke:rgb(0%,0%,0%);stroke-opacity:1;stroke-miterlimit:10;" d="M 124.140469 26.959327 C 124.140469 28.06089 123.245938 28.951515 122.148281 28.951515 C 121.046719 28.951515 120.156094 28.06089 120.156094 26.959327 C 120.156094 25.857765 121.046719 24.96714 122.148281 24.96714 C 123.245938 24.96714 124.140469 25.857765 124.140469 26.959327 Z M 124.140469 26.959327 " transform="matrix(1,0,0,-1,26.34,30.18589)"/>
<path style="fill:none;stroke-width:0.3985;stroke-linecap:butt;stroke-linejoin:miter;stroke:rgb(0%,0%,0%);stroke-opacity:1;stroke-miterlimit:10;" d="M 122.148281 26.959327 L 90.452969 -16.661766 " transform="matrix(1,0,0,-1,26.34,30.18589)"/>
<path style="fill-rule:nonzero;fill:rgb(0%,0%,0%);fill-opacity:1;stroke-width:0.3985;stroke-linecap:butt;stroke-linejoin:miter;stroke:rgb(0%,0%,0%);stroke-opacity:1;stroke-miterlimit:10;" d="M 92.445156 16.662452 C 92.445156 17.764015 91.554531 18.65464 90.452969 18.65464 C 89.355313 18.65464 88.460781 17.764015 88.460781 16.662452 C 88.460781 15.56089 89.355313 14.670265 90.452969 14.670265 C 91.554531 14.670265 92.445156 15.56089 92.445156 16.662452 Z M 92.445156 16.662452 " transform="matrix(1,0,0,-1,26.34,30.18589)"/>
<g clip-path="url(#clip6)" clip-rule="nonzero">
<path style="fill:none;stroke-width:0.3985;stroke-linecap:butt;stroke-linejoin:miter;stroke:rgb(0%,0%,0%);stroke-opacity:1;stroke-miterlimit:10;" d="M 90.452969 16.662452 L 122.148281 -26.958641 " transform="matrix(1,0,0,-1,26.34,30.18589)"/>
</g>
<path style="fill-rule:nonzero;fill:rgb(0%,0%,0%);fill-opacity:1;stroke-width:0.3985;stroke-linecap:butt;stroke-linejoin:miter;stroke:rgb(0%,0%,0%);stroke-opacity:1;stroke-miterlimit:10;" d="M 92.445156 -16.661766 C 92.445156 -15.560204 91.554531 -14.669579 90.452969 -14.669579 C 89.355313 -14.669579 88.460781 -15.560204 88.460781 -16.661766 C 88.460781 -17.763329 89.355313 -18.653954 90.452969 -18.653954 C 91.554531 -18.653954 92.445156 -17.763329 92.445156 -16.661766 Z M 92.445156 -16.661766 " transform="matrix(1,0,0,-1,26.34,30.18589)"/>
<g clip-path="url(#clip7)" clip-rule="nonzero">
<path style="fill:none;stroke-width:0.3985;stroke-linecap:butt;stroke-linejoin:miter;stroke:rgb(0%,0%,0%);stroke-opacity:1;stroke-miterlimit:10;" d="M 90.452969 -16.661766 L 141.734219 -0.00161 " transform="matrix(1,0,0,-1,26.34,30.18589)"/>
</g>
<path style=" stroke:none;fill-rule:nonzero;fill:rgb(0%,0%,0%);fill-opacity:1;" d="M 150.480469 57.144531 C 150.480469 56.046875 149.585938 55.152344 148.488281 55.152344 C 147.386719 55.152344 146.496094 56.046875 146.496094 57.144531 C 146.496094 58.246094 147.386719 59.136719 148.488281 59.136719 C 149.585938 59.136719 150.480469 58.246094 150.480469 57.144531 Z M 150.480469 57.144531 "/>
<g clip-path="url(#clip8)" clip-rule="nonzero">
<path style="fill:none;stroke-width:0.3985;stroke-linecap:butt;stroke-linejoin:miter;stroke:rgb(0%,0%,0%);stroke-opacity:1;stroke-miterlimit:10;" d="M 124.140469 -26.958641 C 124.140469 -25.860985 123.245938 -24.966454 122.148281 -24.966454 C 121.046719 -24.966454 120.156094 -25.860985 120.156094 -26.958641 C 120.156094 -28.060204 121.046719 -28.950829 122.148281 -28.950829 C 123.245938 -28.950829 124.140469 -28.060204 124.140469 -26.958641 Z M 124.140469 -26.958641 " transform="matrix(1,0,0,-1,26.34,30.18589)"/>
</g>
<path style="fill:none;stroke-width:0.3985;stroke-linecap:butt;stroke-linejoin:miter;stroke:rgb(0%,0%,0%);stroke-opacity:1;stroke-miterlimit:10;" d="M 122.148281 -26.958641 L 122.148281 26.959327 " transform="matrix(1,0,0,-1,26.34,30.18589)"/>
</g>
</svg>
