<?xml version="1.0" encoding="UTF-8"?>
<svg xmlns="http://www.w3.org/2000/svg" xmlns:xlink="http://www.w3.org/1999/xlink" width="396.08" height="134" viewBox="0 0 396.08 134">
<defs>
<clipPath id="clip-0">
<path clip-rule="nonzero" d="M 385 38 L 396.078125 38 L 396.078125 54 L 385 54 Z M 385 38 "/>
</clipPath>
</defs>
<path fill-rule="nonzero" fill="rgb(0%, 0%, 0%)" fill-opacity="1" stroke-width="0.3985" stroke-linecap="butt" stroke-linejoin="miter" stroke="rgb(0%, 0%, 0%)" stroke-opacity="1" stroke-miterlimit="10" d="M 26.541094 -14.172938 C 26.541094 -13.071375 25.650469 -12.18075 24.548906 -12.18075 C 23.447344 -12.18075 22.556719 -13.071375 22.556719 -14.172938 C 22.556719 -15.2745 23.447344 -16.165125 24.548906 -16.165125 C 25.650469 -16.165125 26.541094 -15.2745 26.541094 -14.172938 Z M 26.541094 -14.172938 " transform="matrix(1, 0, 0, -1, 27.955, 31.538)"/>
<path fill-rule="nonzero" fill="rgb(0%, 0%, 0%)" fill-opacity="1" stroke-width="0.3985" stroke-linecap="butt" stroke-linejoin="miter" stroke="rgb(0%, 0%, 0%)" stroke-opacity="1" stroke-miterlimit="10" d="M 1.994219 28.346594 C 1.994219 29.448156 1.099688 30.338781 -0.001875 30.338781 C -1.099531 30.338781 -1.994062 29.448156 -1.994062 28.346594 C -1.994062 27.245031 -1.099531 26.354406 -0.001875 26.354406 C 1.099688 26.354406 1.994219 27.245031 1.994219 28.346594 Z M 1.994219 28.346594 " transform="matrix(1, 0, 0, -1, 27.955, 31.538)"/>
<path fill-rule="nonzero" fill="rgb(0%, 0%, 0%)" fill-opacity="1" stroke-width="0.3985" stroke-linecap="butt" stroke-linejoin="miter" stroke="rgb(0%, 0%, 0%)" stroke-opacity="1" stroke-miterlimit="10" d="M -22.556562 -14.172938 C -22.556562 -13.071375 -23.447187 -12.18075 -24.54875 -12.18075 C -25.650312 -12.18075 -26.540937 -13.071375 -26.540937 -14.172938 C -26.540937 -15.2745 -25.650312 -16.165125 -24.54875 -16.165125 C -23.447187 -16.165125 -22.556562 -15.2745 -22.556562 -14.172938 Z M -22.556562 -14.172938 " transform="matrix(1, 0, 0, -1, 27.955, 31.538)"/>
<path fill="none" stroke-width="0.3985" stroke-linecap="butt" stroke-linejoin="miter" stroke="rgb(0%, 0%, 0%)" stroke-opacity="1" stroke-miterlimit="10" d="M 24.548906 -14.172938 L -0.001875 28.346594 L -24.54875 -14.172938 Z M 24.548906 -14.172938 " transform="matrix(1, 0, 0, -1, 27.955, 31.538)"/>
<path fill-rule="nonzero" fill="rgb(0%, 0%, 0%)" fill-opacity="1" stroke-width="0.3985" stroke-linecap="butt" stroke-linejoin="miter" stroke="rgb(0%, 0%, 0%)" stroke-opacity="1" stroke-miterlimit="10" d="M 139.927813 -14.172938 C 139.927813 -13.071375 139.037188 -12.18075 137.935625 -12.18075 C 136.834063 -12.18075 135.943438 -13.071375 135.943438 -14.172938 C 135.943438 -15.2745 136.834063 -16.165125 137.935625 -16.165125 C 139.037188 -16.165125 139.927813 -15.2745 139.927813 -14.172938 Z M 139.927813 -14.172938 " transform="matrix(1, 0, 0, -1, 27.955, 31.538)"/>
<path fill-rule="nonzero" fill="rgb(0%, 0%, 0%)" fill-opacity="1" stroke-width="0.3985" stroke-linecap="butt" stroke-linejoin="miter" stroke="rgb(0%, 0%, 0%)" stroke-opacity="1" stroke-miterlimit="10" d="M 115.380938 28.346594 C 115.380938 29.448156 114.486406 30.338781 113.38875 30.338781 C 112.287188 30.338781 111.396563 29.448156 111.396563 28.346594 C 111.396563 27.245031 112.287188 26.354406 113.38875 26.354406 C 114.486406 26.354406 115.380938 27.245031 115.380938 28.346594 Z M 115.380938 28.346594 " transform="matrix(1, 0, 0, -1, 27.955, 31.538)"/>
<path fill-rule="nonzero" fill="rgb(0%, 0%, 0%)" fill-opacity="1" stroke-width="0.3985" stroke-linecap="butt" stroke-linejoin="miter" stroke="rgb(0%, 0%, 0%)" stroke-opacity="1" stroke-miterlimit="10" d="M 90.830156 -14.172938 C 90.830156 -13.071375 89.939531 -12.18075 88.837969 -12.18075 C 87.736406 -12.18075 86.845781 -13.071375 86.845781 -14.172938 C 86.845781 -15.2745 87.736406 -16.165125 88.837969 -16.165125 C 89.939531 -16.165125 90.830156 -15.2745 90.830156 -14.172938 Z M 90.830156 -14.172938 " transform="matrix(1, 0, 0, -1, 27.955, 31.538)"/>
<path fill="none" stroke-width="0.3985" stroke-linecap="butt" stroke-linejoin="miter" stroke="rgb(0%, 0%, 0%)" stroke-opacity="1" stroke-miterlimit="10" d="M 137.935625 -14.172938 L 113.38875 28.346594 L 88.837969 -14.172938 " transform="matrix(1, 0, 0, -1, 27.955, 31.538)"/>
<path fill-rule="nonzero" fill="rgb(0%, 0%, 0%)" fill-opacity="1" stroke-width="0.3985" stroke-linecap="butt" stroke-linejoin="miter" stroke="rgb(0%, 0%, 0%)" stroke-opacity="1" stroke-miterlimit="10" d="M 253.314531 -14.172938 C 253.314531 -13.071375 252.423906 -12.18075 251.322344 -12.18075 C 250.224688 -12.18075 249.330156 -13.071375 249.330156 -14.172938 C 249.330156 -15.2745 250.224688 -16.165125 251.322344 -16.165125 C 252.423906 -16.165125 253.314531 -15.2745 253.314531 -14.172938 Z M 253.314531 -14.172938 " transform="matrix(1, 0, 0, -1, 27.955, 31.538)"/>
<path fill-rule="nonzero" fill="rgb(0%, 0%, 0%)" fill-opacity="1" stroke-width="0.3985" stroke-linecap="butt" stroke-linejoin="miter" stroke="rgb(0%, 0%, 0%)" stroke-opacity="1" stroke-miterlimit="10" d="M 228.767656 28.346594 C 228.767656 29.448156 227.873125 30.338781 226.775469 30.338781 C 225.673906 30.338781 224.783281 29.448156 224.783281 28.346594 C 224.783281 27.245031 225.673906 26.354406 226.775469 26.354406 C 227.873125 26.354406 228.767656 27.245031 228.767656 28.346594 Z M 228.767656 28.346594 " transform="matrix(1, 0, 0, -1, 27.955, 31.538)"/>
<path fill-rule="nonzero" fill="rgb(0%, 0%, 0%)" fill-opacity="1" stroke-width="0.3985" stroke-linecap="butt" stroke-linejoin="miter" stroke="rgb(0%, 0%, 0%)" stroke-opacity="1" stroke-miterlimit="10" d="M 204.216875 -14.172938 C 204.216875 -13.071375 203.32625 -12.18075 202.224688 -12.18075 C 201.123125 -12.18075 200.2325 -13.071375 200.2325 -14.172938 C 200.2325 -15.2745 201.123125 -16.165125 202.224688 -16.165125 C 203.32625 -16.165125 204.216875 -15.2745 204.216875 -14.172938 Z M 204.216875 -14.172938 " transform="matrix(1, 0, 0, -1, 27.955, 31.538)"/>
<path fill="none" stroke-width="0.3985" stroke-linecap="butt" stroke-linejoin="miter" stroke="rgb(0%, 0%, 0%)" stroke-opacity="1" stroke-miterlimit="10" d="M 251.322344 -14.172938 L 226.775469 28.346594 " transform="matrix(1, 0, 0, -1, 27.955, 31.538)"/>
<path fill-rule="nonzero" fill="rgb(0%, 0%, 0%)" fill-opacity="1" d="M 394.660156 45.710938 C 394.660156 44.609375 393.765625 43.71875 392.664062 43.71875 C 391.566406 43.71875 390.671875 44.609375 390.671875 45.710938 C 390.671875 46.8125 391.566406 47.703125 392.664062 47.703125 C 393.765625 47.703125 394.660156 46.8125 394.660156 45.710938 Z M 394.660156 45.710938 "/>
<g clip-path="url(#clip-0)">
<path fill="none" stroke-width="0.3985" stroke-linecap="butt" stroke-linejoin="miter" stroke="rgb(0%, 0%, 0%)" stroke-opacity="1" stroke-miterlimit="10" d="M 366.705156 -14.172938 C 366.705156 -13.071375 365.810625 -12.18075 364.709063 -12.18075 C 363.611406 -12.18075 362.716875 -13.071375 362.716875 -14.172938 C 362.716875 -15.2745 363.611406 -16.165125 364.709063 -16.165125 C 365.810625 -16.165125 366.705156 -15.2745 366.705156 -14.172938 Z M 366.705156 -14.172938 " transform="matrix(1, 0, 0, -1, 27.955, 31.538)"/>
</g>
<path fill-rule="nonzero" fill="rgb(0%, 0%, 0%)" fill-opacity="1" stroke-width="0.3985" stroke-linecap="butt" stroke-linejoin="miter" stroke="rgb(0%, 0%, 0%)" stroke-opacity="1" stroke-miterlimit="10" d="M 342.154375 28.346594 C 342.154375 29.448156 341.26375 30.338781 340.162188 30.338781 C 339.060625 30.338781 338.17 29.448156 338.17 28.346594 C 338.17 27.245031 339.060625 26.354406 340.162188 26.354406 C 341.26375 26.354406 342.154375 27.245031 342.154375 28.346594 Z M 342.154375 28.346594 " transform="matrix(1, 0, 0, -1, 27.955, 31.538)"/>
<path fill-rule="nonzero" fill="rgb(0%, 0%, 0%)" fill-opacity="1" stroke-width="0.3985" stroke-linecap="butt" stroke-linejoin="miter" stroke="rgb(0%, 0%, 0%)" stroke-opacity="1" stroke-miterlimit="10" d="M 317.603594 -14.172938 C 317.603594 -13.071375 316.712969 -12.18075 315.611406 -12.18075 C 314.51375 -12.18075 313.619219 -13.071375 313.619219 -14.172938 C 313.619219 -15.2745 314.51375 -16.165125 315.611406 -16.165125 C 316.712969 -16.165125 317.603594 -15.2745 317.603594 -14.172938 Z M 317.603594 -14.172938 " transform="matrix(1, 0, 0, -1, 27.955, 31.538)"/>
<path fill-rule="nonzero" fill="rgb(0%, 0%, 0%)" fill-opacity="1" stroke-width="0.3985" stroke-linecap="butt" stroke-linejoin="miter" stroke="rgb(0%, 0%, 0%)" stroke-opacity="1" stroke-miterlimit="10" d="M 26.541094 -99.212 C 26.541094 -98.114344 25.650469 -97.219813 24.548906 -97.219813 C 23.447344 -97.219813 22.556719 -98.114344 22.556719 -99.212 C 22.556719 -100.313563 23.447344 -101.208094 24.548906 -101.208094 C 25.650469 -101.208094 26.541094 -100.313563 26.541094 -99.212 Z M 26.541094 -99.212 " transform="matrix(1, 0, 0, -1, 27.955, 31.538)"/>
<path fill-rule="nonzero" fill="rgb(0%, 0%, 0%)" fill-opacity="1" stroke-width="0.3985" stroke-linecap="butt" stroke-linejoin="miter" stroke="rgb(0%, 0%, 0%)" stroke-opacity="1" stroke-miterlimit="10" d="M 1.994219 -56.692469 C 1.994219 -55.594813 1.099688 -54.700281 -0.001875 -54.700281 C -1.099531 -54.700281 -1.994062 -55.594813 -1.994062 -56.692469 C -1.994062 -57.794031 -1.099531 -58.684656 -0.001875 -58.684656 C 1.099688 -58.684656 1.994219 -57.794031 1.994219 -56.692469 Z M 1.994219 -56.692469 " transform="matrix(1, 0, 0, -1, 27.955, 31.538)"/>
<path fill="none" stroke-width="0.3985" stroke-linecap="butt" stroke-linejoin="miter" stroke="rgb(0%, 0%, 0%)" stroke-opacity="1" stroke-miterlimit="10" d="M 24.548906 -99.212 L -0.001875 -56.692469 " transform="matrix(1, 0, 0, -1, 27.955, 31.538)"/>
<path fill-rule="nonzero" fill="rgb(0%, 0%, 0%)" fill-opacity="1" stroke-width="0.3985" stroke-linecap="butt" stroke-linejoin="miter" stroke="rgb(0%, 0%, 0%)" stroke-opacity="1" stroke-miterlimit="10" d="M 139.927813 -99.212 C 139.927813 -98.114344 139.037188 -97.219813 137.935625 -97.219813 C 136.834063 -97.219813 135.943438 -98.114344 135.943438 -99.212 C 135.943438 -100.313563 136.834063 -101.208094 137.935625 -101.208094 C 139.037188 -101.208094 139.927813 -100.313563 139.927813 -99.212 Z M 139.927813 -99.212 " transform="matrix(1, 0, 0, -1, 27.955, 31.538)"/>
<path fill-rule="nonzero" fill="rgb(0%, 0%, 0%)" fill-opacity="1" stroke-width="0.3985" stroke-linecap="butt" stroke-linejoin="miter" stroke="rgb(0%, 0%, 0%)" stroke-opacity="1" stroke-miterlimit="10" d="M 115.380938 -56.692469 C 115.380938 -55.594813 114.486406 -54.700281 113.38875 -54.700281 C 112.287188 -54.700281 111.396563 -55.594813 111.396563 -56.692469 C 111.396563 -57.794031 112.287188 -58.684656 113.38875 -58.684656 C 114.486406 -58.684656 115.380938 -57.794031 115.380938 -56.692469 Z M 115.380938 -56.692469 " transform="matrix(1, 0, 0, -1, 27.955, 31.538)"/>
<path fill-rule="nonzero" fill="rgb(0%, 0%, 0%)" fill-opacity="1" stroke-width="0.3985" stroke-linecap="butt" stroke-linejoin="miter" stroke="rgb(0%, 0%, 0%)" stroke-opacity="1" stroke-miterlimit="10" d="M 228.767656 -85.040125 C 228.767656 -83.938563 227.873125 -83.047938 226.775469 -83.047938 C 225.673906 -83.047938 224.783281 -83.938563 224.783281 -85.040125 C 224.783281 -86.141688 225.673906 -87.032313 226.775469 -87.032313 C 227.873125 -87.032313 228.767656 -86.141688 228.767656 -85.040125 Z M 228.767656 -85.040125 " transform="matrix(1, 0, 0, -1, 27.955, 31.538)"/>
</svg>
