<?xml version="1.0" encoding="UTF-8"?>
<svg xmlns="http://www.w3.org/2000/svg" xmlns:xlink="http://www.w3.org/1999/xlink" width="286.16" height="115.76" viewBox="0 0 286.16 115.76">
<defs>
<clipPath id="clip-0">
<path clip-rule="nonzero" d="M 227 0 L 229 0 L 229 115.761719 L 227 115.761719 Z M 227 0 "/>
</clipPath>
</defs>
<path fill="none" stroke-width="0.3985" stroke-linecap="butt" stroke-linejoin="miter" stroke="rgb(0%, 0%, 0%)" stroke-opacity="1" stroke-miterlimit="10" d="M 0.0000625 0.00009375 L 113.386781 0.00009375 " transform="matrix(1, 0, 0, -1, 1.414, 114.504)"/>
<path fill="none" stroke-width="0.3985" stroke-linecap="butt" stroke-linejoin="miter" stroke="rgb(0%, 0%, 0%)" stroke-opacity="1" stroke-miterlimit="10" d="M 0.0000625 0.00009375 L 0.0000625 113.386812 " transform="matrix(1, 0, 0, -1, 1.414, 114.504)"/>
<path fill="none" stroke-width="0.3985" stroke-linecap="butt" stroke-linejoin="miter" stroke="rgb(0%, 0%, 0%)" stroke-opacity="1" stroke-miterlimit="10" d="M 0.0000625 14.171969 L 113.386781 14.171969 " transform="matrix(1, 0, 0, -1, 1.414, 114.504)"/>
<path fill="none" stroke-width="0.3985" stroke-linecap="butt" stroke-linejoin="miter" stroke="rgb(0%, 0%, 0%)" stroke-opacity="1" stroke-miterlimit="10" d="M 14.171938 0.00009375 L 14.171938 113.386812 " transform="matrix(1, 0, 0, -1, 1.414, 114.504)"/>
<path fill="none" stroke-width="0.3985" stroke-linecap="butt" stroke-linejoin="miter" stroke="rgb(0%, 0%, 0%)" stroke-opacity="1" stroke-miterlimit="10" d="M 0.0000625 28.34775 L 113.386781 28.34775 " transform="matrix(1, 0, 0, -1, 1.414, 114.504)"/>
<path fill="none" stroke-width="0.3985" stroke-linecap="butt" stroke-linejoin="miter" stroke="rgb(0%, 0%, 0%)" stroke-opacity="1" stroke-miterlimit="10" d="M 28.347719 0.00009375 L 28.347719 113.386812 " transform="matrix(1, 0, 0, -1, 1.414, 114.504)"/>
<path fill="none" stroke-width="0.3985" stroke-linecap="butt" stroke-linejoin="miter" stroke="rgb(0%, 0%, 0%)" stroke-opacity="1" stroke-miterlimit="10" d="M 0.0000625 42.519625 L 113.386781 42.519625 " transform="matrix(1, 0, 0, -1, 1.414, 114.504)"/>
<path fill="none" stroke-width="0.3985" stroke-linecap="butt" stroke-linejoin="miter" stroke="rgb(0%, 0%, 0%)" stroke-opacity="1" stroke-miterlimit="10" d="M 42.519594 0.00009375 L 42.519594 113.386812 " transform="matrix(1, 0, 0, -1, 1.414, 114.504)"/>
<path fill="none" stroke-width="0.3985" stroke-linecap="butt" stroke-linejoin="miter" stroke="rgb(0%, 0%, 0%)" stroke-opacity="1" stroke-miterlimit="10" d="M 0.0000625 56.695406 L 113.386781 56.695406 " transform="matrix(1, 0, 0, -1, 1.414, 114.504)"/>
<path fill="none" stroke-width="0.3985" stroke-linecap="butt" stroke-linejoin="miter" stroke="rgb(0%, 0%, 0%)" stroke-opacity="1" stroke-miterlimit="10" d="M 56.695375 0.00009375 L 56.695375 113.386812 " transform="matrix(1, 0, 0, -1, 1.414, 114.504)"/>
<path fill="none" stroke-width="0.3985" stroke-linecap="butt" stroke-linejoin="miter" stroke="rgb(0%, 0%, 0%)" stroke-opacity="1" stroke-miterlimit="10" d="M 0.0000625 70.867281 L 113.386781 70.867281 " transform="matrix(1, 0, 0, -1, 1.414, 114.504)"/>
<path fill="none" stroke-width="0.3985" stroke-linecap="butt" stroke-linejoin="miter" stroke="rgb(0%, 0%, 0%)" stroke-opacity="1" stroke-miterlimit="10" d="M 70.86725 0.00009375 L 70.86725 113.386812 " transform="matrix(1, 0, 0, -1, 1.414, 114.504)"/>
<path fill="none" stroke-width="0.3985" stroke-linecap="butt" stroke-linejoin="miter" stroke="rgb(0%, 0%, 0%)" stroke-opacity="1" stroke-miterlimit="10" d="M 0.0000625 85.039156 L 113.386781 85.039156 " transform="matrix(1, 0, 0, -1, 1.414, 114.504)"/>
<path fill="none" stroke-width="0.3985" stroke-linecap="butt" stroke-linejoin="miter" stroke="rgb(0%, 0%, 0%)" stroke-opacity="1" stroke-miterlimit="10" d="M 85.039125 0.00009375 L 85.039125 113.386812 " transform="matrix(1, 0, 0, -1, 1.414, 114.504)"/>
<path fill="none" stroke-width="0.3985" stroke-linecap="butt" stroke-linejoin="miter" stroke="rgb(0%, 0%, 0%)" stroke-opacity="1" stroke-miterlimit="10" d="M 0.0000625 99.214937 L 113.386781 99.214937 " transform="matrix(1, 0, 0, -1, 1.414, 114.504)"/>
<path fill="none" stroke-width="0.3985" stroke-linecap="butt" stroke-linejoin="miter" stroke="rgb(0%, 0%, 0%)" stroke-opacity="1" stroke-miterlimit="10" d="M 99.214906 0.00009375 L 99.214906 113.386812 " transform="matrix(1, 0, 0, -1, 1.414, 114.504)"/>
<path fill="none" stroke-width="0.3985" stroke-linecap="butt" stroke-linejoin="miter" stroke="rgb(0%, 0%, 0%)" stroke-opacity="1" stroke-miterlimit="10" d="M 0.0000625 113.386812 L 113.386781 113.386812 " transform="matrix(1, 0, 0, -1, 1.414, 114.504)"/>
<path fill="none" stroke-width="0.3985" stroke-linecap="butt" stroke-linejoin="miter" stroke="rgb(0%, 0%, 0%)" stroke-opacity="1" stroke-miterlimit="10" d="M 113.386781 0.00009375 L 113.386781 113.386812 " transform="matrix(1, 0, 0, -1, 1.414, 114.504)"/>
<path fill-rule="nonzero" fill="rgb(0%, 0%, 0%)" fill-opacity="1" d="M 86.453125 86.15625 L 86.453125 71.984375 L 100.628906 71.984375 L 100.628906 86.15625 Z M 86.453125 86.15625 "/>
<path fill-rule="nonzero" fill="rgb(50%, 50%, 50%)" fill-opacity="1" d="M 214.015625 71.984375 L 228.1875 71.984375 L 228.1875 57.808594 L 242.363281 57.808594 L 242.363281 43.636719 L 214.015625 43.636719 Z M 214.015625 71.984375 "/>
<path fill="none" stroke-width="0.3985" stroke-linecap="butt" stroke-linejoin="miter" stroke="rgb(0%, 0%, 0%)" stroke-opacity="1" stroke-miterlimit="10" d="M 170.082094 0.00009375 L 283.468813 0.00009375 " transform="matrix(1, 0, 0, -1, 1.414, 114.504)"/>
<path fill="none" stroke-width="0.3985" stroke-linecap="butt" stroke-linejoin="miter" stroke="rgb(0%, 0%, 0%)" stroke-opacity="1" stroke-miterlimit="10" d="M 170.082094 0.00009375 L 170.082094 113.386812 " transform="matrix(1, 0, 0, -1, 1.414, 114.504)"/>
<path fill="none" stroke-width="0.3985" stroke-linecap="butt" stroke-linejoin="miter" stroke="rgb(0%, 0%, 0%)" stroke-opacity="1" stroke-miterlimit="10" d="M 170.082094 14.171969 L 283.468813 14.171969 " transform="matrix(1, 0, 0, -1, 1.414, 114.504)"/>
<path fill="none" stroke-width="0.3985" stroke-linecap="butt" stroke-linejoin="miter" stroke="rgb(0%, 0%, 0%)" stroke-opacity="1" stroke-miterlimit="10" d="M 184.253969 0.00009375 L 184.253969 113.386812 " transform="matrix(1, 0, 0, -1, 1.414, 114.504)"/>
<path fill="none" stroke-width="0.3985" stroke-linecap="butt" stroke-linejoin="miter" stroke="rgb(0%, 0%, 0%)" stroke-opacity="1" stroke-miterlimit="10" d="M 170.082094 28.34775 L 283.468813 28.34775 " transform="matrix(1, 0, 0, -1, 1.414, 114.504)"/>
<path fill="none" stroke-width="0.3985" stroke-linecap="butt" stroke-linejoin="miter" stroke="rgb(0%, 0%, 0%)" stroke-opacity="1" stroke-miterlimit="10" d="M 198.425844 0.00009375 L 198.425844 113.386812 " transform="matrix(1, 0, 0, -1, 1.414, 114.504)"/>
<path fill="none" stroke-width="0.3985" stroke-linecap="butt" stroke-linejoin="miter" stroke="rgb(0%, 0%, 0%)" stroke-opacity="1" stroke-miterlimit="10" d="M 170.082094 42.519625 L 283.468813 42.519625 " transform="matrix(1, 0, 0, -1, 1.414, 114.504)"/>
<path fill="none" stroke-width="0.3985" stroke-linecap="butt" stroke-linejoin="miter" stroke="rgb(0%, 0%, 0%)" stroke-opacity="1" stroke-miterlimit="10" d="M 212.601625 0.00009375 L 212.601625 113.386812 " transform="matrix(1, 0, 0, -1, 1.414, 114.504)"/>
<path fill="none" stroke-width="0.3985" stroke-linecap="butt" stroke-linejoin="miter" stroke="rgb(0%, 0%, 0%)" stroke-opacity="1" stroke-miterlimit="10" d="M 170.082094 56.695406 L 283.468813 56.695406 " transform="matrix(1, 0, 0, -1, 1.414, 114.504)"/>
<path fill="none" stroke-width="0.3985" stroke-linecap="butt" stroke-linejoin="miter" stroke="rgb(0%, 0%, 0%)" stroke-opacity="1" stroke-miterlimit="10" d="M 226.7735 0.00009375 L 226.7735 113.386812 " transform="matrix(1, 0, 0, -1, 1.414, 114.504)"/>
<path fill="none" stroke-width="0.3985" stroke-linecap="butt" stroke-linejoin="miter" stroke="rgb(0%, 0%, 0%)" stroke-opacity="1" stroke-miterlimit="10" d="M 170.082094 70.867281 L 283.468813 70.867281 " transform="matrix(1, 0, 0, -1, 1.414, 114.504)"/>
<path fill="none" stroke-width="0.3985" stroke-linecap="butt" stroke-linejoin="miter" stroke="rgb(0%, 0%, 0%)" stroke-opacity="1" stroke-miterlimit="10" d="M 240.949281 0.00009375 L 240.949281 113.386812 " transform="matrix(1, 0, 0, -1, 1.414, 114.504)"/>
<path fill="none" stroke-width="0.3985" stroke-linecap="butt" stroke-linejoin="miter" stroke="rgb(0%, 0%, 0%)" stroke-opacity="1" stroke-miterlimit="10" d="M 170.082094 85.039156 L 283.468813 85.039156 " transform="matrix(1, 0, 0, -1, 1.414, 114.504)"/>
<path fill="none" stroke-width="0.3985" stroke-linecap="butt" stroke-linejoin="miter" stroke="rgb(0%, 0%, 0%)" stroke-opacity="1" stroke-miterlimit="10" d="M 255.121156 0.00009375 L 255.121156 113.386812 " transform="matrix(1, 0, 0, -1, 1.414, 114.504)"/>
<path fill="none" stroke-width="0.3985" stroke-linecap="butt" stroke-linejoin="miter" stroke="rgb(0%, 0%, 0%)" stroke-opacity="1" stroke-miterlimit="10" d="M 170.082094 99.214937 L 283.468813 99.214937 " transform="matrix(1, 0, 0, -1, 1.414, 114.504)"/>
<path fill="none" stroke-width="0.3985" stroke-linecap="butt" stroke-linejoin="miter" stroke="rgb(0%, 0%, 0%)" stroke-opacity="1" stroke-miterlimit="10" d="M 269.293031 0.00009375 L 269.293031 113.386812 " transform="matrix(1, 0, 0, -1, 1.414, 114.504)"/>
<path fill="none" stroke-width="0.3985" stroke-linecap="butt" stroke-linejoin="miter" stroke="rgb(0%, 0%, 0%)" stroke-opacity="1" stroke-miterlimit="10" d="M 170.082094 113.386812 L 283.468813 113.386812 " transform="matrix(1, 0, 0, -1, 1.414, 114.504)"/>
<path fill="none" stroke-width="0.3985" stroke-linecap="butt" stroke-linejoin="miter" stroke="rgb(0%, 0%, 0%)" stroke-opacity="1" stroke-miterlimit="10" d="M 283.468813 0.00009375 L 283.468813 113.386812 " transform="matrix(1, 0, 0, -1, 1.414, 114.504)"/>
<path fill-rule="nonzero" fill="rgb(0%, 0%, 0%)" fill-opacity="1" d="M 256.535156 86.15625 L 256.535156 71.984375 L 270.707031 71.984375 L 270.707031 86.15625 Z M 256.535156 86.15625 "/>
<g clip-path="url(#clip-0)">
<path fill="none" stroke-width="1.19553" stroke-linecap="butt" stroke-linejoin="miter" stroke="rgb(0%, 0%, 0%)" stroke-opacity="1" stroke-miterlimit="10" d="M 226.7735 0.00009375 L 226.7735 113.386812 " transform="matrix(1, 0, 0, -1, 1.414, 114.504)"/>
</g>
<path fill="none" stroke-width="1.19553" stroke-linecap="butt" stroke-linejoin="miter" stroke="rgb(0%, 0%, 0%)" stroke-opacity="1" stroke-miterlimit="10" d="M 170.082094 56.695406 L 283.468813 56.695406 " transform="matrix(1, 0, 0, -1, 1.414, 114.504)"/>
</svg>
