<?xml version="1.0" encoding="UTF-8"?>
<svg xmlns="http://www.w3.org/2000/svg" xmlns:xlink="http://www.w3.org/1999/xlink" width="74.96" height="74.96" viewBox="0 0 74.96 74.96">
<path fill="none" stroke-width="0.3985" stroke-linecap="butt" stroke-linejoin="miter" stroke="rgb(0%, 0%, 0%)" stroke-opacity="1" stroke-miterlimit="10" d="M 0.0000625 -0.001375 L 72.285219 -0.001375 L 72.285219 72.283781 L 0.0000625 72.283781 Z M 0.0000625 -0.001375 " transform="matrix(1, 0, 0, -1, 1.414, 73.483)"/>
<path fill="none" stroke-width="0.3985" stroke-linecap="butt" stroke-linejoin="miter" stroke="rgb(0%, 0%, 0%)" stroke-opacity="1" stroke-miterlimit="10" d="M 48.191469 -0.001375 L 48.191469 72.283781 " transform="matrix(1, 0, 0, -1, 1.414, 73.483)"/>
<path fill="none" stroke-width="0.3985" stroke-linecap="butt" stroke-linejoin="miter" stroke="rgb(0%, 0%, 0%)" stroke-opacity="1" stroke-miterlimit="10" d="M 48.191469 24.096281 L 72.285219 24.096281 " transform="matrix(1, 0, 0, -1, 1.414, 73.483)"/>
<path fill="none" stroke-width="0.3985" stroke-linecap="butt" stroke-linejoin="miter" stroke="rgb(0%, 0%, 0%)" stroke-opacity="1" stroke-miterlimit="10" d="M 48.191469 48.190031 L 72.285219 48.190031 " transform="matrix(1, 0, 0, -1, 1.414, 73.483)"/>
<path fill="none" stroke-width="0.3985" stroke-linecap="butt" stroke-linejoin="miter" stroke="rgb(0%, 0%, 0%)" stroke-opacity="1" stroke-miterlimit="10" d="M 24.093813 48.190031 L 24.093813 72.283781 " transform="matrix(1, 0, 0, -1, 1.414, 73.483)"/>
<path fill="none" stroke-width="0.3985" stroke-linecap="butt" stroke-linejoin="miter" stroke="rgb(0%, 0%, 0%)" stroke-opacity="1" stroke-miterlimit="10" d="M 0.0000625 48.190031 L 48.191469 48.190031 " transform="matrix(1, 0, 0, -1, 1.414, 73.483)"/>
</svg>
