<?xml version="1.0" encoding="UTF-8"?>
<svg xmlns="http://www.w3.org/2000/svg" xmlns:xlink="http://www.w3.org/1999/xlink" width="176.72" height="34.64" viewBox="0 0 176.72 34.64">
<defs>
<clipPath id="clip-0">
<path clip-rule="nonzero" d="M 0 23 L 12 23 L 12 34.640625 L 0 34.640625 Z M 0 23 "/>
</clipPath>
<clipPath id="clip-1">
<path clip-rule="nonzero" d="M 24 23 L 40 23 L 40 34.640625 L 24 34.640625 Z M 24 23 "/>
</clipPath>
<clipPath id="clip-2">
<path clip-rule="nonzero" d="M 52 23 L 68 23 L 68 34.640625 L 52 34.640625 Z M 52 23 "/>
</clipPath>
<clipPath id="clip-3">
<path clip-rule="nonzero" d="M 80 23 L 97 23 L 97 34.640625 L 80 34.640625 Z M 80 23 "/>
</clipPath>
<clipPath id="clip-4">
<path clip-rule="nonzero" d="M 137 23 L 153 23 L 153 34.640625 L 137 34.640625 Z M 137 23 "/>
</clipPath>
<clipPath id="clip-5">
<path clip-rule="nonzero" d="M 165 23 L 176.71875 23 L 176.71875 34.640625 L 165 34.640625 Z M 165 23 "/>
</clipPath>
<clipPath id="clip-6">
<path clip-rule="nonzero" d="M 109 23 L 125 23 L 125 34.640625 L 109 34.640625 Z M 109 23 "/>
</clipPath>
</defs>
<path fill-rule="nonzero" fill="rgb(0%, 0%, 0%)" fill-opacity="1" d="M 5.398438 31.539062 C 5.398438 30.4375 4.507812 29.546875 3.40625 29.546875 C 2.304688 29.546875 1.414062 30.4375 1.414062 31.539062 C 1.414062 32.636719 2.304688 33.53125 3.40625 33.53125 C 4.507812 33.53125 5.398438 32.636719 5.398438 31.539062 Z M 5.398438 31.539062 "/>
<g clip-path="url(#clip-0)">
<path fill="none" stroke-width="0.3985" stroke-linecap="butt" stroke-linejoin="miter" stroke="rgb(0%, 0%, 0%)" stroke-opacity="1" stroke-miterlimit="10" d="M 1.991438 -0.0010625 C 1.991438 1.1005 1.100813 1.991125 -0.00075 1.991125 C -1.102312 1.991125 -1.992937 1.1005 -1.992937 -0.0010625 C -1.992937 -1.098719 -1.102312 -1.99325 -0.00075 -1.99325 C 1.100813 -1.99325 1.991438 -1.098719 1.991438 -0.0010625 Z M 1.991438 -0.0010625 " transform="matrix(1, 0, 0, -1, 3.407, 31.538)"/>
</g>
<path fill-rule="nonzero" fill="rgb(0%, 0%, 0%)" fill-opacity="1" d="M 33.746094 31.539062 C 33.746094 30.4375 32.855469 29.546875 31.753906 29.546875 C 30.652344 29.546875 29.761719 30.4375 29.761719 31.539062 C 29.761719 32.636719 30.652344 33.53125 31.753906 33.53125 C 32.855469 33.53125 33.746094 32.636719 33.746094 31.539062 Z M 33.746094 31.539062 "/>
<g clip-path="url(#clip-1)">
<path fill="none" stroke-width="0.3985" stroke-linecap="butt" stroke-linejoin="miter" stroke="rgb(0%, 0%, 0%)" stroke-opacity="1" stroke-miterlimit="10" d="M 30.339094 -0.0010625 C 30.339094 1.1005 29.448469 1.991125 28.346906 1.991125 C 27.245344 1.991125 26.354719 1.1005 26.354719 -0.0010625 C 26.354719 -1.098719 27.245344 -1.99325 28.346906 -1.99325 C 29.448469 -1.99325 30.339094 -1.098719 30.339094 -0.0010625 Z M 30.339094 -0.0010625 " transform="matrix(1, 0, 0, -1, 3.407, 31.538)"/>
</g>
<path fill-rule="nonzero" fill="rgb(0%, 0%, 0%)" fill-opacity="1" d="M 62.09375 31.539062 C 62.09375 30.4375 61.199219 29.546875 60.101562 29.546875 C 59 29.546875 58.109375 30.4375 58.109375 31.539062 C 58.109375 32.636719 59 33.53125 60.101562 33.53125 C 61.199219 33.53125 62.09375 32.636719 62.09375 31.539062 Z M 62.09375 31.539062 "/>
<g clip-path="url(#clip-2)">
<path fill="none" stroke-width="0.3985" stroke-linecap="butt" stroke-linejoin="miter" stroke="rgb(0%, 0%, 0%)" stroke-opacity="1" stroke-miterlimit="10" d="M 58.68675 -0.0010625 C 58.68675 1.1005 57.792219 1.991125 56.694563 1.991125 C 55.593 1.991125 54.702375 1.1005 54.702375 -0.0010625 C 54.702375 -1.098719 55.593 -1.99325 56.694563 -1.99325 C 57.792219 -1.99325 58.68675 -1.098719 58.68675 -0.0010625 Z M 58.68675 -0.0010625 " transform="matrix(1, 0, 0, -1, 3.407, 31.538)"/>
</g>
<path fill-rule="nonzero" fill="rgb(0%, 0%, 0%)" fill-opacity="1" d="M 90.441406 31.539062 C 90.441406 30.4375 89.546875 29.546875 88.449219 29.546875 C 87.347656 29.546875 86.453125 30.4375 86.453125 31.539062 C 86.453125 32.636719 87.347656 33.53125 88.449219 33.53125 C 89.546875 33.53125 90.441406 32.636719 90.441406 31.539062 Z M 90.441406 31.539062 "/>
<g clip-path="url(#clip-3)">
<path fill="none" stroke-width="0.3985" stroke-linecap="butt" stroke-linejoin="miter" stroke="rgb(0%, 0%, 0%)" stroke-opacity="1" stroke-miterlimit="10" d="M 87.034406 -0.0010625 C 87.034406 1.1005 86.139875 1.991125 85.042219 1.991125 C 83.940656 1.991125 83.046125 1.1005 83.046125 -0.0010625 C 83.046125 -1.098719 83.940656 -1.99325 85.042219 -1.99325 C 86.139875 -1.99325 87.034406 -1.098719 87.034406 -0.0010625 Z M 87.034406 -0.0010625 " transform="matrix(1, 0, 0, -1, 3.407, 31.538)"/>
</g>
<path fill="none" stroke-width="0.3985" stroke-linecap="butt" stroke-linejoin="miter" stroke="rgb(0%, 0%, 0%)" stroke-opacity="1" stroke-miterlimit="10" d="M -0.00075 -0.0010625 L 85.042219 -0.0010625 " transform="matrix(1, 0, 0, -1, 3.407, 31.538)"/>
<path fill-rule="nonzero" fill="rgb(0%, 0%, 0%)" fill-opacity="1" d="M 147.132812 31.539062 C 147.132812 30.4375 146.242188 29.546875 145.140625 29.546875 C 144.039062 29.546875 143.148438 30.4375 143.148438 31.539062 C 143.148438 32.636719 144.039062 33.53125 145.140625 33.53125 C 146.242188 33.53125 147.132812 32.636719 147.132812 31.539062 Z M 147.132812 31.539062 "/>
<g clip-path="url(#clip-4)">
<path fill="none" stroke-width="0.3985" stroke-linecap="butt" stroke-linejoin="miter" stroke="rgb(0%, 0%, 0%)" stroke-opacity="1" stroke-miterlimit="10" d="M 143.725813 -0.0010625 C 143.725813 1.1005 142.835188 1.991125 141.733625 1.991125 C 140.632063 1.991125 139.741438 1.1005 139.741438 -0.0010625 C 139.741438 -1.098719 140.632063 -1.99325 141.733625 -1.99325 C 142.835188 -1.99325 143.725813 -1.098719 143.725813 -0.0010625 Z M 143.725813 -0.0010625 " transform="matrix(1, 0, 0, -1, 3.407, 31.538)"/>
</g>
<path fill-rule="nonzero" fill="rgb(0%, 0%, 0%)" fill-opacity="1" d="M 175.480469 31.539062 C 175.480469 30.4375 174.589844 29.546875 173.488281 29.546875 C 172.386719 29.546875 171.496094 30.4375 171.496094 31.539062 C 171.496094 32.636719 172.386719 33.53125 173.488281 33.53125 C 174.589844 33.53125 175.480469 32.636719 175.480469 31.539062 Z M 175.480469 31.539062 "/>
<g clip-path="url(#clip-5)">
<path fill="none" stroke-width="0.3985" stroke-linecap="butt" stroke-linejoin="miter" stroke="rgb(0%, 0%, 0%)" stroke-opacity="1" stroke-miterlimit="10" d="M 172.073469 -0.0010625 C 172.073469 1.1005 171.182844 1.991125 170.081281 1.991125 C 168.979719 1.991125 168.089094 1.1005 168.089094 -0.0010625 C 168.089094 -1.098719 168.979719 -1.99325 170.081281 -1.99325 C 171.182844 -1.99325 172.073469 -1.098719 172.073469 -0.0010625 Z M 172.073469 -0.0010625 " transform="matrix(1, 0, 0, -1, 3.407, 31.538)"/>
</g>
<path fill-rule="nonzero" fill="rgb(0%, 0%, 0%)" fill-opacity="1" d="M 118.785156 31.539062 C 118.785156 30.4375 117.894531 29.546875 116.792969 29.546875 C 115.695312 29.546875 114.800781 30.4375 114.800781 31.539062 C 114.800781 32.636719 115.695312 33.53125 116.792969 33.53125 C 117.894531 33.53125 118.785156 32.636719 118.785156 31.539062 Z M 118.785156 31.539062 "/>
<g clip-path="url(#clip-6)">
<path fill="none" stroke-width="0.3985" stroke-linecap="butt" stroke-linejoin="miter" stroke="rgb(0%, 0%, 0%)" stroke-opacity="1" stroke-miterlimit="10" d="M 115.378156 -0.0010625 C 115.378156 1.1005 114.487531 1.991125 113.385969 1.991125 C 112.288313 1.991125 111.393781 1.1005 111.393781 -0.0010625 C 111.393781 -1.098719 112.288313 -1.99325 113.385969 -1.99325 C 114.487531 -1.99325 115.378156 -1.098719 115.378156 -0.0010625 Z M 115.378156 -0.0010625 " transform="matrix(1, 0, 0, -1, 3.407, 31.538)"/>
</g>
<path fill-rule="nonzero" fill="rgb(0%, 0%, 0%)" fill-opacity="1" stroke-width="0.3985" stroke-linecap="butt" stroke-linejoin="miter" stroke="rgb(0%, 0%, 0%)" stroke-opacity="1" stroke-miterlimit="10" d="M 143.725813 28.346594 C 143.725813 29.448156 142.835188 30.338781 141.733625 30.338781 C 140.632063 30.338781 139.741438 29.448156 139.741438 28.346594 C 139.741438 27.245031 140.632063 26.354406 141.733625 26.354406 C 142.835188 26.354406 143.725813 27.245031 143.725813 28.346594 Z M 143.725813 28.346594 " transform="matrix(1, 0, 0, -1, 3.407, 31.538)"/>
<path fill="none" stroke-width="0.3985" stroke-linecap="butt" stroke-linejoin="miter" stroke="rgb(0%, 0%, 0%)" stroke-opacity="1" stroke-miterlimit="10" d="M 113.385969 -0.0010625 L 170.081281 -0.0010625 " transform="matrix(1, 0, 0, -1, 3.407, 31.538)"/>
<path fill="none" stroke-width="0.3985" stroke-linecap="butt" stroke-linejoin="miter" stroke="rgb(0%, 0%, 0%)" stroke-opacity="1" stroke-miterlimit="10" d="M 141.733625 -0.0010625 L 141.733625 28.346594 " transform="matrix(1, 0, 0, -1, 3.407, 31.538)"/>
</svg>
