<?xml version="1.0" encoding="UTF-8"?>
<svg xmlns="http://www.w3.org/2000/svg" xmlns:xlink="http://www.w3.org/1999/xlink" width="116.24" height="115.76" viewBox="0 0 116.24 115.76">
<defs>
<clipPath id="clip-0">
<path clip-rule="nonzero" d="M 57 0 L 59 0 L 59 115.761719 L 57 115.761719 Z M 57 0 "/>
</clipPath>
</defs>
<path fill-rule="nonzero" fill="rgb(50%, 50%, 50%)" fill-opacity="1" d="M 43.851562 71.984375 L 58.027344 71.984375 L 58.027344 57.808594 L 72.199219 57.808594 L 72.199219 43.636719 L 43.851562 43.636719 Z M 43.851562 71.984375 "/>
<path fill="none" stroke-width="0.3985" stroke-linecap="butt" stroke-linejoin="miter" stroke="rgb(0%, 0%, 0%)" stroke-opacity="1" stroke-miterlimit="10" d="M -0.00096875 0.00009375 L 113.38575 0.00009375 " transform="matrix(1, 0, 0, -1, 1.333, 114.504)"/>
<path fill="none" stroke-width="0.3985" stroke-linecap="butt" stroke-linejoin="miter" stroke="rgb(0%, 0%, 0%)" stroke-opacity="1" stroke-miterlimit="10" d="M -0.00096875 0.00009375 L -0.00096875 113.386812 " transform="matrix(1, 0, 0, -1, 1.333, 114.504)"/>
<path fill="none" stroke-width="0.3985" stroke-linecap="butt" stroke-linejoin="miter" stroke="rgb(0%, 0%, 0%)" stroke-opacity="1" stroke-miterlimit="10" d="M -0.00096875 14.171969 L 113.38575 14.171969 " transform="matrix(1, 0, 0, -1, 1.333, 114.504)"/>
<path fill="none" stroke-width="0.3985" stroke-linecap="butt" stroke-linejoin="miter" stroke="rgb(0%, 0%, 0%)" stroke-opacity="1" stroke-miterlimit="10" d="M 14.174813 0.00009375 L 14.174813 113.386812 " transform="matrix(1, 0, 0, -1, 1.333, 114.504)"/>
<path fill="none" stroke-width="0.3985" stroke-linecap="butt" stroke-linejoin="miter" stroke="rgb(0%, 0%, 0%)" stroke-opacity="1" stroke-miterlimit="10" d="M -0.00096875 28.34775 L 113.38575 28.34775 " transform="matrix(1, 0, 0, -1, 1.333, 114.504)"/>
<path fill="none" stroke-width="0.3985" stroke-linecap="butt" stroke-linejoin="miter" stroke="rgb(0%, 0%, 0%)" stroke-opacity="1" stroke-miterlimit="10" d="M 28.346688 0.00009375 L 28.346688 113.386812 " transform="matrix(1, 0, 0, -1, 1.333, 114.504)"/>
<path fill="none" stroke-width="0.3985" stroke-linecap="butt" stroke-linejoin="miter" stroke="rgb(0%, 0%, 0%)" stroke-opacity="1" stroke-miterlimit="10" d="M -0.00096875 42.519625 L 113.38575 42.519625 " transform="matrix(1, 0, 0, -1, 1.333, 114.504)"/>
<path fill="none" stroke-width="0.3985" stroke-linecap="butt" stroke-linejoin="miter" stroke="rgb(0%, 0%, 0%)" stroke-opacity="1" stroke-miterlimit="10" d="M 42.518563 0.00009375 L 42.518563 113.386812 " transform="matrix(1, 0, 0, -1, 1.333, 114.504)"/>
<path fill="none" stroke-width="0.3985" stroke-linecap="butt" stroke-linejoin="miter" stroke="rgb(0%, 0%, 0%)" stroke-opacity="1" stroke-miterlimit="10" d="M -0.00096875 56.695406 L 113.38575 56.695406 " transform="matrix(1, 0, 0, -1, 1.333, 114.504)"/>
<path fill="none" stroke-width="0.3985" stroke-linecap="butt" stroke-linejoin="miter" stroke="rgb(0%, 0%, 0%)" stroke-opacity="1" stroke-miterlimit="10" d="M 56.694344 0.00009375 L 56.694344 113.386812 " transform="matrix(1, 0, 0, -1, 1.333, 114.504)"/>
<path fill="none" stroke-width="0.3985" stroke-linecap="butt" stroke-linejoin="miter" stroke="rgb(0%, 0%, 0%)" stroke-opacity="1" stroke-miterlimit="10" d="M -0.00096875 70.867281 L 113.38575 70.867281 " transform="matrix(1, 0, 0, -1, 1.333, 114.504)"/>
<path fill="none" stroke-width="0.3985" stroke-linecap="butt" stroke-linejoin="miter" stroke="rgb(0%, 0%, 0%)" stroke-opacity="1" stroke-miterlimit="10" d="M 70.866219 0.00009375 L 70.866219 113.386812 " transform="matrix(1, 0, 0, -1, 1.333, 114.504)"/>
<path fill="none" stroke-width="0.3985" stroke-linecap="butt" stroke-linejoin="miter" stroke="rgb(0%, 0%, 0%)" stroke-opacity="1" stroke-miterlimit="10" d="M -0.00096875 85.039156 L 113.38575 85.039156 " transform="matrix(1, 0, 0, -1, 1.333, 114.504)"/>
<path fill="none" stroke-width="0.3985" stroke-linecap="butt" stroke-linejoin="miter" stroke="rgb(0%, 0%, 0%)" stroke-opacity="1" stroke-miterlimit="10" d="M 85.042 0.00009375 L 85.042 113.386812 " transform="matrix(1, 0, 0, -1, 1.333, 114.504)"/>
<path fill="none" stroke-width="0.3985" stroke-linecap="butt" stroke-linejoin="miter" stroke="rgb(0%, 0%, 0%)" stroke-opacity="1" stroke-miterlimit="10" d="M -0.00096875 99.214937 L 113.38575 99.214937 " transform="matrix(1, 0, 0, -1, 1.333, 114.504)"/>
<path fill="none" stroke-width="0.3985" stroke-linecap="butt" stroke-linejoin="miter" stroke="rgb(0%, 0%, 0%)" stroke-opacity="1" stroke-miterlimit="10" d="M 99.213875 0.00009375 L 99.213875 113.386812 " transform="matrix(1, 0, 0, -1, 1.333, 114.504)"/>
<path fill="none" stroke-width="0.3985" stroke-linecap="butt" stroke-linejoin="miter" stroke="rgb(0%, 0%, 0%)" stroke-opacity="1" stroke-miterlimit="10" d="M -0.00096875 113.386812 L 113.38575 113.386812 " transform="matrix(1, 0, 0, -1, 1.333, 114.504)"/>
<path fill="none" stroke-width="0.3985" stroke-linecap="butt" stroke-linejoin="miter" stroke="rgb(0%, 0%, 0%)" stroke-opacity="1" stroke-miterlimit="10" d="M 113.38575 0.00009375 L 113.38575 113.386812 " transform="matrix(1, 0, 0, -1, 1.333, 114.504)"/>
<path fill-rule="nonzero" fill="rgb(0%, 0%, 0%)" fill-opacity="1" d="M 86.375 86.15625 L 86.375 71.984375 L 100.546875 71.984375 L 100.546875 86.15625 Z M 86.375 86.15625 "/>
<g clip-path="url(#clip-0)">
<path fill="none" stroke-width="1.19553" stroke-linecap="butt" stroke-linejoin="miter" stroke="rgb(0%, 0%, 0%)" stroke-opacity="1" stroke-miterlimit="10" d="M 56.694344 0.00009375 L 56.694344 113.386812 " transform="matrix(1, 0, 0, -1, 1.333, 114.504)"/>
</g>
<path fill="none" stroke-width="1.19553" stroke-linecap="butt" stroke-linejoin="miter" stroke="rgb(0%, 0%, 0%)" stroke-opacity="1" stroke-miterlimit="10" d="M -0.00096875 56.695406 L 113.38575 56.695406 " transform="matrix(1, 0, 0, -1, 1.333, 114.504)"/>
<path fill="none" stroke-width="1.59404" stroke-linecap="butt" stroke-linejoin="miter" stroke="rgb(0%, 0%, 100%)" stroke-opacity="1" stroke-miterlimit="10" d="M 63.780281 77.953219 L 77.952156 77.953219 L 77.952156 63.781344 " transform="matrix(1, 0, 0, -1, 1.333, 114.504)"/>
<path fill="none" stroke-width="1.59404" stroke-linecap="butt" stroke-linejoin="miter" stroke="rgb(0%, 0%, 100%)" stroke-opacity="1" stroke-miterlimit="10" d="M 77.952156 92.129 L 92.127938 92.129 L 92.127938 77.953219 " transform="matrix(1, 0, 0, -1, 1.333, 114.504)"/>
<path fill="none" stroke-width="1.59404" stroke-linecap="butt" stroke-linejoin="miter" stroke="rgb(0%, 0%, 100%)" stroke-opacity="1" stroke-miterlimit="10" d="M 63.780281 92.129 L 63.780281 106.300875 L 77.952156 106.300875 " transform="matrix(1, 0, 0, -1, 1.333, 114.504)"/>
<path fill="none" stroke-width="1.59404" stroke-linecap="butt" stroke-linejoin="miter" stroke="rgb(0%, 0%, 100%)" stroke-opacity="1" stroke-miterlimit="10" d="M 92.127938 106.300875 L 106.299813 106.300875 L 106.299813 92.129 " transform="matrix(1, 0, 0, -1, 1.333, 114.504)"/>
<path fill="none" stroke-width="1.59404" stroke-linecap="butt" stroke-linejoin="miter" stroke="rgb(0%, 0%, 100%)" stroke-opacity="1" stroke-miterlimit="10" d="M 92.127938 63.781344 L 106.299813 63.781344 L 106.299813 77.953219 " transform="matrix(1, 0, 0, -1, 1.333, 114.504)"/>
<path fill="none" stroke-width="1.59404" stroke-linecap="butt" stroke-linejoin="miter" stroke="rgb(0%, 0%, 100%)" stroke-opacity="1" stroke-miterlimit="10" d="M 49.608406 35.433687 L 35.432625 35.433687 L 35.432625 49.605562 " transform="matrix(1, 0, 0, -1, 1.333, 114.504)"/>
<path fill="none" stroke-width="1.59404" stroke-linecap="butt" stroke-linejoin="miter" stroke="rgb(0%, 0%, 100%)" stroke-opacity="1" stroke-miterlimit="10" d="M 35.432625 21.261812 L 21.26075 21.261812 L 21.26075 35.433687 " transform="matrix(1, 0, 0, -1, 1.333, 114.504)"/>
<path fill="none" stroke-width="1.59404" stroke-linecap="butt" stroke-linejoin="miter" stroke="rgb(0%, 0%, 100%)" stroke-opacity="1" stroke-miterlimit="10" d="M 49.608406 21.261812 L 49.608406 7.086031 L 35.432625 7.086031 " transform="matrix(1, 0, 0, -1, 1.333, 114.504)"/>
<path fill="none" stroke-width="1.59404" stroke-linecap="butt" stroke-linejoin="miter" stroke="rgb(0%, 0%, 100%)" stroke-opacity="1" stroke-miterlimit="10" d="M 21.26075 7.086031 L 7.084969 7.086031 L 7.084969 21.261812 " transform="matrix(1, 0, 0, -1, 1.333, 114.504)"/>
<path fill="none" stroke-width="1.59404" stroke-linecap="butt" stroke-linejoin="miter" stroke="rgb(0%, 0%, 100%)" stroke-opacity="1" stroke-miterlimit="10" d="M 21.26075 49.605562 L 7.084969 49.605562 L 7.084969 35.433687 " transform="matrix(1, 0, 0, -1, 1.333, 114.504)"/>
<path fill="none" stroke-width="1.59404" stroke-linecap="butt" stroke-linejoin="miter" stroke="rgb(0%, 0%, 100%)" stroke-opacity="1" stroke-miterlimit="10" d="M 35.432625 63.781344 L 35.432625 77.953219 L 49.608406 77.953219 " transform="matrix(1, 0, 0, -1, 1.333, 114.504)"/>
<path fill="none" stroke-width="1.59404" stroke-linecap="butt" stroke-linejoin="miter" stroke="rgb(0%, 0%, 100%)" stroke-opacity="1" stroke-miterlimit="10" d="M 21.26075 77.953219 L 21.26075 92.129 L 35.432625 92.129 " transform="matrix(1, 0, 0, -1, 1.333, 114.504)"/>
<path fill="none" stroke-width="1.59404" stroke-linecap="butt" stroke-linejoin="miter" stroke="rgb(0%, 0%, 100%)" stroke-opacity="1" stroke-miterlimit="10" d="M 21.26075 63.781344 L 7.084969 63.781344 L 7.084969 77.953219 " transform="matrix(1, 0, 0, -1, 1.333, 114.504)"/>
<path fill="none" stroke-width="1.59404" stroke-linecap="butt" stroke-linejoin="miter" stroke="rgb(0%, 0%, 100%)" stroke-opacity="1" stroke-miterlimit="10" d="M 7.084969 92.129 L 7.084969 106.300875 L 21.26075 106.300875 " transform="matrix(1, 0, 0, -1, 1.333, 114.504)"/>
<path fill="none" stroke-width="1.59404" stroke-linecap="butt" stroke-linejoin="miter" stroke="rgb(0%, 0%, 100%)" stroke-opacity="1" stroke-miterlimit="10" d="M 49.608406 92.129 L 49.608406 106.300875 L 35.432625 106.300875 " transform="matrix(1, 0, 0, -1, 1.333, 114.504)"/>
<path fill="none" stroke-width="0.3985" stroke-linecap="butt" stroke-linejoin="miter" stroke="rgb(0%, 0%, 0%)" stroke-opacity="1" stroke-miterlimit="10" d="M 56.694344 0.00009375 L 113.38575 0.00009375 " transform="matrix(1, 0, 0, -1, 1.333, 114.504)"/>
<path fill="none" stroke-width="0.3985" stroke-linecap="butt" stroke-linejoin="miter" stroke="rgb(0%, 0%, 0%)" stroke-opacity="1" stroke-miterlimit="10" d="M 56.694344 0.00009375 L 56.694344 56.695406 " transform="matrix(1, 0, 0, -1, 1.333, 114.504)"/>
<path fill="none" stroke-width="0.3985" stroke-linecap="butt" stroke-linejoin="miter" stroke="rgb(0%, 0%, 0%)" stroke-opacity="1" stroke-miterlimit="10" d="M 56.694344 14.171969 L 113.38575 14.171969 " transform="matrix(1, 0, 0, -1, 1.333, 114.504)"/>
<path fill="none" stroke-width="0.3985" stroke-linecap="butt" stroke-linejoin="miter" stroke="rgb(0%, 0%, 0%)" stroke-opacity="1" stroke-miterlimit="10" d="M 70.866219 0.00009375 L 70.866219 56.695406 " transform="matrix(1, 0, 0, -1, 1.333, 114.504)"/>
<path fill="none" stroke-width="0.3985" stroke-linecap="butt" stroke-linejoin="miter" stroke="rgb(0%, 0%, 0%)" stroke-opacity="1" stroke-miterlimit="10" d="M 56.694344 28.34775 L 113.38575 28.34775 " transform="matrix(1, 0, 0, -1, 1.333, 114.504)"/>
<path fill="none" stroke-width="0.3985" stroke-linecap="butt" stroke-linejoin="miter" stroke="rgb(0%, 0%, 0%)" stroke-opacity="1" stroke-miterlimit="10" d="M 85.042 0.00009375 L 85.042 56.695406 " transform="matrix(1, 0, 0, -1, 1.333, 114.504)"/>
<path fill="none" stroke-width="0.3985" stroke-linecap="butt" stroke-linejoin="miter" stroke="rgb(0%, 0%, 0%)" stroke-opacity="1" stroke-miterlimit="10" d="M 56.694344 42.519625 L 113.38575 42.519625 " transform="matrix(1, 0, 0, -1, 1.333, 114.504)"/>
<path fill="none" stroke-width="0.3985" stroke-linecap="butt" stroke-linejoin="miter" stroke="rgb(0%, 0%, 0%)" stroke-opacity="1" stroke-miterlimit="10" d="M 99.213875 0.00009375 L 99.213875 56.695406 " transform="matrix(1, 0, 0, -1, 1.333, 114.504)"/>
<path fill="none" stroke-width="0.3985" stroke-linecap="butt" stroke-linejoin="miter" stroke="rgb(0%, 0%, 0%)" stroke-opacity="1" stroke-miterlimit="10" d="M 56.694344 56.695406 L 113.38575 56.695406 " transform="matrix(1, 0, 0, -1, 1.333, 114.504)"/>
<path fill="none" stroke-width="0.3985" stroke-linecap="butt" stroke-linejoin="miter" stroke="rgb(0%, 0%, 0%)" stroke-opacity="1" stroke-miterlimit="10" d="M 113.38575 0.00009375 L 113.38575 56.695406 " transform="matrix(1, 0, 0, -1, 1.333, 114.504)"/>
<path fill-rule="nonzero" fill="rgb(0%, 0%, 0%)" fill-opacity="1" d="M 86.375 86.15625 L 100.546875 86.15625 L 100.546875 71.984375 L 86.375 71.984375 Z M 86.375 86.15625 "/>
<path fill="none" stroke-width="1.59404" stroke-linecap="butt" stroke-linejoin="miter" stroke="rgb(0%, 0%, 100%)" stroke-opacity="1" stroke-miterlimit="10" d="M 63.780281 21.261812 L 63.780281 7.086031 L 77.952156 7.086031 " transform="matrix(1, 0, 0, -1, 1.333, 114.504)"/>
<path fill="none" stroke-width="1.59404" stroke-linecap="butt" stroke-linejoin="miter" stroke="rgb(0%, 0%, 100%)" stroke-opacity="1" stroke-miterlimit="10" d="M 77.952156 35.433687 L 77.952156 21.261812 L 92.127938 21.261812 " transform="matrix(1, 0, 0, -1, 1.333, 114.504)"/>
<path fill="none" stroke-width="1.59404" stroke-linecap="butt" stroke-linejoin="miter" stroke="rgb(0%, 0%, 100%)" stroke-opacity="1" stroke-miterlimit="10" d="M 63.780281 35.433687 L 63.780281 49.605562 L 77.952156 49.605562 " transform="matrix(1, 0, 0, -1, 1.333, 114.504)"/>
<path fill="none" stroke-width="1.59404" stroke-linecap="butt" stroke-linejoin="miter" stroke="rgb(0%, 0%, 100%)" stroke-opacity="1" stroke-miterlimit="10" d="M 92.127938 49.605562 L 106.299813 49.605562 L 106.299813 35.433687 " transform="matrix(1, 0, 0, -1, 1.333, 114.504)"/>
<path fill="none" stroke-width="1.59404" stroke-linecap="butt" stroke-linejoin="miter" stroke="rgb(0%, 0%, 100%)" stroke-opacity="1" stroke-miterlimit="10" d="M 92.127938 7.086031 L 106.299813 7.086031 L 106.299813 21.261812 " transform="matrix(1, 0, 0, -1, 1.333, 114.504)"/>
</svg>
