<?xml version="1.0" encoding="UTF-8"?>
<svg xmlns="http://www.w3.org/2000/svg" xmlns:xlink="http://www.w3.org/1999/xlink" width="205.04" height="62.96" viewBox="0 0 205.04 62.96">
<defs>
<clipPath id="clip-0">
<path clip-rule="nonzero" d="M 6 45 L 38 45 L 38 62.960938 L 6 62.960938 Z M 6 45 "/>
</clipPath>
<clipPath id="clip-1">
<path clip-rule="nonzero" d="M 24 52 L 40 52 L 40 62.960938 L 24 62.960938 Z M 24 52 "/>
</clipPath>
<clipPath id="clip-2">
<path clip-rule="nonzero" d="M 26 45 L 58 45 L 58 62.960938 L 26 62.960938 Z M 26 45 "/>
</clipPath>
<clipPath id="clip-3">
<path clip-rule="nonzero" d="M 194 38 L 205.039062 38 L 205.039062 54 L 194 54 Z M 194 38 "/>
</clipPath>
<clipPath id="clip-4">
<path clip-rule="nonzero" d="M 194 9 L 205.039062 9 L 205.039062 25 L 194 25 Z M 194 9 "/>
</clipPath>
<clipPath id="clip-5">
<path clip-rule="nonzero" d="M 167 11 L 205.039062 11 L 205.039062 52 L 167 52 Z M 167 11 "/>
</clipPath>
</defs>
<path fill-rule="nonzero" fill="rgb(0%, 0%, 0%)" fill-opacity="1" stroke-width="0.3985" stroke-linecap="butt" stroke-linejoin="miter" stroke="rgb(0%, 0%, 0%)" stroke-opacity="1" stroke-miterlimit="10" d="M 30.34075 -0.0010625 C 30.34075 1.1005 29.446219 1.991125 28.348562 1.991125 C 27.247 1.991125 26.352469 1.1005 26.352469 -0.0010625 C 26.352469 -1.098719 27.247 -1.99325 28.348562 -1.99325 C 29.446219 -1.99325 30.34075 -1.098719 30.34075 -0.0010625 Z M 30.34075 -0.0010625 " transform="matrix(1, 0, 0, -1, 31.753, 31.538)"/>
<path fill="none" stroke-width="0.3985" stroke-linecap="butt" stroke-linejoin="miter" stroke="rgb(0%, 0%, 0%)" stroke-opacity="1" stroke-miterlimit="10" d="M 28.348562 -0.0010625 L 20.043875 20.045812 " transform="matrix(1, 0, 0, -1, 31.753, 31.538)"/>
<path fill-rule="nonzero" fill="rgb(0%, 0%, 0%)" fill-opacity="1" stroke-width="0.3985" stroke-linecap="butt" stroke-linejoin="miter" stroke="rgb(0%, 0%, 0%)" stroke-opacity="1" stroke-miterlimit="10" d="M 22.036062 20.045812 C 22.036062 21.143469 21.145437 22.038 20.043875 22.038 C 18.942312 22.038 18.051687 21.143469 18.051687 20.045812 C 18.051687 18.94425 18.942312 18.049719 20.043875 18.049719 C 21.145437 18.049719 22.036062 18.94425 22.036062 20.045812 Z M 22.036062 20.045812 " transform="matrix(1, 0, 0, -1, 31.753, 31.538)"/>
<path fill="none" stroke-width="0.3985" stroke-linecap="butt" stroke-linejoin="miter" stroke="rgb(0%, 0%, 0%)" stroke-opacity="1" stroke-miterlimit="10" d="M 20.043875 20.045812 L 0.00090625 28.346594 " transform="matrix(1, 0, 0, -1, 31.753, 31.538)"/>
<path fill-rule="nonzero" fill="rgb(0%, 0%, 0%)" fill-opacity="1" stroke-width="0.3985" stroke-linecap="butt" stroke-linejoin="miter" stroke="rgb(0%, 0%, 0%)" stroke-opacity="1" stroke-miterlimit="10" d="M 1.993094 28.346594 C 1.993094 29.448156 1.098562 30.338781 0.00090625 30.338781 C -1.100656 30.338781 -1.991281 29.448156 -1.991281 28.346594 C -1.991281 27.245031 -1.100656 26.354406 0.00090625 26.354406 C 1.098562 26.354406 1.993094 27.245031 1.993094 28.346594 Z M 1.993094 28.346594 " transform="matrix(1, 0, 0, -1, 31.753, 31.538)"/>
<path fill="none" stroke-width="0.3985" stroke-linecap="butt" stroke-linejoin="miter" stroke="rgb(0%, 0%, 0%)" stroke-opacity="1" stroke-miterlimit="10" d="M 0.00090625 28.346594 L -20.045969 20.045812 " transform="matrix(1, 0, 0, -1, 31.753, 31.538)"/>
<path fill-rule="nonzero" fill="rgb(0%, 0%, 0%)" fill-opacity="1" stroke-width="0.3985" stroke-linecap="butt" stroke-linejoin="miter" stroke="rgb(0%, 0%, 0%)" stroke-opacity="1" stroke-miterlimit="10" d="M -18.049875 20.045812 C -18.049875 21.143469 -18.944406 22.038 -20.045969 22.038 C -21.143625 22.038 -22.038156 21.143469 -22.038156 20.045812 C -22.038156 18.94425 -21.143625 18.049719 -20.045969 18.049719 C -18.944406 18.049719 -18.049875 18.94425 -18.049875 20.045812 Z M -18.049875 20.045812 " transform="matrix(1, 0, 0, -1, 31.753, 31.538)"/>
<path fill="none" stroke-width="0.3985" stroke-linecap="butt" stroke-linejoin="miter" stroke="rgb(0%, 0%, 0%)" stroke-opacity="1" stroke-miterlimit="10" d="M -20.045969 20.045812 L -28.34675 -0.0010625 " transform="matrix(1, 0, 0, -1, 31.753, 31.538)"/>
<path fill-rule="nonzero" fill="rgb(0%, 0%, 0%)" fill-opacity="1" stroke-width="0.3985" stroke-linecap="butt" stroke-linejoin="miter" stroke="rgb(0%, 0%, 0%)" stroke-opacity="1" stroke-miterlimit="10" d="M -26.354563 -0.0010625 C -26.354563 1.1005 -27.245188 1.991125 -28.34675 1.991125 C -29.448313 1.991125 -30.338938 1.1005 -30.338938 -0.0010625 C -30.338938 -1.098719 -29.448313 -1.99325 -28.34675 -1.99325 C -27.245188 -1.99325 -26.354563 -1.098719 -26.354563 -0.0010625 Z M -26.354563 -0.0010625 " transform="matrix(1, 0, 0, -1, 31.753, 31.538)"/>
<path fill="none" stroke-width="0.3985" stroke-linecap="butt" stroke-linejoin="miter" stroke="rgb(0%, 0%, 0%)" stroke-opacity="1" stroke-miterlimit="10" d="M -28.34675 -0.0010625 L -20.045969 -20.044031 " transform="matrix(1, 0, 0, -1, 31.753, 31.538)"/>
<path fill-rule="nonzero" fill="rgb(0%, 0%, 0%)" fill-opacity="1" stroke-width="0.3985" stroke-linecap="butt" stroke-linejoin="miter" stroke="rgb(0%, 0%, 0%)" stroke-opacity="1" stroke-miterlimit="10" d="M -18.049875 -20.044031 C -18.049875 -18.942469 -18.944406 -18.051844 -20.045969 -18.051844 C -21.143625 -18.051844 -22.038156 -18.942469 -22.038156 -20.044031 C -22.038156 -21.145594 -21.143625 -22.036219 -20.045969 -22.036219 C -18.944406 -22.036219 -18.049875 -21.145594 -18.049875 -20.044031 Z M -18.049875 -20.044031 " transform="matrix(1, 0, 0, -1, 31.753, 31.538)"/>
<g clip-path="url(#clip-0)">
<path fill="none" stroke-width="0.3985" stroke-linecap="butt" stroke-linejoin="miter" stroke="rgb(0%, 0%, 0%)" stroke-opacity="1" stroke-miterlimit="10" d="M -20.045969 -20.044031 L 0.00090625 -28.348719 " transform="matrix(1, 0, 0, -1, 31.753, 31.538)"/>
</g>
<path fill-rule="nonzero" fill="rgb(0%, 0%, 0%)" fill-opacity="1" d="M 33.746094 59.886719 C 33.746094 58.785156 32.851562 57.890625 31.753906 57.890625 C 30.652344 57.890625 29.761719 58.785156 29.761719 59.886719 C 29.761719 60.984375 30.652344 61.878906 31.753906 61.878906 C 32.851562 61.878906 33.746094 60.984375 33.746094 59.886719 Z M 33.746094 59.886719 "/>
<g clip-path="url(#clip-1)">
<path fill="none" stroke-width="0.3985" stroke-linecap="butt" stroke-linejoin="miter" stroke="rgb(0%, 0%, 0%)" stroke-opacity="1" stroke-miterlimit="10" d="M 1.993094 -28.348719 C 1.993094 -27.247156 1.098562 -26.352625 0.00090625 -26.352625 C -1.100656 -26.352625 -1.991281 -27.247156 -1.991281 -28.348719 C -1.991281 -29.446375 -1.100656 -30.340906 0.00090625 -30.340906 C 1.098562 -30.340906 1.993094 -29.446375 1.993094 -28.348719 Z M 1.993094 -28.348719 " transform="matrix(1, 0, 0, -1, 31.753, 31.538)"/>
</g>
<g clip-path="url(#clip-2)">
<path fill="none" stroke-width="0.3985" stroke-linecap="butt" stroke-linejoin="miter" stroke="rgb(0%, 0%, 0%)" stroke-opacity="1" stroke-miterlimit="10" d="M 0.00090625 -28.348719 L 20.043875 -20.044031 " transform="matrix(1, 0, 0, -1, 31.753, 31.538)"/>
</g>
<path fill-rule="nonzero" fill="rgb(0%, 0%, 0%)" fill-opacity="1" stroke-width="0.3985" stroke-linecap="butt" stroke-linejoin="miter" stroke="rgb(0%, 0%, 0%)" stroke-opacity="1" stroke-miterlimit="10" d="M 22.036062 -20.044031 C 22.036062 -18.942469 21.145437 -18.051844 20.043875 -18.051844 C 18.942312 -18.051844 18.051687 -18.942469 18.051687 -20.044031 C 18.051687 -21.145594 18.942312 -22.036219 20.043875 -22.036219 C 21.145437 -22.036219 22.036062 -21.145594 22.036062 -20.044031 Z M 22.036062 -20.044031 " transform="matrix(1, 0, 0, -1, 31.753, 31.538)"/>
<path fill="none" stroke-width="0.3985" stroke-linecap="butt" stroke-linejoin="miter" stroke="rgb(0%, 0%, 0%)" stroke-opacity="1" stroke-miterlimit="10" d="M 20.043875 -20.044031 L 28.348562 -0.0010625 " transform="matrix(1, 0, 0, -1, 31.753, 31.538)"/>
<path fill="none" stroke-width="0.3985" stroke-linecap="butt" stroke-linejoin="miter" stroke="rgb(0%, 0%, 0%)" stroke-opacity="1" stroke-miterlimit="10" d="M 28.348562 -0.0010625 L -28.34675 -0.0010625 " transform="matrix(1, 0, 0, -1, 31.753, 31.538)"/>
<path fill="none" stroke-width="0.3985" stroke-linecap="butt" stroke-linejoin="miter" stroke="rgb(0%, 0%, 0%)" stroke-opacity="1" stroke-miterlimit="10" d="M 20.043875 20.045812 L -20.045969 -20.044031 " transform="matrix(1, 0, 0, -1, 31.753, 31.538)"/>
<path fill="none" stroke-width="0.3985" stroke-linecap="butt" stroke-linejoin="miter" stroke="rgb(0%, 0%, 0%)" stroke-opacity="1" stroke-miterlimit="10" d="M 0.00090625 28.346594 L 0.00090625 -28.348719 " transform="matrix(1, 0, 0, -1, 31.753, 31.538)"/>
<path fill="none" stroke-width="0.3985" stroke-linecap="butt" stroke-linejoin="miter" stroke="rgb(0%, 0%, 0%)" stroke-opacity="1" stroke-miterlimit="10" d="M -20.045969 20.045812 L 20.043875 -20.044031 " transform="matrix(1, 0, 0, -1, 31.753, 31.538)"/>
<path fill-rule="nonzero" fill="rgb(0%, 0%, 0%)" fill-opacity="1" stroke-width="0.3985" stroke-linecap="butt" stroke-linejoin="miter" stroke="rgb(0%, 0%, 0%)" stroke-opacity="1" stroke-miterlimit="10" d="M 87.032156 -14.172938 C 87.032156 -13.071375 86.141531 -12.18075 85.039969 -12.18075 C 83.938406 -12.18075 83.047781 -13.071375 83.047781 -14.172938 C 83.047781 -15.2745 83.938406 -16.165125 85.039969 -16.165125 C 86.141531 -16.165125 87.032156 -15.2745 87.032156 -14.172938 Z M 87.032156 -14.172938 " transform="matrix(1, 0, 0, -1, 31.753, 31.538)"/>
<path fill-rule="nonzero" fill="rgb(0%, 0%, 0%)" fill-opacity="1" stroke-width="0.3985" stroke-linecap="butt" stroke-linejoin="miter" stroke="rgb(0%, 0%, 0%)" stroke-opacity="1" stroke-miterlimit="10" d="M 115.379812 -14.172938 C 115.379812 -13.071375 114.489187 -12.18075 113.387625 -12.18075 C 112.286062 -12.18075 111.395437 -13.071375 111.395437 -14.172938 C 111.395437 -15.2745 112.286062 -16.165125 113.387625 -16.165125 C 114.489187 -16.165125 115.379812 -15.2745 115.379812 -14.172938 Z M 115.379812 -14.172938 " transform="matrix(1, 0, 0, -1, 31.753, 31.538)"/>
<path fill-rule="nonzero" fill="rgb(0%, 0%, 0%)" fill-opacity="1" stroke-width="0.3985" stroke-linecap="butt" stroke-linejoin="miter" stroke="rgb(0%, 0%, 0%)" stroke-opacity="1" stroke-miterlimit="10" d="M 115.379812 14.174719 C 115.379812 15.272375 114.489187 16.166906 113.387625 16.166906 C 112.286062 16.166906 111.395437 15.272375 111.395437 14.174719 C 111.395437 13.073156 112.286062 12.182531 113.387625 12.182531 C 114.489187 12.182531 115.379812 13.073156 115.379812 14.174719 Z M 115.379812 14.174719 " transform="matrix(1, 0, 0, -1, 31.753, 31.538)"/>
<path fill-rule="nonzero" fill="rgb(0%, 0%, 0%)" fill-opacity="1" stroke-width="0.3985" stroke-linecap="butt" stroke-linejoin="miter" stroke="rgb(0%, 0%, 0%)" stroke-opacity="1" stroke-miterlimit="10" d="M 87.032156 14.174719 C 87.032156 15.272375 86.141531 16.166906 85.039969 16.166906 C 83.938406 16.166906 83.047781 15.272375 83.047781 14.174719 C 83.047781 13.073156 83.938406 12.182531 85.039969 12.182531 C 86.141531 12.182531 87.032156 13.073156 87.032156 14.174719 Z M 87.032156 14.174719 " transform="matrix(1, 0, 0, -1, 31.753, 31.538)"/>
<path fill-rule="nonzero" fill="rgb(0%, 0%, 0%)" fill-opacity="1" stroke-width="0.3985" stroke-linecap="butt" stroke-linejoin="miter" stroke="rgb(0%, 0%, 0%)" stroke-opacity="1" stroke-miterlimit="10" d="M 143.727469 -14.172938 C 143.727469 -13.071375 142.832938 -12.18075 141.735281 -12.18075 C 140.633719 -12.18075 139.743094 -13.071375 139.743094 -14.172938 C 139.743094 -15.2745 140.633719 -16.165125 141.735281 -16.165125 C 142.832938 -16.165125 143.727469 -15.2745 143.727469 -14.172938 Z M 143.727469 -14.172938 " transform="matrix(1, 0, 0, -1, 31.753, 31.538)"/>
<path fill-rule="nonzero" fill="rgb(0%, 0%, 0%)" fill-opacity="1" d="M 203.828125 45.710938 C 203.828125 44.609375 202.933594 43.71875 201.832031 43.71875 C 200.734375 43.71875 199.839844 44.609375 199.839844 45.710938 C 199.839844 46.8125 200.734375 47.703125 201.832031 47.703125 C 202.933594 47.703125 203.828125 46.8125 203.828125 45.710938 Z M 203.828125 45.710938 "/>
<g clip-path="url(#clip-3)">
<path fill="none" stroke-width="0.3985" stroke-linecap="butt" stroke-linejoin="miter" stroke="rgb(0%, 0%, 0%)" stroke-opacity="1" stroke-miterlimit="10" d="M 172.075125 -14.172938 C 172.075125 -13.071375 171.180594 -12.18075 170.079031 -12.18075 C 168.981375 -12.18075 168.086844 -13.071375 168.086844 -14.172938 C 168.086844 -15.2745 168.981375 -16.165125 170.079031 -16.165125 C 171.180594 -16.165125 172.075125 -15.2745 172.075125 -14.172938 Z M 172.075125 -14.172938 " transform="matrix(1, 0, 0, -1, 31.753, 31.538)"/>
</g>
<path fill-rule="nonzero" fill="rgb(0%, 0%, 0%)" fill-opacity="1" d="M 203.828125 17.363281 C 203.828125 16.265625 202.933594 15.371094 201.832031 15.371094 C 200.734375 15.371094 199.839844 16.265625 199.839844 17.363281 C 199.839844 18.464844 200.734375 19.355469 201.832031 19.355469 C 202.933594 19.355469 203.828125 18.464844 203.828125 17.363281 Z M 203.828125 17.363281 "/>
<g clip-path="url(#clip-4)">
<path fill="none" stroke-width="0.3985" stroke-linecap="butt" stroke-linejoin="miter" stroke="rgb(0%, 0%, 0%)" stroke-opacity="1" stroke-miterlimit="10" d="M 172.075125 14.174719 C 172.075125 15.272375 171.180594 16.166906 170.079031 16.166906 C 168.981375 16.166906 168.086844 15.272375 168.086844 14.174719 C 168.086844 13.073156 168.981375 12.182531 170.079031 12.182531 C 171.180594 12.182531 172.075125 13.073156 172.075125 14.174719 Z M 172.075125 14.174719 " transform="matrix(1, 0, 0, -1, 31.753, 31.538)"/>
</g>
<path fill-rule="nonzero" fill="rgb(0%, 0%, 0%)" fill-opacity="1" stroke-width="0.3985" stroke-linecap="butt" stroke-linejoin="miter" stroke="rgb(0%, 0%, 0%)" stroke-opacity="1" stroke-miterlimit="10" d="M 143.727469 14.174719 C 143.727469 15.272375 142.832938 16.166906 141.735281 16.166906 C 140.633719 16.166906 139.743094 15.272375 139.743094 14.174719 C 139.743094 13.073156 140.633719 12.182531 141.735281 12.182531 C 142.832938 12.182531 143.727469 13.073156 143.727469 14.174719 Z M 143.727469 14.174719 " transform="matrix(1, 0, 0, -1, 31.753, 31.538)"/>
<path fill="none" stroke-width="0.3985" stroke-linecap="butt" stroke-linejoin="miter" stroke="rgb(0%, 0%, 0%)" stroke-opacity="1" stroke-miterlimit="10" d="M 85.039969 -14.172938 L 113.387625 -14.172938 L 113.387625 14.174719 L 85.039969 14.174719 Z M 85.039969 -14.172938 " transform="matrix(1, 0, 0, -1, 31.753, 31.538)"/>
<path fill="none" stroke-width="0.3985" stroke-linecap="butt" stroke-linejoin="miter" stroke="rgb(0%, 0%, 0%)" stroke-opacity="1" stroke-miterlimit="10" d="M 85.039969 -14.172938 L 113.387625 14.174719 " transform="matrix(1, 0, 0, -1, 31.753, 31.538)"/>
<path fill="none" stroke-width="0.3985" stroke-linecap="butt" stroke-linejoin="miter" stroke="rgb(0%, 0%, 0%)" stroke-opacity="1" stroke-miterlimit="10" d="M 85.039969 14.174719 L 113.387625 -14.172938 " transform="matrix(1, 0, 0, -1, 31.753, 31.538)"/>
<path fill="none" stroke-width="0.3985" stroke-linecap="butt" stroke-linejoin="miter" stroke="rgb(0%, 0%, 0%)" stroke-opacity="1" stroke-miterlimit="10" d="M 141.735281 -14.172938 L 170.079031 -14.172938 L 170.079031 14.174719 L 141.735281 14.174719 Z M 141.735281 -14.172938 " transform="matrix(1, 0, 0, -1, 31.753, 31.538)"/>
<g clip-path="url(#clip-5)">
<path fill="none" stroke-width="0.3985" stroke-linecap="butt" stroke-linejoin="miter" stroke="rgb(0%, 0%, 0%)" stroke-opacity="1" stroke-miterlimit="10" d="M 141.735281 -14.172938 L 170.079031 14.174719 " transform="matrix(1, 0, 0, -1, 31.753, 31.538)"/>
<path fill="none" stroke-width="0.3985" stroke-linecap="butt" stroke-linejoin="miter" stroke="rgb(0%, 0%, 0%)" stroke-opacity="1" stroke-miterlimit="10" d="M 141.735281 14.174719 L 170.079031 -14.172938 " transform="matrix(1, 0, 0, -1, 31.753, 31.538)"/>
</g>
</svg>
