<?xml version="1.0" encoding="UTF-8"?>
<svg xmlns="http://www.w3.org/2000/svg" xmlns:xlink="http://www.w3.org/1999/xlink" width="176.72pt" height="34.62023pt" viewBox="0 0 176.72 34.62023" version="1.1">
<defs>
<clipPath id="clip1">
  <path d="M 0 23 L 12 23 L 12 34.621094 L 0 34.621094 Z M 0 23 "/>
</clipPath>
<clipPath id="clip2">
  <path d="M 24 23 L 40 23 L 40 34.621094 L 24 34.621094 Z M 24 23 "/>
</clipPath>
<clipPath id="clip3">
  <path d="M 52 23 L 68 23 L 68 34.621094 L 52 34.621094 Z M 52 23 "/>
</clipPath>
<clipPath id="clip4">
  <path d="M 80 23 L 97 23 L 97 34.621094 L 80 34.621094 Z M 80 23 "/>
</clipPath>
<clipPath id="clip5">
  <path d="M 137 23 L 153 23 L 153 34.621094 L 137 34.621094 Z M 137 23 "/>
</clipPath>
<clipPath id="clip6">
  <path d="M 165 23 L 176.71875 23 L 176.71875 34.621094 L 165 34.621094 Z M 165 23 "/>
</clipPath>
<clipPath id="clip7">
  <path d="M 109 23 L 125 23 L 125 34.621094 L 109 34.621094 Z M 109 23 "/>
</clipPath>
</defs>
<g id="surface1">
<path style=" stroke:none;fill-rule:nonzero;fill:rgb(0%,0%,0%);fill-opacity:1;" d="M 5.398438 31.574219 C 5.398438 30.472656 4.507812 29.582031 3.40625 29.582031 C 2.304688 29.582031 1.414062 30.472656 1.414062 31.574219 C 1.414062 32.671875 2.304688 33.566406 3.40625 33.566406 C 4.507812 33.566406 5.398438 32.671875 5.398438 31.574219 Z M 5.398438 31.574219 "/>
<g clip-path="url(#clip1)" clip-rule="nonzero">
<path style="fill:none;stroke-width:0.3985;stroke-linecap:butt;stroke-linejoin:miter;stroke:rgb(0%,0%,0%);stroke-opacity:1;stroke-miterlimit:10;" d="M 1.991438 -0.00132875 C 1.991438 1.100234 1.100813 1.990859 -0.00075 1.990859 C -1.102312 1.990859 -1.992937 1.100234 -1.992937 -0.00132875 C -1.992937 -1.098985 -1.102312 -1.993516 -0.00075 -1.993516 C 1.100813 -1.993516 1.991438 -1.098985 1.991438 -0.00132875 Z M 1.991438 -0.00132875 " transform="matrix(1,0,0,-1,3.407,31.57289)"/>
</g>
<path style=" stroke:none;fill-rule:nonzero;fill:rgb(0%,0%,0%);fill-opacity:1;" d="M 33.746094 31.574219 C 33.746094 30.472656 32.855469 29.582031 31.753906 29.582031 C 30.652344 29.582031 29.761719 30.472656 29.761719 31.574219 C 29.761719 32.671875 30.652344 33.566406 31.753906 33.566406 C 32.855469 33.566406 33.746094 32.671875 33.746094 31.574219 Z M 33.746094 31.574219 "/>
<g clip-path="url(#clip2)" clip-rule="nonzero">
<path style="fill:none;stroke-width:0.3985;stroke-linecap:butt;stroke-linejoin:miter;stroke:rgb(0%,0%,0%);stroke-opacity:1;stroke-miterlimit:10;" d="M 30.339094 -0.00132875 C 30.339094 1.100234 29.448469 1.990859 28.346906 1.990859 C 27.245344 1.990859 26.354719 1.100234 26.354719 -0.00132875 C 26.354719 -1.098985 27.245344 -1.993516 28.346906 -1.993516 C 29.448469 -1.993516 30.339094 -1.098985 30.339094 -0.00132875 Z M 30.339094 -0.00132875 " transform="matrix(1,0,0,-1,3.407,31.57289)"/>
</g>
<path style=" stroke:none;fill-rule:nonzero;fill:rgb(0%,0%,0%);fill-opacity:1;" d="M 62.09375 31.574219 C 62.09375 30.472656 61.199219 29.582031 60.101562 29.582031 C 59 29.582031 58.109375 30.472656 58.109375 31.574219 C 58.109375 32.671875 59 33.566406 60.101562 33.566406 C 61.199219 33.566406 62.09375 32.671875 62.09375 31.574219 Z M 62.09375 31.574219 "/>
<g clip-path="url(#clip3)" clip-rule="nonzero">
<path style="fill:none;stroke-width:0.3985;stroke-linecap:butt;stroke-linejoin:miter;stroke:rgb(0%,0%,0%);stroke-opacity:1;stroke-miterlimit:10;" d="M 58.68675 -0.00132875 C 58.68675 1.100234 57.792219 1.990859 56.694563 1.990859 C 55.593 1.990859 54.702375 1.100234 54.702375 -0.00132875 C 54.702375 -1.098985 55.593 -1.993516 56.694563 -1.993516 C 57.792219 -1.993516 58.68675 -1.098985 58.68675 -0.00132875 Z M 58.68675 -0.00132875 " transform="matrix(1,0,0,-1,3.407,31.57289)"/>
</g>
<path style=" stroke:none;fill-rule:nonzero;fill:rgb(0%,0%,0%);fill-opacity:1;" d="M 90.441406 31.574219 C 90.441406 30.472656 89.546875 29.582031 88.449219 29.582031 C 87.347656 29.582031 86.453125 30.472656 86.453125 31.574219 C 86.453125 32.671875 87.347656 33.566406 88.449219 33.566406 C 89.546875 33.566406 90.441406 32.671875 90.441406 31.574219 Z M 90.441406 31.574219 "/>
<g clip-path="url(#clip4)" clip-rule="nonzero">
<path style="fill:none;stroke-width:0.3985;stroke-linecap:butt;stroke-linejoin:miter;stroke:rgb(0%,0%,0%);stroke-opacity:1;stroke-miterlimit:10;" d="M 87.034406 -0.00132875 C 87.034406 1.100234 86.139875 1.990859 85.042219 1.990859 C 83.940656 1.990859 83.046125 1.100234 83.046125 -0.00132875 C 83.046125 -1.098985 83.940656 -1.993516 85.042219 -1.993516 C 86.139875 -1.993516 87.034406 -1.098985 87.034406 -0.00132875 Z M 87.034406 -0.00132875 " transform="matrix(1,0,0,-1,3.407,31.57289)"/>
</g>
<path style="fill:none;stroke-width:0.3985;stroke-linecap:butt;stroke-linejoin:miter;stroke:rgb(0%,0%,0%);stroke-opacity:1;stroke-miterlimit:10;" d="M -0.00075 -0.00132875 L 85.042219 -0.00132875 " transform="matrix(1,0,0,-1,3.407,31.57289)"/>
<path style=" stroke:none;fill-rule:nonzero;fill:rgb(0%,0%,0%);fill-opacity:1;" d="M 147.132812 31.574219 C 147.132812 30.472656 146.242188 29.582031 145.140625 29.582031 C 144.039062 29.582031 143.148438 30.472656 143.148438 31.574219 C 143.148438 32.671875 144.039062 33.566406 145.140625 33.566406 C 146.242188 33.566406 147.132812 32.671875 147.132812 31.574219 Z M 147.132812 31.574219 "/>
<g clip-path="url(#clip5)" clip-rule="nonzero">
<path style="fill:none;stroke-width:0.3985;stroke-linecap:butt;stroke-linejoin:miter;stroke:rgb(0%,0%,0%);stroke-opacity:1;stroke-miterlimit:10;" d="M 143.725813 -0.00132875 C 143.725813 1.100234 142.835188 1.990859 141.733625 1.990859 C 140.632063 1.990859 139.741438 1.100234 139.741438 -0.00132875 C 139.741438 -1.098985 140.632063 -1.993516 141.733625 -1.993516 C 142.835188 -1.993516 143.725813 -1.098985 143.725813 -0.00132875 Z M 143.725813 -0.00132875 " transform="matrix(1,0,0,-1,3.407,31.57289)"/>
</g>
<path style=" stroke:none;fill-rule:nonzero;fill:rgb(0%,0%,0%);fill-opacity:1;" d="M 175.480469 31.574219 C 175.480469 30.472656 174.589844 29.582031 173.488281 29.582031 C 172.386719 29.582031 171.496094 30.472656 171.496094 31.574219 C 171.496094 32.671875 172.386719 33.566406 173.488281 33.566406 C 174.589844 33.566406 175.480469 32.671875 175.480469 31.574219 Z M 175.480469 31.574219 "/>
<g clip-path="url(#clip6)" clip-rule="nonzero">
<path style="fill:none;stroke-width:0.3985;stroke-linecap:butt;stroke-linejoin:miter;stroke:rgb(0%,0%,0%);stroke-opacity:1;stroke-miterlimit:10;" d="M 172.073469 -0.00132875 C 172.073469 1.100234 171.182844 1.990859 170.081281 1.990859 C 168.979719 1.990859 168.089094 1.100234 168.089094 -0.00132875 C 168.089094 -1.098985 168.979719 -1.993516 170.081281 -1.993516 C 171.182844 -1.993516 172.073469 -1.098985 172.073469 -0.00132875 Z M 172.073469 -0.00132875 " transform="matrix(1,0,0,-1,3.407,31.57289)"/>
</g>
<path style=" stroke:none;fill-rule:nonzero;fill:rgb(0%,0%,0%);fill-opacity:1;" d="M 118.785156 31.574219 C 118.785156 30.472656 117.894531 29.582031 116.792969 29.582031 C 115.695312 29.582031 114.800781 30.472656 114.800781 31.574219 C 114.800781 32.671875 115.695312 33.566406 116.792969 33.566406 C 117.894531 33.566406 118.785156 32.671875 118.785156 31.574219 Z M 118.785156 31.574219 "/>
<g clip-path="url(#clip7)" clip-rule="nonzero">
<path style="fill:none;stroke-width:0.3985;stroke-linecap:butt;stroke-linejoin:miter;stroke:rgb(0%,0%,0%);stroke-opacity:1;stroke-miterlimit:10;" d="M 115.378156 -0.00132875 C 115.378156 1.100234 114.487531 1.990859 113.385969 1.990859 C 112.288313 1.990859 111.393781 1.100234 111.393781 -0.00132875 C 111.393781 -1.098985 112.288313 -1.993516 113.385969 -1.993516 C 114.487531 -1.993516 115.378156 -1.098985 115.378156 -0.00132875 Z M 115.378156 -0.00132875 " transform="matrix(1,0,0,-1,3.407,31.57289)"/>
</g>
<path style="fill-rule:nonzero;fill:rgb(0%,0%,0%);fill-opacity:1;stroke-width:0.3985;stroke-linecap:butt;stroke-linejoin:miter;stroke:rgb(0%,0%,0%);stroke-opacity:1;stroke-miterlimit:10;" d="M 143.725813 28.346327 C 143.725813 29.44789 142.835188 30.338515 141.733625 30.338515 C 140.632063 30.338515 139.741438 29.44789 139.741438 28.346327 C 139.741438 27.244765 140.632063 26.35414 141.733625 26.35414 C 142.835188 26.35414 143.725813 27.244765 143.725813 28.346327 Z M 143.725813 28.346327 " transform="matrix(1,0,0,-1,3.407,31.57289)"/>
<path style="fill:none;stroke-width:0.3985;stroke-linecap:butt;stroke-linejoin:miter;stroke:rgb(0%,0%,0%);stroke-opacity:1;stroke-miterlimit:10;" d="M 113.385969 -0.00132875 L 170.081281 -0.00132875 " transform="matrix(1,0,0,-1,3.407,31.57289)"/>
<path style="fill:none;stroke-width:0.3985;stroke-linecap:butt;stroke-linejoin:miter;stroke:rgb(0%,0%,0%);stroke-opacity:1;stroke-miterlimit:10;" d="M 141.733625 -0.00132875 L 141.733625 28.346327 " transform="matrix(1,0,0,-1,3.407,31.57289)"/>
</g>
</svg>
