<?xml version="1.0" encoding="UTF-8"?>
<svg xmlns="http://www.w3.org/2000/svg" xmlns:xlink="http://www.w3.org/1999/xlink" width="342.8" height="73.52" viewBox="0 0 342.8 73.52">
<path fill="none" stroke-width="0.3985" stroke-linecap="butt" stroke-linejoin="miter" stroke="rgb(0%, 0%, 0%)" stroke-opacity="1" stroke-miterlimit="10" d="M 0.0000625 -0.00146875 L 42.519594 -0.00146875 " transform="matrix(1, 0, 0, -1, 1.414, 64.979)"/>
<path fill="none" stroke-width="0.3985" stroke-linecap="butt" stroke-linejoin="miter" stroke="rgb(0%, 0%, 0%)" stroke-opacity="1" stroke-miterlimit="10" d="M 56.695375 -0.00146875 L 141.734438 -0.00146875 " transform="matrix(1, 0, 0, -1, 1.414, 64.979)"/>
<path fill="none" stroke-width="0.3985" stroke-linecap="butt" stroke-linejoin="miter" stroke="rgb(0%, 0%, 0%)" stroke-opacity="1" stroke-miterlimit="10" d="M 0.0000625 14.174312 L 42.519594 14.174312 " transform="matrix(1, 0, 0, -1, 1.414, 64.979)"/>
<path fill="none" stroke-width="0.3985" stroke-linecap="butt" stroke-linejoin="miter" stroke="rgb(0%, 0%, 0%)" stroke-opacity="1" stroke-miterlimit="10" d="M 56.695375 14.174312 L 141.734438 14.174312 " transform="matrix(1, 0, 0, -1, 1.414, 64.979)"/>
<path fill="none" stroke-width="0.3985" stroke-linecap="butt" stroke-linejoin="miter" stroke="rgb(0%, 0%, 0%)" stroke-opacity="1" stroke-miterlimit="10" d="M 0.0000625 28.346187 L 42.519594 28.346187 " transform="matrix(1, 0, 0, -1, 1.414, 64.979)"/>
<path fill="none" stroke-width="0.3985" stroke-linecap="butt" stroke-linejoin="miter" stroke="rgb(0%, 0%, 0%)" stroke-opacity="1" stroke-miterlimit="10" d="M 56.695375 28.346187 L 141.734438 28.346187 " transform="matrix(1, 0, 0, -1, 1.414, 64.979)"/>
<path fill="none" stroke-width="0.3985" stroke-linecap="butt" stroke-linejoin="miter" stroke="rgb(0%, 0%, 0%)" stroke-opacity="1" stroke-miterlimit="10" d="M 0.0000625 42.521969 L 42.519594 42.521969 " transform="matrix(1, 0, 0, -1, 1.414, 64.979)"/>
<path fill="none" stroke-width="0.3985" stroke-linecap="butt" stroke-linejoin="miter" stroke="rgb(0%, 0%, 0%)" stroke-opacity="1" stroke-miterlimit="10" d="M 56.695375 42.521969 L 141.734438 42.521969 " transform="matrix(1, 0, 0, -1, 1.414, 64.979)"/>
<path fill="none" stroke-width="0.3985" stroke-linecap="butt" stroke-linejoin="miter" stroke="rgb(0%, 0%, 0%)" stroke-opacity="1" stroke-miterlimit="10" d="M 0.0000625 56.693844 L 42.519594 56.693844 " transform="matrix(1, 0, 0, -1, 1.414, 64.979)"/>
<path fill="none" stroke-width="0.3985" stroke-linecap="butt" stroke-linejoin="miter" stroke="rgb(0%, 0%, 0%)" stroke-opacity="1" stroke-miterlimit="10" d="M 56.695375 56.693844 L 141.734438 56.693844 " transform="matrix(1, 0, 0, -1, 1.414, 64.979)"/>
<path fill="none" stroke-width="0.3985" stroke-linecap="butt" stroke-linejoin="miter" stroke="rgb(0%, 0%, 0%)" stroke-opacity="1" stroke-miterlimit="10" d="M 0.0000625 -0.00146875 L 0.0000625 56.693844 " transform="matrix(1, 0, 0, -1, 1.414, 64.979)"/>
<path fill="none" stroke-width="0.3985" stroke-linecap="butt" stroke-linejoin="miter" stroke="rgb(0%, 0%, 0%)" stroke-opacity="1" stroke-miterlimit="10" d="M 14.171938 -0.00146875 L 14.171938 56.693844 " transform="matrix(1, 0, 0, -1, 1.414, 64.979)"/>
<path fill="none" stroke-width="0.3985" stroke-linecap="butt" stroke-linejoin="miter" stroke="rgb(0%, 0%, 0%)" stroke-opacity="1" stroke-miterlimit="10" d="M 28.347719 -0.00146875 L 28.347719 56.693844 " transform="matrix(1, 0, 0, -1, 1.414, 64.979)"/>
<path fill="none" stroke-width="0.3985" stroke-linecap="butt" stroke-linejoin="miter" stroke="rgb(0%, 0%, 0%)" stroke-opacity="1" stroke-miterlimit="10" d="M 42.519594 -0.00146875 L 42.519594 56.693844 " transform="matrix(1, 0, 0, -1, 1.414, 64.979)"/>
<path fill="none" stroke-width="0.3985" stroke-linecap="butt" stroke-linejoin="miter" stroke="rgb(0%, 0%, 0%)" stroke-opacity="1" stroke-miterlimit="10" d="M 56.695375 -0.00146875 L 56.695375 56.693844 " transform="matrix(1, 0, 0, -1, 1.414, 64.979)"/>
<path fill="none" stroke-width="0.3985" stroke-linecap="butt" stroke-linejoin="miter" stroke="rgb(0%, 0%, 0%)" stroke-opacity="1" stroke-miterlimit="10" d="M 70.86725 -0.00146875 L 70.86725 56.693844 " transform="matrix(1, 0, 0, -1, 1.414, 64.979)"/>
<path fill="none" stroke-width="0.3985" stroke-linecap="butt" stroke-linejoin="miter" stroke="rgb(0%, 0%, 0%)" stroke-opacity="1" stroke-miterlimit="10" d="M 85.039125 -0.00146875 L 85.039125 56.693844 " transform="matrix(1, 0, 0, -1, 1.414, 64.979)"/>
<path fill="none" stroke-width="0.3985" stroke-linecap="butt" stroke-linejoin="miter" stroke="rgb(0%, 0%, 0%)" stroke-opacity="1" stroke-miterlimit="10" d="M 99.214906 -0.00146875 L 99.214906 56.693844 " transform="matrix(1, 0, 0, -1, 1.414, 64.979)"/>
<path fill="none" stroke-width="0.3985" stroke-linecap="butt" stroke-linejoin="miter" stroke="rgb(0%, 0%, 0%)" stroke-opacity="1" stroke-miterlimit="10" d="M 113.386781 -0.00146875 L 113.386781 56.693844 " transform="matrix(1, 0, 0, -1, 1.414, 64.979)"/>
<path fill="none" stroke-width="0.3985" stroke-linecap="butt" stroke-linejoin="miter" stroke="rgb(0%, 0%, 0%)" stroke-opacity="1" stroke-miterlimit="10" d="M 127.562563 -0.00146875 L 127.562563 56.693844 " transform="matrix(1, 0, 0, -1, 1.414, 64.979)"/>
<path fill="none" stroke-width="0.3985" stroke-linecap="butt" stroke-linejoin="miter" stroke="rgb(0%, 0%, 0%)" stroke-opacity="1" stroke-miterlimit="10" d="M 141.734438 -0.00146875 L 141.734438 56.693844 " transform="matrix(1, 0, 0, -1, 1.414, 64.979)"/>
<path fill="none" stroke-width="0.3985" stroke-linecap="butt" stroke-linejoin="miter" stroke="rgb(0%, 0%, 0%)" stroke-opacity="1" stroke-miterlimit="10" d="M 212.601625 -7.087406 L 340.160219 -7.087406 " transform="matrix(1, 0, 0, -1, 1.414, 64.979)"/>
<path fill="none" stroke-width="0.3985" stroke-linecap="butt" stroke-linejoin="miter" stroke="rgb(0%, 0%, 0%)" stroke-opacity="1" stroke-miterlimit="10" d="M 212.601625 7.088375 L 340.160219 7.088375 " transform="matrix(1, 0, 0, -1, 1.414, 64.979)"/>
<path fill="none" stroke-width="0.3985" stroke-linecap="butt" stroke-linejoin="miter" stroke="rgb(0%, 0%, 0%)" stroke-opacity="1" stroke-miterlimit="10" d="M 212.601625 -7.087406 L 212.601625 7.088375 " transform="matrix(1, 0, 0, -1, 1.414, 64.979)"/>
<path fill="none" stroke-width="0.3985" stroke-linecap="butt" stroke-linejoin="miter" stroke="rgb(0%, 0%, 0%)" stroke-opacity="1" stroke-miterlimit="10" d="M 212.601625 21.26025 L 212.601625 63.779781 " transform="matrix(1, 0, 0, -1, 1.414, 64.979)"/>
<path fill="none" stroke-width="0.3985" stroke-linecap="butt" stroke-linejoin="miter" stroke="rgb(0%, 0%, 0%)" stroke-opacity="1" stroke-miterlimit="10" d="M 226.7735 -7.087406 L 226.7735 7.088375 " transform="matrix(1, 0, 0, -1, 1.414, 64.979)"/>
<path fill="none" stroke-width="0.3985" stroke-linecap="butt" stroke-linejoin="miter" stroke="rgb(0%, 0%, 0%)" stroke-opacity="1" stroke-miterlimit="10" d="M 226.7735 21.26025 L 226.7735 63.779781 " transform="matrix(1, 0, 0, -1, 1.414, 64.979)"/>
<path fill="none" stroke-width="0.3985" stroke-linecap="butt" stroke-linejoin="miter" stroke="rgb(0%, 0%, 0%)" stroke-opacity="1" stroke-miterlimit="10" d="M 240.949281 -7.087406 L 240.949281 7.088375 " transform="matrix(1, 0, 0, -1, 1.414, 64.979)"/>
<path fill="none" stroke-width="0.3985" stroke-linecap="butt" stroke-linejoin="miter" stroke="rgb(0%, 0%, 0%)" stroke-opacity="1" stroke-miterlimit="10" d="M 240.949281 21.26025 L 240.949281 63.779781 " transform="matrix(1, 0, 0, -1, 1.414, 64.979)"/>
<path fill="none" stroke-width="0.3985" stroke-linecap="butt" stroke-linejoin="miter" stroke="rgb(0%, 0%, 0%)" stroke-opacity="1" stroke-miterlimit="10" d="M 255.121156 -7.087406 L 255.121156 7.088375 " transform="matrix(1, 0, 0, -1, 1.414, 64.979)"/>
<path fill="none" stroke-width="0.3985" stroke-linecap="butt" stroke-linejoin="miter" stroke="rgb(0%, 0%, 0%)" stroke-opacity="1" stroke-miterlimit="10" d="M 255.121156 21.26025 L 255.121156 63.779781 " transform="matrix(1, 0, 0, -1, 1.414, 64.979)"/>
<path fill="none" stroke-width="0.3985" stroke-linecap="butt" stroke-linejoin="miter" stroke="rgb(0%, 0%, 0%)" stroke-opacity="1" stroke-miterlimit="10" d="M 269.293031 -7.087406 L 269.293031 7.088375 " transform="matrix(1, 0, 0, -1, 1.414, 64.979)"/>
<path fill="none" stroke-width="0.3985" stroke-linecap="butt" stroke-linejoin="miter" stroke="rgb(0%, 0%, 0%)" stroke-opacity="1" stroke-miterlimit="10" d="M 269.293031 21.26025 L 269.293031 63.779781 " transform="matrix(1, 0, 0, -1, 1.414, 64.979)"/>
<path fill="none" stroke-width="0.3985" stroke-linecap="butt" stroke-linejoin="miter" stroke="rgb(0%, 0%, 0%)" stroke-opacity="1" stroke-miterlimit="10" d="M 283.468813 -7.087406 L 283.468813 7.088375 " transform="matrix(1, 0, 0, -1, 1.414, 64.979)"/>
<path fill="none" stroke-width="0.3985" stroke-linecap="butt" stroke-linejoin="miter" stroke="rgb(0%, 0%, 0%)" stroke-opacity="1" stroke-miterlimit="10" d="M 283.468813 21.26025 L 283.468813 63.779781 " transform="matrix(1, 0, 0, -1, 1.414, 64.979)"/>
<path fill="none" stroke-width="0.3985" stroke-linecap="butt" stroke-linejoin="miter" stroke="rgb(0%, 0%, 0%)" stroke-opacity="1" stroke-miterlimit="10" d="M 297.640688 -7.087406 L 297.640688 7.088375 " transform="matrix(1, 0, 0, -1, 1.414, 64.979)"/>
<path fill="none" stroke-width="0.3985" stroke-linecap="butt" stroke-linejoin="miter" stroke="rgb(0%, 0%, 0%)" stroke-opacity="1" stroke-miterlimit="10" d="M 297.640688 21.26025 L 297.640688 63.779781 " transform="matrix(1, 0, 0, -1, 1.414, 64.979)"/>
<path fill="none" stroke-width="0.3985" stroke-linecap="butt" stroke-linejoin="miter" stroke="rgb(0%, 0%, 0%)" stroke-opacity="1" stroke-miterlimit="10" d="M 311.816469 -7.087406 L 311.816469 7.088375 " transform="matrix(1, 0, 0, -1, 1.414, 64.979)"/>
<path fill="none" stroke-width="0.3985" stroke-linecap="butt" stroke-linejoin="miter" stroke="rgb(0%, 0%, 0%)" stroke-opacity="1" stroke-miterlimit="10" d="M 311.816469 21.26025 L 311.816469 63.779781 " transform="matrix(1, 0, 0, -1, 1.414, 64.979)"/>
<path fill="none" stroke-width="0.3985" stroke-linecap="butt" stroke-linejoin="miter" stroke="rgb(0%, 0%, 0%)" stroke-opacity="1" stroke-miterlimit="10" d="M 325.988344 -7.087406 L 325.988344 7.088375 " transform="matrix(1, 0, 0, -1, 1.414, 64.979)"/>
<path fill="none" stroke-width="0.3985" stroke-linecap="butt" stroke-linejoin="miter" stroke="rgb(0%, 0%, 0%)" stroke-opacity="1" stroke-miterlimit="10" d="M 325.988344 21.26025 L 325.988344 63.779781 " transform="matrix(1, 0, 0, -1, 1.414, 64.979)"/>
<path fill="none" stroke-width="0.3985" stroke-linecap="butt" stroke-linejoin="miter" stroke="rgb(0%, 0%, 0%)" stroke-opacity="1" stroke-miterlimit="10" d="M 340.160219 -7.087406 L 340.160219 7.088375 " transform="matrix(1, 0, 0, -1, 1.414, 64.979)"/>
<path fill="none" stroke-width="0.3985" stroke-linecap="butt" stroke-linejoin="miter" stroke="rgb(0%, 0%, 0%)" stroke-opacity="1" stroke-miterlimit="10" d="M 340.160219 21.26025 L 340.160219 63.779781 " transform="matrix(1, 0, 0, -1, 1.414, 64.979)"/>
<path fill="none" stroke-width="0.3985" stroke-linecap="butt" stroke-linejoin="miter" stroke="rgb(0%, 0%, 0%)" stroke-opacity="1" stroke-miterlimit="10" d="M 212.601625 21.26025 L 340.160219 21.26025 " transform="matrix(1, 0, 0, -1, 1.414, 64.979)"/>
<path fill="none" stroke-width="0.3985" stroke-linecap="butt" stroke-linejoin="miter" stroke="rgb(0%, 0%, 0%)" stroke-opacity="1" stroke-miterlimit="10" d="M 212.601625 35.432125 L 340.160219 35.432125 " transform="matrix(1, 0, 0, -1, 1.414, 64.979)"/>
<path fill="none" stroke-width="0.3985" stroke-linecap="butt" stroke-linejoin="miter" stroke="rgb(0%, 0%, 0%)" stroke-opacity="1" stroke-miterlimit="10" d="M 212.601625 49.607906 L 340.160219 49.607906 " transform="matrix(1, 0, 0, -1, 1.414, 64.979)"/>
<path fill="none" stroke-width="0.3985" stroke-linecap="butt" stroke-linejoin="miter" stroke="rgb(0%, 0%, 0%)" stroke-opacity="1" stroke-miterlimit="10" d="M 212.601625 63.779781 L 340.160219 63.779781 " transform="matrix(1, 0, 0, -1, 1.414, 64.979)"/>
</svg>
