<?xml version="1.0" encoding="UTF-8"?>
<svg xmlns="http://www.w3.org/2000/svg" xmlns:xlink="http://www.w3.org/1999/xlink" width="134.96pt" height="92.18534pt" viewBox="0 0 134.96 92.18534" version="1.1">
<defs>
<clipPath id="clip1">
  <path d="M 77 45 L 134.960938 45 L 134.960938 92.183594 L 77 92.183594 Z M 77 45 "/>
</clipPath>
<clipPath id="clip2">
  <path d="M 123 80 L 134.960938 80 L 134.960938 92.183594 L 123 92.183594 Z M 123 80 "/>
</clipPath>
<clipPath id="clip3">
  <path d="M 77 45 L 134.960938 45 L 134.960938 79 L 77 79 Z M 77 45 "/>
</clipPath>
<clipPath id="clip4">
  <path d="M 123 59 L 134.960938 59 L 134.960938 76 L 123 76 Z M 123 59 "/>
</clipPath>
<clipPath id="clip5">
  <path d="M 77 34 L 134.960938 34 L 134.960938 68 L 77 68 Z M 77 34 "/>
</clipPath>
<clipPath id="clip6">
  <path d="M 123 38 L 134.960938 38 L 134.960938 54 L 123 54 Z M 123 38 "/>
</clipPath>
<clipPath id="clip7">
  <path d="M 77 13 L 134.960938 13 L 134.960938 68 L 77 68 Z M 77 13 "/>
</clipPath>
<clipPath id="clip8">
  <path d="M 123 16 L 134.960938 16 L 134.960938 33 L 123 33 Z M 123 16 "/>
</clipPath>
<clipPath id="clip9">
  <path d="M 77 0 L 134.960938 0 L 134.960938 68 L 77 68 Z M 77 0 "/>
</clipPath>
<clipPath id="clip10">
  <path d="M 123 0 L 134.960938 0 L 134.960938 12 L 123 12 Z M 123 0 "/>
</clipPath>
<clipPath id="clip11">
  <path d="M 77 24 L 134.960938 24 L 134.960938 92.183594 L 77 92.183594 Z M 77 24 "/>
</clipPath>
<clipPath id="clip12">
  <path d="M 123 80 L 134.960938 80 L 134.960938 92.183594 L 123 92.183594 Z M 123 80 "/>
</clipPath>
<clipPath id="clip13">
  <path d="M 77 24 L 134.960938 24 L 134.960938 79 L 77 79 Z M 77 24 "/>
</clipPath>
<clipPath id="clip14">
  <path d="M 123 59 L 134.960938 59 L 134.960938 76 L 123 76 Z M 123 59 "/>
</clipPath>
<clipPath id="clip15">
  <path d="M 77 24 L 134.960938 24 L 134.960938 58 L 77 58 Z M 77 24 "/>
</clipPath>
<clipPath id="clip16">
  <path d="M 123 38 L 134.960938 38 L 134.960938 54 L 123 54 Z M 123 38 "/>
</clipPath>
<clipPath id="clip17">
  <path d="M 77 13 L 134.960938 13 L 134.960938 47 L 77 47 Z M 77 13 "/>
</clipPath>
<clipPath id="clip18">
  <path d="M 123 16 L 134.960938 16 L 134.960938 33 L 123 33 Z M 123 16 "/>
</clipPath>
<clipPath id="clip19">
  <path d="M 77 0 L 134.960938 0 L 134.960938 47 L 77 47 Z M 77 0 "/>
</clipPath>
<clipPath id="clip20">
  <path d="M 123 0 L 134.960938 0 L 134.960938 12 L 123 12 Z M 123 0 "/>
</clipPath>
</defs>
<g id="surface1">
<path style="fill-rule:nonzero;fill:rgb(0%,0%,0%);fill-opacity:1;stroke-width:0.3985;stroke-linecap:butt;stroke-linejoin:miter;stroke:rgb(0%,0%,0%);stroke-opacity:1;stroke-miterlimit:10;" d="M 2.242438 0.00098375 C 2.242438 1.239265 1.238531 2.243171 0.00025 2.243171 C -1.238031 2.243171 -2.241937 1.239265 -2.241937 0.00098375 C -2.241937 -1.237298 -1.238031 -2.241204 0.00025 -2.241204 C 1.238531 -2.241204 2.242438 -1.237298 2.242438 0.00098375 Z M 2.242438 0.00098375 " transform="matrix(1,0,0,-1,3.656,67.25489)"/>
<path style="fill:none;stroke-width:0.79701;stroke-linecap:butt;stroke-linejoin:miter;stroke:rgb(0%,0%,0%);stroke-opacity:1;stroke-miterlimit:10;" d="M 0.00025 0.00098375 L 42.519781 10.62989 " transform="matrix(1,0,0,-1,3.656,67.25489)"/>
<path style="fill-rule:nonzero;fill:rgb(0%,0%,0%);fill-opacity:1;stroke-width:0.3985;stroke-linecap:butt;stroke-linejoin:miter;stroke:rgb(0%,0%,0%);stroke-opacity:1;stroke-miterlimit:10;" d="M 44.761969 10.62989 C 44.761969 11.868171 43.758063 12.872077 42.519781 12.872077 C 41.2815 12.872077 40.277594 11.868171 40.277594 10.62989 C 40.277594 9.391609 41.2815 8.387702 42.519781 8.387702 C 43.758063 8.387702 44.761969 9.391609 44.761969 10.62989 Z M 44.761969 10.62989 " transform="matrix(1,0,0,-1,3.656,67.25489)"/>
<path style="fill:none;stroke-width:0.79701;stroke-linecap:butt;stroke-linejoin:miter;stroke:rgb(0%,0%,0%);stroke-opacity:1;stroke-miterlimit:10;" d="M 0.00025 0.00098375 L 42.519781 31.891609 " transform="matrix(1,0,0,-1,3.656,67.25489)"/>
<path style="fill-rule:nonzero;fill:rgb(0%,0%,0%);fill-opacity:1;stroke-width:0.3985;stroke-linecap:butt;stroke-linejoin:miter;stroke:rgb(0%,0%,0%);stroke-opacity:1;stroke-miterlimit:10;" d="M 44.761969 31.891609 C 44.761969 33.12989 43.758063 34.12989 42.519781 34.12989 C 41.2815 34.12989 40.277594 33.12989 40.277594 31.891609 C 40.277594 30.653327 41.2815 29.649421 42.519781 29.649421 C 43.758063 29.649421 44.761969 30.653327 44.761969 31.891609 Z M 44.761969 31.891609 " transform="matrix(1,0,0,-1,3.656,67.25489)"/>
<path style="fill-rule:nonzero;fill:rgb(0%,0%,0%);fill-opacity:1;stroke-width:0.3985;stroke-linecap:butt;stroke-linejoin:miter;stroke:rgb(0%,0%,0%);stroke-opacity:1;stroke-miterlimit:10;" d="M 2.242438 21.258796 C 2.242438 22.497077 1.238531 23.500984 0.00025 23.500984 C -1.238031 23.500984 -2.241937 22.497077 -2.241937 21.258796 C -2.241937 20.020515 -1.238031 19.016609 0.00025 19.016609 C 1.238531 19.016609 2.242438 20.020515 2.242438 21.258796 Z M 2.242438 21.258796 " transform="matrix(1,0,0,-1,3.656,67.25489)"/>
<path style="fill:none;stroke-width:0.79701;stroke-linecap:butt;stroke-linejoin:miter;stroke:rgb(0%,0%,0%);stroke-opacity:1;stroke-miterlimit:10;" d="M 0.00025 21.258796 L 42.519781 10.62989 " transform="matrix(1,0,0,-1,3.656,67.25489)"/>
<path style="fill-rule:nonzero;fill:rgb(0%,0%,0%);fill-opacity:1;stroke-width:0.3985;stroke-linecap:butt;stroke-linejoin:miter;stroke:rgb(0%,0%,0%);stroke-opacity:1;stroke-miterlimit:10;" d="M 44.761969 10.62989 C 44.761969 11.868171 43.758063 12.872077 42.519781 12.872077 C 41.2815 12.872077 40.277594 11.868171 40.277594 10.62989 C 40.277594 9.391609 41.2815 8.387702 42.519781 8.387702 C 43.758063 8.387702 44.761969 9.391609 44.761969 10.62989 Z M 44.761969 10.62989 " transform="matrix(1,0,0,-1,3.656,67.25489)"/>
<path style="fill:none;stroke-width:0.79701;stroke-linecap:butt;stroke-linejoin:miter;stroke:rgb(0%,0%,0%);stroke-opacity:1;stroke-miterlimit:10;" d="M 0.00025 21.258796 L 42.519781 31.891609 " transform="matrix(1,0,0,-1,3.656,67.25489)"/>
<path style="fill-rule:nonzero;fill:rgb(0%,0%,0%);fill-opacity:1;stroke-width:0.3985;stroke-linecap:butt;stroke-linejoin:miter;stroke:rgb(0%,0%,0%);stroke-opacity:1;stroke-miterlimit:10;" d="M 44.761969 31.891609 C 44.761969 33.12989 43.758063 34.12989 42.519781 34.12989 C 41.2815 34.12989 40.277594 33.12989 40.277594 31.891609 C 40.277594 30.653327 41.2815 29.649421 42.519781 29.649421 C 43.758063 29.649421 44.761969 30.653327 44.761969 31.891609 Z M 44.761969 31.891609 " transform="matrix(1,0,0,-1,3.656,67.25489)"/>
<path style="fill-rule:nonzero;fill:rgb(0%,0%,0%);fill-opacity:1;stroke-width:0.3985;stroke-linecap:butt;stroke-linejoin:miter;stroke:rgb(0%,0%,0%);stroke-opacity:1;stroke-miterlimit:10;" d="M 2.242438 42.520515 C 2.242438 43.758796 1.238531 44.762702 0.00025 44.762702 C -1.238031 44.762702 -2.241937 43.758796 -2.241937 42.520515 C -2.241937 41.282234 -1.238031 40.278327 0.00025 40.278327 C 1.238531 40.278327 2.242438 41.282234 2.242438 42.520515 Z M 2.242438 42.520515 " transform="matrix(1,0,0,-1,3.656,67.25489)"/>
<path style="fill:none;stroke-width:0.79701;stroke-linecap:butt;stroke-linejoin:miter;stroke:rgb(0%,0%,0%);stroke-opacity:1;stroke-miterlimit:10;" d="M 0.00025 42.520515 L 42.519781 10.62989 " transform="matrix(1,0,0,-1,3.656,67.25489)"/>
<path style="fill-rule:nonzero;fill:rgb(0%,0%,0%);fill-opacity:1;stroke-width:0.3985;stroke-linecap:butt;stroke-linejoin:miter;stroke:rgb(0%,0%,0%);stroke-opacity:1;stroke-miterlimit:10;" d="M 44.761969 10.62989 C 44.761969 11.868171 43.758063 12.872077 42.519781 12.872077 C 41.2815 12.872077 40.277594 11.868171 40.277594 10.62989 C 40.277594 9.391609 41.2815 8.387702 42.519781 8.387702 C 43.758063 8.387702 44.761969 9.391609 44.761969 10.62989 Z M 44.761969 10.62989 " transform="matrix(1,0,0,-1,3.656,67.25489)"/>
<path style="fill:none;stroke-width:0.79701;stroke-linecap:butt;stroke-linejoin:miter;stroke:rgb(0%,0%,0%);stroke-opacity:1;stroke-miterlimit:10;" d="M 0.00025 42.520515 L 42.519781 31.891609 " transform="matrix(1,0,0,-1,3.656,67.25489)"/>
<path style="fill-rule:nonzero;fill:rgb(0%,0%,0%);fill-opacity:1;stroke-width:0.3985;stroke-linecap:butt;stroke-linejoin:miter;stroke:rgb(0%,0%,0%);stroke-opacity:1;stroke-miterlimit:10;" d="M 44.761969 31.891609 C 44.761969 33.12989 43.758063 34.12989 42.519781 34.12989 C 41.2815 34.12989 40.277594 33.12989 40.277594 31.891609 C 40.277594 30.653327 41.2815 29.649421 42.519781 29.649421 C 43.758063 29.649421 44.761969 30.653327 44.761969 31.891609 Z M 44.761969 31.891609 " transform="matrix(1,0,0,-1,3.656,67.25489)"/>
<path style="fill-rule:nonzero;fill:rgb(0%,0%,0%);fill-opacity:1;stroke-width:0.3985;stroke-linecap:butt;stroke-linejoin:miter;stroke:rgb(0%,0%,0%);stroke-opacity:1;stroke-miterlimit:10;" d="M 87.2815 10.62989 C 87.2815 11.868171 86.277594 12.872077 85.039312 12.872077 C 83.801031 12.872077 82.797125 11.868171 82.797125 10.62989 C 82.797125 9.391609 83.801031 8.387702 85.039312 8.387702 C 86.277594 8.387702 87.2815 9.391609 87.2815 10.62989 Z M 87.2815 10.62989 " transform="matrix(1,0,0,-1,3.656,67.25489)"/>
<g clip-path="url(#clip1)" clip-rule="nonzero">
<path style="fill:none;stroke-width:0.79701;stroke-linecap:butt;stroke-linejoin:miter;stroke:rgb(0%,0%,0%);stroke-opacity:1;stroke-miterlimit:10;" d="M 85.039312 10.62989 L 127.558844 -21.260735 " transform="matrix(1,0,0,-1,3.656,67.25489)"/>
</g>
<path style=" stroke:none;fill-rule:nonzero;fill:rgb(0%,0%,0%);fill-opacity:1;" d="M 133.457031 88.515625 C 133.457031 87.277344 132.453125 86.273438 131.214844 86.273438 C 129.980469 86.273438 128.976562 87.277344 128.976562 88.515625 C 128.976562 89.753906 129.980469 90.757812 131.214844 90.757812 C 132.453125 90.757812 133.457031 89.753906 133.457031 88.515625 Z M 133.457031 88.515625 "/>
<g clip-path="url(#clip2)" clip-rule="nonzero">
<path style="fill:none;stroke-width:0.3985;stroke-linecap:butt;stroke-linejoin:miter;stroke:rgb(0%,0%,0%);stroke-opacity:1;stroke-miterlimit:10;" d="M 129.801031 -21.260735 C 129.801031 -20.022454 128.797125 -19.018548 127.558844 -19.018548 C 126.324469 -19.018548 125.320562 -20.022454 125.320562 -21.260735 C 125.320562 -22.499016 126.324469 -23.502923 127.558844 -23.502923 C 128.797125 -23.502923 129.801031 -22.499016 129.801031 -21.260735 Z M 129.801031 -21.260735 " transform="matrix(1,0,0,-1,3.656,67.25489)"/>
</g>
<g clip-path="url(#clip3)" clip-rule="nonzero">
<path style="fill:none;stroke-width:0.79701;stroke-linecap:butt;stroke-linejoin:miter;stroke:rgb(0%,0%,0%);stroke-opacity:1;stroke-miterlimit:10;" d="M 85.039312 10.62989 L 127.558844 0.00098375 " transform="matrix(1,0,0,-1,3.656,67.25489)"/>
</g>
<path style=" stroke:none;fill-rule:nonzero;fill:rgb(0%,0%,0%);fill-opacity:1;" d="M 133.457031 67.253906 C 133.457031 66.015625 132.453125 65.011719 131.214844 65.011719 C 129.980469 65.011719 128.976562 66.015625 128.976562 67.253906 C 128.976562 68.492188 129.980469 69.496094 131.214844 69.496094 C 132.453125 69.496094 133.457031 68.492188 133.457031 67.253906 Z M 133.457031 67.253906 "/>
<g clip-path="url(#clip4)" clip-rule="nonzero">
<path style="fill:none;stroke-width:0.3985;stroke-linecap:butt;stroke-linejoin:miter;stroke:rgb(0%,0%,0%);stroke-opacity:1;stroke-miterlimit:10;" d="M 129.801031 0.00098375 C 129.801031 1.239265 128.797125 2.243171 127.558844 2.243171 C 126.324469 2.243171 125.320562 1.239265 125.320562 0.00098375 C 125.320562 -1.237298 126.324469 -2.241204 127.558844 -2.241204 C 128.797125 -2.241204 129.801031 -1.237298 129.801031 0.00098375 Z M 129.801031 0.00098375 " transform="matrix(1,0,0,-1,3.656,67.25489)"/>
</g>
<g clip-path="url(#clip5)" clip-rule="nonzero">
<path style="fill:none;stroke-width:0.79701;stroke-linecap:butt;stroke-linejoin:miter;stroke:rgb(0%,0%,0%);stroke-opacity:1;stroke-miterlimit:10;" d="M 85.039312 10.62989 L 127.558844 21.258796 " transform="matrix(1,0,0,-1,3.656,67.25489)"/>
</g>
<path style=" stroke:none;fill-rule:nonzero;fill:rgb(0%,0%,0%);fill-opacity:1;" d="M 133.457031 45.996094 C 133.457031 44.757812 132.453125 43.753906 131.214844 43.753906 C 129.980469 43.753906 128.976562 44.757812 128.976562 45.996094 C 128.976562 47.234375 129.980469 48.238281 131.214844 48.238281 C 132.453125 48.238281 133.457031 47.234375 133.457031 45.996094 Z M 133.457031 45.996094 "/>
<g clip-path="url(#clip6)" clip-rule="nonzero">
<path style="fill:none;stroke-width:0.3985;stroke-linecap:butt;stroke-linejoin:miter;stroke:rgb(0%,0%,0%);stroke-opacity:1;stroke-miterlimit:10;" d="M 129.801031 21.258796 C 129.801031 22.497077 128.797125 23.500984 127.558844 23.500984 C 126.324469 23.500984 125.320562 22.497077 125.320562 21.258796 C 125.320562 20.020515 126.324469 19.016609 127.558844 19.016609 C 128.797125 19.016609 129.801031 20.020515 129.801031 21.258796 Z M 129.801031 21.258796 " transform="matrix(1,0,0,-1,3.656,67.25489)"/>
</g>
<g clip-path="url(#clip7)" clip-rule="nonzero">
<path style="fill:none;stroke-width:0.79701;stroke-linecap:butt;stroke-linejoin:miter;stroke:rgb(0%,0%,0%);stroke-opacity:1;stroke-miterlimit:10;" d="M 85.039312 10.62989 L 127.558844 42.520515 " transform="matrix(1,0,0,-1,3.656,67.25489)"/>
</g>
<path style=" stroke:none;fill-rule:nonzero;fill:rgb(0%,0%,0%);fill-opacity:1;" d="M 133.457031 24.734375 C 133.457031 23.496094 132.453125 22.492188 131.214844 22.492188 C 129.980469 22.492188 128.976562 23.496094 128.976562 24.734375 C 128.976562 25.972656 129.980469 26.976562 131.214844 26.976562 C 132.453125 26.976562 133.457031 25.972656 133.457031 24.734375 Z M 133.457031 24.734375 "/>
<g clip-path="url(#clip8)" clip-rule="nonzero">
<path style="fill:none;stroke-width:0.3985;stroke-linecap:butt;stroke-linejoin:miter;stroke:rgb(0%,0%,0%);stroke-opacity:1;stroke-miterlimit:10;" d="M 129.801031 42.520515 C 129.801031 43.758796 128.797125 44.762702 127.558844 44.762702 C 126.324469 44.762702 125.320562 43.758796 125.320562 42.520515 C 125.320562 41.282234 126.324469 40.278327 127.558844 40.278327 C 128.797125 40.278327 129.801031 41.282234 129.801031 42.520515 Z M 129.801031 42.520515 " transform="matrix(1,0,0,-1,3.656,67.25489)"/>
</g>
<g clip-path="url(#clip9)" clip-rule="nonzero">
<path style="fill:none;stroke-width:0.79701;stroke-linecap:butt;stroke-linejoin:miter;stroke:rgb(0%,0%,0%);stroke-opacity:1;stroke-miterlimit:10;" d="M 85.039312 10.62989 L 127.558844 63.782234 " transform="matrix(1,0,0,-1,3.656,67.25489)"/>
</g>
<path style=" stroke:none;fill-rule:nonzero;fill:rgb(0%,0%,0%);fill-opacity:1;" d="M 133.457031 3.472656 C 133.457031 2.238281 132.453125 1.234375 131.214844 1.234375 C 129.980469 1.234375 128.976562 2.238281 128.976562 3.472656 C 128.976562 4.710938 129.980469 5.714844 131.214844 5.714844 C 132.453125 5.714844 133.457031 4.710938 133.457031 3.472656 Z M 133.457031 3.472656 "/>
<g clip-path="url(#clip10)" clip-rule="nonzero">
<path style="fill:none;stroke-width:0.3985;stroke-linecap:butt;stroke-linejoin:miter;stroke:rgb(0%,0%,0%);stroke-opacity:1;stroke-miterlimit:10;" d="M 129.801031 63.782234 C 129.801031 65.016609 128.797125 66.020515 127.558844 66.020515 C 126.324469 66.020515 125.320562 65.016609 125.320562 63.782234 C 125.320562 62.543952 126.324469 61.540046 127.558844 61.540046 C 128.797125 61.540046 129.801031 62.543952 129.801031 63.782234 Z M 129.801031 63.782234 " transform="matrix(1,0,0,-1,3.656,67.25489)"/>
</g>
<path style="fill-rule:nonzero;fill:rgb(0%,0%,0%);fill-opacity:1;stroke-width:0.3985;stroke-linecap:butt;stroke-linejoin:miter;stroke:rgb(0%,0%,0%);stroke-opacity:1;stroke-miterlimit:10;" d="M 87.2815 31.891609 C 87.2815 33.12989 86.277594 34.12989 85.039312 34.12989 C 83.801031 34.12989 82.797125 33.12989 82.797125 31.891609 C 82.797125 30.653327 83.801031 29.649421 85.039312 29.649421 C 86.277594 29.649421 87.2815 30.653327 87.2815 31.891609 Z M 87.2815 31.891609 " transform="matrix(1,0,0,-1,3.656,67.25489)"/>
<g clip-path="url(#clip11)" clip-rule="nonzero">
<path style="fill:none;stroke-width:0.79701;stroke-linecap:butt;stroke-linejoin:miter;stroke:rgb(0%,0%,0%);stroke-opacity:1;stroke-miterlimit:10;" d="M 85.039312 31.891609 L 127.558844 -21.260735 " transform="matrix(1,0,0,-1,3.656,67.25489)"/>
</g>
<path style=" stroke:none;fill-rule:nonzero;fill:rgb(0%,0%,0%);fill-opacity:1;" d="M 133.457031 88.515625 C 133.457031 87.277344 132.453125 86.273438 131.214844 86.273438 C 129.980469 86.273438 128.976562 87.277344 128.976562 88.515625 C 128.976562 89.753906 129.980469 90.757812 131.214844 90.757812 C 132.453125 90.757812 133.457031 89.753906 133.457031 88.515625 Z M 133.457031 88.515625 "/>
<g clip-path="url(#clip12)" clip-rule="nonzero">
<path style="fill:none;stroke-width:0.3985;stroke-linecap:butt;stroke-linejoin:miter;stroke:rgb(0%,0%,0%);stroke-opacity:1;stroke-miterlimit:10;" d="M 129.801031 -21.260735 C 129.801031 -20.022454 128.797125 -19.018548 127.558844 -19.018548 C 126.324469 -19.018548 125.320562 -20.022454 125.320562 -21.260735 C 125.320562 -22.499016 126.324469 -23.502923 127.558844 -23.502923 C 128.797125 -23.502923 129.801031 -22.499016 129.801031 -21.260735 Z M 129.801031 -21.260735 " transform="matrix(1,0,0,-1,3.656,67.25489)"/>
</g>
<g clip-path="url(#clip13)" clip-rule="nonzero">
<path style="fill:none;stroke-width:0.79701;stroke-linecap:butt;stroke-linejoin:miter;stroke:rgb(0%,0%,0%);stroke-opacity:1;stroke-miterlimit:10;" d="M 85.039312 31.891609 L 127.558844 0.00098375 " transform="matrix(1,0,0,-1,3.656,67.25489)"/>
</g>
<path style=" stroke:none;fill-rule:nonzero;fill:rgb(0%,0%,0%);fill-opacity:1;" d="M 133.457031 67.253906 C 133.457031 66.015625 132.453125 65.011719 131.214844 65.011719 C 129.980469 65.011719 128.976562 66.015625 128.976562 67.253906 C 128.976562 68.492188 129.980469 69.496094 131.214844 69.496094 C 132.453125 69.496094 133.457031 68.492188 133.457031 67.253906 Z M 133.457031 67.253906 "/>
<g clip-path="url(#clip14)" clip-rule="nonzero">
<path style="fill:none;stroke-width:0.3985;stroke-linecap:butt;stroke-linejoin:miter;stroke:rgb(0%,0%,0%);stroke-opacity:1;stroke-miterlimit:10;" d="M 129.801031 0.00098375 C 129.801031 1.239265 128.797125 2.243171 127.558844 2.243171 C 126.324469 2.243171 125.320562 1.239265 125.320562 0.00098375 C 125.320562 -1.237298 126.324469 -2.241204 127.558844 -2.241204 C 128.797125 -2.241204 129.801031 -1.237298 129.801031 0.00098375 Z M 129.801031 0.00098375 " transform="matrix(1,0,0,-1,3.656,67.25489)"/>
</g>
<g clip-path="url(#clip15)" clip-rule="nonzero">
<path style="fill:none;stroke-width:0.79701;stroke-linecap:butt;stroke-linejoin:miter;stroke:rgb(0%,0%,0%);stroke-opacity:1;stroke-miterlimit:10;" d="M 85.039312 31.891609 L 127.558844 21.258796 " transform="matrix(1,0,0,-1,3.656,67.25489)"/>
</g>
<path style=" stroke:none;fill-rule:nonzero;fill:rgb(0%,0%,0%);fill-opacity:1;" d="M 133.457031 45.996094 C 133.457031 44.757812 132.453125 43.753906 131.214844 43.753906 C 129.980469 43.753906 128.976562 44.757812 128.976562 45.996094 C 128.976562 47.234375 129.980469 48.238281 131.214844 48.238281 C 132.453125 48.238281 133.457031 47.234375 133.457031 45.996094 Z M 133.457031 45.996094 "/>
<g clip-path="url(#clip16)" clip-rule="nonzero">
<path style="fill:none;stroke-width:0.3985;stroke-linecap:butt;stroke-linejoin:miter;stroke:rgb(0%,0%,0%);stroke-opacity:1;stroke-miterlimit:10;" d="M 129.801031 21.258796 C 129.801031 22.497077 128.797125 23.500984 127.558844 23.500984 C 126.324469 23.500984 125.320562 22.497077 125.320562 21.258796 C 125.320562 20.020515 126.324469 19.016609 127.558844 19.016609 C 128.797125 19.016609 129.801031 20.020515 129.801031 21.258796 Z M 129.801031 21.258796 " transform="matrix(1,0,0,-1,3.656,67.25489)"/>
</g>
<g clip-path="url(#clip17)" clip-rule="nonzero">
<path style="fill:none;stroke-width:0.79701;stroke-linecap:butt;stroke-linejoin:miter;stroke:rgb(0%,0%,0%);stroke-opacity:1;stroke-miterlimit:10;" d="M 85.039312 31.891609 L 127.558844 42.520515 " transform="matrix(1,0,0,-1,3.656,67.25489)"/>
</g>
<path style=" stroke:none;fill-rule:nonzero;fill:rgb(0%,0%,0%);fill-opacity:1;" d="M 133.457031 24.734375 C 133.457031 23.496094 132.453125 22.492188 131.214844 22.492188 C 129.980469 22.492188 128.976562 23.496094 128.976562 24.734375 C 128.976562 25.972656 129.980469 26.976562 131.214844 26.976562 C 132.453125 26.976562 133.457031 25.972656 133.457031 24.734375 Z M 133.457031 24.734375 "/>
<g clip-path="url(#clip18)" clip-rule="nonzero">
<path style="fill:none;stroke-width:0.3985;stroke-linecap:butt;stroke-linejoin:miter;stroke:rgb(0%,0%,0%);stroke-opacity:1;stroke-miterlimit:10;" d="M 129.801031 42.520515 C 129.801031 43.758796 128.797125 44.762702 127.558844 44.762702 C 126.324469 44.762702 125.320562 43.758796 125.320562 42.520515 C 125.320562 41.282234 126.324469 40.278327 127.558844 40.278327 C 128.797125 40.278327 129.801031 41.282234 129.801031 42.520515 Z M 129.801031 42.520515 " transform="matrix(1,0,0,-1,3.656,67.25489)"/>
</g>
<g clip-path="url(#clip19)" clip-rule="nonzero">
<path style="fill:none;stroke-width:0.79701;stroke-linecap:butt;stroke-linejoin:miter;stroke:rgb(0%,0%,0%);stroke-opacity:1;stroke-miterlimit:10;" d="M 85.039312 31.891609 L 127.558844 63.782234 " transform="matrix(1,0,0,-1,3.656,67.25489)"/>
</g>
<path style=" stroke:none;fill-rule:nonzero;fill:rgb(0%,0%,0%);fill-opacity:1;" d="M 133.457031 3.472656 C 133.457031 2.238281 132.453125 1.234375 131.214844 1.234375 C 129.980469 1.234375 128.976562 2.238281 128.976562 3.472656 C 128.976562 4.710938 129.980469 5.714844 131.214844 5.714844 C 132.453125 5.714844 133.457031 4.710938 133.457031 3.472656 Z M 133.457031 3.472656 "/>
<g clip-path="url(#clip20)" clip-rule="nonzero">
<path style="fill:none;stroke-width:0.3985;stroke-linecap:butt;stroke-linejoin:miter;stroke:rgb(0%,0%,0%);stroke-opacity:1;stroke-miterlimit:10;" d="M 129.801031 63.782234 C 129.801031 65.016609 128.797125 66.020515 127.558844 66.020515 C 126.324469 66.020515 125.320562 65.016609 125.320562 63.782234 C 125.320562 62.543952 126.324469 61.540046 127.558844 61.540046 C 128.797125 61.540046 129.801031 62.543952 129.801031 63.782234 Z M 129.801031 63.782234 " transform="matrix(1,0,0,-1,3.656,67.25489)"/>
</g>
</g>
</svg>
