<?xml version="1.0" encoding="UTF-8"?>
<svg xmlns="http://www.w3.org/2000/svg" xmlns:xlink="http://www.w3.org/1999/xlink" width="230.48pt" height="49.49122pt" viewBox="0 0 230.48 49.49122" version="1.1">
<defs>
<clipPath id="clip1">
  <path d="M 0 13 L 47 13 L 47 49.492188 L 0 49.492188 Z M 0 13 "/>
</clipPath>
<clipPath id="clip2">
  <path d="M 0 13 L 26 13 L 26 49.492188 L 0 49.492188 Z M 0 13 "/>
</clipPath>
<clipPath id="clip3">
  <path d="M 0 35 L 12 35 L 12 49.492188 L 0 49.492188 Z M 0 35 "/>
</clipPath>
<clipPath id="clip4">
  <path d="M 45 13 L 90 13 L 90 49.492188 L 45 49.492188 Z M 45 13 "/>
</clipPath>
<clipPath id="clip5">
  <path d="M 66 13 L 111 13 L 111 49.492188 L 66 49.492188 Z M 66 13 "/>
</clipPath>
<clipPath id="clip6">
  <path d="M 70 38 L 86 38 L 86 49.492188 L 70 49.492188 Z M 70 38 "/>
</clipPath>
<clipPath id="clip7">
  <path d="M 113 25 L 160 25 L 160 49.492188 L 113 49.492188 Z M 113 25 "/>
</clipPath>
<clipPath id="clip8">
  <path d="M 137 13 L 175 13 L 175 49.492188 L 137 49.492188 Z M 137 13 "/>
</clipPath>
<clipPath id="clip9">
  <path d="M 130 13 L 160 13 L 160 49.492188 L 130 49.492188 Z M 130 13 "/>
</clipPath>
<clipPath id="clip10">
  <path d="M 140 37 L 157 37 L 157 49.492188 L 140 49.492188 Z M 140 37 "/>
</clipPath>
<clipPath id="clip11">
  <path d="M 204 0 L 230.480469 0 L 230.480469 37 L 204 37 Z M 204 0 "/>
</clipPath>
<clipPath id="clip12">
  <path d="M 219 16 L 230.480469 16 L 230.480469 33 L 219 33 Z M 219 16 "/>
</clipPath>
<clipPath id="clip13">
  <path d="M 173 13 L 207 13 L 207 49.492188 L 173 49.492188 Z M 173 13 "/>
</clipPath>
<clipPath id="clip14">
  <path d="M 183 13 L 217 13 L 217 49.492188 L 183 49.492188 Z M 183 13 "/>
</clipPath>
<clipPath id="clip15">
  <path d="M 187 35 L 203 35 L 203 49.492188 L 187 49.492188 Z M 187 35 "/>
</clipPath>
<clipPath id="clip16">
  <path d="M 204 13 L 230.480469 13 L 230.480469 49.492188 L 204 49.492188 Z M 204 13 "/>
</clipPath>
<clipPath id="clip17">
  <path d="M 194 13 L 228 13 L 228 49.492188 L 194 49.492188 Z M 194 13 "/>
</clipPath>
<clipPath id="clip18">
  <path d="M 208 35 L 225 35 L 225 49.492188 L 208 49.492188 Z M 208 35 "/>
</clipPath>
</defs>
<g id="surface1">
<path style="fill:none;stroke-width:0.79701;stroke-linecap:butt;stroke-linejoin:miter;stroke:rgb(0%,0%,0%);stroke-opacity:1;stroke-miterlimit:10;" d="M -42.522031 0.001515 L -74.40875 18.411671 " transform="matrix(1,0,0,-1,78.065,24.73589)"/>
<path style="fill:none;stroke-width:0.79701;stroke-linecap:butt;stroke-linejoin:miter;stroke:rgb(0%,0%,0%);stroke-opacity:1;stroke-miterlimit:10;" d="M -63.779844 0.001515 L -42.522031 0.001515 " transform="matrix(1,0,0,-1,78.065,24.73589)"/>
<path style="fill-rule:nonzero;fill:rgb(0%,0%,0%);fill-opacity:1;stroke-width:0.3985;stroke-linecap:butt;stroke-linejoin:miter;stroke:rgb(0%,0%,0%);stroke-opacity:1;stroke-miterlimit:10;" d="M -40.279844 0.001515 C -40.279844 1.239796 -41.28375 2.239796 -42.522031 2.239796 C -43.756406 2.239796 -44.760312 1.239796 -44.760312 0.001515 C -44.760312 -1.236766 -43.756406 -2.240673 -42.522031 -2.240673 C -41.28375 -2.240673 -40.279844 -1.236766 -40.279844 0.001515 Z M -40.279844 0.001515 " transform="matrix(1,0,0,-1,78.065,24.73589)"/>
<path style="fill:none;stroke-width:0.79701;stroke-linecap:butt;stroke-linejoin:miter;stroke:rgb(0%,0%,0%);stroke-opacity:1;stroke-miterlimit:10;" d="M -74.40875 18.411671 L -74.40875 -18.412548 " transform="matrix(1,0,0,-1,78.065,24.73589)"/>
<path style="fill:none;stroke-width:0.79701;stroke-linecap:butt;stroke-linejoin:miter;stroke:rgb(0%,0%,0%);stroke-opacity:1;stroke-miterlimit:10;" d="M -63.779844 0.001515 L -74.40875 18.411671 " transform="matrix(1,0,0,-1,78.065,24.73589)"/>
<path style="fill-rule:nonzero;fill:rgb(0%,0%,0%);fill-opacity:1;stroke-width:0.3985;stroke-linecap:butt;stroke-linejoin:miter;stroke:rgb(0%,0%,0%);stroke-opacity:1;stroke-miterlimit:10;" d="M -72.170469 18.411671 C -72.170469 19.649952 -73.170469 20.653859 -74.40875 20.653859 C -75.647031 20.653859 -76.650937 19.649952 -76.650937 18.411671 C -76.650937 17.17339 -75.647031 16.169484 -74.40875 16.169484 C -73.170469 16.169484 -72.170469 17.17339 -72.170469 18.411671 Z M -72.170469 18.411671 " transform="matrix(1,0,0,-1,78.065,24.73589)"/>
<g clip-path="url(#clip1)" clip-rule="nonzero">
<path style="fill:none;stroke-width:0.79701;stroke-linecap:butt;stroke-linejoin:miter;stroke:rgb(0%,0%,0%);stroke-opacity:1;stroke-miterlimit:10;" d="M -74.40875 -18.412548 L -42.522031 0.001515 " transform="matrix(1,0,0,-1,78.065,24.73589)"/>
</g>
<g clip-path="url(#clip2)" clip-rule="nonzero">
<path style="fill:none;stroke-width:0.79701;stroke-linecap:butt;stroke-linejoin:miter;stroke:rgb(0%,0%,0%);stroke-opacity:1;stroke-miterlimit:10;" d="M -63.779844 0.001515 L -74.40875 -18.412548 " transform="matrix(1,0,0,-1,78.065,24.73589)"/>
</g>
<path style=" stroke:none;fill-rule:nonzero;fill:rgb(0%,0%,0%);fill-opacity:1;" d="M 5.894531 43.148438 C 5.894531 41.910156 4.894531 40.90625 3.65625 40.90625 C 2.417969 40.90625 1.414062 41.910156 1.414062 43.148438 C 1.414062 44.386719 2.417969 45.390625 3.65625 45.390625 C 4.894531 45.390625 5.894531 44.386719 5.894531 43.148438 Z M 5.894531 43.148438 "/>
<g clip-path="url(#clip3)" clip-rule="nonzero">
<path style="fill:none;stroke-width:0.3985;stroke-linecap:butt;stroke-linejoin:miter;stroke:rgb(0%,0%,0%);stroke-opacity:1;stroke-miterlimit:10;" d="M -72.170469 -18.412548 C -72.170469 -17.174266 -73.170469 -16.17036 -74.40875 -16.17036 C -75.647031 -16.17036 -76.650937 -17.174266 -76.650937 -18.412548 C -76.650937 -19.650829 -75.647031 -20.654735 -74.40875 -20.654735 C -73.170469 -20.654735 -72.170469 -19.650829 -72.170469 -18.412548 Z M -72.170469 -18.412548 " transform="matrix(1,0,0,-1,78.065,24.73589)"/>
</g>
<path style="fill-rule:nonzero;fill:rgb(0%,0%,0%);fill-opacity:1;stroke-width:0.3985;stroke-linecap:butt;stroke-linejoin:miter;stroke:rgb(0%,0%,0%);stroke-opacity:1;stroke-miterlimit:10;" d="M -61.537656 0.001515 C -61.537656 1.239796 -62.541562 2.239796 -63.779844 2.239796 C -65.018125 2.239796 -66.022031 1.239796 -66.022031 0.001515 C -66.022031 -1.236766 -65.018125 -2.240673 -63.779844 -2.240673 C -62.541562 -2.240673 -61.537656 -1.236766 -61.537656 0.001515 Z M -61.537656 0.001515 " transform="matrix(1,0,0,-1,78.065,24.73589)"/>
<path style="fill:none;stroke-width:0.79701;stroke-linecap:butt;stroke-linejoin:miter;stroke:rgb(0%,0%,0%);stroke-opacity:1;stroke-miterlimit:10;" d="M 21.259219 0.001515 L 0.00140625 21.259327 " transform="matrix(1,0,0,-1,78.065,24.73589)"/>
<path style="fill:none;stroke-width:0.79701;stroke-linecap:butt;stroke-linejoin:miter;stroke:rgb(0%,0%,0%);stroke-opacity:1;stroke-miterlimit:10;" d="M 0.00140625 0.001515 L 21.259219 0.001515 " transform="matrix(1,0,0,-1,78.065,24.73589)"/>
<path style="fill-rule:nonzero;fill:rgb(0%,0%,0%);fill-opacity:1;stroke-width:0.3985;stroke-linecap:butt;stroke-linejoin:miter;stroke:rgb(0%,0%,0%);stroke-opacity:1;stroke-miterlimit:10;" d="M 23.501406 0.001515 C 23.501406 1.239796 22.4975 2.239796 21.259219 2.239796 C 20.020938 2.239796 19.017031 1.239796 19.017031 0.001515 C 19.017031 -1.236766 20.020938 -2.240673 21.259219 -2.240673 C 22.4975 -2.240673 23.501406 -1.236766 23.501406 0.001515 Z M 23.501406 0.001515 " transform="matrix(1,0,0,-1,78.065,24.73589)"/>
<path style="fill:none;stroke-width:0.79701;stroke-linecap:butt;stroke-linejoin:miter;stroke:rgb(0%,0%,0%);stroke-opacity:1;stroke-miterlimit:10;" d="M 0.00140625 21.259327 L -21.260312 0.001515 " transform="matrix(1,0,0,-1,78.065,24.73589)"/>
<path style="fill:none;stroke-width:0.79701;stroke-linecap:butt;stroke-linejoin:miter;stroke:rgb(0%,0%,0%);stroke-opacity:1;stroke-miterlimit:10;" d="M 0.00140625 0.001515 L 0.00140625 21.259327 " transform="matrix(1,0,0,-1,78.065,24.73589)"/>
<path style="fill-rule:nonzero;fill:rgb(0%,0%,0%);fill-opacity:1;stroke-width:0.3985;stroke-linecap:butt;stroke-linejoin:miter;stroke:rgb(0%,0%,0%);stroke-opacity:1;stroke-miterlimit:10;" d="M 2.239688 21.259327 C 2.239688 22.497609 1.239688 23.501515 0.00140625 23.501515 C -1.236875 23.501515 -2.240781 22.497609 -2.240781 21.259327 C -2.240781 20.021046 -1.236875 19.01714 0.00140625 19.01714 C 1.239688 19.01714 2.239688 20.021046 2.239688 21.259327 Z M 2.239688 21.259327 " transform="matrix(1,0,0,-1,78.065,24.73589)"/>
<g clip-path="url(#clip4)" clip-rule="nonzero">
<path style="fill:none;stroke-width:0.79701;stroke-linecap:butt;stroke-linejoin:miter;stroke:rgb(0%,0%,0%);stroke-opacity:1;stroke-miterlimit:10;" d="M -21.260312 0.001515 L 0.00140625 -21.260204 " transform="matrix(1,0,0,-1,78.065,24.73589)"/>
</g>
<path style="fill:none;stroke-width:0.79701;stroke-linecap:butt;stroke-linejoin:miter;stroke:rgb(0%,0%,0%);stroke-opacity:1;stroke-miterlimit:10;" d="M 0.00140625 0.001515 L -21.260312 0.001515 " transform="matrix(1,0,0,-1,78.065,24.73589)"/>
<path style="fill-rule:nonzero;fill:rgb(0%,0%,0%);fill-opacity:1;stroke-width:0.3985;stroke-linecap:butt;stroke-linejoin:miter;stroke:rgb(0%,0%,0%);stroke-opacity:1;stroke-miterlimit:10;" d="M -19.018125 0.001515 C -19.018125 1.239796 -20.022031 2.239796 -21.260312 2.239796 C -22.498594 2.239796 -23.5025 1.239796 -23.5025 0.001515 C -23.5025 -1.236766 -22.498594 -2.240673 -21.260312 -2.240673 C -20.022031 -2.240673 -19.018125 -1.236766 -19.018125 0.001515 Z M -19.018125 0.001515 " transform="matrix(1,0,0,-1,78.065,24.73589)"/>
<g clip-path="url(#clip5)" clip-rule="nonzero">
<path style="fill:none;stroke-width:0.79701;stroke-linecap:butt;stroke-linejoin:miter;stroke:rgb(0%,0%,0%);stroke-opacity:1;stroke-miterlimit:10;" d="M 0.00140625 -21.260204 L 21.259219 0.001515 " transform="matrix(1,0,0,-1,78.065,24.73589)"/>
</g>
<path style="fill:none;stroke-width:0.79701;stroke-linecap:butt;stroke-linejoin:miter;stroke:rgb(0%,0%,0%);stroke-opacity:1;stroke-miterlimit:10;" d="M 0.00140625 0.001515 L 0.00140625 -21.260204 " transform="matrix(1,0,0,-1,78.065,24.73589)"/>
<path style=" stroke:none;fill-rule:nonzero;fill:rgb(0%,0%,0%);fill-opacity:1;" d="M 80.304688 45.996094 C 80.304688 44.757812 79.304688 43.753906 78.066406 43.753906 C 76.828125 43.753906 75.824219 44.757812 75.824219 45.996094 C 75.824219 47.234375 76.828125 48.238281 78.066406 48.238281 C 79.304688 48.238281 80.304688 47.234375 80.304688 45.996094 Z M 80.304688 45.996094 "/>
<g clip-path="url(#clip6)" clip-rule="nonzero">
<path style="fill:none;stroke-width:0.3985;stroke-linecap:butt;stroke-linejoin:miter;stroke:rgb(0%,0%,0%);stroke-opacity:1;stroke-miterlimit:10;" d="M 2.239688 -21.260204 C 2.239688 -20.021923 1.239688 -19.018016 0.00140625 -19.018016 C -1.236875 -19.018016 -2.240781 -20.021923 -2.240781 -21.260204 C -2.240781 -22.498485 -1.236875 -23.502391 0.00140625 -23.502391 C 1.239688 -23.502391 2.239688 -22.498485 2.239688 -21.260204 Z M 2.239688 -21.260204 " transform="matrix(1,0,0,-1,78.065,24.73589)"/>
</g>
<path style="fill-rule:nonzero;fill:rgb(0%,0%,0%);fill-opacity:1;stroke-width:0.3985;stroke-linecap:butt;stroke-linejoin:miter;stroke:rgb(0%,0%,0%);stroke-opacity:1;stroke-miterlimit:10;" d="M 2.239688 0.001515 C 2.239688 1.239796 1.239688 2.239796 0.00140625 2.239796 C -1.236875 2.239796 -2.240781 1.239796 -2.240781 0.001515 C -2.240781 -1.236766 -1.236875 -2.240673 0.00140625 -2.240673 C 1.239688 -2.240673 2.239688 -1.236766 2.239688 0.001515 Z M 2.239688 0.001515 " transform="matrix(1,0,0,-1,78.065,24.73589)"/>
<path style="fill:none;stroke-width:0.79701;stroke-linecap:butt;stroke-linejoin:miter;stroke:rgb(0%,0%,0%);stroke-opacity:1;stroke-miterlimit:10;" d="M 85.040469 0.001515 L 70.349063 20.220265 " transform="matrix(1,0,0,-1,78.065,24.73589)"/>
<path style="fill:none;stroke-width:0.79701;stroke-linecap:butt;stroke-linejoin:miter;stroke:rgb(0%,0%,0%);stroke-opacity:1;stroke-miterlimit:10;" d="M 63.77875 0.001515 L 85.040469 0.001515 " transform="matrix(1,0,0,-1,78.065,24.73589)"/>
<path style="fill-rule:nonzero;fill:rgb(0%,0%,0%);fill-opacity:1;stroke-width:0.3985;stroke-linecap:butt;stroke-linejoin:miter;stroke:rgb(0%,0%,0%);stroke-opacity:1;stroke-miterlimit:10;" d="M 87.282656 0.001515 C 87.282656 1.239796 86.27875 2.239796 85.040469 2.239796 C 83.802188 2.239796 82.798281 1.239796 82.798281 0.001515 C 82.798281 -1.236766 83.802188 -2.240673 85.040469 -2.240673 C 86.27875 -2.240673 87.282656 -1.236766 87.282656 0.001515 Z M 87.282656 0.001515 " transform="matrix(1,0,0,-1,78.065,24.73589)"/>
<path style="fill:none;stroke-width:0.79701;stroke-linecap:butt;stroke-linejoin:miter;stroke:rgb(0%,0%,0%);stroke-opacity:1;stroke-miterlimit:10;" d="M 70.349063 20.220265 L 46.579531 12.497609 " transform="matrix(1,0,0,-1,78.065,24.73589)"/>
<path style="fill:none;stroke-width:0.79701;stroke-linecap:butt;stroke-linejoin:miter;stroke:rgb(0%,0%,0%);stroke-opacity:1;stroke-miterlimit:10;" d="M 63.77875 0.001515 L 70.349063 20.220265 " transform="matrix(1,0,0,-1,78.065,24.73589)"/>
<path style="fill-rule:nonzero;fill:rgb(0%,0%,0%);fill-opacity:1;stroke-width:0.3985;stroke-linecap:butt;stroke-linejoin:miter;stroke:rgb(0%,0%,0%);stroke-opacity:1;stroke-miterlimit:10;" d="M 72.59125 20.220265 C 72.59125 21.458546 71.587344 22.462452 70.349063 22.462452 C 69.110781 22.462452 68.106875 21.458546 68.106875 20.220265 C 68.106875 18.981984 69.110781 17.978077 70.349063 17.978077 C 71.587344 17.978077 72.59125 18.981984 72.59125 20.220265 Z M 72.59125 20.220265 " transform="matrix(1,0,0,-1,78.065,24.73589)"/>
<path style="fill:none;stroke-width:0.79701;stroke-linecap:butt;stroke-linejoin:miter;stroke:rgb(0%,0%,0%);stroke-opacity:1;stroke-miterlimit:10;" d="M 46.579531 12.497609 L 46.579531 -12.494579 " transform="matrix(1,0,0,-1,78.065,24.73589)"/>
<path style="fill:none;stroke-width:0.79701;stroke-linecap:butt;stroke-linejoin:miter;stroke:rgb(0%,0%,0%);stroke-opacity:1;stroke-miterlimit:10;" d="M 63.77875 0.001515 L 46.579531 12.497609 " transform="matrix(1,0,0,-1,78.065,24.73589)"/>
<path style="fill-rule:nonzero;fill:rgb(0%,0%,0%);fill-opacity:1;stroke-width:0.3985;stroke-linecap:butt;stroke-linejoin:miter;stroke:rgb(0%,0%,0%);stroke-opacity:1;stroke-miterlimit:10;" d="M 48.821719 12.497609 C 48.821719 13.73589 47.817813 14.739796 46.579531 14.739796 C 45.34125 14.739796 44.337344 13.73589 44.337344 12.497609 C 44.337344 11.259327 45.34125 10.255421 46.579531 10.255421 C 47.817813 10.255421 48.821719 11.259327 48.821719 12.497609 Z M 48.821719 12.497609 " transform="matrix(1,0,0,-1,78.065,24.73589)"/>
<g clip-path="url(#clip7)" clip-rule="nonzero">
<path style="fill:none;stroke-width:0.79701;stroke-linecap:butt;stroke-linejoin:miter;stroke:rgb(0%,0%,0%);stroke-opacity:1;stroke-miterlimit:10;" d="M 46.579531 -12.494579 L 70.349063 -20.221141 " transform="matrix(1,0,0,-1,78.065,24.73589)"/>
</g>
<path style="fill:none;stroke-width:0.79701;stroke-linecap:butt;stroke-linejoin:miter;stroke:rgb(0%,0%,0%);stroke-opacity:1;stroke-miterlimit:10;" d="M 63.77875 0.001515 L 46.579531 -12.494579 " transform="matrix(1,0,0,-1,78.065,24.73589)"/>
<path style="fill-rule:nonzero;fill:rgb(0%,0%,0%);fill-opacity:1;stroke-width:0.3985;stroke-linecap:butt;stroke-linejoin:miter;stroke:rgb(0%,0%,0%);stroke-opacity:1;stroke-miterlimit:10;" d="M 48.821719 -12.494579 C 48.821719 -11.260204 47.817813 -10.256298 46.579531 -10.256298 C 45.34125 -10.256298 44.337344 -11.260204 44.337344 -12.494579 C 44.337344 -13.73286 45.34125 -14.736766 46.579531 -14.736766 C 47.817813 -14.736766 48.821719 -13.73286 48.821719 -12.494579 Z M 48.821719 -12.494579 " transform="matrix(1,0,0,-1,78.065,24.73589)"/>
<g clip-path="url(#clip8)" clip-rule="nonzero">
<path style="fill:none;stroke-width:0.79701;stroke-linecap:butt;stroke-linejoin:miter;stroke:rgb(0%,0%,0%);stroke-opacity:1;stroke-miterlimit:10;" d="M 70.349063 -20.221141 L 85.040469 0.001515 " transform="matrix(1,0,0,-1,78.065,24.73589)"/>
</g>
<g clip-path="url(#clip9)" clip-rule="nonzero">
<path style="fill:none;stroke-width:0.79701;stroke-linecap:butt;stroke-linejoin:miter;stroke:rgb(0%,0%,0%);stroke-opacity:1;stroke-miterlimit:10;" d="M 63.77875 0.001515 L 70.349063 -20.221141 " transform="matrix(1,0,0,-1,78.065,24.73589)"/>
</g>
<path style=" stroke:none;fill-rule:nonzero;fill:rgb(0%,0%,0%);fill-opacity:1;" d="M 150.65625 44.957031 C 150.65625 43.71875 149.652344 42.714844 148.414062 42.714844 C 147.175781 42.714844 146.171875 43.71875 146.171875 44.957031 C 146.171875 46.195312 147.175781 47.195312 148.414062 47.195312 C 149.652344 47.195312 150.65625 46.195312 150.65625 44.957031 Z M 150.65625 44.957031 "/>
<g clip-path="url(#clip10)" clip-rule="nonzero">
<path style="fill:none;stroke-width:0.3985;stroke-linecap:butt;stroke-linejoin:miter;stroke:rgb(0%,0%,0%);stroke-opacity:1;stroke-miterlimit:10;" d="M 72.59125 -20.221141 C 72.59125 -18.98286 71.587344 -17.978954 70.349063 -17.978954 C 69.110781 -17.978954 68.106875 -18.98286 68.106875 -20.221141 C 68.106875 -21.459423 69.110781 -22.459423 70.349063 -22.459423 C 71.587344 -22.459423 72.59125 -21.459423 72.59125 -20.221141 Z M 72.59125 -20.221141 " transform="matrix(1,0,0,-1,78.065,24.73589)"/>
</g>
<path style="fill-rule:nonzero;fill:rgb(0%,0%,0%);fill-opacity:1;stroke-width:0.3985;stroke-linecap:butt;stroke-linejoin:miter;stroke:rgb(0%,0%,0%);stroke-opacity:1;stroke-miterlimit:10;" d="M 66.020938 0.001515 C 66.020938 1.239796 65.017031 2.239796 63.77875 2.239796 C 62.540469 2.239796 61.540469 1.239796 61.540469 0.001515 C 61.540469 -1.236766 62.540469 -2.240673 63.77875 -2.240673 C 65.017031 -2.240673 66.020938 -1.236766 66.020938 0.001515 Z M 66.020938 0.001515 " transform="matrix(1,0,0,-1,78.065,24.73589)"/>
<g clip-path="url(#clip11)" clip-rule="nonzero">
<path style="fill:none;stroke-width:0.79701;stroke-linecap:butt;stroke-linejoin:miter;stroke:rgb(0%,0%,0%);stroke-opacity:1;stroke-miterlimit:10;" d="M 148.821719 0.001515 L 138.188906 18.411671 " transform="matrix(1,0,0,-1,78.065,24.73589)"/>
</g>
<path style="fill:none;stroke-width:0.79701;stroke-linecap:butt;stroke-linejoin:miter;stroke:rgb(0%,0%,0%);stroke-opacity:1;stroke-miterlimit:10;" d="M 127.56 0.001515 L 148.821719 0.001515 " transform="matrix(1,0,0,-1,78.065,24.73589)"/>
<path style=" stroke:none;fill-rule:nonzero;fill:rgb(0%,0%,0%);fill-opacity:1;" d="M 229.128906 24.734375 C 229.128906 23.496094 228.125 22.496094 226.886719 22.496094 C 225.648438 22.496094 224.644531 23.496094 224.644531 24.734375 C 224.644531 25.972656 225.648438 26.976562 226.886719 26.976562 C 228.125 26.976562 229.128906 25.972656 229.128906 24.734375 Z M 229.128906 24.734375 "/>
<g clip-path="url(#clip12)" clip-rule="nonzero">
<path style="fill:none;stroke-width:0.3985;stroke-linecap:butt;stroke-linejoin:miter;stroke:rgb(0%,0%,0%);stroke-opacity:1;stroke-miterlimit:10;" d="M 151.063906 0.001515 C 151.063906 1.239796 150.06 2.239796 148.821719 2.239796 C 147.583438 2.239796 146.579531 1.239796 146.579531 0.001515 C 146.579531 -1.236766 147.583438 -2.240673 148.821719 -2.240673 C 150.06 -2.240673 151.063906 -1.236766 151.063906 0.001515 Z M 151.063906 0.001515 " transform="matrix(1,0,0,-1,78.065,24.73589)"/>
</g>
<path style="fill:none;stroke-width:0.79701;stroke-linecap:butt;stroke-linejoin:miter;stroke:rgb(0%,0%,0%);stroke-opacity:1;stroke-miterlimit:10;" d="M 138.188906 18.411671 L 116.931094 18.411671 " transform="matrix(1,0,0,-1,78.065,24.73589)"/>
<path style="fill:none;stroke-width:0.79701;stroke-linecap:butt;stroke-linejoin:miter;stroke:rgb(0%,0%,0%);stroke-opacity:1;stroke-miterlimit:10;" d="M 127.56 0.001515 L 138.188906 18.411671 " transform="matrix(1,0,0,-1,78.065,24.73589)"/>
<path style="fill-rule:nonzero;fill:rgb(0%,0%,0%);fill-opacity:1;stroke-width:0.3985;stroke-linecap:butt;stroke-linejoin:miter;stroke:rgb(0%,0%,0%);stroke-opacity:1;stroke-miterlimit:10;" d="M 140.431094 18.411671 C 140.431094 19.649952 139.427188 20.653859 138.188906 20.653859 C 136.954531 20.653859 135.950625 19.649952 135.950625 18.411671 C 135.950625 17.17339 136.954531 16.169484 138.188906 16.169484 C 139.427188 16.169484 140.431094 17.17339 140.431094 18.411671 Z M 140.431094 18.411671 " transform="matrix(1,0,0,-1,78.065,24.73589)"/>
<path style="fill:none;stroke-width:0.79701;stroke-linecap:butt;stroke-linejoin:miter;stroke:rgb(0%,0%,0%);stroke-opacity:1;stroke-miterlimit:10;" d="M 116.931094 18.411671 L 106.302188 0.001515 " transform="matrix(1,0,0,-1,78.065,24.73589)"/>
<path style="fill:none;stroke-width:0.79701;stroke-linecap:butt;stroke-linejoin:miter;stroke:rgb(0%,0%,0%);stroke-opacity:1;stroke-miterlimit:10;" d="M 127.56 0.001515 L 116.931094 18.411671 " transform="matrix(1,0,0,-1,78.065,24.73589)"/>
<path style="fill-rule:nonzero;fill:rgb(0%,0%,0%);fill-opacity:1;stroke-width:0.3985;stroke-linecap:butt;stroke-linejoin:miter;stroke:rgb(0%,0%,0%);stroke-opacity:1;stroke-miterlimit:10;" d="M 119.173281 18.411671 C 119.173281 19.649952 118.169375 20.653859 116.931094 20.653859 C 115.692813 20.653859 114.688906 19.649952 114.688906 18.411671 C 114.688906 17.17339 115.692813 16.169484 116.931094 16.169484 C 118.169375 16.169484 119.173281 17.17339 119.173281 18.411671 Z M 119.173281 18.411671 " transform="matrix(1,0,0,-1,78.065,24.73589)"/>
<g clip-path="url(#clip13)" clip-rule="nonzero">
<path style="fill:none;stroke-width:0.79701;stroke-linecap:butt;stroke-linejoin:miter;stroke:rgb(0%,0%,0%);stroke-opacity:1;stroke-miterlimit:10;" d="M 106.302188 0.001515 L 116.931094 -18.412548 " transform="matrix(1,0,0,-1,78.065,24.73589)"/>
</g>
<path style="fill:none;stroke-width:0.79701;stroke-linecap:butt;stroke-linejoin:miter;stroke:rgb(0%,0%,0%);stroke-opacity:1;stroke-miterlimit:10;" d="M 127.56 0.001515 L 106.302188 0.001515 " transform="matrix(1,0,0,-1,78.065,24.73589)"/>
<path style="fill-rule:nonzero;fill:rgb(0%,0%,0%);fill-opacity:1;stroke-width:0.3985;stroke-linecap:butt;stroke-linejoin:miter;stroke:rgb(0%,0%,0%);stroke-opacity:1;stroke-miterlimit:10;" d="M 108.540469 0.001515 C 108.540469 1.239796 107.540469 2.239796 106.302188 2.239796 C 105.063906 2.239796 104.06 1.239796 104.06 0.001515 C 104.06 -1.236766 105.063906 -2.240673 106.302188 -2.240673 C 107.540469 -2.240673 108.540469 -1.236766 108.540469 0.001515 Z M 108.540469 0.001515 " transform="matrix(1,0,0,-1,78.065,24.73589)"/>
<path style="fill:none;stroke-width:0.79701;stroke-linecap:butt;stroke-linejoin:miter;stroke:rgb(0%,0%,0%);stroke-opacity:1;stroke-miterlimit:10;" d="M 116.931094 -18.412548 L 138.188906 -18.412548 " transform="matrix(1,0,0,-1,78.065,24.73589)"/>
<g clip-path="url(#clip14)" clip-rule="nonzero">
<path style="fill:none;stroke-width:0.79701;stroke-linecap:butt;stroke-linejoin:miter;stroke:rgb(0%,0%,0%);stroke-opacity:1;stroke-miterlimit:10;" d="M 127.56 0.001515 L 116.931094 -18.412548 " transform="matrix(1,0,0,-1,78.065,24.73589)"/>
</g>
<path style=" stroke:none;fill-rule:nonzero;fill:rgb(0%,0%,0%);fill-opacity:1;" d="M 197.238281 43.148438 C 197.238281 41.910156 196.234375 40.90625 194.996094 40.90625 C 193.757812 40.90625 192.753906 41.910156 192.753906 43.148438 C 192.753906 44.386719 193.757812 45.390625 194.996094 45.390625 C 196.234375 45.390625 197.238281 44.386719 197.238281 43.148438 Z M 197.238281 43.148438 "/>
<g clip-path="url(#clip15)" clip-rule="nonzero">
<path style="fill:none;stroke-width:0.3985;stroke-linecap:butt;stroke-linejoin:miter;stroke:rgb(0%,0%,0%);stroke-opacity:1;stroke-miterlimit:10;" d="M 119.173281 -18.412548 C 119.173281 -17.174266 118.169375 -16.17036 116.931094 -16.17036 C 115.692813 -16.17036 114.688906 -17.174266 114.688906 -18.412548 C 114.688906 -19.650829 115.692813 -20.654735 116.931094 -20.654735 C 118.169375 -20.654735 119.173281 -19.650829 119.173281 -18.412548 Z M 119.173281 -18.412548 " transform="matrix(1,0,0,-1,78.065,24.73589)"/>
</g>
<g clip-path="url(#clip16)" clip-rule="nonzero">
<path style="fill:none;stroke-width:0.79701;stroke-linecap:butt;stroke-linejoin:miter;stroke:rgb(0%,0%,0%);stroke-opacity:1;stroke-miterlimit:10;" d="M 138.188906 -18.412548 L 148.821719 0.001515 " transform="matrix(1,0,0,-1,78.065,24.73589)"/>
</g>
<g clip-path="url(#clip17)" clip-rule="nonzero">
<path style="fill:none;stroke-width:0.79701;stroke-linecap:butt;stroke-linejoin:miter;stroke:rgb(0%,0%,0%);stroke-opacity:1;stroke-miterlimit:10;" d="M 127.56 0.001515 L 138.188906 -18.412548 " transform="matrix(1,0,0,-1,78.065,24.73589)"/>
</g>
<path style=" stroke:none;fill-rule:nonzero;fill:rgb(0%,0%,0%);fill-opacity:1;" d="M 218.496094 43.148438 C 218.496094 41.910156 217.492188 40.90625 216.253906 40.90625 C 215.019531 40.90625 214.015625 41.910156 214.015625 43.148438 C 214.015625 44.386719 215.019531 45.390625 216.253906 45.390625 C 217.492188 45.390625 218.496094 44.386719 218.496094 43.148438 Z M 218.496094 43.148438 "/>
<g clip-path="url(#clip18)" clip-rule="nonzero">
<path style="fill:none;stroke-width:0.3985;stroke-linecap:butt;stroke-linejoin:miter;stroke:rgb(0%,0%,0%);stroke-opacity:1;stroke-miterlimit:10;" d="M 140.431094 -18.412548 C 140.431094 -17.174266 139.427188 -16.17036 138.188906 -16.17036 C 136.954531 -16.17036 135.950625 -17.174266 135.950625 -18.412548 C 135.950625 -19.650829 136.954531 -20.654735 138.188906 -20.654735 C 139.427188 -20.654735 140.431094 -19.650829 140.431094 -18.412548 Z M 140.431094 -18.412548 " transform="matrix(1,0,0,-1,78.065,24.73589)"/>
</g>
<path style="fill-rule:nonzero;fill:rgb(0%,0%,0%);fill-opacity:1;stroke-width:0.3985;stroke-linecap:butt;stroke-linejoin:miter;stroke:rgb(0%,0%,0%);stroke-opacity:1;stroke-miterlimit:10;" d="M 129.802188 0.001515 C 129.802188 1.239796 128.798281 2.239796 127.56 2.239796 C 126.321719 2.239796 125.317813 1.239796 125.317813 0.001515 C 125.317813 -1.236766 126.321719 -2.240673 127.56 -2.240673 C 128.798281 -2.240673 129.802188 -1.236766 129.802188 0.001515 Z M 129.802188 0.001515 " transform="matrix(1,0,0,-1,78.065,24.73589)"/>
</g>
</svg>
