<?xml version="1.0" encoding="UTF-8"?>
<svg xmlns="http://www.w3.org/2000/svg" xmlns:xlink="http://www.w3.org/1999/xlink" width="396.08pt" height="133.92005pt" viewBox="0 0 396.08 133.92005" version="1.1">
<defs>
<clipPath id="clip1">
  <path d="M 385 38 L 396.078125 38 L 396.078125 54 L 385 54 Z M 385 38 "/>
</clipPath>
<clipPath id="clip2">
  <path d="M 44 123 L 61 123 L 61 133.921875 L 44 133.921875 Z M 44 123 "/>
</clipPath>
<clipPath id="clip3">
  <path d="M 22 82 L 59 82 L 59 133.921875 L 22 133.921875 Z M 22 82 "/>
</clipPath>
<clipPath id="clip4">
  <path d="M 158 123 L 174 123 L 174 133.921875 L 158 133.921875 Z M 158 123 "/>
</clipPath>
</defs>
<g id="surface1">
<path style="fill-rule:nonzero;fill:rgb(0%,0%,0%);fill-opacity:1;stroke-width:0.3985;stroke-linecap:butt;stroke-linejoin:miter;stroke:rgb(0%,0%,0%);stroke-opacity:1;stroke-miterlimit:10;" d="M 26.541094 -14.173204 C 26.541094 -13.071641 25.650469 -12.181016 24.548906 -12.181016 C 23.447344 -12.181016 22.556719 -13.071641 22.556719 -14.173204 C 22.556719 -15.274766 23.447344 -16.165391 24.548906 -16.165391 C 25.650469 -16.165391 26.541094 -15.274766 26.541094 -14.173204 Z M 26.541094 -14.173204 " transform="matrix(1,0,0,-1,27.955,31.57289)"/>
<path style="fill-rule:nonzero;fill:rgb(0%,0%,0%);fill-opacity:1;stroke-width:0.3985;stroke-linecap:butt;stroke-linejoin:miter;stroke:rgb(0%,0%,0%);stroke-opacity:1;stroke-miterlimit:10;" d="M 1.994219 28.346327 C 1.994219 29.44789 1.099688 30.338515 -0.001875 30.338515 C -1.099531 30.338515 -1.994062 29.44789 -1.994062 28.346327 C -1.994062 27.244765 -1.099531 26.35414 -0.001875 26.35414 C 1.099688 26.35414 1.994219 27.244765 1.994219 28.346327 Z M 1.994219 28.346327 " transform="matrix(1,0,0,-1,27.955,31.57289)"/>
<path style="fill-rule:nonzero;fill:rgb(0%,0%,0%);fill-opacity:1;stroke-width:0.3985;stroke-linecap:butt;stroke-linejoin:miter;stroke:rgb(0%,0%,0%);stroke-opacity:1;stroke-miterlimit:10;" d="M -22.556562 -14.173204 C -22.556562 -13.071641 -23.447187 -12.181016 -24.54875 -12.181016 C -25.650312 -12.181016 -26.540937 -13.071641 -26.540937 -14.173204 C -26.540937 -15.274766 -25.650312 -16.165391 -24.54875 -16.165391 C -23.447187 -16.165391 -22.556562 -15.274766 -22.556562 -14.173204 Z M -22.556562 -14.173204 " transform="matrix(1,0,0,-1,27.955,31.57289)"/>
<path style="fill:none;stroke-width:0.3985;stroke-linecap:butt;stroke-linejoin:miter;stroke:rgb(0%,0%,0%);stroke-opacity:1;stroke-miterlimit:10;" d="M 24.548906 -14.173204 L -0.001875 28.346327 L -24.54875 -14.173204 Z M 24.548906 -14.173204 " transform="matrix(1,0,0,-1,27.955,31.57289)"/>
<path style="fill-rule:nonzero;fill:rgb(0%,0%,0%);fill-opacity:1;stroke-width:0.3985;stroke-linecap:butt;stroke-linejoin:miter;stroke:rgb(0%,0%,0%);stroke-opacity:1;stroke-miterlimit:10;" d="M 139.927813 -14.173204 C 139.927813 -13.071641 139.037188 -12.181016 137.935625 -12.181016 C 136.834063 -12.181016 135.943438 -13.071641 135.943438 -14.173204 C 135.943438 -15.274766 136.834063 -16.165391 137.935625 -16.165391 C 139.037188 -16.165391 139.927813 -15.274766 139.927813 -14.173204 Z M 139.927813 -14.173204 " transform="matrix(1,0,0,-1,27.955,31.57289)"/>
<path style="fill-rule:nonzero;fill:rgb(0%,0%,0%);fill-opacity:1;stroke-width:0.3985;stroke-linecap:butt;stroke-linejoin:miter;stroke:rgb(0%,0%,0%);stroke-opacity:1;stroke-miterlimit:10;" d="M 115.380938 28.346327 C 115.380938 29.44789 114.486406 30.338515 113.38875 30.338515 C 112.287188 30.338515 111.396563 29.44789 111.396563 28.346327 C 111.396563 27.244765 112.287188 26.35414 113.38875 26.35414 C 114.486406 26.35414 115.380938 27.244765 115.380938 28.346327 Z M 115.380938 28.346327 " transform="matrix(1,0,0,-1,27.955,31.57289)"/>
<path style="fill-rule:nonzero;fill:rgb(0%,0%,0%);fill-opacity:1;stroke-width:0.3985;stroke-linecap:butt;stroke-linejoin:miter;stroke:rgb(0%,0%,0%);stroke-opacity:1;stroke-miterlimit:10;" d="M 90.830156 -14.173204 C 90.830156 -13.071641 89.939531 -12.181016 88.837969 -12.181016 C 87.736406 -12.181016 86.845781 -13.071641 86.845781 -14.173204 C 86.845781 -15.274766 87.736406 -16.165391 88.837969 -16.165391 C 89.939531 -16.165391 90.830156 -15.274766 90.830156 -14.173204 Z M 90.830156 -14.173204 " transform="matrix(1,0,0,-1,27.955,31.57289)"/>
<path style="fill:none;stroke-width:0.3985;stroke-linecap:butt;stroke-linejoin:miter;stroke:rgb(0%,0%,0%);stroke-opacity:1;stroke-miterlimit:10;" d="M 137.935625 -14.173204 L 113.38875 28.346327 L 88.837969 -14.173204 " transform="matrix(1,0,0,-1,27.955,31.57289)"/>
<path style="fill-rule:nonzero;fill:rgb(0%,0%,0%);fill-opacity:1;stroke-width:0.3985;stroke-linecap:butt;stroke-linejoin:miter;stroke:rgb(0%,0%,0%);stroke-opacity:1;stroke-miterlimit:10;" d="M 253.314531 -14.173204 C 253.314531 -13.071641 252.423906 -12.181016 251.322344 -12.181016 C 250.224688 -12.181016 249.330156 -13.071641 249.330156 -14.173204 C 249.330156 -15.274766 250.224688 -16.165391 251.322344 -16.165391 C 252.423906 -16.165391 253.314531 -15.274766 253.314531 -14.173204 Z M 253.314531 -14.173204 " transform="matrix(1,0,0,-1,27.955,31.57289)"/>
<path style="fill-rule:nonzero;fill:rgb(0%,0%,0%);fill-opacity:1;stroke-width:0.3985;stroke-linecap:butt;stroke-linejoin:miter;stroke:rgb(0%,0%,0%);stroke-opacity:1;stroke-miterlimit:10;" d="M 228.767656 28.346327 C 228.767656 29.44789 227.873125 30.338515 226.775469 30.338515 C 225.673906 30.338515 224.783281 29.44789 224.783281 28.346327 C 224.783281 27.244765 225.673906 26.35414 226.775469 26.35414 C 227.873125 26.35414 228.767656 27.244765 228.767656 28.346327 Z M 228.767656 28.346327 " transform="matrix(1,0,0,-1,27.955,31.57289)"/>
<path style="fill-rule:nonzero;fill:rgb(0%,0%,0%);fill-opacity:1;stroke-width:0.3985;stroke-linecap:butt;stroke-linejoin:miter;stroke:rgb(0%,0%,0%);stroke-opacity:1;stroke-miterlimit:10;" d="M 204.216875 -14.173204 C 204.216875 -13.071641 203.32625 -12.181016 202.224688 -12.181016 C 201.123125 -12.181016 200.2325 -13.071641 200.2325 -14.173204 C 200.2325 -15.274766 201.123125 -16.165391 202.224688 -16.165391 C 203.32625 -16.165391 204.216875 -15.274766 204.216875 -14.173204 Z M 204.216875 -14.173204 " transform="matrix(1,0,0,-1,27.955,31.57289)"/>
<path style="fill:none;stroke-width:0.3985;stroke-linecap:butt;stroke-linejoin:miter;stroke:rgb(0%,0%,0%);stroke-opacity:1;stroke-miterlimit:10;" d="M 251.322344 -14.173204 L 226.775469 28.346327 " transform="matrix(1,0,0,-1,27.955,31.57289)"/>
<path style=" stroke:none;fill-rule:nonzero;fill:rgb(0%,0%,0%);fill-opacity:1;" d="M 394.660156 45.746094 C 394.660156 44.644531 393.765625 43.753906 392.664062 43.753906 C 391.566406 43.753906 390.671875 44.644531 390.671875 45.746094 C 390.671875 46.847656 391.566406 47.738281 392.664062 47.738281 C 393.765625 47.738281 394.660156 46.847656 394.660156 45.746094 Z M 394.660156 45.746094 "/>
<g clip-path="url(#clip1)" clip-rule="nonzero">
<path style="fill:none;stroke-width:0.3985;stroke-linecap:butt;stroke-linejoin:miter;stroke:rgb(0%,0%,0%);stroke-opacity:1;stroke-miterlimit:10;" d="M 366.705156 -14.173204 C 366.705156 -13.071641 365.810625 -12.181016 364.709063 -12.181016 C 363.611406 -12.181016 362.716875 -13.071641 362.716875 -14.173204 C 362.716875 -15.274766 363.611406 -16.165391 364.709063 -16.165391 C 365.810625 -16.165391 366.705156 -15.274766 366.705156 -14.173204 Z M 366.705156 -14.173204 " transform="matrix(1,0,0,-1,27.955,31.57289)"/>
</g>
<path style="fill-rule:nonzero;fill:rgb(0%,0%,0%);fill-opacity:1;stroke-width:0.3985;stroke-linecap:butt;stroke-linejoin:miter;stroke:rgb(0%,0%,0%);stroke-opacity:1;stroke-miterlimit:10;" d="M 342.154375 28.346327 C 342.154375 29.44789 341.26375 30.338515 340.162188 30.338515 C 339.060625 30.338515 338.17 29.44789 338.17 28.346327 C 338.17 27.244765 339.060625 26.35414 340.162188 26.35414 C 341.26375 26.35414 342.154375 27.244765 342.154375 28.346327 Z M 342.154375 28.346327 " transform="matrix(1,0,0,-1,27.955,31.57289)"/>
<path style="fill-rule:nonzero;fill:rgb(0%,0%,0%);fill-opacity:1;stroke-width:0.3985;stroke-linecap:butt;stroke-linejoin:miter;stroke:rgb(0%,0%,0%);stroke-opacity:1;stroke-miterlimit:10;" d="M 317.603594 -14.173204 C 317.603594 -13.071641 316.712969 -12.181016 315.611406 -12.181016 C 314.51375 -12.181016 313.619219 -13.071641 313.619219 -14.173204 C 313.619219 -15.274766 314.51375 -16.165391 315.611406 -16.165391 C 316.712969 -16.165391 317.603594 -15.274766 317.603594 -14.173204 Z M 317.603594 -14.173204 " transform="matrix(1,0,0,-1,27.955,31.57289)"/>
<path style=" stroke:none;fill-rule:nonzero;fill:rgb(0%,0%,0%);fill-opacity:1;" d="M 54.496094 130.785156 C 54.496094 129.6875 53.605469 128.792969 52.503906 128.792969 C 51.402344 128.792969 50.511719 129.6875 50.511719 130.785156 C 50.511719 131.886719 51.402344 132.777344 52.503906 132.777344 C 53.605469 132.777344 54.496094 131.886719 54.496094 130.785156 Z M 54.496094 130.785156 "/>
<g clip-path="url(#clip2)" clip-rule="nonzero">
<path style="fill:none;stroke-width:0.3985;stroke-linecap:butt;stroke-linejoin:miter;stroke:rgb(0%,0%,0%);stroke-opacity:1;stroke-miterlimit:10;" d="M 26.541094 -99.212266 C 26.541094 -98.11461 25.650469 -97.220079 24.548906 -97.220079 C 23.447344 -97.220079 22.556719 -98.11461 22.556719 -99.212266 C 22.556719 -100.313829 23.447344 -101.204454 24.548906 -101.204454 C 25.650469 -101.204454 26.541094 -100.313829 26.541094 -99.212266 Z M 26.541094 -99.212266 " transform="matrix(1,0,0,-1,27.955,31.57289)"/>
</g>
<path style="fill-rule:nonzero;fill:rgb(0%,0%,0%);fill-opacity:1;stroke-width:0.3985;stroke-linecap:butt;stroke-linejoin:miter;stroke:rgb(0%,0%,0%);stroke-opacity:1;stroke-miterlimit:10;" d="M 1.994219 -56.692735 C 1.994219 -55.595079 1.099688 -54.700547 -0.001875 -54.700547 C -1.099531 -54.700547 -1.994062 -55.595079 -1.994062 -56.692735 C -1.994062 -57.794297 -1.099531 -58.684922 -0.001875 -58.684922 C 1.099688 -58.684922 1.994219 -57.794297 1.994219 -56.692735 Z M 1.994219 -56.692735 " transform="matrix(1,0,0,-1,27.955,31.57289)"/>
<g clip-path="url(#clip3)" clip-rule="nonzero">
<path style="fill:none;stroke-width:0.3985;stroke-linecap:butt;stroke-linejoin:miter;stroke:rgb(0%,0%,0%);stroke-opacity:1;stroke-miterlimit:10;" d="M 24.548906 -99.212266 L -0.001875 -56.692735 " transform="matrix(1,0,0,-1,27.955,31.57289)"/>
</g>
<path style=" stroke:none;fill-rule:nonzero;fill:rgb(0%,0%,0%);fill-opacity:1;" d="M 167.882812 130.785156 C 167.882812 129.6875 166.992188 128.792969 165.890625 128.792969 C 164.789062 128.792969 163.898438 129.6875 163.898438 130.785156 C 163.898438 131.886719 164.789062 132.777344 165.890625 132.777344 C 166.992188 132.777344 167.882812 131.886719 167.882812 130.785156 Z M 167.882812 130.785156 "/>
<g clip-path="url(#clip4)" clip-rule="nonzero">
<path style="fill:none;stroke-width:0.3985;stroke-linecap:butt;stroke-linejoin:miter;stroke:rgb(0%,0%,0%);stroke-opacity:1;stroke-miterlimit:10;" d="M 139.927813 -99.212266 C 139.927813 -98.11461 139.037188 -97.220079 137.935625 -97.220079 C 136.834063 -97.220079 135.943438 -98.11461 135.943438 -99.212266 C 135.943438 -100.313829 136.834063 -101.204454 137.935625 -101.204454 C 139.037188 -101.204454 139.927813 -100.313829 139.927813 -99.212266 Z M 139.927813 -99.212266 " transform="matrix(1,0,0,-1,27.955,31.57289)"/>
</g>
<path style="fill-rule:nonzero;fill:rgb(0%,0%,0%);fill-opacity:1;stroke-width:0.3985;stroke-linecap:butt;stroke-linejoin:miter;stroke:rgb(0%,0%,0%);stroke-opacity:1;stroke-miterlimit:10;" d="M 115.380938 -56.692735 C 115.380938 -55.595079 114.486406 -54.700547 113.38875 -54.700547 C 112.287188 -54.700547 111.396563 -55.595079 111.396563 -56.692735 C 111.396563 -57.794297 112.287188 -58.684922 113.38875 -58.684922 C 114.486406 -58.684922 115.380938 -57.794297 115.380938 -56.692735 Z M 115.380938 -56.692735 " transform="matrix(1,0,0,-1,27.955,31.57289)"/>
<path style="fill-rule:nonzero;fill:rgb(0%,0%,0%);fill-opacity:1;stroke-width:0.3985;stroke-linecap:butt;stroke-linejoin:miter;stroke:rgb(0%,0%,0%);stroke-opacity:1;stroke-miterlimit:10;" d="M 228.767656 -85.040391 C 228.767656 -83.938829 227.873125 -83.048204 226.775469 -83.048204 C 225.673906 -83.048204 224.783281 -83.938829 224.783281 -85.040391 C 224.783281 -86.141954 225.673906 -87.032579 226.775469 -87.032579 C 227.873125 -87.032579 228.767656 -86.141954 228.767656 -85.040391 Z M 228.767656 -85.040391 " transform="matrix(1,0,0,-1,27.955,31.57289)"/>
</g>
</svg>
