<?xml version="1.0" encoding="UTF-8"?>
<svg xmlns="http://www.w3.org/2000/svg" xmlns:xlink="http://www.w3.org/1999/xlink" width="225.2pt" height="87.86795pt" viewBox="0 0 225.2 87.86795" version="1.1">
<defs>
<clipPath id="clip1">
  <path d="M 40 77 L 56 77 L 56 87.867188 L 40 87.867188 Z M 40 77 "/>
</clipPath>
<clipPath id="clip2">
  <path d="M 0 0 L 90 0 L 90 87.867188 L 0 87.867188 Z M 0 0 "/>
</clipPath>
<clipPath id="clip3">
  <path d="M 193 72 L 209 72 L 209 87.867188 L 193 87.867188 Z M 193 72 "/>
</clipPath>
<clipPath id="clip4">
  <path d="M 214 35 L 225.199219 35 L 225.199219 52 L 214 52 Z M 214 35 "/>
</clipPath>
<clipPath id="clip5">
  <path d="M 150 72 L 166 72 L 166 87.867188 L 150 87.867188 Z M 150 72 "/>
</clipPath>
<clipPath id="clip6">
  <path d="M 126 0 L 225.199219 0 L 225.199219 87.867188 L 126 87.867188 Z M 126 0 "/>
</clipPath>
</defs>
<g id="surface1">
<path style="fill-rule:nonzero;fill:rgb(0%,0%,0%);fill-opacity:1;stroke-width:0.3985;stroke-linecap:butt;stroke-linejoin:miter;stroke:rgb(0%,0%,0%);stroke-opacity:1;stroke-miterlimit:10;" d="M -32.408281 -24.990938 C -32.408281 -23.893281 -33.298906 -22.99875 -34.400469 -22.99875 C -35.502031 -22.99875 -36.392656 -23.893281 -36.392656 -24.990938 C -36.392656 -26.0925 -35.502031 -26.983125 -34.400469 -26.983125 C -33.298906 -26.983125 -32.408281 -26.0925 -32.408281 -24.990938 Z M -32.408281 -24.990938 " transform="matrix(1,0,0,-1,37.67,43.5325)"/>
<path style=" stroke:none;fill-rule:nonzero;fill:rgb(0%,0%,0%);fill-opacity:1;" d="M 49.949219 84.789062 C 49.949219 83.691406 49.054688 82.796875 47.957031 82.796875 C 46.855469 82.796875 45.964844 83.691406 45.964844 84.789062 C 45.964844 85.890625 46.855469 86.78125 47.957031 86.78125 C 49.054688 86.78125 49.949219 85.890625 49.949219 84.789062 Z M 49.949219 84.789062 "/>
<g clip-path="url(#clip1)" clip-rule="nonzero">
<path style="fill:none;stroke-width:0.3985;stroke-linecap:butt;stroke-linejoin:miter;stroke:rgb(0%,0%,0%);stroke-opacity:1;stroke-miterlimit:10;" d="M 12.279219 -41.256563 C 12.279219 -40.158906 11.384687 -39.264375 10.287031 -39.264375 C 9.185469 -39.264375 8.294844 -40.158906 8.294844 -41.256563 C 8.294844 -42.358125 9.185469 -43.24875 10.287031 -43.24875 C 11.384687 -43.24875 12.279219 -42.358125 12.279219 -41.256563 Z M 12.279219 -41.256563 " transform="matrix(1,0,0,-1,37.67,43.5325)"/>
</g>
<path style="fill-rule:nonzero;fill:rgb(0%,0%,0%);fill-opacity:1;stroke-width:0.3985;stroke-linecap:butt;stroke-linejoin:miter;stroke:rgb(0%,0%,0%);stroke-opacity:1;stroke-miterlimit:10;" d="M 1.994062 0.00125 C 1.994062 1.098906 1.099531 1.993437 0.001875 1.993437 C -1.099688 1.993437 -1.994219 1.098906 -1.994219 0.00125 C -1.994219 -1.100313 -1.099688 -1.990938 0.001875 -1.990938 C 1.099531 -1.990938 1.994062 -1.100313 1.994062 0.00125 Z M 1.994062 0.00125 " transform="matrix(1,0,0,-1,37.67,43.5325)"/>
<path style="fill-rule:nonzero;fill:rgb(0%,0%,0%);fill-opacity:1;stroke-width:0.3985;stroke-linecap:butt;stroke-linejoin:miter;stroke:rgb(0%,0%,0%);stroke-opacity:1;stroke-miterlimit:10;" d="M 44.513594 0.00125 C 44.513594 1.098906 43.619062 1.993437 42.521406 1.993437 C 41.419844 1.993437 40.529219 1.098906 40.529219 0.00125 C 40.529219 -1.100313 41.419844 -1.990938 42.521406 -1.990938 C 43.619062 -1.990938 44.513594 -1.100313 44.513594 0.00125 Z M 44.513594 0.00125 " transform="matrix(1,0,0,-1,37.67,43.5325)"/>
<path style="fill-rule:nonzero;fill:rgb(0%,0%,0%);fill-opacity:1;stroke-width:0.3985;stroke-linecap:butt;stroke-linejoin:miter;stroke:rgb(0%,0%,0%);stroke-opacity:1;stroke-miterlimit:10;" d="M 15.130781 40.43875 C 15.130781 41.540312 14.240156 42.430937 13.138594 42.430937 C 12.040937 42.430937 11.146406 41.540312 11.146406 40.43875 C 11.146406 39.337187 12.040937 38.446562 13.138594 38.446562 C 14.240156 38.446562 15.130781 39.337187 15.130781 40.43875 Z M 15.130781 40.43875 " transform="matrix(1,0,0,-1,37.67,43.5325)"/>
<path style="fill-rule:nonzero;fill:rgb(0%,0%,0%);fill-opacity:1;stroke-width:0.3985;stroke-linecap:butt;stroke-linejoin:miter;stroke:rgb(0%,0%,0%);stroke-opacity:1;stroke-miterlimit:10;" d="M -32.408281 24.993437 C -32.408281 26.091094 -33.298906 26.985625 -34.400469 26.985625 C -35.502031 26.985625 -36.392656 26.091094 -36.392656 24.993437 C -36.392656 23.891875 -35.502031 23.00125 -34.400469 23.00125 C -33.298906 23.00125 -32.408281 23.891875 -32.408281 24.993437 Z M -32.408281 24.993437 " transform="matrix(1,0,0,-1,37.67,43.5325)"/>
<g clip-path="url(#clip2)" clip-rule="nonzero">
<path style="fill:none;stroke-width:0.79701;stroke-linecap:butt;stroke-linejoin:miter;stroke:rgb(0%,0%,0%);stroke-opacity:1;stroke-miterlimit:10;" d="M -32.619219 23.700469 L -1.779375 1.294219 M 2.193281 0.00125 L 40.33 0.00125 M 40.431562 -0.678438 L -32.310625 -24.315156 M -33.1075 -23.213594 L 11.845625 38.661406 M 13.064375 38.247344 L 10.36125 -39.065156 M 9.056562 -39.43625 L -33.17 23.173125 M -32.310625 24.31375 L 40.431562 0.677031 " transform="matrix(1,0,0,-1,37.67,43.5325)"/>
</g>
<path style=" stroke:none;fill-rule:nonzero;fill:rgb(0%,0%,0%);fill-opacity:1;" d="M 202.65625 80.355469 C 202.65625 79.253906 201.765625 78.363281 200.664062 78.363281 C 199.5625 78.363281 198.671875 79.253906 198.671875 80.355469 C 198.671875 81.457031 199.5625 82.347656 200.664062 82.347656 C 201.765625 82.347656 202.65625 81.457031 202.65625 80.355469 Z M 202.65625 80.355469 "/>
<g clip-path="url(#clip3)" clip-rule="nonzero">
<path style="fill:none;stroke-width:0.3985;stroke-linecap:butt;stroke-linejoin:miter;stroke:rgb(0%,0%,0%);stroke-opacity:1;stroke-miterlimit:10;" d="M 164.98625 -36.822969 C 164.98625 -35.721406 164.095625 -34.830781 162.994062 -34.830781 C 161.8925 -34.830781 161.001875 -35.721406 161.001875 -36.822969 C 161.001875 -37.924531 161.8925 -38.815156 162.994062 -38.815156 C 164.095625 -38.815156 164.98625 -37.924531 164.98625 -36.822969 Z M 164.98625 -36.822969 " transform="matrix(1,0,0,-1,37.67,43.5325)"/>
</g>
<path style="fill-rule:nonzero;fill:rgb(0%,0%,0%);fill-opacity:1;stroke-width:0.3985;stroke-linecap:butt;stroke-linejoin:miter;stroke:rgb(0%,0%,0%);stroke-opacity:1;stroke-miterlimit:10;" d="M 101.205 0.00125 C 101.205 1.098906 100.314375 1.993437 99.212812 1.993437 C 98.115156 1.993437 97.220625 1.098906 97.220625 0.00125 C 97.220625 -1.100313 98.115156 -1.990938 99.212812 -1.990938 C 100.314375 -1.990938 101.205 -1.100313 101.205 0.00125 Z M 101.205 0.00125 " transform="matrix(1,0,0,-1,37.67,43.5325)"/>
<path style="fill-rule:nonzero;fill:rgb(0%,0%,0%);fill-opacity:1;stroke-width:0.3985;stroke-linecap:butt;stroke-linejoin:miter;stroke:rgb(0%,0%,0%);stroke-opacity:1;stroke-miterlimit:10;" d="M 164.98625 36.825469 C 164.98625 37.923125 164.095625 38.817656 162.994062 38.817656 C 161.8925 38.817656 161.001875 37.923125 161.001875 36.825469 C 161.001875 35.723906 161.8925 34.829375 162.994062 34.829375 C 164.095625 34.829375 164.98625 35.723906 164.98625 36.825469 Z M 164.98625 36.825469 " transform="matrix(1,0,0,-1,37.67,43.5325)"/>
<path style=" stroke:none;fill-rule:nonzero;fill:rgb(0%,0%,0%);fill-opacity:1;" d="M 223.917969 43.53125 C 223.917969 42.433594 223.023438 41.539062 221.925781 41.539062 C 220.824219 41.539062 219.933594 42.433594 219.933594 43.53125 C 219.933594 44.632812 220.824219 45.523438 221.925781 45.523438 C 223.023438 45.523438 223.917969 44.632812 223.917969 43.53125 Z M 223.917969 43.53125 "/>
<g clip-path="url(#clip4)" clip-rule="nonzero">
<path style="fill:none;stroke-width:0.3985;stroke-linecap:butt;stroke-linejoin:miter;stroke:rgb(0%,0%,0%);stroke-opacity:1;stroke-miterlimit:10;" d="M 186.247969 0.00125 C 186.247969 1.098906 185.353437 1.993437 184.255781 1.993437 C 183.154219 1.993437 182.263594 1.098906 182.263594 0.00125 C 182.263594 -1.100313 183.154219 -1.990938 184.255781 -1.990938 C 185.353437 -1.990938 186.247969 -1.100313 186.247969 0.00125 Z M 186.247969 0.00125 " transform="matrix(1,0,0,-1,37.67,43.5325)"/>
</g>
<path style=" stroke:none;fill-rule:nonzero;fill:rgb(0%,0%,0%);fill-opacity:1;" d="M 160.136719 80.355469 C 160.136719 79.253906 159.246094 78.363281 158.144531 78.363281 C 157.042969 78.363281 156.152344 79.253906 156.152344 80.355469 C 156.152344 81.457031 157.042969 82.347656 158.144531 82.347656 C 159.246094 82.347656 160.136719 81.457031 160.136719 80.355469 Z M 160.136719 80.355469 "/>
<g clip-path="url(#clip5)" clip-rule="nonzero">
<path style="fill:none;stroke-width:0.3985;stroke-linecap:butt;stroke-linejoin:miter;stroke:rgb(0%,0%,0%);stroke-opacity:1;stroke-miterlimit:10;" d="M 122.466719 -36.822969 C 122.466719 -35.721406 121.576094 -34.830781 120.474531 -34.830781 C 119.372969 -34.830781 118.482344 -35.721406 118.482344 -36.822969 C 118.482344 -37.924531 119.372969 -38.815156 120.474531 -38.815156 C 121.576094 -38.815156 122.466719 -37.924531 122.466719 -36.822969 Z M 122.466719 -36.822969 " transform="matrix(1,0,0,-1,37.67,43.5325)"/>
</g>
<path style="fill-rule:nonzero;fill:rgb(0%,0%,0%);fill-opacity:1;stroke-width:0.3985;stroke-linecap:butt;stroke-linejoin:miter;stroke:rgb(0%,0%,0%);stroke-opacity:1;stroke-miterlimit:10;" d="M 122.466719 36.825469 C 122.466719 37.923125 121.576094 38.817656 120.474531 38.817656 C 119.372969 38.817656 118.482344 37.923125 118.482344 36.825469 C 118.482344 35.723906 119.372969 34.829375 120.474531 34.829375 C 121.576094 34.829375 122.466719 35.723906 122.466719 36.825469 Z M 122.466719 36.825469 " transform="matrix(1,0,0,-1,37.67,43.5325)"/>
<g clip-path="url(#clip6)" clip-rule="nonzero">
<path style="fill:none;stroke-width:0.79701;stroke-linecap:butt;stroke-linejoin:miter;stroke:rgb(0%,0%,0%);stroke-opacity:1;stroke-miterlimit:10;" d="M 122.665937 36.825469 L 160.802656 36.825469 M 164.091719 34.919219 L 183.154219 1.903594 M 183.154219 -1.905 L 164.091719 -34.920625 M 160.802656 -36.822969 L 122.665937 -36.822969 M 119.372969 -34.920625 L 100.314375 -1.905 M 100.314375 1.903594 L 119.372969 34.919219 M 122.376875 35.723906 L 182.349531 1.098906 " transform="matrix(1,0,0,-1,37.67,43.5325)"/>
</g>
</g>
</svg>
