<?xml version="1.0" encoding="UTF-8"?>
<svg xmlns="http://www.w3.org/2000/svg" xmlns:xlink="http://www.w3.org/1999/xlink" width="229.52pt" height="104.65779pt" viewBox="0 0 229.52 104.65779" version="1.1">
<defs>
<clipPath id="clip1">
  <path d="M 86 0 L 144 0 L 144 104.65625 L 86 104.65625 Z M 86 0 "/>
</clipPath>
<clipPath id="clip2">
  <path d="M 177 0 L 229.519531 0 L 229.519531 87 L 177 87 Z M 177 0 "/>
</clipPath>
</defs>
<g id="surface1">
<path style="fill:none;stroke-width:0.3985;stroke-linecap:butt;stroke-linejoin:miter;stroke:rgb(0%,0%,0%);stroke-opacity:1;stroke-miterlimit:10;" d="M -68.034375 0.00092125 C -68.034375 21.91889 -78.186719 39.684515 -90.710156 39.684515 C -103.233594 39.684515 -113.385937 21.91889 -113.385937 0.00092125 C -113.385937 -21.917048 -103.233594 -39.686579 -90.710156 -39.686579 C -78.186719 -39.686579 -68.034375 -21.917048 -68.034375 0.00092125 Z M -68.034375 0.00092125 " transform="matrix(1,0,0,-1,114.8,40.91889)"/>
<path style="fill:none;stroke-width:0.3985;stroke-linecap:butt;stroke-linejoin:miter;stroke:rgb(0%,0%,0%);stroke-opacity:1;stroke-miterlimit:10;" d="M -85.073437 22.676702 C -85.073437 25.789984 -87.596875 28.313421 -90.710156 28.313421 C -93.823437 28.313421 -96.346875 25.789984 -96.346875 22.676702 C -96.346875 19.563421 -93.823437 17.039984 -90.710156 17.039984 C -87.596875 17.039984 -85.073437 19.563421 -85.073437 22.676702 Z M -85.073437 22.676702 " transform="matrix(1,0,0,-1,114.8,40.91889)"/>
<path style="fill:none;stroke-width:0.3985;stroke-linecap:butt;stroke-linejoin:miter;stroke:rgb(0%,0%,0%);stroke-opacity:1;stroke-miterlimit:10;" d="M -85.073437 0.00092125 C -85.073437 3.114202 -87.596875 5.633734 -90.710156 5.633734 C -93.823437 5.633734 -96.346875 3.114202 -96.346875 0.00092125 C -96.346875 -3.11236 -93.823437 -5.635798 -90.710156 -5.635798 C -87.596875 -5.635798 -85.073437 -3.11236 -85.073437 0.00092125 Z M -85.073437 0.00092125 " transform="matrix(1,0,0,-1,114.8,40.91889)"/>
<path style="fill:none;stroke-width:0.3985;stroke-linecap:butt;stroke-linejoin:miter;stroke:rgb(0%,0%,0%);stroke-opacity:1;stroke-miterlimit:10;" d="M -85.073437 -22.678766 C -85.073437 -19.565485 -87.596875 -17.042048 -90.710156 -17.042048 C -93.823437 -17.042048 -96.346875 -19.565485 -96.346875 -22.678766 C -96.346875 -25.788141 -93.823437 -28.311579 -90.710156 -28.311579 C -87.596875 -28.311579 -85.073437 -25.788141 -85.073437 -22.678766 Z M -85.073437 -22.678766 " transform="matrix(1,0,0,-1,114.8,40.91889)"/>
<path style="fill:none;stroke-width:1.19553;stroke-linecap:butt;stroke-linejoin:miter;stroke:rgb(0%,0%,0%);stroke-opacity:1;stroke-miterlimit:10;" d="M -85.042187 22.676702 L -11.409375 22.676702 " transform="matrix(1,0,0,-1,114.8,40.91889)"/>
<path style=" stroke:none;fill-rule:nonzero;fill:rgb(0%,0%,0%);fill-opacity:1;" d="M 109.128906 18.242188 C 107.429688 17.921875 104.667969 16.964844 102.753906 15.851562 L 102.753906 20.632812 C 104.667969 19.515625 107.429688 18.558594 109.128906 18.242188 "/>
<path style="fill:none;stroke-width:1.19553;stroke-linecap:butt;stroke-linejoin:miter;stroke:rgb(0%,0%,0%);stroke-opacity:1;stroke-miterlimit:10;" d="M -85.042187 0.00092125 L -11.409375 0.00092125 " transform="matrix(1,0,0,-1,114.8,40.91889)"/>
<path style=" stroke:none;fill-rule:nonzero;fill:rgb(0%,0%,0%);fill-opacity:1;" d="M 109.128906 40.917969 C 107.429688 40.601562 104.667969 39.644531 102.753906 38.527344 L 102.753906 43.308594 C 104.667969 42.195312 107.429688 41.238281 109.128906 40.917969 "/>
<path style="fill:none;stroke-width:1.19553;stroke-linecap:butt;stroke-linejoin:miter;stroke:rgb(0%,0%,0%);stroke-opacity:1;stroke-miterlimit:10;" d="M -85.042187 -22.678766 L -11.409375 -22.678766 " transform="matrix(1,0,0,-1,114.8,40.91889)"/>
<path style=" stroke:none;fill-rule:nonzero;fill:rgb(0%,0%,0%);fill-opacity:1;" d="M 109.128906 63.597656 C 107.429688 63.277344 104.667969 62.320312 102.753906 61.207031 L 102.753906 65.988281 C 104.667969 64.871094 107.429688 63.914062 109.128906 63.597656 "/>
<g clip-path="url(#clip1)" clip-rule="nonzero">
<path style="fill:none;stroke-width:0.3985;stroke-linecap:butt;stroke-linejoin:miter;stroke:rgb(0%,0%,0%);stroke-opacity:1;stroke-miterlimit:10;" d="M 22.676563 -11.338923 C 22.676563 16.840765 12.524219 39.684515 0.00078125 39.684515 C -12.522656 39.684515 -22.678906 16.840765 -22.678906 -11.338923 C -22.678906 -39.51861 -12.522656 -62.36236 0.00078125 -62.36236 C 12.524219 -62.36236 22.676563 -39.51861 22.676563 -11.338923 Z M 22.676563 -11.338923 " transform="matrix(1,0,0,-1,114.8,40.91889)"/>
</g>
<path style="fill:none;stroke-width:0.3985;stroke-linecap:butt;stroke-linejoin:miter;stroke:rgb(0%,0%,0%);stroke-opacity:1;stroke-miterlimit:10;" d="M 5.6375 22.676702 C 5.6375 25.789984 3.114063 28.313421 0.00078125 28.313421 C -3.1125 28.313421 -5.635937 25.789984 -5.635937 22.676702 C -5.635937 19.563421 -3.1125 17.039984 0.00078125 17.039984 C 3.114063 17.039984 5.6375 19.563421 5.6375 22.676702 Z M 5.6375 22.676702 " transform="matrix(1,0,0,-1,114.8,40.91889)"/>
<path style="fill:none;stroke-width:0.3985;stroke-linecap:butt;stroke-linejoin:miter;stroke:rgb(0%,0%,0%);stroke-opacity:1;stroke-miterlimit:10;" d="M 5.6375 0.00092125 C 5.6375 3.114202 3.114063 5.633734 0.00078125 5.633734 C -3.1125 5.633734 -5.635937 3.114202 -5.635937 0.00092125 C -5.635937 -3.11236 -3.1125 -5.635798 0.00078125 -5.635798 C 3.114063 -5.635798 5.6375 -3.11236 5.6375 0.00092125 Z M 5.6375 0.00092125 " transform="matrix(1,0,0,-1,114.8,40.91889)"/>
<path style="fill:none;stroke-width:0.3985;stroke-linecap:butt;stroke-linejoin:miter;stroke:rgb(0%,0%,0%);stroke-opacity:1;stroke-miterlimit:10;" d="M 5.6375 -22.678766 C 5.6375 -19.565485 3.114063 -17.042048 0.00078125 -17.042048 C -3.1125 -17.042048 -5.635937 -19.565485 -5.635937 -22.678766 C -5.635937 -25.788141 -3.1125 -28.311579 0.00078125 -28.311579 C 3.114063 -28.311579 5.6375 -25.788141 5.6375 -22.678766 Z M 5.6375 -22.678766 " transform="matrix(1,0,0,-1,114.8,40.91889)"/>
<path style="fill:none;stroke-width:0.3985;stroke-linecap:butt;stroke-linejoin:miter;stroke:rgb(0%,0%,0%);stroke-opacity:1;stroke-miterlimit:10;" d="M 5.6375 -45.354548 C 5.6375 -42.241266 3.114063 -39.717829 0.00078125 -39.717829 C -3.1125 -39.717829 -5.635937 -42.241266 -5.635937 -45.354548 C -5.635937 -48.467829 -3.1125 -50.991266 0.00078125 -50.991266 C 3.114063 -50.991266 5.6375 -48.467829 5.6375 -45.354548 Z M 5.6375 -45.354548 " transform="matrix(1,0,0,-1,114.8,40.91889)"/>
<g clip-path="url(#clip2)" clip-rule="nonzero">
<path style="fill:none;stroke-width:0.3985;stroke-linecap:butt;stroke-linejoin:miter;stroke:rgb(0%,0%,0%);stroke-opacity:1;stroke-miterlimit:10;" d="M 113.3875 0.00092125 C 113.3875 21.91889 103.235156 39.684515 90.711719 39.684515 C 78.184375 39.684515 68.032031 21.91889 68.032031 0.00092125 C 68.032031 -21.917048 78.184375 -39.686579 90.711719 -39.686579 C 103.235156 -39.686579 113.3875 -21.917048 113.3875 0.00092125 Z M 113.3875 0.00092125 " transform="matrix(1,0,0,-1,114.8,40.91889)"/>
</g>
<path style="fill:none;stroke-width:0.3985;stroke-linecap:butt;stroke-linejoin:miter;stroke:rgb(0%,0%,0%);stroke-opacity:1;stroke-miterlimit:10;" d="M 96.344531 22.676702 C 96.344531 25.789984 93.821094 28.313421 90.711719 28.313421 C 87.598438 28.313421 85.075 25.789984 85.075 22.676702 C 85.075 19.563421 87.598438 17.039984 90.711719 17.039984 C 93.821094 17.039984 96.344531 19.563421 96.344531 22.676702 Z M 96.344531 22.676702 " transform="matrix(1,0,0,-1,114.8,40.91889)"/>
<path style="fill:none;stroke-width:0.3985;stroke-linecap:butt;stroke-linejoin:miter;stroke:rgb(0%,0%,0%);stroke-opacity:1;stroke-miterlimit:10;" d="M 96.344531 0.00092125 C 96.344531 3.114202 93.821094 5.633734 90.711719 5.633734 C 87.598438 5.633734 85.075 3.114202 85.075 0.00092125 C 85.075 -3.11236 87.598438 -5.635798 90.711719 -5.635798 C 93.821094 -5.635798 96.344531 -3.11236 96.344531 0.00092125 Z M 96.344531 0.00092125 " transform="matrix(1,0,0,-1,114.8,40.91889)"/>
<path style="fill:none;stroke-width:0.3985;stroke-linecap:butt;stroke-linejoin:miter;stroke:rgb(0%,0%,0%);stroke-opacity:1;stroke-miterlimit:10;" d="M 96.344531 -22.678766 C 96.344531 -19.565485 93.821094 -17.042048 90.711719 -17.042048 C 87.598438 -17.042048 85.075 -19.565485 85.075 -22.678766 C 85.075 -25.788141 87.598438 -28.311579 90.711719 -28.311579 C 93.821094 -28.311579 96.344531 -25.788141 96.344531 -22.678766 Z M 96.344531 -22.678766 " transform="matrix(1,0,0,-1,114.8,40.91889)"/>
<path style="fill:none;stroke-width:1.19553;stroke-linecap:butt;stroke-linejoin:miter;stroke:rgb(0%,0%,0%);stroke-opacity:1;stroke-miterlimit:10;" d="M 5.66875 22.676702 L 80.434375 22.676702 " transform="matrix(1,0,0,-1,114.8,40.91889)"/>
<path style=" stroke:none;fill-rule:nonzero;fill:rgb(0%,0%,0%);fill-opacity:1;" d="M 200.976562 18.242188 C 199.273438 17.921875 196.511719 16.964844 194.597656 15.851562 L 194.597656 20.632812 C 196.511719 19.515625 199.273438 18.558594 200.976562 18.242188 "/>
<path style="fill:none;stroke-width:1.19553;stroke-linecap:butt;stroke-linejoin:miter;stroke:rgb(0%,0%,0%);stroke-opacity:1;stroke-miterlimit:10;" d="M 5.66875 0.00092125 L 80.434375 0.00092125 " transform="matrix(1,0,0,-1,114.8,40.91889)"/>
<path style=" stroke:none;fill-rule:nonzero;fill:rgb(0%,0%,0%);fill-opacity:1;" d="M 200.976562 40.917969 C 199.273438 40.601562 196.511719 39.644531 194.597656 38.527344 L 194.597656 43.308594 C 196.511719 42.195312 199.273438 41.238281 200.976562 40.917969 "/>
<path style="fill:none;stroke-width:1.19553;stroke-linecap:butt;stroke-linejoin:miter;stroke:rgb(0%,0%,0%);stroke-opacity:1;stroke-miterlimit:10;" d="M 5.66875 -22.678766 L 79.309375 -18.467829 " transform="matrix(1,0,0,-1,114.8,40.91889)"/>
<path style=" stroke:none;fill-rule:nonzero;fill:rgb(0%,0%,0%);fill-opacity:1;" d="M 199.839844 59.0625 C 198.125 58.839844 195.308594 58.042969 193.335938 57.035156 L 193.609375 61.8125 C 195.457031 60.589844 198.160156 59.476562 199.839844 59.0625 "/>
<path style="fill:none;stroke-width:1.19553;stroke-linecap:butt;stroke-linejoin:miter;stroke:rgb(0%,0%,0%);stroke-opacity:1;stroke-miterlimit:10;" d="M 5.66875 -45.354548 L 79.434375 -28.495173 " transform="matrix(1,0,0,-1,114.8,40.91889)"/>
<path style=" stroke:none;fill-rule:nonzero;fill:rgb(0%,0%,0%);fill-opacity:1;" d="M 199.839844 68.132812 C 198.109375 68.199219 195.195312 67.882812 193.078125 67.21875 L 194.148438 71.890625 C 195.765625 70.375 198.25 68.824219 199.839844 68.132812 "/>
</g>
</svg>
