<?xml version="1.0" encoding="UTF-8"?>
<svg xmlns="http://www.w3.org/2000/svg" xmlns:xlink="http://www.w3.org/1999/xlink" width="138.8" height="104.72" viewBox="0 0 138.8 104.72">
<defs>
<clipPath id="clip-0">
<path clip-rule="nonzero" d="M 0 0 L 53 0 L 53 104.71875 L 0 104.71875 Z M 0 0 "/>
</clipPath>
<clipPath id="clip-1">
<path clip-rule="nonzero" d="M 86 0 L 138.800781 0 L 138.800781 87 L 86 87 Z M 86 0 "/>
</clipPath>
</defs>
<g clip-path="url(#clip-0)">
<path fill="none" stroke-width="0.3985" stroke-linecap="butt" stroke-linejoin="miter" stroke="rgb(0%, 0%, 0%)" stroke-opacity="1" stroke-miterlimit="10" d="M 22.678531 -11.338656 C 22.678531 16.841031 12.526188 39.684781 -0.00115625 39.684781 C -12.524594 39.684781 -22.676937 16.841031 -22.676937 -11.338656 C -22.676937 -39.518344 -12.524594 -62.362094 -0.00115625 -62.362094 C 12.526188 -62.362094 22.678531 -39.518344 22.678531 -11.338656 Z M 22.678531 -11.338656 " transform="matrix(1, 0, 0, -1, 24.091, 40.884)"/>
</g>
<path fill="none" stroke-width="0.3985" stroke-linecap="butt" stroke-linejoin="miter" stroke="rgb(0%, 0%, 0%)" stroke-opacity="1" stroke-miterlimit="10" d="M 5.635563 22.676969 C 5.635563 25.79025 3.112125 28.313687 -0.00115625 28.313687 C -3.114437 28.313687 -5.633969 25.79025 -5.633969 22.676969 C -5.633969 19.563687 -3.114437 17.04025 -0.00115625 17.04025 C 3.112125 17.04025 5.635563 19.563687 5.635563 22.676969 Z M 5.635563 22.676969 " transform="matrix(1, 0, 0, -1, 24.091, 40.884)"/>
<path fill="none" stroke-width="0.3985" stroke-linecap="butt" stroke-linejoin="miter" stroke="rgb(0%, 0%, 0%)" stroke-opacity="1" stroke-miterlimit="10" d="M 5.635563 0.0011875 C 5.635563 3.114469 3.112125 5.634 -0.00115625 5.634 C -3.114437 5.634 -5.633969 3.114469 -5.633969 0.0011875 C -5.633969 -3.112094 -3.114437 -5.635531 -0.00115625 -5.635531 C 3.112125 -5.635531 5.635563 -3.112094 5.635563 0.0011875 Z M 5.635563 0.0011875 " transform="matrix(1, 0, 0, -1, 24.091, 40.884)"/>
<path fill="none" stroke-width="0.3985" stroke-linecap="butt" stroke-linejoin="miter" stroke="rgb(0%, 0%, 0%)" stroke-opacity="1" stroke-miterlimit="10" d="M 5.635563 -22.6785 C 5.635563 -19.565219 3.112125 -17.041781 -0.00115625 -17.041781 C -3.114437 -17.041781 -5.633969 -19.565219 -5.633969 -22.6785 C -5.633969 -25.791781 -3.114437 -28.311313 -0.00115625 -28.311313 C 3.112125 -28.311313 5.635563 -25.791781 5.635563 -22.6785 Z M 5.635563 -22.6785 " transform="matrix(1, 0, 0, -1, 24.091, 40.884)"/>
<path fill="none" stroke-width="0.3985" stroke-linecap="butt" stroke-linejoin="miter" stroke="rgb(0%, 0%, 0%)" stroke-opacity="1" stroke-miterlimit="10" d="M 5.635563 -45.354281 C 5.635563 -42.241 3.112125 -39.717563 -0.00115625 -39.717563 C -3.114437 -39.717563 -5.633969 -42.241 -5.633969 -45.354281 C -5.633969 -48.467563 -3.114437 -50.991 -0.00115625 -50.991 C 3.112125 -50.991 5.635563 -48.467563 5.635563 -45.354281 Z M 5.635563 -45.354281 " transform="matrix(1, 0, 0, -1, 24.091, 40.884)"/>
<g clip-path="url(#clip-1)">
<path fill="none" stroke-width="0.3985" stroke-linecap="butt" stroke-linejoin="miter" stroke="rgb(0%, 0%, 0%)" stroke-opacity="1" stroke-miterlimit="10" d="M 113.389469 0.0011875 C 113.389469 21.919156 103.233219 39.684781 90.709781 39.684781 C 78.186344 39.684781 68.034 21.919156 68.034 0.0011875 C 68.034 -21.916781 78.186344 -39.686313 90.709781 -39.686313 C 103.233219 -39.686313 113.389469 -21.916781 113.389469 0.0011875 Z M 113.389469 0.0011875 " transform="matrix(1, 0, 0, -1, 24.091, 40.884)"/>
</g>
<path fill="none" stroke-width="0.3985" stroke-linecap="butt" stroke-linejoin="miter" stroke="rgb(0%, 0%, 0%)" stroke-opacity="1" stroke-miterlimit="10" d="M 96.3465 22.676969 C 96.3465 25.79025 93.823063 28.313687 90.709781 28.313687 C 87.5965 28.313687 85.073063 25.79025 85.073063 22.676969 C 85.073063 19.563687 87.5965 17.04025 90.709781 17.04025 C 93.823063 17.04025 96.3465 19.563687 96.3465 22.676969 Z M 96.3465 22.676969 " transform="matrix(1, 0, 0, -1, 24.091, 40.884)"/>
<path fill="none" stroke-width="0.3985" stroke-linecap="butt" stroke-linejoin="miter" stroke="rgb(0%, 0%, 0%)" stroke-opacity="1" stroke-miterlimit="10" d="M 96.3465 0.0011875 C 96.3465 3.114469 93.823063 5.634 90.709781 5.634 C 87.5965 5.634 85.073063 3.114469 85.073063 0.0011875 C 85.073063 -3.112094 87.5965 -5.635531 90.709781 -5.635531 C 93.823063 -5.635531 96.3465 -3.112094 96.3465 0.0011875 Z M 96.3465 0.0011875 " transform="matrix(1, 0, 0, -1, 24.091, 40.884)"/>
<path fill="none" stroke-width="0.3985" stroke-linecap="butt" stroke-linejoin="miter" stroke="rgb(0%, 0%, 0%)" stroke-opacity="1" stroke-miterlimit="10" d="M 96.3465 -22.6785 C 96.3465 -19.565219 93.823063 -17.041781 90.709781 -17.041781 C 87.5965 -17.041781 85.073063 -19.565219 85.073063 -22.6785 C 85.073063 -25.791781 87.5965 -28.311313 90.709781 -28.311313 C 93.823063 -28.311313 96.3465 -25.791781 96.3465 -22.6785 Z M 96.3465 -22.6785 " transform="matrix(1, 0, 0, -1, 24.091, 40.884)"/>
<path fill="none" stroke-width="1.19553" stroke-linecap="butt" stroke-linejoin="miter" stroke="rgb(0%, 0%, 0%)" stroke-opacity="1" stroke-miterlimit="10" d="M 5.670719 22.676969 L 80.576969 5.798062 " transform="matrix(1, 0, 0, -1, 24.091, 40.884)"/>
<path fill-rule="nonzero" fill="rgb(0%, 0%, 0%)" fill-opacity="1" d="M 110.265625 36.347656 C 108.675781 35.664062 106.191406 34.125 104.570312 32.613281 L 103.519531 37.28125 C 105.632812 36.613281 108.535156 36.285156 110.265625 36.347656 "/>
<path fill="none" stroke-width="1.19553" stroke-linecap="butt" stroke-linejoin="miter" stroke="rgb(0%, 0%, 0%)" stroke-opacity="1" stroke-miterlimit="10" d="M 5.670719 0.0011875 L 80.444156 -4.213656 " transform="matrix(1, 0, 0, -1, 24.091, 40.884)"/>
<path fill-rule="nonzero" fill="rgb(0%, 0%, 0%)" fill-opacity="1" d="M 110.265625 45.417969 C 108.585938 45.003906 105.882812 43.894531 104.035156 42.671875 L 103.765625 47.449219 C 105.738281 46.441406 108.550781 45.640625 110.265625 45.417969 "/>
<path fill="none" stroke-width="1.19553" stroke-linecap="butt" stroke-linejoin="miter" stroke="rgb(0%, 0%, 0%)" stroke-opacity="1" stroke-miterlimit="10" d="M 5.670719 -22.6785 L 79.311344 -18.467563 " transform="matrix(1, 0, 0, -1, 24.091, 40.884)"/>
<path fill-rule="nonzero" fill="rgb(0%, 0%, 0%)" fill-opacity="1" d="M 109.132812 59.027344 C 107.417969 58.804688 104.601562 58.007812 102.628906 57.003906 L 102.902344 61.777344 C 104.75 60.554688 107.453125 59.441406 109.132812 59.027344 "/>
<path fill="none" stroke-width="1.19553" stroke-linecap="butt" stroke-linejoin="miter" stroke="rgb(0%, 0%, 0%)" stroke-opacity="1" stroke-miterlimit="10" d="M 5.670719 -45.354281 L 79.448063 -28.491 " transform="matrix(1, 0, 0, -1, 24.091, 40.884)"/>
<path fill-rule="nonzero" fill="rgb(0%, 0%, 0%)" fill-opacity="1" d="M 109.132812 68.097656 C 107.402344 68.164062 104.496094 67.847656 102.382812 67.1875 L 103.449219 71.847656 C 105.066406 70.335938 107.546875 68.785156 109.132812 68.097656 "/>
</svg>
