<?xml version="1.0" encoding="UTF-8"?>
<svg xmlns="http://www.w3.org/2000/svg" xmlns:xlink="http://www.w3.org/1999/xlink" width="74.96pt" height="74.91581pt" viewBox="0 0 74.96 74.91581" version="1.1">
<g id="surface1">
<path style="fill:none;stroke-width:0.3985;stroke-linecap:butt;stroke-linejoin:miter;stroke:rgb(0%,0%,0%);stroke-opacity:1;stroke-miterlimit:10;" d="M 0.0000625 -0.00164125 L 72.285219 -0.00164125 L 72.285219 72.283515 L 0.0000625 72.283515 Z M 0.0000625 -0.00164125 " transform="matrix(1,0,0,-1,1.414,73.51789)"/>
<path style="fill:none;stroke-width:0.3985;stroke-linecap:butt;stroke-linejoin:miter;stroke:rgb(0%,0%,0%);stroke-opacity:1;stroke-miterlimit:10;" d="M 48.191469 -0.00164125 L 48.191469 72.283515 " transform="matrix(1,0,0,-1,1.414,73.51789)"/>
<path style="fill:none;stroke-width:0.3985;stroke-linecap:butt;stroke-linejoin:miter;stroke:rgb(0%,0%,0%);stroke-opacity:1;stroke-miterlimit:10;" d="M 48.191469 24.096015 L 72.285219 24.096015 " transform="matrix(1,0,0,-1,1.414,73.51789)"/>
<path style="fill:none;stroke-width:0.3985;stroke-linecap:butt;stroke-linejoin:miter;stroke:rgb(0%,0%,0%);stroke-opacity:1;stroke-miterlimit:10;" d="M 48.191469 48.189765 L 72.285219 48.189765 " transform="matrix(1,0,0,-1,1.414,73.51789)"/>
<path style="fill:none;stroke-width:0.3985;stroke-linecap:butt;stroke-linejoin:miter;stroke:rgb(0%,0%,0%);stroke-opacity:1;stroke-miterlimit:10;" d="M 24.093813 48.189765 L 24.093813 72.283515 " transform="matrix(1,0,0,-1,1.414,73.51789)"/>
<path style="fill:none;stroke-width:0.3985;stroke-linecap:butt;stroke-linejoin:miter;stroke:rgb(0%,0%,0%);stroke-opacity:1;stroke-miterlimit:10;" d="M 0.0000625 48.189765 L 48.191469 48.189765 " transform="matrix(1,0,0,-1,1.414,73.51789)"/>
</g>
</svg>
