<?xml version="1.0" encoding="UTF-8"?>
<svg xmlns="http://www.w3.org/2000/svg" xmlns:xlink="http://www.w3.org/1999/xlink" width="155.6pt" height="28.38401pt" viewBox="0 0 155.6 28.38401" version="1.1">
<defs>
<clipPath id="clip1">
  <path d="M 0 16 L 12 16 L 12 28.382812 L 0 28.382812 Z M 0 16 "/>
</clipPath>
<clipPath id="clip2">
  <path d="M 16 16 L 33 16 L 33 28.382812 L 16 28.382812 Z M 16 16 "/>
</clipPath>
<clipPath id="clip3">
  <path d="M 144 0 L 155.601562 0 L 155.601562 12 L 144 12 Z M 144 0 "/>
</clipPath>
<clipPath id="clip4">
  <path d="M 144 0 L 155.601562 0 L 155.601562 12 L 144 12 Z M 144 0 "/>
</clipPath>
<clipPath id="clip5">
  <path d="M 144 0 L 155.601562 0 L 155.601562 12 L 144 12 Z M 144 0 "/>
</clipPath>
<clipPath id="clip6">
  <path d="M 59 16 L 76 16 L 76 28.382812 L 59 28.382812 Z M 59 16 "/>
</clipPath>
<clipPath id="clip7">
  <path d="M 144 16 L 155.601562 16 L 155.601562 28.382812 L 144 28.382812 Z M 144 16 "/>
</clipPath>
<clipPath id="clip8">
  <path d="M 80 16 L 97 16 L 97 28.382812 L 80 28.382812 Z M 80 16 "/>
</clipPath>
<clipPath id="clip9">
  <path d="M 144 16 L 155.601562 16 L 155.601562 28.382812 L 144 28.382812 Z M 144 16 "/>
</clipPath>
<clipPath id="clip10">
  <path d="M 101 16 L 118 16 L 118 28.382812 L 101 28.382812 Z M 101 16 "/>
</clipPath>
<clipPath id="clip11">
  <path d="M 144 16 L 155.601562 16 L 155.601562 28.382812 L 144 28.382812 Z M 144 16 "/>
</clipPath>
<clipPath id="clip12">
  <path d="M 123 16 L 139 16 L 139 28.382812 L 123 28.382812 Z M 123 16 "/>
</clipPath>
<clipPath id="clip13">
  <path d="M 144 16 L 155.601562 16 L 155.601562 28.382812 L 144 28.382812 Z M 144 16 "/>
</clipPath>
</defs>
<g id="surface1">
<path style="fill:none;stroke-width:0.79701;stroke-linecap:butt;stroke-linejoin:miter;stroke:rgb(0%,0%,0%);stroke-opacity:1;stroke-miterlimit:10;" d="M -0.00134375 -21.259084 L 21.260375 -21.259084 " transform="matrix(1,0,0,-1,3.349,3.58076)"/>
<path style=" stroke:none;fill-rule:nonzero;fill:rgb(0%,0%,0%);fill-opacity:1;" d="M 5.589844 24.839844 C 5.589844 23.601562 4.585938 22.597656 3.347656 22.597656 C 2.109375 22.597656 1.105469 23.601562 1.105469 24.839844 C 1.105469 26.078125 2.109375 27.082031 3.347656 27.082031 C 4.585938 27.082031 5.589844 26.078125 5.589844 24.839844 Z M 5.589844 24.839844 "/>
<g clip-path="url(#clip1)" clip-rule="nonzero">
<path style="fill:none;stroke-width:0.3985;stroke-linecap:butt;stroke-linejoin:miter;stroke:rgb(0%,0%,0%);stroke-opacity:1;stroke-miterlimit:10;" d="M 2.240844 -21.259084 C 2.240844 -20.020802 1.236938 -19.016896 -0.00134375 -19.016896 C -1.239625 -19.016896 -2.243531 -20.020802 -2.243531 -21.259084 C -2.243531 -22.497365 -1.239625 -23.501271 -0.00134375 -23.501271 C 1.236938 -23.501271 2.240844 -22.497365 2.240844 -21.259084 Z M 2.240844 -21.259084 " transform="matrix(1,0,0,-1,3.349,3.58076)"/>
</g>
<path style=" stroke:none;fill-rule:nonzero;fill:rgb(0%,0%,0%);fill-opacity:1;" d="M 26.851562 24.839844 C 26.851562 23.601562 25.847656 22.597656 24.609375 22.597656 C 23.371094 22.597656 22.367188 23.601562 22.367188 24.839844 C 22.367188 26.078125 23.371094 27.082031 24.609375 27.082031 C 25.847656 27.082031 26.851562 26.078125 26.851562 24.839844 Z M 26.851562 24.839844 "/>
<g clip-path="url(#clip2)" clip-rule="nonzero">
<path style="fill:none;stroke-width:0.3985;stroke-linecap:butt;stroke-linejoin:miter;stroke:rgb(0%,0%,0%);stroke-opacity:1;stroke-miterlimit:10;" d="M 23.502563 -21.259084 C 23.502563 -20.020802 22.498656 -19.016896 21.260375 -19.016896 C 20.022094 -19.016896 19.018188 -20.020802 19.018188 -21.259084 C 19.018188 -22.497365 20.022094 -23.501271 21.260375 -23.501271 C 22.498656 -23.501271 23.502563 -22.497365 23.502563 -21.259084 Z M 23.502563 -21.259084 " transform="matrix(1,0,0,-1,3.349,3.58076)"/>
</g>
<path style="fill:none;stroke-width:0.79701;stroke-linecap:butt;stroke-linejoin:miter;stroke:rgb(0%,0%,0%);stroke-opacity:1;stroke-miterlimit:10;" d="M -0.00134375 -0.00127125 L 21.260375 -0.00127125 " transform="matrix(1,0,0,-1,3.349,3.58076)"/>
<path style="fill-rule:nonzero;fill:rgb(0%,0%,0%);fill-opacity:1;stroke-width:0.3985;stroke-linecap:butt;stroke-linejoin:miter;stroke:rgb(0%,0%,0%);stroke-opacity:1;stroke-miterlimit:10;" d="M 2.240844 -0.00127125 C 2.240844 1.23701 1.236938 2.240916 -0.00134375 2.240916 C -1.239625 2.240916 -2.243531 1.23701 -2.243531 -0.00127125 C -2.243531 -1.239552 -1.239625 -2.243459 -0.00134375 -2.243459 C 1.236938 -2.243459 2.240844 -1.239552 2.240844 -0.00127125 Z M 2.240844 -0.00127125 " transform="matrix(1,0,0,-1,3.349,3.58076)"/>
<path style="fill-rule:nonzero;fill:rgb(0%,0%,0%);fill-opacity:1;stroke-width:0.3985;stroke-linecap:butt;stroke-linejoin:miter;stroke:rgb(0%,0%,0%);stroke-opacity:1;stroke-miterlimit:10;" d="M 44.760375 -0.00127125 C 44.760375 1.23701 43.756469 2.240916 42.522094 2.240916 C 41.283813 2.240916 40.279906 1.23701 40.279906 -0.00127125 C 40.279906 -1.239552 41.283813 -2.243459 42.522094 -2.243459 C 43.756469 -2.243459 44.760375 -1.239552 44.760375 -0.00127125 Z M 44.760375 -0.00127125 " transform="matrix(1,0,0,-1,3.349,3.58076)"/>
<path style="fill:none;stroke-width:0.79701;stroke-linecap:butt;stroke-linejoin:miter;stroke:rgb(0%,0%,0%);stroke-opacity:1;stroke-miterlimit:10;" d="M 21.260375 -0.00127125 L 42.522094 -0.00127125 " transform="matrix(1,0,0,-1,3.349,3.58076)"/>
<path style="fill-rule:nonzero;fill:rgb(0%,0%,0%);fill-opacity:1;stroke-width:0.3985;stroke-linecap:butt;stroke-linejoin:miter;stroke:rgb(0%,0%,0%);stroke-opacity:1;stroke-miterlimit:10;" d="M 23.502563 -0.00127125 C 23.502563 1.23701 22.498656 2.240916 21.260375 2.240916 C 20.022094 2.240916 19.018188 1.23701 19.018188 -0.00127125 C 19.018188 -1.239552 20.022094 -2.243459 21.260375 -2.243459 C 22.498656 -2.243459 23.502563 -1.239552 23.502563 -0.00127125 Z M 23.502563 -0.00127125 " transform="matrix(1,0,0,-1,3.349,3.58076)"/>
<path style="fill-rule:nonzero;fill:rgb(0%,0%,0%);fill-opacity:1;stroke-width:0.3985;stroke-linecap:butt;stroke-linejoin:miter;stroke:rgb(0%,0%,0%);stroke-opacity:1;stroke-miterlimit:10;" d="M 44.760375 -0.00127125 C 44.760375 1.23701 43.756469 2.240916 42.522094 2.240916 C 41.283813 2.240916 40.279906 1.23701 40.279906 -0.00127125 C 40.279906 -1.239552 41.283813 -2.243459 42.522094 -2.243459 C 43.756469 -2.243459 44.760375 -1.239552 44.760375 -0.00127125 Z M 44.760375 -0.00127125 " transform="matrix(1,0,0,-1,3.349,3.58076)"/>
<path style="fill:none;stroke-width:0.79701;stroke-linecap:butt;stroke-linejoin:miter;stroke:rgb(0%,0%,0%);stroke-opacity:1;stroke-miterlimit:10;" d="M 85.041625 -0.00127125 L 106.299438 -0.00127125 " transform="matrix(1,0,0,-1,3.349,3.58076)"/>
<path style="fill-rule:nonzero;fill:rgb(0%,0%,0%);fill-opacity:1;stroke-width:0.3985;stroke-linecap:butt;stroke-linejoin:miter;stroke:rgb(0%,0%,0%);stroke-opacity:1;stroke-miterlimit:10;" d="M 87.283813 -0.00127125 C 87.283813 1.23701 86.279906 2.240916 85.041625 2.240916 C 83.803344 2.240916 82.799438 1.23701 82.799438 -0.00127125 C 82.799438 -1.239552 83.803344 -2.243459 85.041625 -2.243459 C 86.279906 -2.243459 87.283813 -1.239552 87.283813 -0.00127125 Z M 87.283813 -0.00127125 " transform="matrix(1,0,0,-1,3.349,3.58076)"/>
<path style=" stroke:none;fill-rule:nonzero;fill:rgb(0%,0%,0%);fill-opacity:1;" d="M 154.410156 3.582031 C 154.410156 2.34375 153.40625 1.339844 152.167969 1.339844 C 150.933594 1.339844 149.929688 2.34375 149.929688 3.582031 C 149.929688 4.820312 150.933594 5.824219 152.167969 5.824219 C 153.40625 5.824219 154.410156 4.820312 154.410156 3.582031 Z M 154.410156 3.582031 "/>
<g clip-path="url(#clip3)" clip-rule="nonzero">
<path style="fill:none;stroke-width:0.3985;stroke-linecap:butt;stroke-linejoin:miter;stroke:rgb(0%,0%,0%);stroke-opacity:1;stroke-miterlimit:10;" d="M 151.061156 -0.00127125 C 151.061156 1.23701 150.05725 2.240916 148.818969 2.240916 C 147.584594 2.240916 146.580688 1.23701 146.580688 -0.00127125 C 146.580688 -1.239552 147.584594 -2.243459 148.818969 -2.243459 C 150.05725 -2.243459 151.061156 -1.239552 151.061156 -0.00127125 Z M 151.061156 -0.00127125 " transform="matrix(1,0,0,-1,3.349,3.58076)"/>
</g>
<path style="fill:none;stroke-width:0.79701;stroke-linecap:butt;stroke-linejoin:miter;stroke:rgb(0%,0%,0%);stroke-opacity:1;stroke-miterlimit:10;" d="M 106.299438 -0.00127125 L 127.561156 -0.00127125 " transform="matrix(1,0,0,-1,3.349,3.58076)"/>
<path style="fill-rule:nonzero;fill:rgb(0%,0%,0%);fill-opacity:1;stroke-width:0.3985;stroke-linecap:butt;stroke-linejoin:miter;stroke:rgb(0%,0%,0%);stroke-opacity:1;stroke-miterlimit:10;" d="M 108.541625 -0.00127125 C 108.541625 1.23701 107.537719 2.240916 106.299438 2.240916 C 105.061156 2.240916 104.05725 1.23701 104.05725 -0.00127125 C 104.05725 -1.239552 105.061156 -2.243459 106.299438 -2.243459 C 107.537719 -2.243459 108.541625 -1.239552 108.541625 -0.00127125 Z M 108.541625 -0.00127125 " transform="matrix(1,0,0,-1,3.349,3.58076)"/>
<path style=" stroke:none;fill-rule:nonzero;fill:rgb(0%,0%,0%);fill-opacity:1;" d="M 154.410156 3.582031 C 154.410156 2.34375 153.40625 1.339844 152.167969 1.339844 C 150.933594 1.339844 149.929688 2.34375 149.929688 3.582031 C 149.929688 4.820312 150.933594 5.824219 152.167969 5.824219 C 153.40625 5.824219 154.410156 4.820312 154.410156 3.582031 Z M 154.410156 3.582031 "/>
<g clip-path="url(#clip4)" clip-rule="nonzero">
<path style="fill:none;stroke-width:0.3985;stroke-linecap:butt;stroke-linejoin:miter;stroke:rgb(0%,0%,0%);stroke-opacity:1;stroke-miterlimit:10;" d="M 151.061156 -0.00127125 C 151.061156 1.23701 150.05725 2.240916 148.818969 2.240916 C 147.584594 2.240916 146.580688 1.23701 146.580688 -0.00127125 C 146.580688 -1.239552 147.584594 -2.243459 148.818969 -2.243459 C 150.05725 -2.243459 151.061156 -1.239552 151.061156 -0.00127125 Z M 151.061156 -0.00127125 " transform="matrix(1,0,0,-1,3.349,3.58076)"/>
</g>
<path style="fill:none;stroke-width:0.79701;stroke-linecap:butt;stroke-linejoin:miter;stroke:rgb(0%,0%,0%);stroke-opacity:1;stroke-miterlimit:10;" d="M 127.561156 -0.00127125 L 148.818969 -0.00127125 " transform="matrix(1,0,0,-1,3.349,3.58076)"/>
<path style="fill-rule:nonzero;fill:rgb(0%,0%,0%);fill-opacity:1;stroke-width:0.3985;stroke-linecap:butt;stroke-linejoin:miter;stroke:rgb(0%,0%,0%);stroke-opacity:1;stroke-miterlimit:10;" d="M 129.803344 -0.00127125 C 129.803344 1.23701 128.799438 2.240916 127.561156 2.240916 C 126.322875 2.240916 125.318969 1.23701 125.318969 -0.00127125 C 125.318969 -1.239552 126.322875 -2.243459 127.561156 -2.243459 C 128.799438 -2.243459 129.803344 -1.239552 129.803344 -0.00127125 Z M 129.803344 -0.00127125 " transform="matrix(1,0,0,-1,3.349,3.58076)"/>
<path style=" stroke:none;fill-rule:nonzero;fill:rgb(0%,0%,0%);fill-opacity:1;" d="M 154.410156 3.582031 C 154.410156 2.34375 153.40625 1.339844 152.167969 1.339844 C 150.933594 1.339844 149.929688 2.34375 149.929688 3.582031 C 149.929688 4.820312 150.933594 5.824219 152.167969 5.824219 C 153.40625 5.824219 154.410156 4.820312 154.410156 3.582031 Z M 154.410156 3.582031 "/>
<g clip-path="url(#clip5)" clip-rule="nonzero">
<path style="fill:none;stroke-width:0.3985;stroke-linecap:butt;stroke-linejoin:miter;stroke:rgb(0%,0%,0%);stroke-opacity:1;stroke-miterlimit:10;" d="M 151.061156 -0.00127125 C 151.061156 1.23701 150.05725 2.240916 148.818969 2.240916 C 147.584594 2.240916 146.580688 1.23701 146.580688 -0.00127125 C 146.580688 -1.239552 147.584594 -2.243459 148.818969 -2.243459 C 150.05725 -2.243459 151.061156 -1.239552 151.061156 -0.00127125 Z M 151.061156 -0.00127125 " transform="matrix(1,0,0,-1,3.349,3.58076)"/>
</g>
<path style="fill:none;stroke-width:0.79701;stroke-linecap:butt;stroke-linejoin:miter;stroke:rgb(0%,0%,0%);stroke-opacity:1;stroke-miterlimit:10;" d="M 63.779906 -21.259084 L 85.041625 -21.259084 " transform="matrix(1,0,0,-1,3.349,3.58076)"/>
<path style=" stroke:none;fill-rule:nonzero;fill:rgb(0%,0%,0%);fill-opacity:1;" d="M 69.371094 24.839844 C 69.371094 23.601562 68.367188 22.597656 67.128906 22.597656 C 65.890625 22.597656 64.886719 23.601562 64.886719 24.839844 C 64.886719 26.078125 65.890625 27.082031 67.128906 27.082031 C 68.367188 27.082031 69.371094 26.078125 69.371094 24.839844 Z M 69.371094 24.839844 "/>
<g clip-path="url(#clip6)" clip-rule="nonzero">
<path style="fill:none;stroke-width:0.3985;stroke-linecap:butt;stroke-linejoin:miter;stroke:rgb(0%,0%,0%);stroke-opacity:1;stroke-miterlimit:10;" d="M 66.022094 -21.259084 C 66.022094 -20.020802 65.018188 -19.016896 63.779906 -19.016896 C 62.541625 -19.016896 61.537719 -20.020802 61.537719 -21.259084 C 61.537719 -22.497365 62.541625 -23.501271 63.779906 -23.501271 C 65.018188 -23.501271 66.022094 -22.497365 66.022094 -21.259084 Z M 66.022094 -21.259084 " transform="matrix(1,0,0,-1,3.349,3.58076)"/>
</g>
<path style=" stroke:none;fill-rule:nonzero;fill:rgb(0%,0%,0%);fill-opacity:1;" d="M 154.410156 24.839844 C 154.410156 23.601562 153.40625 22.597656 152.167969 22.597656 C 150.933594 22.597656 149.929688 23.601562 149.929688 24.839844 C 149.929688 26.078125 150.933594 27.082031 152.167969 27.082031 C 153.40625 27.082031 154.410156 26.078125 154.410156 24.839844 Z M 154.410156 24.839844 "/>
<g clip-path="url(#clip7)" clip-rule="nonzero">
<path style="fill:none;stroke-width:0.3985;stroke-linecap:butt;stroke-linejoin:miter;stroke:rgb(0%,0%,0%);stroke-opacity:1;stroke-miterlimit:10;" d="M 151.061156 -21.259084 C 151.061156 -20.020802 150.05725 -19.016896 148.818969 -19.016896 C 147.584594 -19.016896 146.580688 -20.020802 146.580688 -21.259084 C 146.580688 -22.497365 147.584594 -23.501271 148.818969 -23.501271 C 150.05725 -23.501271 151.061156 -22.497365 151.061156 -21.259084 Z M 151.061156 -21.259084 " transform="matrix(1,0,0,-1,3.349,3.58076)"/>
</g>
<path style="fill:none;stroke-width:0.79701;stroke-linecap:butt;stroke-linejoin:miter;stroke:rgb(0%,0%,0%);stroke-opacity:1;stroke-miterlimit:10;" d="M 85.041625 -21.259084 L 106.299438 -21.259084 " transform="matrix(1,0,0,-1,3.349,3.58076)"/>
<path style=" stroke:none;fill-rule:nonzero;fill:rgb(0%,0%,0%);fill-opacity:1;" d="M 90.632812 24.839844 C 90.632812 23.601562 89.628906 22.597656 88.390625 22.597656 C 87.152344 22.597656 86.148438 23.601562 86.148438 24.839844 C 86.148438 26.078125 87.152344 27.082031 88.390625 27.082031 C 89.628906 27.082031 90.632812 26.078125 90.632812 24.839844 Z M 90.632812 24.839844 "/>
<g clip-path="url(#clip8)" clip-rule="nonzero">
<path style="fill:none;stroke-width:0.3985;stroke-linecap:butt;stroke-linejoin:miter;stroke:rgb(0%,0%,0%);stroke-opacity:1;stroke-miterlimit:10;" d="M 87.283813 -21.259084 C 87.283813 -20.020802 86.279906 -19.016896 85.041625 -19.016896 C 83.803344 -19.016896 82.799438 -20.020802 82.799438 -21.259084 C 82.799438 -22.497365 83.803344 -23.501271 85.041625 -23.501271 C 86.279906 -23.501271 87.283813 -22.497365 87.283813 -21.259084 Z M 87.283813 -21.259084 " transform="matrix(1,0,0,-1,3.349,3.58076)"/>
</g>
<path style=" stroke:none;fill-rule:nonzero;fill:rgb(0%,0%,0%);fill-opacity:1;" d="M 154.410156 24.839844 C 154.410156 23.601562 153.40625 22.597656 152.167969 22.597656 C 150.933594 22.597656 149.929688 23.601562 149.929688 24.839844 C 149.929688 26.078125 150.933594 27.082031 152.167969 27.082031 C 153.40625 27.082031 154.410156 26.078125 154.410156 24.839844 Z M 154.410156 24.839844 "/>
<g clip-path="url(#clip9)" clip-rule="nonzero">
<path style="fill:none;stroke-width:0.3985;stroke-linecap:butt;stroke-linejoin:miter;stroke:rgb(0%,0%,0%);stroke-opacity:1;stroke-miterlimit:10;" d="M 151.061156 -21.259084 C 151.061156 -20.020802 150.05725 -19.016896 148.818969 -19.016896 C 147.584594 -19.016896 146.580688 -20.020802 146.580688 -21.259084 C 146.580688 -22.497365 147.584594 -23.501271 148.818969 -23.501271 C 150.05725 -23.501271 151.061156 -22.497365 151.061156 -21.259084 Z M 151.061156 -21.259084 " transform="matrix(1,0,0,-1,3.349,3.58076)"/>
</g>
<path style="fill:none;stroke-width:0.79701;stroke-linecap:butt;stroke-linejoin:miter;stroke:rgb(0%,0%,0%);stroke-opacity:1;stroke-miterlimit:10;" d="M 106.299438 -21.259084 L 127.561156 -21.259084 " transform="matrix(1,0,0,-1,3.349,3.58076)"/>
<path style=" stroke:none;fill-rule:nonzero;fill:rgb(0%,0%,0%);fill-opacity:1;" d="M 111.890625 24.839844 C 111.890625 23.601562 110.886719 22.597656 109.648438 22.597656 C 108.410156 22.597656 107.40625 23.601562 107.40625 24.839844 C 107.40625 26.078125 108.410156 27.082031 109.648438 27.082031 C 110.886719 27.082031 111.890625 26.078125 111.890625 24.839844 Z M 111.890625 24.839844 "/>
<g clip-path="url(#clip10)" clip-rule="nonzero">
<path style="fill:none;stroke-width:0.3985;stroke-linecap:butt;stroke-linejoin:miter;stroke:rgb(0%,0%,0%);stroke-opacity:1;stroke-miterlimit:10;" d="M 108.541625 -21.259084 C 108.541625 -20.020802 107.537719 -19.016896 106.299438 -19.016896 C 105.061156 -19.016896 104.05725 -20.020802 104.05725 -21.259084 C 104.05725 -22.497365 105.061156 -23.501271 106.299438 -23.501271 C 107.537719 -23.501271 108.541625 -22.497365 108.541625 -21.259084 Z M 108.541625 -21.259084 " transform="matrix(1,0,0,-1,3.349,3.58076)"/>
</g>
<path style=" stroke:none;fill-rule:nonzero;fill:rgb(0%,0%,0%);fill-opacity:1;" d="M 154.410156 24.839844 C 154.410156 23.601562 153.40625 22.597656 152.167969 22.597656 C 150.933594 22.597656 149.929688 23.601562 149.929688 24.839844 C 149.929688 26.078125 150.933594 27.082031 152.167969 27.082031 C 153.40625 27.082031 154.410156 26.078125 154.410156 24.839844 Z M 154.410156 24.839844 "/>
<g clip-path="url(#clip11)" clip-rule="nonzero">
<path style="fill:none;stroke-width:0.3985;stroke-linecap:butt;stroke-linejoin:miter;stroke:rgb(0%,0%,0%);stroke-opacity:1;stroke-miterlimit:10;" d="M 151.061156 -21.259084 C 151.061156 -20.020802 150.05725 -19.016896 148.818969 -19.016896 C 147.584594 -19.016896 146.580688 -20.020802 146.580688 -21.259084 C 146.580688 -22.497365 147.584594 -23.501271 148.818969 -23.501271 C 150.05725 -23.501271 151.061156 -22.497365 151.061156 -21.259084 Z M 151.061156 -21.259084 " transform="matrix(1,0,0,-1,3.349,3.58076)"/>
</g>
<path style="fill:none;stroke-width:0.79701;stroke-linecap:butt;stroke-linejoin:miter;stroke:rgb(0%,0%,0%);stroke-opacity:1;stroke-miterlimit:10;" d="M 127.561156 -21.259084 L 148.818969 -21.259084 " transform="matrix(1,0,0,-1,3.349,3.58076)"/>
<path style=" stroke:none;fill-rule:nonzero;fill:rgb(0%,0%,0%);fill-opacity:1;" d="M 133.152344 24.839844 C 133.152344 23.601562 132.148438 22.597656 130.910156 22.597656 C 129.671875 22.597656 128.667969 23.601562 128.667969 24.839844 C 128.667969 26.078125 129.671875 27.082031 130.910156 27.082031 C 132.148438 27.082031 133.152344 26.078125 133.152344 24.839844 Z M 133.152344 24.839844 "/>
<g clip-path="url(#clip12)" clip-rule="nonzero">
<path style="fill:none;stroke-width:0.3985;stroke-linecap:butt;stroke-linejoin:miter;stroke:rgb(0%,0%,0%);stroke-opacity:1;stroke-miterlimit:10;" d="M 129.803344 -21.259084 C 129.803344 -20.020802 128.799438 -19.016896 127.561156 -19.016896 C 126.322875 -19.016896 125.318969 -20.020802 125.318969 -21.259084 C 125.318969 -22.497365 126.322875 -23.501271 127.561156 -23.501271 C 128.799438 -23.501271 129.803344 -22.497365 129.803344 -21.259084 Z M 129.803344 -21.259084 " transform="matrix(1,0,0,-1,3.349,3.58076)"/>
</g>
<path style=" stroke:none;fill-rule:nonzero;fill:rgb(0%,0%,0%);fill-opacity:1;" d="M 154.410156 24.839844 C 154.410156 23.601562 153.40625 22.597656 152.167969 22.597656 C 150.933594 22.597656 149.929688 23.601562 149.929688 24.839844 C 149.929688 26.078125 150.933594 27.082031 152.167969 27.082031 C 153.40625 27.082031 154.410156 26.078125 154.410156 24.839844 Z M 154.410156 24.839844 "/>
<g clip-path="url(#clip13)" clip-rule="nonzero">
<path style="fill:none;stroke-width:0.3985;stroke-linecap:butt;stroke-linejoin:miter;stroke:rgb(0%,0%,0%);stroke-opacity:1;stroke-miterlimit:10;" d="M 151.061156 -21.259084 C 151.061156 -20.020802 150.05725 -19.016896 148.818969 -19.016896 C 147.584594 -19.016896 146.580688 -20.020802 146.580688 -21.259084 C 146.580688 -22.497365 147.584594 -23.501271 148.818969 -23.501271 C 150.05725 -23.501271 151.061156 -22.497365 151.061156 -21.259084 Z M 151.061156 -21.259084 " transform="matrix(1,0,0,-1,3.349,3.58076)"/>
</g>
</g>
</svg>
