<?xml version="1.0" encoding="UTF-8"?>
<svg xmlns="http://www.w3.org/2000/svg" xmlns:xlink="http://www.w3.org/1999/xlink" width="229.52" height="104.72" viewBox="0 0 229.52 104.72">
<defs>
<clipPath id="clip-0">
<path clip-rule="nonzero" d="M 86 0 L 144 0 L 144 104.71875 L 86 104.71875 Z M 86 0 "/>
</clipPath>
<clipPath id="clip-1">
<path clip-rule="nonzero" d="M 177 0 L 229.519531 0 L 229.519531 87 L 177 87 Z M 177 0 "/>
</clipPath>
</defs>
<path fill="none" stroke-width="0.3985" stroke-linecap="butt" stroke-linejoin="miter" stroke="rgb(0%, 0%, 0%)" stroke-opacity="1" stroke-miterlimit="10" d="M -68.034375 0.0011875 C -68.034375 21.919156 -78.186719 39.684781 -90.710156 39.684781 C -103.233594 39.684781 -113.385937 21.919156 -113.385937 0.0011875 C -113.385937 -21.916781 -103.233594 -39.686313 -90.710156 -39.686313 C -78.186719 -39.686313 -68.034375 -21.916781 -68.034375 0.0011875 Z M -68.034375 0.0011875 " transform="matrix(1, 0, 0, -1, 114.8, 40.884)"/>
<path fill="none" stroke-width="0.3985" stroke-linecap="butt" stroke-linejoin="miter" stroke="rgb(0%, 0%, 0%)" stroke-opacity="1" stroke-miterlimit="10" d="M -85.073437 22.676969 C -85.073437 25.79025 -87.596875 28.313687 -90.710156 28.313687 C -93.823437 28.313687 -96.346875 25.79025 -96.346875 22.676969 C -96.346875 19.563687 -93.823437 17.04025 -90.710156 17.04025 C -87.596875 17.04025 -85.073437 19.563687 -85.073437 22.676969 Z M -85.073437 22.676969 " transform="matrix(1, 0, 0, -1, 114.8, 40.884)"/>
<path fill="none" stroke-width="0.3985" stroke-linecap="butt" stroke-linejoin="miter" stroke="rgb(0%, 0%, 0%)" stroke-opacity="1" stroke-miterlimit="10" d="M -85.073437 0.0011875 C -85.073437 3.114469 -87.596875 5.634 -90.710156 5.634 C -93.823437 5.634 -96.346875 3.114469 -96.346875 0.0011875 C -96.346875 -3.112094 -93.823437 -5.635531 -90.710156 -5.635531 C -87.596875 -5.635531 -85.073437 -3.112094 -85.073437 0.0011875 Z M -85.073437 0.0011875 " transform="matrix(1, 0, 0, -1, 114.8, 40.884)"/>
<path fill="none" stroke-width="0.3985" stroke-linecap="butt" stroke-linejoin="miter" stroke="rgb(0%, 0%, 0%)" stroke-opacity="1" stroke-miterlimit="10" d="M -85.073437 -22.6785 C -85.073437 -19.565219 -87.596875 -17.041781 -90.710156 -17.041781 C -93.823437 -17.041781 -96.346875 -19.565219 -96.346875 -22.6785 C -96.346875 -25.791781 -93.823437 -28.311313 -90.710156 -28.311313 C -87.596875 -28.311313 -85.073437 -25.791781 -85.073437 -22.6785 Z M -85.073437 -22.6785 " transform="matrix(1, 0, 0, -1, 114.8, 40.884)"/>
<path fill="none" stroke-width="1.19553" stroke-linecap="butt" stroke-linejoin="miter" stroke="rgb(0%, 0%, 0%)" stroke-opacity="1" stroke-miterlimit="10" d="M -85.042187 22.676969 L -11.409375 22.676969 " transform="matrix(1, 0, 0, -1, 114.8, 40.884)"/>
<path fill-rule="nonzero" fill="rgb(0%, 0%, 0%)" fill-opacity="1" d="M 109.128906 18.207031 C 107.429688 17.886719 104.667969 16.929688 102.753906 15.816406 L 102.753906 20.597656 C 104.667969 19.480469 107.429688 18.523438 109.128906 18.207031 "/>
<path fill="none" stroke-width="1.19553" stroke-linecap="butt" stroke-linejoin="miter" stroke="rgb(0%, 0%, 0%)" stroke-opacity="1" stroke-miterlimit="10" d="M -85.042187 0.0011875 L -11.409375 0.0011875 " transform="matrix(1, 0, 0, -1, 114.8, 40.884)"/>
<path fill-rule="nonzero" fill="rgb(0%, 0%, 0%)" fill-opacity="1" d="M 109.128906 40.882812 C 107.429688 40.566406 104.667969 39.609375 102.753906 38.492188 L 102.753906 43.273438 C 104.667969 42.160156 107.429688 41.203125 109.128906 40.882812 "/>
<path fill="none" stroke-width="1.19553" stroke-linecap="butt" stroke-linejoin="miter" stroke="rgb(0%, 0%, 0%)" stroke-opacity="1" stroke-miterlimit="10" d="M -85.042187 -22.6785 L -11.409375 -22.6785 " transform="matrix(1, 0, 0, -1, 114.8, 40.884)"/>
<path fill-rule="nonzero" fill="rgb(0%, 0%, 0%)" fill-opacity="1" d="M 109.128906 63.5625 C 107.429688 63.242188 104.667969 62.285156 102.753906 61.171875 L 102.753906 65.953125 C 104.667969 64.835938 107.429688 63.878906 109.128906 63.5625 "/>
<g clip-path="url(#clip-0)">
<path fill="none" stroke-width="0.3985" stroke-linecap="butt" stroke-linejoin="miter" stroke="rgb(0%, 0%, 0%)" stroke-opacity="1" stroke-miterlimit="10" d="M 22.676563 -11.338656 C 22.676563 16.841031 12.524219 39.684781 0.00078125 39.684781 C -12.522656 39.684781 -22.678906 16.841031 -22.678906 -11.338656 C -22.678906 -39.518344 -12.522656 -62.362094 0.00078125 -62.362094 C 12.524219 -62.362094 22.676563 -39.518344 22.676563 -11.338656 Z M 22.676563 -11.338656 " transform="matrix(1, 0, 0, -1, 114.8, 40.884)"/>
</g>
<path fill="none" stroke-width="0.3985" stroke-linecap="butt" stroke-linejoin="miter" stroke="rgb(0%, 0%, 0%)" stroke-opacity="1" stroke-miterlimit="10" d="M 5.6375 22.676969 C 5.6375 25.79025 3.114063 28.313687 0.00078125 28.313687 C -3.1125 28.313687 -5.635937 25.79025 -5.635937 22.676969 C -5.635937 19.563687 -3.1125 17.04025 0.00078125 17.04025 C 3.114063 17.04025 5.6375 19.563687 5.6375 22.676969 Z M 5.6375 22.676969 " transform="matrix(1, 0, 0, -1, 114.8, 40.884)"/>
<path fill="none" stroke-width="0.3985" stroke-linecap="butt" stroke-linejoin="miter" stroke="rgb(0%, 0%, 0%)" stroke-opacity="1" stroke-miterlimit="10" d="M 5.6375 0.0011875 C 5.6375 3.114469 3.114063 5.634 0.00078125 5.634 C -3.1125 5.634 -5.635937 3.114469 -5.635937 0.0011875 C -5.635937 -3.112094 -3.1125 -5.635531 0.00078125 -5.635531 C 3.114063 -5.635531 5.6375 -3.112094 5.6375 0.0011875 Z M 5.6375 0.0011875 " transform="matrix(1, 0, 0, -1, 114.8, 40.884)"/>
<path fill="none" stroke-width="0.3985" stroke-linecap="butt" stroke-linejoin="miter" stroke="rgb(0%, 0%, 0%)" stroke-opacity="1" stroke-miterlimit="10" d="M 5.6375 -22.6785 C 5.6375 -19.565219 3.114063 -17.041781 0.00078125 -17.041781 C -3.1125 -17.041781 -5.635937 -19.565219 -5.635937 -22.6785 C -5.635937 -25.791781 -3.1125 -28.311313 0.00078125 -28.311313 C 3.114063 -28.311313 5.6375 -25.791781 5.6375 -22.6785 Z M 5.6375 -22.6785 " transform="matrix(1, 0, 0, -1, 114.8, 40.884)"/>
<path fill="none" stroke-width="0.3985" stroke-linecap="butt" stroke-linejoin="miter" stroke="rgb(0%, 0%, 0%)" stroke-opacity="1" stroke-miterlimit="10" d="M 5.6375 -45.354281 C 5.6375 -42.241 3.114063 -39.717563 0.00078125 -39.717563 C -3.1125 -39.717563 -5.635937 -42.241 -5.635937 -45.354281 C -5.635937 -48.467563 -3.1125 -50.991 0.00078125 -50.991 C 3.114063 -50.991 5.6375 -48.467563 5.6375 -45.354281 Z M 5.6375 -45.354281 " transform="matrix(1, 0, 0, -1, 114.8, 40.884)"/>
<g clip-path="url(#clip-1)">
<path fill="none" stroke-width="0.3985" stroke-linecap="butt" stroke-linejoin="miter" stroke="rgb(0%, 0%, 0%)" stroke-opacity="1" stroke-miterlimit="10" d="M 113.3875 0.0011875 C 113.3875 21.919156 103.235156 39.684781 90.711719 39.684781 C 78.184375 39.684781 68.032031 21.919156 68.032031 0.0011875 C 68.032031 -21.916781 78.184375 -39.686313 90.711719 -39.686313 C 103.235156 -39.686313 113.3875 -21.916781 113.3875 0.0011875 Z M 113.3875 0.0011875 " transform="matrix(1, 0, 0, -1, 114.8, 40.884)"/>
</g>
<path fill="none" stroke-width="0.3985" stroke-linecap="butt" stroke-linejoin="miter" stroke="rgb(0%, 0%, 0%)" stroke-opacity="1" stroke-miterlimit="10" d="M 96.344531 22.676969 C 96.344531 25.79025 93.821094 28.313687 90.711719 28.313687 C 87.598438 28.313687 85.075 25.79025 85.075 22.676969 C 85.075 19.563687 87.598438 17.04025 90.711719 17.04025 C 93.821094 17.04025 96.344531 19.563687 96.344531 22.676969 Z M 96.344531 22.676969 " transform="matrix(1, 0, 0, -1, 114.8, 40.884)"/>
<path fill="none" stroke-width="0.3985" stroke-linecap="butt" stroke-linejoin="miter" stroke="rgb(0%, 0%, 0%)" stroke-opacity="1" stroke-miterlimit="10" d="M 96.344531 0.0011875 C 96.344531 3.114469 93.821094 5.634 90.711719 5.634 C 87.598438 5.634 85.075 3.114469 85.075 0.0011875 C 85.075 -3.112094 87.598438 -5.635531 90.711719 -5.635531 C 93.821094 -5.635531 96.344531 -3.112094 96.344531 0.0011875 Z M 96.344531 0.0011875 " transform="matrix(1, 0, 0, -1, 114.8, 40.884)"/>
<path fill="none" stroke-width="0.3985" stroke-linecap="butt" stroke-linejoin="miter" stroke="rgb(0%, 0%, 0%)" stroke-opacity="1" stroke-miterlimit="10" d="M 96.344531 -22.6785 C 96.344531 -19.565219 93.821094 -17.041781 90.711719 -17.041781 C 87.598438 -17.041781 85.075 -19.565219 85.075 -22.6785 C 85.075 -25.791781 87.598438 -28.311313 90.711719 -28.311313 C 93.821094 -28.311313 96.344531 -25.791781 96.344531 -22.6785 Z M 96.344531 -22.6785 " transform="matrix(1, 0, 0, -1, 114.8, 40.884)"/>
<path fill="none" stroke-width="1.19553" stroke-linecap="butt" stroke-linejoin="miter" stroke="rgb(0%, 0%, 0%)" stroke-opacity="1" stroke-miterlimit="10" d="M 5.66875 22.676969 L 80.434375 22.676969 " transform="matrix(1, 0, 0, -1, 114.8, 40.884)"/>
<path fill-rule="nonzero" fill="rgb(0%, 0%, 0%)" fill-opacity="1" d="M 200.976562 18.207031 C 199.273438 17.886719 196.511719 16.929688 194.597656 15.816406 L 194.597656 20.597656 C 196.511719 19.480469 199.273438 18.523438 200.976562 18.207031 "/>
<path fill="none" stroke-width="1.19553" stroke-linecap="butt" stroke-linejoin="miter" stroke="rgb(0%, 0%, 0%)" stroke-opacity="1" stroke-miterlimit="10" d="M 5.66875 0.0011875 L 80.434375 0.0011875 " transform="matrix(1, 0, 0, -1, 114.8, 40.884)"/>
<path fill-rule="nonzero" fill="rgb(0%, 0%, 0%)" fill-opacity="1" d="M 200.976562 40.882812 C 199.273438 40.566406 196.511719 39.609375 194.597656 38.492188 L 194.597656 43.273438 C 196.511719 42.160156 199.273438 41.203125 200.976562 40.882812 "/>
<path fill="none" stroke-width="1.19553" stroke-linecap="butt" stroke-linejoin="miter" stroke="rgb(0%, 0%, 0%)" stroke-opacity="1" stroke-miterlimit="10" d="M 5.66875 -22.6785 L 79.313281 -18.467563 " transform="matrix(1, 0, 0, -1, 114.8, 40.884)"/>
<path fill-rule="nonzero" fill="rgb(0%, 0%, 0%)" fill-opacity="1" d="M 199.839844 59.027344 C 198.125 58.804688 195.3125 58.007812 193.339844 57.003906 L 193.613281 61.777344 C 195.457031 60.554688 198.160156 59.441406 199.839844 59.027344 "/>
<path fill="none" stroke-width="1.19553" stroke-linecap="butt" stroke-linejoin="miter" stroke="rgb(0%, 0%, 0%)" stroke-opacity="1" stroke-miterlimit="10" d="M 5.66875 -45.354281 L 79.446094 -28.491 " transform="matrix(1, 0, 0, -1, 114.8, 40.884)"/>
<path fill-rule="nonzero" fill="rgb(0%, 0%, 0%)" fill-opacity="1" d="M 199.839844 68.097656 C 198.113281 68.164062 195.207031 67.847656 193.09375 67.1875 L 194.15625 71.847656 C 195.773438 70.335938 198.253906 68.785156 199.839844 68.097656 "/>
</svg>
