<?xml version="1.0" encoding="UTF-8"?>
<svg xmlns="http://www.w3.org/2000/svg" xmlns:xlink="http://www.w3.org/1999/xlink" width="286.16pt" height="115.6911pt" viewBox="0 0 286.16 115.6911" version="1.1">
<defs>
<clipPath id="clip1">
  <path d="M 227 0 L 229 0 L 229 115.691406 L 227 115.691406 Z M 227 0 "/>
</clipPath>
</defs>
<g id="surface1">
<path style="fill:none;stroke-width:0.3985;stroke-linecap:butt;stroke-linejoin:miter;stroke:rgb(0%,0%,0%);stroke-opacity:1;stroke-miterlimit:10;" d="M 0.0000625 0.0001175 L 113.386781 0.0001175 " transform="matrix(1,0,0,-1,1.414,114.53918)"/>
<path style="fill:none;stroke-width:0.3985;stroke-linecap:butt;stroke-linejoin:miter;stroke:rgb(0%,0%,0%);stroke-opacity:1;stroke-miterlimit:10;" d="M 0.0000625 0.0001175 L 0.0000625 113.386836 " transform="matrix(1,0,0,-1,1.414,114.53918)"/>
<path style="fill:none;stroke-width:0.3985;stroke-linecap:butt;stroke-linejoin:miter;stroke:rgb(0%,0%,0%);stroke-opacity:1;stroke-miterlimit:10;" d="M 0.0000625 14.171992 L 113.386781 14.171992 " transform="matrix(1,0,0,-1,1.414,114.53918)"/>
<path style="fill:none;stroke-width:0.3985;stroke-linecap:butt;stroke-linejoin:miter;stroke:rgb(0%,0%,0%);stroke-opacity:1;stroke-miterlimit:10;" d="M 14.171938 0.0001175 L 14.171938 113.386836 " transform="matrix(1,0,0,-1,1.414,114.53918)"/>
<path style="fill:none;stroke-width:0.3985;stroke-linecap:butt;stroke-linejoin:miter;stroke:rgb(0%,0%,0%);stroke-opacity:1;stroke-miterlimit:10;" d="M 0.0000625 28.347774 L 113.386781 28.347774 " transform="matrix(1,0,0,-1,1.414,114.53918)"/>
<path style="fill:none;stroke-width:0.3985;stroke-linecap:butt;stroke-linejoin:miter;stroke:rgb(0%,0%,0%);stroke-opacity:1;stroke-miterlimit:10;" d="M 28.347719 0.0001175 L 28.347719 113.386836 " transform="matrix(1,0,0,-1,1.414,114.53918)"/>
<path style="fill:none;stroke-width:0.3985;stroke-linecap:butt;stroke-linejoin:miter;stroke:rgb(0%,0%,0%);stroke-opacity:1;stroke-miterlimit:10;" d="M 0.0000625 42.519649 L 113.386781 42.519649 " transform="matrix(1,0,0,-1,1.414,114.53918)"/>
<path style="fill:none;stroke-width:0.3985;stroke-linecap:butt;stroke-linejoin:miter;stroke:rgb(0%,0%,0%);stroke-opacity:1;stroke-miterlimit:10;" d="M 42.519594 0.0001175 L 42.519594 113.386836 " transform="matrix(1,0,0,-1,1.414,114.53918)"/>
<path style="fill:none;stroke-width:0.3985;stroke-linecap:butt;stroke-linejoin:miter;stroke:rgb(0%,0%,0%);stroke-opacity:1;stroke-miterlimit:10;" d="M 0.0000625 56.69543 L 113.386781 56.69543 " transform="matrix(1,0,0,-1,1.414,114.53918)"/>
<path style="fill:none;stroke-width:0.3985;stroke-linecap:butt;stroke-linejoin:miter;stroke:rgb(0%,0%,0%);stroke-opacity:1;stroke-miterlimit:10;" d="M 56.695375 0.0001175 L 56.695375 113.386836 " transform="matrix(1,0,0,-1,1.414,114.53918)"/>
<path style="fill:none;stroke-width:0.3985;stroke-linecap:butt;stroke-linejoin:miter;stroke:rgb(0%,0%,0%);stroke-opacity:1;stroke-miterlimit:10;" d="M 0.0000625 70.867305 L 113.386781 70.867305 " transform="matrix(1,0,0,-1,1.414,114.53918)"/>
<path style="fill:none;stroke-width:0.3985;stroke-linecap:butt;stroke-linejoin:miter;stroke:rgb(0%,0%,0%);stroke-opacity:1;stroke-miterlimit:10;" d="M 70.86725 0.0001175 L 70.86725 113.386836 " transform="matrix(1,0,0,-1,1.414,114.53918)"/>
<path style="fill:none;stroke-width:0.3985;stroke-linecap:butt;stroke-linejoin:miter;stroke:rgb(0%,0%,0%);stroke-opacity:1;stroke-miterlimit:10;" d="M 0.0000625 85.03918 L 113.386781 85.03918 " transform="matrix(1,0,0,-1,1.414,114.53918)"/>
<path style="fill:none;stroke-width:0.3985;stroke-linecap:butt;stroke-linejoin:miter;stroke:rgb(0%,0%,0%);stroke-opacity:1;stroke-miterlimit:10;" d="M 85.039125 0.0001175 L 85.039125 113.386836 " transform="matrix(1,0,0,-1,1.414,114.53918)"/>
<path style="fill:none;stroke-width:0.3985;stroke-linecap:butt;stroke-linejoin:miter;stroke:rgb(0%,0%,0%);stroke-opacity:1;stroke-miterlimit:10;" d="M 0.0000625 99.214961 L 113.386781 99.214961 " transform="matrix(1,0,0,-1,1.414,114.53918)"/>
<path style="fill:none;stroke-width:0.3985;stroke-linecap:butt;stroke-linejoin:miter;stroke:rgb(0%,0%,0%);stroke-opacity:1;stroke-miterlimit:10;" d="M 99.214906 0.0001175 L 99.214906 113.386836 " transform="matrix(1,0,0,-1,1.414,114.53918)"/>
<path style="fill:none;stroke-width:0.3985;stroke-linecap:butt;stroke-linejoin:miter;stroke:rgb(0%,0%,0%);stroke-opacity:1;stroke-miterlimit:10;" d="M 0.0000625 113.386836 L 113.386781 113.386836 " transform="matrix(1,0,0,-1,1.414,114.53918)"/>
<path style="fill:none;stroke-width:0.3985;stroke-linecap:butt;stroke-linejoin:miter;stroke:rgb(0%,0%,0%);stroke-opacity:1;stroke-miterlimit:10;" d="M 113.386781 0.0001175 L 113.386781 113.386836 " transform="matrix(1,0,0,-1,1.414,114.53918)"/>
<path style=" stroke:none;fill-rule:nonzero;fill:rgb(0%,0%,0%);fill-opacity:1;" d="M 86.453125 86.191406 L 86.453125 72.019531 L 100.628906 72.019531 L 100.628906 86.191406 Z M 86.453125 86.191406 "/>
<path style=" stroke:none;fill-rule:nonzero;fill:rgb(50%,50%,50%);fill-opacity:1;" d="M 214.015625 72.019531 L 228.1875 72.019531 L 228.1875 57.84375 L 242.363281 57.84375 L 242.363281 43.671875 L 214.015625 43.671875 Z M 214.015625 72.019531 "/>
<path style="fill:none;stroke-width:0.3985;stroke-linecap:butt;stroke-linejoin:miter;stroke:rgb(0%,0%,0%);stroke-opacity:1;stroke-miterlimit:10;" d="M 170.082094 0.0001175 L 283.468813 0.0001175 " transform="matrix(1,0,0,-1,1.414,114.53918)"/>
<path style="fill:none;stroke-width:0.3985;stroke-linecap:butt;stroke-linejoin:miter;stroke:rgb(0%,0%,0%);stroke-opacity:1;stroke-miterlimit:10;" d="M 170.082094 0.0001175 L 170.082094 113.386836 " transform="matrix(1,0,0,-1,1.414,114.53918)"/>
<path style="fill:none;stroke-width:0.3985;stroke-linecap:butt;stroke-linejoin:miter;stroke:rgb(0%,0%,0%);stroke-opacity:1;stroke-miterlimit:10;" d="M 170.082094 14.171992 L 283.468813 14.171992 " transform="matrix(1,0,0,-1,1.414,114.53918)"/>
<path style="fill:none;stroke-width:0.3985;stroke-linecap:butt;stroke-linejoin:miter;stroke:rgb(0%,0%,0%);stroke-opacity:1;stroke-miterlimit:10;" d="M 184.253969 0.0001175 L 184.253969 113.386836 " transform="matrix(1,0,0,-1,1.414,114.53918)"/>
<path style="fill:none;stroke-width:0.3985;stroke-linecap:butt;stroke-linejoin:miter;stroke:rgb(0%,0%,0%);stroke-opacity:1;stroke-miterlimit:10;" d="M 170.082094 28.347774 L 283.468813 28.347774 " transform="matrix(1,0,0,-1,1.414,114.53918)"/>
<path style="fill:none;stroke-width:0.3985;stroke-linecap:butt;stroke-linejoin:miter;stroke:rgb(0%,0%,0%);stroke-opacity:1;stroke-miterlimit:10;" d="M 198.425844 0.0001175 L 198.425844 113.386836 " transform="matrix(1,0,0,-1,1.414,114.53918)"/>
<path style="fill:none;stroke-width:0.3985;stroke-linecap:butt;stroke-linejoin:miter;stroke:rgb(0%,0%,0%);stroke-opacity:1;stroke-miterlimit:10;" d="M 170.082094 42.519649 L 283.468813 42.519649 " transform="matrix(1,0,0,-1,1.414,114.53918)"/>
<path style="fill:none;stroke-width:0.3985;stroke-linecap:butt;stroke-linejoin:miter;stroke:rgb(0%,0%,0%);stroke-opacity:1;stroke-miterlimit:10;" d="M 212.601625 0.0001175 L 212.601625 113.386836 " transform="matrix(1,0,0,-1,1.414,114.53918)"/>
<path style="fill:none;stroke-width:0.3985;stroke-linecap:butt;stroke-linejoin:miter;stroke:rgb(0%,0%,0%);stroke-opacity:1;stroke-miterlimit:10;" d="M 170.082094 56.69543 L 283.468813 56.69543 " transform="matrix(1,0,0,-1,1.414,114.53918)"/>
<path style="fill:none;stroke-width:0.3985;stroke-linecap:butt;stroke-linejoin:miter;stroke:rgb(0%,0%,0%);stroke-opacity:1;stroke-miterlimit:10;" d="M 226.7735 0.0001175 L 226.7735 113.386836 " transform="matrix(1,0,0,-1,1.414,114.53918)"/>
<path style="fill:none;stroke-width:0.3985;stroke-linecap:butt;stroke-linejoin:miter;stroke:rgb(0%,0%,0%);stroke-opacity:1;stroke-miterlimit:10;" d="M 170.082094 70.867305 L 283.468813 70.867305 " transform="matrix(1,0,0,-1,1.414,114.53918)"/>
<path style="fill:none;stroke-width:0.3985;stroke-linecap:butt;stroke-linejoin:miter;stroke:rgb(0%,0%,0%);stroke-opacity:1;stroke-miterlimit:10;" d="M 240.949281 0.0001175 L 240.949281 113.386836 " transform="matrix(1,0,0,-1,1.414,114.53918)"/>
<path style="fill:none;stroke-width:0.3985;stroke-linecap:butt;stroke-linejoin:miter;stroke:rgb(0%,0%,0%);stroke-opacity:1;stroke-miterlimit:10;" d="M 170.082094 85.03918 L 283.468813 85.03918 " transform="matrix(1,0,0,-1,1.414,114.53918)"/>
<path style="fill:none;stroke-width:0.3985;stroke-linecap:butt;stroke-linejoin:miter;stroke:rgb(0%,0%,0%);stroke-opacity:1;stroke-miterlimit:10;" d="M 255.121156 0.0001175 L 255.121156 113.386836 " transform="matrix(1,0,0,-1,1.414,114.53918)"/>
<path style="fill:none;stroke-width:0.3985;stroke-linecap:butt;stroke-linejoin:miter;stroke:rgb(0%,0%,0%);stroke-opacity:1;stroke-miterlimit:10;" d="M 170.082094 99.214961 L 283.468813 99.214961 " transform="matrix(1,0,0,-1,1.414,114.53918)"/>
<path style="fill:none;stroke-width:0.3985;stroke-linecap:butt;stroke-linejoin:miter;stroke:rgb(0%,0%,0%);stroke-opacity:1;stroke-miterlimit:10;" d="M 269.293031 0.0001175 L 269.293031 113.386836 " transform="matrix(1,0,0,-1,1.414,114.53918)"/>
<path style="fill:none;stroke-width:0.3985;stroke-linecap:butt;stroke-linejoin:miter;stroke:rgb(0%,0%,0%);stroke-opacity:1;stroke-miterlimit:10;" d="M 170.082094 113.386836 L 283.468813 113.386836 " transform="matrix(1,0,0,-1,1.414,114.53918)"/>
<path style="fill:none;stroke-width:0.3985;stroke-linecap:butt;stroke-linejoin:miter;stroke:rgb(0%,0%,0%);stroke-opacity:1;stroke-miterlimit:10;" d="M 283.468813 0.0001175 L 283.468813 113.386836 " transform="matrix(1,0,0,-1,1.414,114.53918)"/>
<path style=" stroke:none;fill-rule:nonzero;fill:rgb(0%,0%,0%);fill-opacity:1;" d="M 256.535156 86.191406 L 256.535156 72.019531 L 270.707031 72.019531 L 270.707031 86.191406 Z M 256.535156 86.191406 "/>
<g clip-path="url(#clip1)" clip-rule="nonzero">
<path style="fill:none;stroke-width:1.19553;stroke-linecap:butt;stroke-linejoin:miter;stroke:rgb(0%,0%,0%);stroke-opacity:1;stroke-miterlimit:10;" d="M 226.7735 0.0001175 L 226.7735 113.386836 " transform="matrix(1,0,0,-1,1.414,114.53918)"/>
</g>
<path style="fill:none;stroke-width:1.19553;stroke-linecap:butt;stroke-linejoin:miter;stroke:rgb(0%,0%,0%);stroke-opacity:1;stroke-miterlimit:10;" d="M 170.082094 56.69543 L 283.468813 56.69543 " transform="matrix(1,0,0,-1,1.414,114.53918)"/>
</g>
</svg>
