<?xml version="1.0" encoding="UTF-8"?>
<svg xmlns="http://www.w3.org/2000/svg" xmlns:xlink="http://www.w3.org/1999/xlink" width="225.2" height="87.92" viewBox="0 0 225.2 87.92">
<defs>
<clipPath id="clip-0">
<path clip-rule="nonzero" d="M 40 77 L 56 77 L 56 87.921875 L 40 87.921875 Z M 40 77 "/>
</clipPath>
<clipPath id="clip-1">
<path clip-rule="nonzero" d="M 0 0 L 90 0 L 90 87.921875 L 0 87.921875 Z M 0 0 "/>
</clipPath>
<clipPath id="clip-2">
<path clip-rule="nonzero" d="M 193 72 L 209 72 L 209 87.921875 L 193 87.921875 Z M 193 72 "/>
</clipPath>
<clipPath id="clip-3">
<path clip-rule="nonzero" d="M 214 35 L 225.199219 35 L 225.199219 52 L 214 52 Z M 214 35 "/>
</clipPath>
<clipPath id="clip-4">
<path clip-rule="nonzero" d="M 150 72 L 166 72 L 166 87.921875 L 150 87.921875 Z M 150 72 "/>
</clipPath>
<clipPath id="clip-5">
<path clip-rule="nonzero" d="M 126 0 L 225.199219 0 L 225.199219 87.921875 L 126 87.921875 Z M 126 0 "/>
</clipPath>
</defs>
<path fill-rule="nonzero" fill="rgb(0%, 0%, 0%)" fill-opacity="1" stroke-width="0.3985" stroke-linecap="butt" stroke-linejoin="miter" stroke="rgb(0%, 0%, 0%)" stroke-opacity="1" stroke-miterlimit="10" d="M -32.408281 -24.993281 C -32.408281 -23.891719 -33.298906 -23.001094 -34.400469 -23.001094 C -35.502031 -23.001094 -36.392656 -23.891719 -36.392656 -24.993281 C -36.392656 -26.094844 -35.502031 -26.985469 -34.400469 -26.985469 C -33.298906 -26.985469 -32.408281 -26.094844 -32.408281 -24.993281 Z M -32.408281 -24.993281 " transform="matrix(1, 0, 0, -1, 37.67, 43.495)"/>
<path fill-rule="nonzero" fill="rgb(0%, 0%, 0%)" fill-opacity="1" d="M 49.949219 84.753906 C 49.949219 83.652344 49.054688 82.761719 47.957031 82.761719 C 46.855469 82.761719 45.964844 83.652344 45.964844 84.753906 C 45.964844 85.851562 46.855469 86.746094 47.957031 86.746094 C 49.054688 86.746094 49.949219 85.851562 49.949219 84.753906 Z M 49.949219 84.753906 "/>
<g clip-path="url(#clip-0)">
<path fill="none" stroke-width="0.3985" stroke-linecap="butt" stroke-linejoin="miter" stroke="rgb(0%, 0%, 0%)" stroke-opacity="1" stroke-miterlimit="10" d="M 12.279219 -41.258906 C 12.279219 -40.157344 11.384687 -39.266719 10.287031 -39.266719 C 9.185469 -39.266719 8.294844 -40.157344 8.294844 -41.258906 C 8.294844 -42.356562 9.185469 -43.251094 10.287031 -43.251094 C 11.384687 -43.251094 12.279219 -42.356562 12.279219 -41.258906 Z M 12.279219 -41.258906 " transform="matrix(1, 0, 0, -1, 37.67, 43.495)"/>
</g>
<path fill-rule="nonzero" fill="rgb(0%, 0%, 0%)" fill-opacity="1" stroke-width="0.3985" stroke-linecap="butt" stroke-linejoin="miter" stroke="rgb(0%, 0%, 0%)" stroke-opacity="1" stroke-miterlimit="10" d="M 1.994062 -0.00109375 C 1.994062 1.100469 1.099531 1.991094 0.001875 1.991094 C -1.099688 1.991094 -1.994219 1.100469 -1.994219 -0.00109375 C -1.994219 -1.09875 -1.099688 -1.993281 0.001875 -1.993281 C 1.099531 -1.993281 1.994062 -1.09875 1.994062 -0.00109375 Z M 1.994062 -0.00109375 " transform="matrix(1, 0, 0, -1, 37.67, 43.495)"/>
<path fill-rule="nonzero" fill="rgb(0%, 0%, 0%)" fill-opacity="1" stroke-width="0.3985" stroke-linecap="butt" stroke-linejoin="miter" stroke="rgb(0%, 0%, 0%)" stroke-opacity="1" stroke-miterlimit="10" d="M 44.513594 -0.00109375 C 44.513594 1.100469 43.619062 1.991094 42.521406 1.991094 C 41.419844 1.991094 40.529219 1.100469 40.529219 -0.00109375 C 40.529219 -1.09875 41.419844 -1.993281 42.521406 -1.993281 C 43.619062 -1.993281 44.513594 -1.09875 44.513594 -0.00109375 Z M 44.513594 -0.00109375 " transform="matrix(1, 0, 0, -1, 37.67, 43.495)"/>
<path fill-rule="nonzero" fill="rgb(0%, 0%, 0%)" fill-opacity="1" stroke-width="0.3985" stroke-linecap="butt" stroke-linejoin="miter" stroke="rgb(0%, 0%, 0%)" stroke-opacity="1" stroke-miterlimit="10" d="M 15.130781 40.440313 C 15.130781 41.537969 14.240156 42.4325 13.138594 42.4325 C 12.040937 42.4325 11.146406 41.537969 11.146406 40.440313 C 11.146406 39.33875 12.040937 38.448125 13.138594 38.448125 C 14.240156 38.448125 15.130781 39.33875 15.130781 40.440313 Z M 15.130781 40.440313 " transform="matrix(1, 0, 0, -1, 37.67, 43.495)"/>
<path fill-rule="nonzero" fill="rgb(0%, 0%, 0%)" fill-opacity="1" stroke-width="0.3985" stroke-linecap="butt" stroke-linejoin="miter" stroke="rgb(0%, 0%, 0%)" stroke-opacity="1" stroke-miterlimit="10" d="M -32.408281 24.991094 C -32.408281 26.092656 -33.298906 26.983281 -34.400469 26.983281 C -35.502031 26.983281 -36.392656 26.092656 -36.392656 24.991094 C -36.392656 23.893438 -35.502031 22.998906 -34.400469 22.998906 C -33.298906 22.998906 -32.408281 23.893438 -32.408281 24.991094 Z M -32.408281 24.991094 " transform="matrix(1, 0, 0, -1, 37.67, 43.495)"/>
<g clip-path="url(#clip-1)">
<path fill="none" stroke-width="0.79701" stroke-linecap="butt" stroke-linejoin="miter" stroke="rgb(0%, 0%, 0%)" stroke-opacity="1" stroke-miterlimit="10" d="M -32.627031 23.705938 L -1.771563 1.287969 M 2.193281 -0.00109375 L 40.33 -0.00109375 M 40.435469 -0.676875 L -32.314531 -24.313594 M -33.111406 -23.219844 L 11.849531 38.666875 M 13.064375 38.248906 L 10.36125 -39.0675 M 9.060469 -39.4425 L -33.173906 23.174688 M -32.314531 24.315313 L 40.435469 0.678594 " transform="matrix(1, 0, 0, -1, 37.67, 43.495)"/>
</g>
<path fill-rule="nonzero" fill="rgb(0%, 0%, 0%)" fill-opacity="1" d="M 202.65625 80.320312 C 202.65625 79.21875 201.765625 78.324219 200.664062 78.324219 C 199.5625 78.324219 198.671875 79.21875 198.671875 80.320312 C 198.671875 81.417969 199.5625 82.3125 200.664062 82.3125 C 201.765625 82.3125 202.65625 81.417969 202.65625 80.320312 Z M 202.65625 80.320312 "/>
<g clip-path="url(#clip-2)">
<path fill="none" stroke-width="0.3985" stroke-linecap="butt" stroke-linejoin="miter" stroke="rgb(0%, 0%, 0%)" stroke-opacity="1" stroke-miterlimit="10" d="M 164.98625 -36.825312 C 164.98625 -35.72375 164.095625 -34.829219 162.994062 -34.829219 C 161.8925 -34.829219 161.001875 -35.72375 161.001875 -36.825312 C 161.001875 -37.922969 161.8925 -38.8175 162.994062 -38.8175 C 164.095625 -38.8175 164.98625 -37.922969 164.98625 -36.825312 Z M 164.98625 -36.825312 " transform="matrix(1, 0, 0, -1, 37.67, 43.495)"/>
</g>
<path fill-rule="nonzero" fill="rgb(0%, 0%, 0%)" fill-opacity="1" stroke-width="0.3985" stroke-linecap="butt" stroke-linejoin="miter" stroke="rgb(0%, 0%, 0%)" stroke-opacity="1" stroke-miterlimit="10" d="M 101.205 -0.00109375 C 101.205 1.100469 100.314375 1.991094 99.212812 1.991094 C 98.115156 1.991094 97.220625 1.100469 97.220625 -0.00109375 C 97.220625 -1.09875 98.115156 -1.993281 99.212812 -1.993281 C 100.314375 -1.993281 101.205 -1.09875 101.205 -0.00109375 Z M 101.205 -0.00109375 " transform="matrix(1, 0, 0, -1, 37.67, 43.495)"/>
<path fill-rule="nonzero" fill="rgb(0%, 0%, 0%)" fill-opacity="1" stroke-width="0.3985" stroke-linecap="butt" stroke-linejoin="miter" stroke="rgb(0%, 0%, 0%)" stroke-opacity="1" stroke-miterlimit="10" d="M 164.98625 36.823125 C 164.98625 37.924688 164.095625 38.815313 162.994062 38.815313 C 161.8925 38.815313 161.001875 37.924688 161.001875 36.823125 C 161.001875 35.721563 161.8925 34.830938 162.994062 34.830938 C 164.095625 34.830938 164.98625 35.721563 164.98625 36.823125 Z M 164.98625 36.823125 " transform="matrix(1, 0, 0, -1, 37.67, 43.495)"/>
<path fill-rule="nonzero" fill="rgb(0%, 0%, 0%)" fill-opacity="1" d="M 223.917969 43.496094 C 223.917969 42.394531 223.023438 41.503906 221.925781 41.503906 C 220.824219 41.503906 219.933594 42.394531 219.933594 43.496094 C 219.933594 44.59375 220.824219 45.488281 221.925781 45.488281 C 223.023438 45.488281 223.917969 44.59375 223.917969 43.496094 Z M 223.917969 43.496094 "/>
<g clip-path="url(#clip-3)">
<path fill="none" stroke-width="0.3985" stroke-linecap="butt" stroke-linejoin="miter" stroke="rgb(0%, 0%, 0%)" stroke-opacity="1" stroke-miterlimit="10" d="M 186.247969 -0.00109375 C 186.247969 1.100469 185.353437 1.991094 184.255781 1.991094 C 183.154219 1.991094 182.263594 1.100469 182.263594 -0.00109375 C 182.263594 -1.09875 183.154219 -1.993281 184.255781 -1.993281 C 185.353437 -1.993281 186.247969 -1.09875 186.247969 -0.00109375 Z M 186.247969 -0.00109375 " transform="matrix(1, 0, 0, -1, 37.67, 43.495)"/>
</g>
<path fill-rule="nonzero" fill="rgb(0%, 0%, 0%)" fill-opacity="1" d="M 160.136719 80.320312 C 160.136719 79.21875 159.246094 78.324219 158.144531 78.324219 C 157.042969 78.324219 156.152344 79.21875 156.152344 80.320312 C 156.152344 81.417969 157.042969 82.3125 158.144531 82.3125 C 159.246094 82.3125 160.136719 81.417969 160.136719 80.320312 Z M 160.136719 80.320312 "/>
<g clip-path="url(#clip-4)">
<path fill="none" stroke-width="0.3985" stroke-linecap="butt" stroke-linejoin="miter" stroke="rgb(0%, 0%, 0%)" stroke-opacity="1" stroke-miterlimit="10" d="M 122.466719 -36.825312 C 122.466719 -35.72375 121.576094 -34.829219 120.474531 -34.829219 C 119.372969 -34.829219 118.482344 -35.72375 118.482344 -36.825312 C 118.482344 -37.922969 119.372969 -38.8175 120.474531 -38.8175 C 121.576094 -38.8175 122.466719 -37.922969 122.466719 -36.825312 Z M 122.466719 -36.825312 " transform="matrix(1, 0, 0, -1, 37.67, 43.495)"/>
</g>
<path fill-rule="nonzero" fill="rgb(0%, 0%, 0%)" fill-opacity="1" stroke-width="0.3985" stroke-linecap="butt" stroke-linejoin="miter" stroke="rgb(0%, 0%, 0%)" stroke-opacity="1" stroke-miterlimit="10" d="M 122.466719 36.823125 C 122.466719 37.924688 121.576094 38.815313 120.474531 38.815313 C 119.372969 38.815313 118.482344 37.924688 118.482344 36.823125 C 118.482344 35.721563 119.372969 34.830938 120.474531 34.830938 C 121.576094 34.830938 122.466719 35.721563 122.466719 36.823125 Z M 122.466719 36.823125 " transform="matrix(1, 0, 0, -1, 37.67, 43.495)"/>
<g clip-path="url(#clip-5)">
<path fill="none" stroke-width="0.79701" stroke-linecap="butt" stroke-linejoin="miter" stroke="rgb(0%, 0%, 0%)" stroke-opacity="1" stroke-miterlimit="10" d="M 122.665937 36.823125 L 160.802656 36.823125 M 164.091719 34.924688 L 183.158125 1.897344 M 183.158125 -1.899531 L 164.091719 -34.926875 M 160.802656 -36.825312 L 122.665937 -36.825312 M 119.376875 -34.926875 L 100.310469 -1.899531 M 100.310469 1.897344 L 119.376875 34.924688 M 122.372969 35.729375 L 182.357344 1.096563 " transform="matrix(1, 0, 0, -1, 37.67, 43.495)"/>
</g>
</svg>
