<?xml version="1.0" encoding="UTF-8"?>
<svg xmlns="http://www.w3.org/2000/svg" xmlns:xlink="http://www.w3.org/1999/xlink" width="130.16pt" height="59.0854pt" viewBox="0 0 130.16 59.0854" version="1.1">
<g id="surface1">
<path style="fill:none;stroke-width:0.3985;stroke-linecap:butt;stroke-linejoin:miter;stroke:rgb(0%,0%,0%);stroke-opacity:1;stroke-miterlimit:10;" d="M 0.0000625 0.00110875 L 127.562563 0.00110875 " transform="matrix(1,0,0,-1,1.414,57.92689)"/>
<path style="fill:none;stroke-width:0.3985;stroke-linecap:butt;stroke-linejoin:miter;stroke:rgb(0%,0%,0%);stroke-opacity:1;stroke-miterlimit:10;" d="M 0.0000625 14.172984 L 127.562563 14.172984 " transform="matrix(1,0,0,-1,1.414,57.92689)"/>
<path style="fill:none;stroke-width:0.3985;stroke-linecap:butt;stroke-linejoin:miter;stroke:rgb(0%,0%,0%);stroke-opacity:1;stroke-miterlimit:10;" d="M 0.0000625 28.344859 L 127.562563 28.344859 " transform="matrix(1,0,0,-1,1.414,57.92689)"/>
<path style="fill:none;stroke-width:0.3985;stroke-linecap:butt;stroke-linejoin:miter;stroke:rgb(0%,0%,0%);stroke-opacity:1;stroke-miterlimit:10;" d="M 0.0000625 42.52064 L 127.562563 42.52064 " transform="matrix(1,0,0,-1,1.414,57.92689)"/>
<path style="fill:none;stroke-width:0.3985;stroke-linecap:butt;stroke-linejoin:miter;stroke:rgb(0%,0%,0%);stroke-opacity:1;stroke-miterlimit:10;" d="M 0.0000625 56.692515 L 127.562563 56.692515 " transform="matrix(1,0,0,-1,1.414,57.92689)"/>
<path style="fill:none;stroke-width:0.3985;stroke-linecap:butt;stroke-linejoin:miter;stroke:rgb(0%,0%,0%);stroke-opacity:1;stroke-miterlimit:10;" d="M 0.0000625 0.00110875 L 0.0000625 56.692515 " transform="matrix(1,0,0,-1,1.414,57.92689)"/>
<path style="fill:none;stroke-width:0.3985;stroke-linecap:butt;stroke-linejoin:miter;stroke:rgb(0%,0%,0%);stroke-opacity:1;stroke-miterlimit:10;" d="M 14.171938 0.00110875 L 14.171938 56.692515 " transform="matrix(1,0,0,-1,1.414,57.92689)"/>
<path style="fill:none;stroke-width:0.3985;stroke-linecap:butt;stroke-linejoin:miter;stroke:rgb(0%,0%,0%);stroke-opacity:1;stroke-miterlimit:10;" d="M 28.347719 0.00110875 L 28.347719 56.692515 " transform="matrix(1,0,0,-1,1.414,57.92689)"/>
<path style="fill:none;stroke-width:0.3985;stroke-linecap:butt;stroke-linejoin:miter;stroke:rgb(0%,0%,0%);stroke-opacity:1;stroke-miterlimit:10;" d="M 42.519594 0.00110875 L 42.519594 56.692515 " transform="matrix(1,0,0,-1,1.414,57.92689)"/>
<path style="fill:none;stroke-width:0.3985;stroke-linecap:butt;stroke-linejoin:miter;stroke:rgb(0%,0%,0%);stroke-opacity:1;stroke-miterlimit:10;" d="M 56.695375 0.00110875 L 56.695375 56.692515 " transform="matrix(1,0,0,-1,1.414,57.92689)"/>
<path style="fill:none;stroke-width:0.3985;stroke-linecap:butt;stroke-linejoin:miter;stroke:rgb(0%,0%,0%);stroke-opacity:1;stroke-miterlimit:10;" d="M 70.86725 0.00110875 L 70.86725 56.692515 " transform="matrix(1,0,0,-1,1.414,57.92689)"/>
<path style="fill:none;stroke-width:0.3985;stroke-linecap:butt;stroke-linejoin:miter;stroke:rgb(0%,0%,0%);stroke-opacity:1;stroke-miterlimit:10;" d="M 85.039125 0.00110875 L 85.039125 56.692515 " transform="matrix(1,0,0,-1,1.414,57.92689)"/>
<path style="fill:none;stroke-width:0.3985;stroke-linecap:butt;stroke-linejoin:miter;stroke:rgb(0%,0%,0%);stroke-opacity:1;stroke-miterlimit:10;" d="M 99.214906 0.00110875 L 99.214906 56.692515 " transform="matrix(1,0,0,-1,1.414,57.92689)"/>
<path style="fill:none;stroke-width:0.3985;stroke-linecap:butt;stroke-linejoin:miter;stroke:rgb(0%,0%,0%);stroke-opacity:1;stroke-miterlimit:10;" d="M 113.386781 0.00110875 L 113.386781 56.692515 " transform="matrix(1,0,0,-1,1.414,57.92689)"/>
<path style="fill:none;stroke-width:0.3985;stroke-linecap:butt;stroke-linejoin:miter;stroke:rgb(0%,0%,0%);stroke-opacity:1;stroke-miterlimit:10;" d="M 127.562563 0.00110875 L 127.562563 56.692515 " transform="matrix(1,0,0,-1,1.414,57.92689)"/>
</g>
</svg>
