<?xml version="1.0" encoding="UTF-8"?>
<svg xmlns="http://www.w3.org/2000/svg" xmlns:xlink="http://www.w3.org/1999/xlink" width="158.96" height="116.24" viewBox="0 0 158.96 116.24">
<defs>
<clipPath id="clip-0">
<path clip-rule="nonzero" d="M 58 15 L 101 15 L 101 101 L 58 101 Z M 58 15 "/>
</clipPath>
<clipPath id="clip-1">
<path clip-rule="nonzero" d="M 100.828125 58.089844 C 100.828125 34.605469 81.789062 15.570312 58.304688 15.570312 C 34.824219 15.570312 15.785156 34.605469 15.785156 58.089844 C 15.785156 81.574219 34.824219 100.609375 58.304688 100.609375 C 81.789062 100.609375 100.828125 81.574219 100.828125 58.089844 Z M 100.828125 58.089844 "/>
</clipPath>
<clipPath id="clip-2">
<path clip-rule="nonzero" d="M 143.347656 58.089844 C 143.347656 34.605469 124.308594 15.570312 100.828125 15.570312 C 77.34375 15.570312 58.304688 34.605469 58.304688 58.089844 C 58.304688 81.574219 77.34375 100.609375 100.828125 100.609375 C 124.308594 100.609375 143.347656 81.574219 143.347656 58.089844 Z M 143.347656 58.089844 "/>
</clipPath>
<clipPath id="clip-3">
<path clip-rule="nonzero" d="M 0 0 L 118 0 L 118 116.238281 L 0 116.238281 Z M 0 0 "/>
</clipPath>
<clipPath id="clip-4">
<path clip-rule="nonzero" d="M 41 0 L 158.960938 0 L 158.960938 116.238281 L 41 116.238281 Z M 41 0 "/>
</clipPath>
</defs>
<path fill-rule="nonzero" fill="rgb(50%, 50%, 100%)" fill-opacity="0.5" stroke-width="0.79701" stroke-linecap="butt" stroke-linejoin="miter" stroke="rgb(0%, 0%, 0%)" stroke-opacity="0.5" stroke-miterlimit="10" d="M 0.00028125 113.385562 L 0.00028125 -0.00115625 L 155.906531 -0.00115625 L 155.906531 113.385562 Z M 0.00028125 113.385562 " transform="matrix(1, 0, 0, -1, 1.613, 114.784)"/>
<g clip-path="url(#clip-0)">
<g clip-path="url(#clip-1)">
<g clip-path="url(#clip-2)">
<path fill-rule="nonzero" fill="rgb(100%, 100%, 100%)" fill-opacity="1" d="M 1.613281 1.398438 L 1.613281 114.785156 L 157.519531 114.785156 L 157.519531 1.398438 Z M 1.613281 1.398438 "/>
</g>
</g>
</g>
<g clip-path="url(#clip-3)">
<path fill="none" stroke-width="1.19553" stroke-linecap="butt" stroke-linejoin="miter" stroke="rgb(0%, 0%, 0%)" stroke-opacity="1" stroke-miterlimit="10" d="M 99.215125 56.694156 C 99.215125 80.178531 80.176063 99.213687 56.691688 99.213687 C 33.211219 99.213687 14.172156 80.178531 14.172156 56.694156 C 14.172156 33.209781 33.211219 14.174625 56.691688 14.174625 C 80.176063 14.174625 99.215125 33.209781 99.215125 56.694156 Z M 99.215125 56.694156 " transform="matrix(1, 0, 0, -1, 1.613, 114.784)"/>
</g>
<g clip-path="url(#clip-4)">
<path fill="none" stroke-width="1.19553" stroke-linecap="butt" stroke-linejoin="miter" stroke="rgb(0%, 0%, 0%)" stroke-opacity="1" stroke-miterlimit="10" d="M 141.734656 56.694156 C 141.734656 80.178531 122.695594 99.213687 99.215125 99.213687 C 75.73075 99.213687 56.691688 80.178531 56.691688 56.694156 C 56.691688 33.209781 75.73075 14.174625 99.215125 14.174625 C 122.695594 14.174625 141.734656 33.209781 141.734656 56.694156 Z M 141.734656 56.694156 " transform="matrix(1, 0, 0, -1, 1.613, 114.784)"/>
</g>
</svg>
