<?xml version="1.0" encoding="UTF-8"?>
<svg xmlns="http://www.w3.org/2000/svg" xmlns:xlink="http://www.w3.org/1999/xlink" width="161.36pt" height="104.65779pt" viewBox="0 0 161.36 104.65779" version="1.1">
<defs>
<clipPath id="clip1">
  <path d="M 0 0 L 76 0 L 76 104.65625 L 0 104.65625 Z M 0 0 "/>
</clipPath>
<clipPath id="clip2">
  <path d="M 12 26 L 59 26 L 59 104.65625 L 12 104.65625 Z M 12 26 "/>
</clipPath>
<clipPath id="clip3">
  <path d="M 86 0 L 161.359375 0 L 161.359375 104.65625 L 86 104.65625 Z M 86 0 "/>
</clipPath>
</defs>
<g id="surface1">
<g clip-path="url(#clip1)" clip-rule="nonzero">
<path style="fill:none;stroke-width:0.3985;stroke-linecap:butt;stroke-linejoin:miter;stroke:rgb(0%,0%,0%);stroke-opacity:1;stroke-miterlimit:10;" d="M 34.015312 0.0000775 C 34.015312 28.179765 18.78875 51.023515 -0.0003125 51.023515 C -18.785469 51.023515 -34.015938 28.179765 -34.015938 0.0000775 C -34.015938 -28.17961 -18.785469 -51.02336 -0.0003125 -51.02336 C 18.78875 -51.02336 34.015312 -28.17961 34.015312 0.0000775 Z M 34.015312 0.0000775 " transform="matrix(1,0,0,-1,35.43,52.25789)"/>
</g>
<path style="fill:none;stroke-width:0.3985;stroke-linecap:butt;stroke-linejoin:miter;stroke:rgb(0%,0%,0%);stroke-opacity:1;stroke-miterlimit:10;" d="M 17.0075 22.675859 C 17.0075 35.203202 9.394219 45.355546 -0.0003125 45.355546 C -9.394844 45.355546 -17.008125 35.203202 -17.008125 22.675859 C -17.008125 10.152421 -9.394844 0.0000775 -0.0003125 0.0000775 C 9.394219 0.0000775 17.0075 10.152421 17.0075 22.675859 Z M 17.0075 22.675859 " transform="matrix(1,0,0,-1,35.43,52.25789)"/>
<g clip-path="url(#clip2)" clip-rule="nonzero">
<path style="fill:none;stroke-width:0.3985;stroke-linecap:butt;stroke-linejoin:miter;stroke:rgb(0%,0%,0%);stroke-opacity:1;stroke-miterlimit:10;" d="M 17.0075 -13.605391 C 17.0075 5.179765 9.394219 20.410234 -0.0003125 20.410234 C -9.394844 20.410234 -17.008125 5.179765 -17.008125 -13.605391 C -17.008125 -32.394454 -9.394844 -47.621016 -0.0003125 -47.621016 C 9.394219 -47.621016 17.0075 -32.394454 17.0075 -13.605391 Z M 17.0075 -13.605391 " transform="matrix(1,0,0,-1,35.43,52.25789)"/>
</g>
<path style="fill-rule:nonzero;fill:rgb(0%,0%,0%);fill-opacity:1;stroke-width:0.3985;stroke-linecap:butt;stroke-linejoin:miter;stroke:rgb(0%,0%,0%);stroke-opacity:1;stroke-miterlimit:10;" d="M 2.390312 34.015702 C 2.390312 35.336015 1.32 36.406327 -0.0003125 36.406327 C -1.320625 36.406327 -2.390938 35.336015 -2.390938 34.015702 C -2.390938 32.69539 -1.320625 31.625077 -0.0003125 31.625077 C 1.32 31.625077 2.390312 32.69539 2.390312 34.015702 Z M 2.390312 34.015702 " transform="matrix(1,0,0,-1,35.43,52.25789)"/>
<path style="fill-rule:nonzero;fill:rgb(0%,0%,0%);fill-opacity:1;stroke-width:0.3985;stroke-linecap:butt;stroke-linejoin:miter;stroke:rgb(0%,0%,0%);stroke-opacity:1;stroke-miterlimit:10;" d="M 2.390312 11.339921 C 2.390312 12.660234 1.32 13.730546 -0.0003125 13.730546 C -1.320625 13.730546 -2.390938 12.660234 -2.390938 11.339921 C -2.390938 10.019609 -1.320625 8.949296 -0.0003125 8.949296 C 1.32 8.949296 2.390312 10.019609 2.390312 11.339921 Z M 2.390312 11.339921 " transform="matrix(1,0,0,-1,35.43,52.25789)"/>
<path style="fill-rule:nonzero;fill:rgb(0%,0%,0%);fill-opacity:1;stroke-width:0.3985;stroke-linecap:butt;stroke-linejoin:miter;stroke:rgb(0%,0%,0%);stroke-opacity:1;stroke-miterlimit:10;" d="M 2.390312 -11.339766 C 2.390312 -10.019454 1.32 -8.949141 -0.0003125 -8.949141 C -1.320625 -8.949141 -2.390938 -10.019454 -2.390938 -11.339766 C -2.390938 -12.660079 -1.320625 -13.730391 -0.0003125 -13.730391 C 1.32 -13.730391 2.390312 -12.660079 2.390312 -11.339766 Z M 2.390312 -11.339766 " transform="matrix(1,0,0,-1,35.43,52.25789)"/>
<path style="fill-rule:nonzero;fill:rgb(0%,0%,0%);fill-opacity:1;stroke-width:0.3985;stroke-linecap:butt;stroke-linejoin:miter;stroke:rgb(0%,0%,0%);stroke-opacity:1;stroke-miterlimit:10;" d="M 2.390312 -34.015548 C 2.390312 -32.695235 1.32 -31.624923 -0.0003125 -31.624923 C -1.320625 -31.624923 -2.390938 -32.695235 -2.390938 -34.015548 C -2.390938 -35.33586 -1.320625 -36.406173 -0.0003125 -36.406173 C 1.32 -36.406173 2.390312 -35.33586 2.390312 -34.015548 Z M 2.390312 -34.015548 " transform="matrix(1,0,0,-1,35.43,52.25789)"/>
<g clip-path="url(#clip3)" clip-rule="nonzero">
<path style="fill:none;stroke-width:0.3985;stroke-linecap:butt;stroke-linejoin:miter;stroke:rgb(0%,0%,0%);stroke-opacity:1;stroke-miterlimit:10;" d="M 124.72625 0.0000775 C 124.72625 28.179765 109.495781 51.023515 90.710625 51.023515 C 71.921562 51.023515 56.695 28.179765 56.695 0.0000775 C 56.695 -28.17961 71.921562 -51.02336 90.710625 -51.02336 C 109.495781 -51.02336 124.72625 -28.17961 124.72625 0.0000775 Z M 124.72625 0.0000775 " transform="matrix(1,0,0,-1,35.43,52.25789)"/>
</g>
<path style="fill-rule:nonzero;fill:rgb(0%,0%,0%);fill-opacity:1;stroke-width:0.3985;stroke-linecap:butt;stroke-linejoin:miter;stroke:rgb(0%,0%,0%);stroke-opacity:1;stroke-miterlimit:10;" d="M 93.10125 22.675859 C 93.10125 23.996171 92.030937 25.07039 90.710625 25.07039 C 89.390312 25.07039 88.32 23.996171 88.32 22.675859 C 88.32 21.355546 89.390312 20.285234 90.710625 20.285234 C 92.030937 20.285234 93.10125 21.355546 93.10125 22.675859 Z M 93.10125 22.675859 " transform="matrix(1,0,0,-1,35.43,52.25789)"/>
<path style="fill-rule:nonzero;fill:rgb(0%,0%,0%);fill-opacity:1;stroke-width:0.3985;stroke-linecap:butt;stroke-linejoin:miter;stroke:rgb(0%,0%,0%);stroke-opacity:1;stroke-miterlimit:10;" d="M 93.10125 0.0000775 C 93.10125 1.32039 92.030937 2.390702 90.710625 2.390702 C 89.390312 2.390702 88.32 1.32039 88.32 0.0000775 C 88.32 -1.320235 89.390312 -2.390548 90.710625 -2.390548 C 92.030937 -2.390548 93.10125 -1.320235 93.10125 0.0000775 Z M 93.10125 0.0000775 " transform="matrix(1,0,0,-1,35.43,52.25789)"/>
<path style="fill-rule:nonzero;fill:rgb(0%,0%,0%);fill-opacity:1;stroke-width:0.3985;stroke-linecap:butt;stroke-linejoin:miter;stroke:rgb(0%,0%,0%);stroke-opacity:1;stroke-miterlimit:10;" d="M 93.10125 -22.675704 C 93.10125 -21.355391 92.030937 -20.285079 90.710625 -20.285079 C 89.390312 -20.285079 88.32 -21.355391 88.32 -22.675704 C 88.32 -23.999923 89.390312 -25.070235 90.710625 -25.070235 C 92.030937 -25.070235 93.10125 -23.999923 93.10125 -22.675704 Z M 93.10125 -22.675704 " transform="matrix(1,0,0,-1,35.43,52.25789)"/>
<path style="fill:none;stroke-width:1.19553;stroke-linecap:butt;stroke-linejoin:miter;stroke:rgb(0%,0%,0%);stroke-opacity:1;stroke-miterlimit:10;" d="M 4.534844 34.015702 L 82.734062 25.562577 " transform="matrix(1,0,0,-1,35.43,52.25789)"/>
<path style=" stroke:none;fill-rule:nonzero;fill:rgb(0%,0%,0%);fill-opacity:1;" d="M 123.871094 27.3125 C 122.214844 26.8125 119.566406 25.5625 117.785156 24.246094 L 117.269531 29.007812 C 119.292969 28.101562 122.144531 27.445312 123.871094 27.3125 "/>
<path style="fill:none;stroke-width:1.19553;stroke-linecap:butt;stroke-linejoin:miter;stroke:rgb(0%,0%,0%);stroke-opacity:1;stroke-miterlimit:10;" d="M 4.534844 11.339921 L 82.734062 2.886796 " transform="matrix(1,0,0,-1,35.43,52.25789)"/>
<path style=" stroke:none;fill-rule:nonzero;fill:rgb(0%,0%,0%);fill-opacity:1;" d="M 123.871094 49.988281 C 122.214844 49.488281 119.566406 48.242188 117.785156 46.925781 L 117.269531 51.683594 C 119.292969 50.777344 122.144531 50.125 123.871094 49.988281 "/>
<path style="fill:none;stroke-width:1.19553;stroke-linecap:butt;stroke-linejoin:miter;stroke:rgb(0%,0%,0%);stroke-opacity:1;stroke-miterlimit:10;" d="M 2.269219 -11.339766 L 83.042656 18.421952 " transform="matrix(1,0,0,-1,35.43,52.25789)"/>
<path style=" stroke:none;fill-rule:nonzero;fill:rgb(0%,0%,0%);fill-opacity:1;" d="M 123.871094 31.847656 C 122.160156 32.136719 119.230469 32.195312 117.042969 31.808594 L 118.703125 36.308594 C 120.113281 34.59375 122.382812 32.738281 123.871094 31.847656 "/>
<path style="fill:none;stroke-width:1.19553;stroke-linecap:butt;stroke-linejoin:miter;stroke:rgb(0%,0%,0%);stroke-opacity:1;stroke-miterlimit:10;" d="M 2.269219 -34.015548 L 83.042656 -4.257735 " transform="matrix(1,0,0,-1,35.43,52.25789)"/>
<path style=" stroke:none;fill-rule:nonzero;fill:rgb(0%,0%,0%);fill-opacity:1;" d="M 123.871094 54.527344 C 122.160156 54.816406 119.230469 54.875 117.042969 54.484375 L 118.703125 58.984375 C 120.113281 57.273438 122.382812 55.414062 123.871094 54.527344 "/>
</g>
</svg>
