<?xml version="1.0" encoding="UTF-8"?>
<svg xmlns="http://www.w3.org/2000/svg" xmlns:xlink="http://www.w3.org/1999/xlink" width="206.96" height="104.72" viewBox="0 0 206.96 104.72">
<defs>
<clipPath id="clip-0">
<path clip-rule="nonzero" d="M 0 0 L 206.960938 0 L 206.960938 104.71875 L 0 104.71875 Z M 0 0 "/>
</clipPath>
</defs>
<path fill-rule="nonzero" fill="rgb(100%, 98.724365%, 75%)" fill-opacity="1" d="M 205.507812 52.222656 C 205.507812 24.042969 159.820312 1.199219 103.460938 1.199219 C 47.101562 1.199219 1.414062 24.042969 1.414062 52.222656 C 1.414062 80.402344 47.101562 103.246094 103.460938 103.246094 C 159.820312 103.246094 205.507812 80.402344 205.507812 52.222656 Z M 205.507812 52.222656 "/>
<g clip-path="url(#clip-0)">
<path fill="none" stroke-width="0.3985" stroke-linecap="butt" stroke-linejoin="miter" stroke="rgb(0%, 0%, 0%)" stroke-opacity="1" stroke-dasharray="0.3985 1.99255" stroke-miterlimit="10" d="M 102.046813 -0.00065625 C 102.046813 28.179031 56.359313 51.022781 -0.0000625 51.022781 C -56.359437 51.022781 -102.046937 28.179031 -102.046937 -0.00065625 C -102.046937 -28.180344 -56.359437 -51.024094 -0.0000625 -51.024094 C 56.359313 -51.024094 102.046813 -28.180344 102.046813 -0.00065625 Z M 102.046813 -0.00065625 " transform="matrix(1, 0, 0, -1, 103.461, 52.222)"/>
</g>
<path fill-rule="nonzero" fill="rgb(100%, 75%, 75%)" fill-opacity="1" stroke-width="0.79701" stroke-linecap="butt" stroke-linejoin="miter" stroke="rgb(0%, 0%, 0%)" stroke-opacity="1" stroke-miterlimit="10" d="M -18.36725 -0.00065625 L -43.878969 25.511062 L -69.390687 -0.00065625 L -43.878969 -25.512375 Z M -18.36725 -0.00065625 " transform="matrix(1, 0, 0, -1, 103.461, 52.222)"/>
<path fill-rule="nonzero" fill="rgb(0%, 0%, 0%)" fill-opacity="1" stroke-width="0.3985" stroke-linecap="butt" stroke-linejoin="miter" stroke="rgb(0%, 0%, 0%)" stroke-opacity="1" stroke-miterlimit="10" d="M -16.574281 -0.00065625 C -16.574281 0.991531 -17.378969 1.792312 -18.36725 1.792312 C -19.359437 1.792312 -20.160219 0.991531 -20.160219 -0.00065625 C -20.160219 -0.988938 -19.359437 -1.793625 -18.36725 -1.793625 C -17.378969 -1.793625 -16.574281 -0.988938 -16.574281 -0.00065625 Z M -16.574281 -0.00065625 " transform="matrix(1, 0, 0, -1, 103.461, 52.222)"/>
<path fill-rule="nonzero" fill="rgb(0%, 0%, 0%)" fill-opacity="1" stroke-width="0.3985" stroke-linecap="butt" stroke-linejoin="miter" stroke="rgb(0%, 0%, 0%)" stroke-opacity="1" stroke-miterlimit="10" d="M -42.086 25.511062 C -42.086 26.50325 -42.890687 27.304031 -43.878969 27.304031 C -44.871156 27.304031 -45.671937 26.50325 -45.671937 25.511062 C -45.671937 24.522781 -44.871156 23.718094 -43.878969 23.718094 C -42.890687 23.718094 -42.086 24.522781 -42.086 25.511062 Z M -42.086 25.511062 " transform="matrix(1, 0, 0, -1, 103.461, 52.222)"/>
<path fill-rule="nonzero" fill="rgb(0%, 0%, 0%)" fill-opacity="1" stroke-width="0.3985" stroke-linecap="butt" stroke-linejoin="miter" stroke="rgb(0%, 0%, 0%)" stroke-opacity="1" stroke-miterlimit="10" d="M -67.597719 -0.00065625 C -67.597719 0.991531 -68.402406 1.792312 -69.390687 1.792312 C -70.382875 1.792312 -71.187562 0.991531 -71.187562 -0.00065625 C -71.187562 -0.988938 -70.382875 -1.793625 -69.390687 -1.793625 C -68.402406 -1.793625 -67.597719 -0.988938 -67.597719 -0.00065625 Z M -67.597719 -0.00065625 " transform="matrix(1, 0, 0, -1, 103.461, 52.222)"/>
<path fill-rule="nonzero" fill="rgb(0%, 0%, 0%)" fill-opacity="1" stroke-width="0.3985" stroke-linecap="butt" stroke-linejoin="miter" stroke="rgb(0%, 0%, 0%)" stroke-opacity="1" stroke-miterlimit="10" d="M -42.086 -25.512375 C -42.086 -24.520188 -42.890687 -23.719406 -43.878969 -23.719406 C -44.871156 -23.719406 -45.671937 -24.520188 -45.671937 -25.512375 C -45.671937 -26.500656 -44.871156 -27.305344 -43.878969 -27.305344 C -42.890687 -27.305344 -42.086 -26.500656 -42.086 -25.512375 Z M -42.086 -25.512375 " transform="matrix(1, 0, 0, -1, 103.461, 52.222)"/>
<path fill-rule="nonzero" fill="rgb(75%, 75%, 100%)" fill-opacity="1" stroke-width="0.79701" stroke-linecap="butt" stroke-linejoin="miter" stroke="rgb(0%, 0%, 0%)" stroke-opacity="1" stroke-miterlimit="10" d="M 69.394469 -0.00065625 L 43.878844 25.511062 L 18.367125 -0.00065625 L 43.878844 -25.512375 Z M 69.394469 -0.00065625 " transform="matrix(1, 0, 0, -1, 103.461, 52.222)"/>
<path fill-rule="nonzero" fill="rgb(0%, 0%, 0%)" fill-opacity="1" stroke-width="0.3985" stroke-linecap="butt" stroke-linejoin="miter" stroke="rgb(0%, 0%, 0%)" stroke-opacity="1" stroke-miterlimit="10" d="M 71.187438 -0.00065625 C 71.187438 0.991531 70.38275 1.792312 69.394469 1.792312 C 68.402281 1.792312 67.597594 0.991531 67.597594 -0.00065625 C 67.597594 -0.988938 68.402281 -1.793625 69.394469 -1.793625 C 70.38275 -1.793625 71.187438 -0.988938 71.187438 -0.00065625 Z M 71.187438 -0.00065625 " transform="matrix(1, 0, 0, -1, 103.461, 52.222)"/>
<path fill-rule="nonzero" fill="rgb(0%, 0%, 0%)" fill-opacity="1" stroke-width="0.3985" stroke-linecap="butt" stroke-linejoin="miter" stroke="rgb(0%, 0%, 0%)" stroke-opacity="1" stroke-miterlimit="10" d="M 45.675719 25.511062 C 45.675719 26.50325 44.871031 27.304031 43.878844 27.304031 C 42.890563 27.304031 42.085875 26.50325 42.085875 25.511062 C 42.085875 24.522781 42.890563 23.718094 43.878844 23.718094 C 44.871031 23.718094 45.675719 24.522781 45.675719 25.511062 Z M 45.675719 25.511062 " transform="matrix(1, 0, 0, -1, 103.461, 52.222)"/>
<path fill-rule="nonzero" fill="rgb(0%, 0%, 0%)" fill-opacity="1" stroke-width="0.3985" stroke-linecap="butt" stroke-linejoin="miter" stroke="rgb(0%, 0%, 0%)" stroke-opacity="1" stroke-miterlimit="10" d="M 20.160094 -0.00065625 C 20.160094 0.991531 19.359313 1.792312 18.367125 1.792312 C 17.378844 1.792312 16.574156 0.991531 16.574156 -0.00065625 C 16.574156 -0.988938 17.378844 -1.793625 18.367125 -1.793625 C 19.359313 -1.793625 20.160094 -0.988938 20.160094 -0.00065625 Z M 20.160094 -0.00065625 " transform="matrix(1, 0, 0, -1, 103.461, 52.222)"/>
<path fill-rule="nonzero" fill="rgb(0%, 0%, 0%)" fill-opacity="1" stroke-width="0.3985" stroke-linecap="butt" stroke-linejoin="miter" stroke="rgb(0%, 0%, 0%)" stroke-opacity="1" stroke-miterlimit="10" d="M 45.675719 -25.512375 C 45.675719 -24.520188 44.871031 -23.719406 43.878844 -23.719406 C 42.890563 -23.719406 42.085875 -24.520188 42.085875 -25.512375 C 42.085875 -26.500656 42.890563 -27.305344 43.878844 -27.305344 C 44.871031 -27.305344 45.675719 -26.500656 45.675719 -25.512375 Z M 45.675719 -25.512375 " transform="matrix(1, 0, 0, -1, 103.461, 52.222)"/>
<path fill="none" stroke-width="0.79701" stroke-linecap="butt" stroke-linejoin="miter" stroke="rgb(0%, 0%, 0%)" stroke-opacity="1" stroke-miterlimit="10" d="M -18.36725 -0.00065625 L 18.367125 -0.00065625 " transform="matrix(1, 0, 0, -1, 103.461, 52.222)"/>
</svg>
