<?xml version="1.0" encoding="UTF-8"?>
<svg xmlns="http://www.w3.org/2000/svg" xmlns:xlink="http://www.w3.org/1999/xlink" width="138.8" height="104.72" viewBox="0 0 138.8 104.72">
<defs>
<clipPath id="clip-0">
<path clip-rule="nonzero" d="M 86 0 L 138.800781 0 L 138.800781 104.71875 L 86 104.71875 Z M 86 0 "/>
</clipPath>
</defs>
<path fill="none" stroke-width="0.3985" stroke-linecap="butt" stroke-linejoin="miter" stroke="rgb(0%, 0%, 0%)" stroke-opacity="1" stroke-miterlimit="10" d="M 22.678531 0.00034375 C 22.678531 21.918312 12.526188 39.683937 -0.00115625 39.683937 C -12.524594 39.683937 -22.676937 21.918312 -22.676937 0.00034375 C -22.676937 -21.917625 -12.524594 -39.687156 -0.00115625 -39.687156 C 12.526188 -39.687156 22.678531 -21.917625 22.678531 0.00034375 Z M 22.678531 0.00034375 " transform="matrix(1, 0, 0, -1, 24.091, 52.223)"/>
<path fill="none" stroke-width="0.3985" stroke-linecap="butt" stroke-linejoin="miter" stroke="rgb(0%, 0%, 0%)" stroke-opacity="1" stroke-miterlimit="10" d="M 5.635563 22.676125 C 5.635563 25.789406 3.112125 28.312844 -0.00115625 28.312844 C -3.114437 28.312844 -5.633969 25.789406 -5.633969 22.676125 C -5.633969 19.56675 -3.114437 17.043312 -0.00115625 17.043312 C 3.112125 17.043312 5.635563 19.56675 5.635563 22.676125 Z M 5.635563 22.676125 " transform="matrix(1, 0, 0, -1, 24.091, 52.223)"/>
<path fill="none" stroke-width="0.3985" stroke-linecap="butt" stroke-linejoin="miter" stroke="rgb(0%, 0%, 0%)" stroke-opacity="1" stroke-miterlimit="10" d="M 5.635563 0.00034375 C 5.635563 3.113625 3.112125 5.637062 -0.00115625 5.637062 C -3.114437 5.637062 -5.633969 3.113625 -5.633969 0.00034375 C -5.633969 -3.112938 -3.114437 -5.636375 -0.00115625 -5.636375 C 3.112125 -5.636375 5.635563 -3.112938 5.635563 0.00034375 Z M 5.635563 0.00034375 " transform="matrix(1, 0, 0, -1, 24.091, 52.223)"/>
<path fill="none" stroke-width="0.3985" stroke-linecap="butt" stroke-linejoin="miter" stroke="rgb(0%, 0%, 0%)" stroke-opacity="1" stroke-miterlimit="10" d="M 5.635563 -22.679344 C 5.635563 -19.566063 3.112125 -17.042625 -0.00115625 -17.042625 C -3.114437 -17.042625 -5.633969 -19.566063 -5.633969 -22.679344 C -5.633969 -25.788719 -3.114437 -28.312156 -0.00115625 -28.312156 C 3.112125 -28.312156 5.635563 -25.788719 5.635563 -22.679344 Z M 5.635563 -22.679344 " transform="matrix(1, 0, 0, -1, 24.091, 52.223)"/>
<g clip-path="url(#clip-0)">
<path fill="none" stroke-width="0.3985" stroke-linecap="butt" stroke-linejoin="miter" stroke="rgb(0%, 0%, 0%)" stroke-opacity="1" stroke-miterlimit="10" d="M 113.389469 0.00034375 C 113.389469 28.180031 103.233219 51.023781 90.709781 51.023781 C 78.186344 51.023781 68.034 28.180031 68.034 0.00034375 C 68.034 -28.179344 78.186344 -51.023094 90.709781 -51.023094 C 103.233219 -51.023094 113.389469 -28.179344 113.389469 0.00034375 Z M 113.389469 0.00034375 " transform="matrix(1, 0, 0, -1, 24.091, 52.223)"/>
</g>
<path fill="none" stroke-width="0.3985" stroke-linecap="butt" stroke-linejoin="miter" stroke="rgb(0%, 0%, 0%)" stroke-opacity="1" stroke-miterlimit="10" d="M 96.3465 34.015969 C 96.3465 37.12925 93.823063 39.652687 90.709781 39.652687 C 87.5965 39.652687 85.073063 37.12925 85.073063 34.015969 C 85.073063 30.902687 87.5965 28.37925 90.709781 28.37925 C 93.823063 28.37925 96.3465 30.902687 96.3465 34.015969 Z M 96.3465 34.015969 " transform="matrix(1, 0, 0, -1, 24.091, 52.223)"/>
<path fill="none" stroke-width="0.3985" stroke-linecap="butt" stroke-linejoin="miter" stroke="rgb(0%, 0%, 0%)" stroke-opacity="1" stroke-miterlimit="10" d="M 96.3465 11.340187 C 96.3465 14.449562 93.823063 16.973 90.709781 16.973 C 87.5965 16.973 85.073063 14.449562 85.073063 11.340187 C 85.073063 8.226906 87.5965 5.703469 90.709781 5.703469 C 93.823063 5.703469 96.3465 8.226906 96.3465 11.340187 Z M 96.3465 11.340187 " transform="matrix(1, 0, 0, -1, 24.091, 52.223)"/>
<path fill="none" stroke-width="0.3985" stroke-linecap="butt" stroke-linejoin="miter" stroke="rgb(0%, 0%, 0%)" stroke-opacity="1" stroke-miterlimit="10" d="M 96.3465 -11.3395 C 96.3465 -8.226219 93.823063 -5.702781 90.709781 -5.702781 C 87.5965 -5.702781 85.073063 -8.226219 85.073063 -11.3395 C 85.073063 -14.452781 87.5965 -16.976219 90.709781 -16.976219 C 93.823063 -16.976219 96.3465 -14.452781 96.3465 -11.3395 Z M 96.3465 -11.3395 " transform="matrix(1, 0, 0, -1, 24.091, 52.223)"/>
<path fill="none" stroke-width="0.3985" stroke-linecap="butt" stroke-linejoin="miter" stroke="rgb(0%, 0%, 0%)" stroke-opacity="1" stroke-miterlimit="10" d="M 96.3465 -34.015281 C 96.3465 -30.902 93.823063 -28.382469 90.709781 -28.382469 C 87.5965 -28.382469 85.073063 -30.902 85.073063 -34.015281 C 85.073063 -37.128563 87.5965 -39.652 90.709781 -39.652 C 93.823063 -39.652 96.3465 -37.128563 96.3465 -34.015281 Z M 96.3465 -34.015281 " transform="matrix(1, 0, 0, -1, 24.091, 52.223)"/>
<path fill="none" stroke-width="1.19553" stroke-linecap="butt" stroke-linejoin="miter" stroke="rgb(0%, 0%, 0%)" stroke-opacity="1" stroke-miterlimit="10" d="M 5.670719 22.676125 L 80.4715 14.250344 " transform="matrix(1, 0, 0, -1, 24.091, 52.223)"/>
<path fill-rule="nonzero" fill="rgb(0%, 0%, 0%)" fill-opacity="1" d="M 110.265625 38.617188 C 108.613281 38.109375 105.972656 36.851562 104.199219 35.527344 L 103.664062 40.277344 C 105.6875 39.382812 108.539062 38.742188 110.265625 38.617188 "/>
<path fill="none" stroke-width="1.19553" stroke-linecap="butt" stroke-linejoin="miter" stroke="rgb(0%, 0%, 0%)" stroke-opacity="1" stroke-miterlimit="10" d="M 5.670719 0.00034375 L 80.4715 -8.429344 " transform="matrix(1, 0, 0, -1, 24.091, 52.223)"/>
<path fill-rule="nonzero" fill="rgb(0%, 0%, 0%)" fill-opacity="1" d="M 110.265625 61.292969 C 108.613281 60.785156 105.972656 59.527344 104.199219 58.203125 L 103.664062 62.957031 C 105.6875 62.0625 108.539062 61.421875 110.265625 61.292969 "/>
<path fill="none" stroke-width="1.19553" stroke-linecap="butt" stroke-linejoin="miter" stroke="rgb(0%, 0%, 0%)" stroke-opacity="1" stroke-miterlimit="10" d="M 5.670719 -22.679344 L 79.358219 -33.206688 " transform="matrix(1, 0, 0, -1, 24.091, 52.223)"/>
<path fill-rule="nonzero" fill="rgb(0%, 0%, 0%)" fill-opacity="1" d="M 109.132812 86.238281 C 107.492188 85.683594 104.894531 84.347656 103.15625 82.972656 L 102.480469 87.703125 C 104.53125 86.871094 107.402344 86.3125 109.132812 86.238281 "/>
</svg>
