<?xml version="1.0" encoding="UTF-8"?>
<svg xmlns="http://www.w3.org/2000/svg" xmlns:xlink="http://www.w3.org/1999/xlink" width="261.68pt" height="162.70261pt" viewBox="0 0 261.68 162.70261" version="1.1">
<defs>
<clipPath id="clip1">
  <path d="M 0 151 L 12 151 L 12 162.703125 L 0 162.703125 Z M 0 151 "/>
</clipPath>
<clipPath id="clip2">
  <path d="M 38 151 L 54 151 L 54 162.703125 L 38 162.703125 Z M 38 151 "/>
</clipPath>
<clipPath id="clip3">
  <path d="M 0 139 L 24 139 L 24 162.703125 L 0 162.703125 Z M 0 139 "/>
</clipPath>
<clipPath id="clip4">
  <path d="M 26 139 L 52 139 L 52 162.703125 L 26 162.703125 Z M 26 139 "/>
</clipPath>
<clipPath id="clip5">
  <path d="M 80 151 L 97 151 L 97 162.703125 L 80 162.703125 Z M 80 151 "/>
</clipPath>
<clipPath id="clip6">
  <path d="M 102 151 L 118 151 L 118 162.703125 L 102 162.703125 Z M 102 151 "/>
</clipPath>
<clipPath id="clip7">
  <path d="M 137 151 L 153 151 L 153 162.703125 L 137 162.703125 Z M 137 151 "/>
</clipPath>
<clipPath id="clip8">
  <path d="M 82 132 L 112 132 L 112 162.703125 L 82 162.703125 Z M 82 132 "/>
</clipPath>
<clipPath id="clip9">
  <path d="M 99 119 L 151 119 L 151 162.703125 L 99 162.703125 Z M 99 119 "/>
</clipPath>
<clipPath id="clip10">
  <path d="M 165 151 L 182 151 L 182 162.703125 L 165 162.703125 Z M 165 151 "/>
</clipPath>
<clipPath id="clip11">
  <path d="M 250 151 L 261.679688 151 L 261.679688 162.703125 L 250 162.703125 Z M 250 151 "/>
</clipPath>
<clipPath id="clip12">
  <path d="M 167 139 L 194 139 L 194 162.703125 L 167 162.703125 Z M 167 139 "/>
</clipPath>
<clipPath id="clip13">
  <path d="M 238 139 L 261.679688 139 L 261.679688 162.703125 L 238 162.703125 Z M 238 139 "/>
</clipPath>
</defs>
<g id="surface1">
<path style="fill-rule:nonzero;fill:rgb(0%,0%,0%);fill-opacity:1;stroke-width:0.3985;stroke-linecap:butt;stroke-linejoin:miter;stroke:rgb(0%,0%,0%);stroke-opacity:1;stroke-miterlimit:10;" d="M 51.600813 -0.0011375 C 51.600813 1.100425 50.706281 1.99105 49.608625 1.99105 C 48.507063 1.99105 47.612531 1.100425 47.612531 -0.0011375 C 47.612531 -1.098794 48.507063 -1.993325 49.608625 -1.993325 C 50.706281 -1.993325 51.600813 -1.098794 51.600813 -0.0011375 Z M 51.600813 -0.0011375 " transform="matrix(1,0,0,-1,3.407,27.3348)"/>
<path style="fill:none;stroke-width:0.3985;stroke-linecap:butt;stroke-linejoin:miter;stroke:rgb(0%,0%,0%);stroke-opacity:1;stroke-miterlimit:10;" d="M 49.608625 -0.0011375 L 38.975813 18.412925 " transform="matrix(1,0,0,-1,3.407,27.3348)"/>
<path style="fill-rule:nonzero;fill:rgb(0%,0%,0%);fill-opacity:1;stroke-width:0.3985;stroke-linecap:butt;stroke-linejoin:miter;stroke:rgb(0%,0%,0%);stroke-opacity:1;stroke-miterlimit:10;" d="M 40.968 18.412925 C 40.968 19.510581 40.077375 20.405112 38.975813 20.405112 C 37.878156 20.405112 36.983625 19.510581 36.983625 18.412925 C 36.983625 17.311362 37.878156 16.420737 38.975813 16.420737 C 40.077375 16.420737 40.968 17.311362 40.968 18.412925 Z M 40.968 18.412925 " transform="matrix(1,0,0,-1,3.407,27.3348)"/>
<path style="fill:none;stroke-width:0.3985;stroke-linecap:butt;stroke-linejoin:miter;stroke:rgb(0%,0%,0%);stroke-opacity:1;stroke-miterlimit:10;" d="M 38.975813 18.412925 L 17.718 18.412925 " transform="matrix(1,0,0,-1,3.407,27.3348)"/>
<path style="fill-rule:nonzero;fill:rgb(0%,0%,0%);fill-opacity:1;stroke-width:0.3985;stroke-linecap:butt;stroke-linejoin:miter;stroke:rgb(0%,0%,0%);stroke-opacity:1;stroke-miterlimit:10;" d="M 19.710188 18.412925 C 19.710188 19.510581 18.815656 20.405112 17.718 20.405112 C 16.616438 20.405112 15.725813 19.510581 15.725813 18.412925 C 15.725813 17.311362 16.616438 16.420737 17.718 16.420737 C 18.815656 16.420737 19.710188 17.311362 19.710188 18.412925 Z M 19.710188 18.412925 " transform="matrix(1,0,0,-1,3.407,27.3348)"/>
<path style="fill:none;stroke-width:0.3985;stroke-linecap:butt;stroke-linejoin:miter;stroke:rgb(0%,0%,0%);stroke-opacity:1;stroke-miterlimit:10;" d="M 17.718 18.412925 L 7.085188 -0.0011375 " transform="matrix(1,0,0,-1,3.407,27.3348)"/>
<path style="fill-rule:nonzero;fill:rgb(0%,0%,0%);fill-opacity:1;stroke-width:0.3985;stroke-linecap:butt;stroke-linejoin:miter;stroke:rgb(0%,0%,0%);stroke-opacity:1;stroke-miterlimit:10;" d="M 9.077375 -0.0011375 C 9.077375 1.100425 8.18675 1.99105 7.085188 1.99105 C 5.987531 1.99105 5.093 1.100425 5.093 -0.0011375 C 5.093 -1.098794 5.987531 -1.993325 7.085188 -1.993325 C 8.18675 -1.993325 9.077375 -1.098794 9.077375 -0.0011375 Z M 9.077375 -0.0011375 " transform="matrix(1,0,0,-1,3.407,27.3348)"/>
<path style="fill:none;stroke-width:0.3985;stroke-linecap:butt;stroke-linejoin:miter;stroke:rgb(0%,0%,0%);stroke-opacity:1;stroke-miterlimit:10;" d="M 7.085188 -0.0011375 L 17.718 -18.411294 " transform="matrix(1,0,0,-1,3.407,27.3348)"/>
<path style="fill-rule:nonzero;fill:rgb(0%,0%,0%);fill-opacity:1;stroke-width:0.3985;stroke-linecap:butt;stroke-linejoin:miter;stroke:rgb(0%,0%,0%);stroke-opacity:1;stroke-miterlimit:10;" d="M 19.710188 -18.411294 C 19.710188 -17.309731 18.815656 -16.419106 17.718 -16.419106 C 16.616438 -16.419106 15.725813 -17.309731 15.725813 -18.411294 C 15.725813 -19.512856 16.616438 -20.403481 17.718 -20.403481 C 18.815656 -20.403481 19.710188 -19.512856 19.710188 -18.411294 Z M 19.710188 -18.411294 " transform="matrix(1,0,0,-1,3.407,27.3348)"/>
<path style="fill:none;stroke-width:0.3985;stroke-linecap:butt;stroke-linejoin:miter;stroke:rgb(0%,0%,0%);stroke-opacity:1;stroke-miterlimit:10;" d="M 17.718 -18.411294 L 38.975813 -18.411294 " transform="matrix(1,0,0,-1,3.407,27.3348)"/>
<path style="fill-rule:nonzero;fill:rgb(0%,0%,0%);fill-opacity:1;stroke-width:0.3985;stroke-linecap:butt;stroke-linejoin:miter;stroke:rgb(0%,0%,0%);stroke-opacity:1;stroke-miterlimit:10;" d="M 40.968 -18.411294 C 40.968 -17.309731 40.077375 -16.419106 38.975813 -16.419106 C 37.878156 -16.419106 36.983625 -17.309731 36.983625 -18.411294 C 36.983625 -19.512856 37.878156 -20.403481 38.975813 -20.403481 C 40.077375 -20.403481 40.968 -19.512856 40.968 -18.411294 Z M 40.968 -18.411294 " transform="matrix(1,0,0,-1,3.407,27.3348)"/>
<path style="fill:none;stroke-width:0.3985;stroke-linecap:butt;stroke-linejoin:miter;stroke:rgb(0%,0%,0%);stroke-opacity:1;stroke-miterlimit:10;" d="M 38.975813 -18.411294 L 49.608625 -0.0011375 " transform="matrix(1,0,0,-1,3.407,27.3348)"/>
<path style="fill-rule:nonzero;fill:rgb(0%,0%,0%);fill-opacity:1;stroke-width:0.3985;stroke-linecap:butt;stroke-linejoin:miter;stroke:rgb(0%,0%,0%);stroke-opacity:1;stroke-miterlimit:10;" d="M 101.206281 -18.708169 C 101.206281 -17.606606 100.315656 -16.715981 99.214094 -16.715981 C 98.112531 -16.715981 97.221906 -17.606606 97.221906 -18.708169 C 97.221906 -19.809731 98.112531 -20.700356 99.214094 -20.700356 C 100.315656 -20.700356 101.206281 -19.809731 101.206281 -18.708169 Z M 101.206281 -18.708169 " transform="matrix(1,0,0,-1,3.407,27.3348)"/>
<path style="fill-rule:nonzero;fill:rgb(0%,0%,0%);fill-opacity:1;stroke-width:0.3985;stroke-linecap:butt;stroke-linejoin:miter;stroke:rgb(0%,0%,0%);stroke-opacity:1;stroke-miterlimit:10;" d="M 101.206281 9.639487 C 101.206281 10.737144 100.315656 11.631675 99.214094 11.631675 C 98.112531 11.631675 97.221906 10.737144 97.221906 9.639487 C 97.221906 8.537925 98.112531 7.643394 99.214094 7.643394 C 100.315656 7.643394 101.206281 8.537925 101.206281 9.639487 Z M 101.206281 9.639487 " transform="matrix(1,0,0,-1,3.407,27.3348)"/>
<path style="fill-rule:nonzero;fill:rgb(0%,0%,0%);fill-opacity:1;stroke-width:0.3985;stroke-linecap:butt;stroke-linejoin:miter;stroke:rgb(0%,0%,0%);stroke-opacity:1;stroke-miterlimit:10;" d="M 129.553938 9.639487 C 129.553938 10.737144 128.659406 11.631675 127.56175 11.631675 C 126.460188 11.631675 125.569563 10.737144 125.569563 9.639487 C 125.569563 8.537925 126.460188 7.643394 127.56175 7.643394 C 128.659406 7.643394 129.553938 8.537925 129.553938 9.639487 Z M 129.553938 9.639487 " transform="matrix(1,0,0,-1,3.407,27.3348)"/>
<path style="fill-rule:nonzero;fill:rgb(0%,0%,0%);fill-opacity:1;stroke-width:0.3985;stroke-linecap:butt;stroke-linejoin:miter;stroke:rgb(0%,0%,0%);stroke-opacity:1;stroke-miterlimit:10;" d="M 129.553938 -18.708169 C 129.553938 -17.606606 128.659406 -16.715981 127.56175 -16.715981 C 126.460188 -16.715981 125.569563 -17.606606 125.569563 -18.708169 C 125.569563 -19.809731 126.460188 -20.700356 127.56175 -20.700356 C 128.659406 -20.700356 129.553938 -19.809731 129.553938 -18.708169 Z M 129.553938 -18.708169 " transform="matrix(1,0,0,-1,3.407,27.3348)"/>
<path style="fill-rule:nonzero;fill:rgb(0%,0%,0%);fill-opacity:1;stroke-width:0.3985;stroke-linecap:butt;stroke-linejoin:miter;stroke:rgb(0%,0%,0%);stroke-opacity:1;stroke-miterlimit:10;" d="M 115.378156 23.811362 C 115.378156 24.912925 114.487531 25.80355 113.385969 25.80355 C 112.288313 25.80355 111.393781 24.912925 111.393781 23.811362 C 111.393781 22.7098 112.288313 21.819175 113.385969 21.819175 C 114.487531 21.819175 115.378156 22.7098 115.378156 23.811362 Z M 115.378156 23.811362 " transform="matrix(1,0,0,-1,3.407,27.3348)"/>
<path style="fill:none;stroke-width:0.3985;stroke-linecap:butt;stroke-linejoin:miter;stroke:rgb(0%,0%,0%);stroke-opacity:1;stroke-miterlimit:10;" d="M 99.214094 -18.708169 L 99.214094 9.639487 L 127.56175 9.639487 L 127.56175 -18.708169 Z M 99.214094 -18.708169 " transform="matrix(1,0,0,-1,3.407,27.3348)"/>
<path style="fill:none;stroke-width:0.3985;stroke-linecap:butt;stroke-linejoin:miter;stroke:rgb(0%,0%,0%);stroke-opacity:1;stroke-miterlimit:10;" d="M 127.56175 9.639487 L 113.385969 23.811362 L 99.214094 9.639487 " transform="matrix(1,0,0,-1,3.407,27.3348)"/>
<path style="fill-rule:nonzero;fill:rgb(0%,0%,0%);fill-opacity:1;stroke-width:0.3985;stroke-linecap:butt;stroke-linejoin:miter;stroke:rgb(0%,0%,0%);stroke-opacity:1;stroke-miterlimit:10;" d="M 200.421125 -18.708169 C 200.421125 -17.606606 199.526594 -16.715981 198.428938 -16.715981 C 197.327375 -16.715981 196.43675 -17.606606 196.43675 -18.708169 C 196.43675 -19.809731 197.327375 -20.700356 198.428938 -20.700356 C 199.526594 -20.700356 200.421125 -19.809731 200.421125 -18.708169 Z M 200.421125 -18.708169 " transform="matrix(1,0,0,-1,3.407,27.3348)"/>
<path style="fill-rule:nonzero;fill:rgb(0%,0%,0%);fill-opacity:1;stroke-width:0.3985;stroke-linecap:butt;stroke-linejoin:miter;stroke:rgb(0%,0%,0%);stroke-opacity:1;stroke-miterlimit:10;" d="M 200.421125 9.639487 C 200.421125 10.737144 199.526594 11.631675 198.428938 11.631675 C 197.327375 11.631675 196.43675 10.737144 196.43675 9.639487 C 196.43675 8.537925 197.327375 7.643394 198.428938 7.643394 C 199.526594 7.643394 200.421125 8.537925 200.421125 9.639487 Z M 200.421125 9.639487 " transform="matrix(1,0,0,-1,3.407,27.3348)"/>
<path style="fill-rule:nonzero;fill:rgb(0%,0%,0%);fill-opacity:1;stroke-width:0.3985;stroke-linecap:butt;stroke-linejoin:miter;stroke:rgb(0%,0%,0%);stroke-opacity:1;stroke-miterlimit:10;" d="M 228.768781 9.639487 C 228.768781 10.737144 227.87425 11.631675 226.772688 11.631675 C 225.675031 11.631675 224.7805 10.737144 224.7805 9.639487 C 224.7805 8.537925 225.675031 7.643394 226.772688 7.643394 C 227.87425 7.643394 228.768781 8.537925 228.768781 9.639487 Z M 228.768781 9.639487 " transform="matrix(1,0,0,-1,3.407,27.3348)"/>
<path style="fill-rule:nonzero;fill:rgb(0%,0%,0%);fill-opacity:1;stroke-width:0.3985;stroke-linecap:butt;stroke-linejoin:miter;stroke:rgb(0%,0%,0%);stroke-opacity:1;stroke-miterlimit:10;" d="M 228.768781 -18.708169 C 228.768781 -17.606606 227.87425 -16.715981 226.772688 -16.715981 C 225.675031 -16.715981 224.7805 -17.606606 224.7805 -18.708169 C 224.7805 -19.809731 225.675031 -20.700356 226.772688 -20.700356 C 227.87425 -20.700356 228.768781 -19.809731 228.768781 -18.708169 Z M 228.768781 -18.708169 " transform="matrix(1,0,0,-1,3.407,27.3348)"/>
<path style="fill:none;stroke-width:0.3985;stroke-linecap:butt;stroke-linejoin:miter;stroke:rgb(0%,0%,0%);stroke-opacity:1;stroke-miterlimit:10;" d="M 198.428938 -18.708169 L 198.428938 9.639487 L 226.772688 9.639487 L 226.772688 -18.708169 Z M 198.428938 -18.708169 " transform="matrix(1,0,0,-1,3.407,27.3348)"/>
<path style="fill:none;stroke-width:0.3985;stroke-linecap:butt;stroke-linejoin:miter;stroke:rgb(0%,0%,0%);stroke-opacity:1;stroke-miterlimit:10;" d="M 198.428938 -18.708169 L 226.772688 9.639487 " transform="matrix(1,0,0,-1,3.407,27.3348)"/>
<path style="fill:none;stroke-width:0.3985;stroke-linecap:butt;stroke-linejoin:miter;stroke:rgb(0%,0%,0%);stroke-opacity:1;stroke-miterlimit:10;" d="M 226.772688 -18.708169 C 248.034406 30.8973 248.034406 30.8973 198.428938 9.639487 " transform="matrix(1,0,0,-1,3.407,27.3348)"/>
<path style="fill-rule:nonzero;fill:rgb(0%,0%,0%);fill-opacity:1;stroke-width:0.3985;stroke-linecap:butt;stroke-linejoin:miter;stroke:rgb(0%,0%,0%);stroke-opacity:1;stroke-miterlimit:10;" d="M 16.167219 -117.923013 C 16.167219 -116.82145 15.272688 -115.930825 14.175031 -115.930825 C 13.073469 -115.930825 12.178938 -116.82145 12.178938 -117.923013 C 12.178938 -119.024575 13.073469 -119.9152 14.175031 -119.9152 C 15.272688 -119.9152 16.167219 -119.024575 16.167219 -117.923013 Z M 16.167219 -117.923013 " transform="matrix(1,0,0,-1,3.407,27.3348)"/>
<path style="fill-rule:nonzero;fill:rgb(0%,0%,0%);fill-opacity:1;stroke-width:0.3985;stroke-linecap:butt;stroke-linejoin:miter;stroke:rgb(0%,0%,0%);stroke-opacity:1;stroke-miterlimit:10;" d="M 16.167219 -103.751138 C 16.167219 -102.649575 15.272688 -101.755044 14.175031 -101.755044 C 13.073469 -101.755044 12.178938 -102.649575 12.178938 -103.751138 C 12.178938 -104.848794 13.073469 -105.743325 14.175031 -105.743325 C 15.272688 -105.743325 16.167219 -104.848794 16.167219 -103.751138 Z M 16.167219 -103.751138 " transform="matrix(1,0,0,-1,3.407,27.3348)"/>
<path style="fill-rule:nonzero;fill:rgb(0%,0%,0%);fill-opacity:1;stroke-width:0.3985;stroke-linecap:butt;stroke-linejoin:miter;stroke:rgb(0%,0%,0%);stroke-opacity:1;stroke-miterlimit:10;" d="M 30.339094 -103.751138 C 30.339094 -102.649575 29.448469 -101.755044 28.346906 -101.755044 C 27.245344 -101.755044 26.354719 -102.649575 26.354719 -103.751138 C 26.354719 -104.848794 27.245344 -105.743325 28.346906 -105.743325 C 29.448469 -105.743325 30.339094 -104.848794 30.339094 -103.751138 Z M 30.339094 -103.751138 " transform="matrix(1,0,0,-1,3.407,27.3348)"/>
<path style="fill-rule:nonzero;fill:rgb(0%,0%,0%);fill-opacity:1;stroke-width:0.3985;stroke-linecap:butt;stroke-linejoin:miter;stroke:rgb(0%,0%,0%);stroke-opacity:1;stroke-miterlimit:10;" d="M 30.339094 -117.923013 C 30.339094 -116.82145 29.448469 -115.930825 28.346906 -115.930825 C 27.245344 -115.930825 26.354719 -116.82145 26.354719 -117.923013 C 26.354719 -119.024575 27.245344 -119.9152 28.346906 -119.9152 C 29.448469 -119.9152 30.339094 -119.024575 30.339094 -117.923013 Z M 30.339094 -117.923013 " transform="matrix(1,0,0,-1,3.407,27.3348)"/>
<path style=" stroke:none;fill-rule:nonzero;fill:rgb(0%,0%,0%);fill-opacity:1;" d="M 5.398438 159.429688 C 5.398438 158.332031 4.507812 157.4375 3.40625 157.4375 C 2.304688 157.4375 1.414062 158.332031 1.414062 159.429688 C 1.414062 160.53125 2.304688 161.421875 3.40625 161.421875 C 4.507812 161.421875 5.398438 160.53125 5.398438 159.429688 Z M 5.398438 159.429688 "/>
<g clip-path="url(#clip1)" clip-rule="nonzero">
<path style="fill:none;stroke-width:0.3985;stroke-linecap:butt;stroke-linejoin:miter;stroke:rgb(0%,0%,0%);stroke-opacity:1;stroke-miterlimit:10;" d="M 1.991438 -132.094888 C 1.991438 -130.997231 1.100813 -130.1027 -0.00075 -130.1027 C -1.102312 -130.1027 -1.992937 -130.997231 -1.992937 -132.094888 C -1.992937 -133.19645 -1.102312 -134.087075 -0.00075 -134.087075 C 1.100813 -134.087075 1.991438 -133.19645 1.991438 -132.094888 Z M 1.991438 -132.094888 " transform="matrix(1,0,0,-1,3.407,27.3348)"/>
</g>
<path style="fill-rule:nonzero;fill:rgb(0%,0%,0%);fill-opacity:1;stroke-width:0.3985;stroke-linecap:butt;stroke-linejoin:miter;stroke:rgb(0%,0%,0%);stroke-opacity:1;stroke-miterlimit:10;" d="M 1.991438 -89.575356 C 1.991438 -88.473794 1.100813 -87.583169 -0.00075 -87.583169 C -1.102312 -87.583169 -1.992937 -88.473794 -1.992937 -89.575356 C -1.992937 -90.676919 -1.102312 -91.567544 -0.00075 -91.567544 C 1.100813 -91.567544 1.991438 -90.676919 1.991438 -89.575356 Z M 1.991438 -89.575356 " transform="matrix(1,0,0,-1,3.407,27.3348)"/>
<path style="fill-rule:nonzero;fill:rgb(0%,0%,0%);fill-opacity:1;stroke-width:0.3985;stroke-linecap:butt;stroke-linejoin:miter;stroke:rgb(0%,0%,0%);stroke-opacity:1;stroke-miterlimit:10;" d="M 44.510969 -89.575356 C 44.510969 -88.473794 43.620344 -87.583169 42.518781 -87.583169 C 41.421125 -87.583169 40.526594 -88.473794 40.526594 -89.575356 C 40.526594 -90.676919 41.421125 -91.567544 42.518781 -91.567544 C 43.620344 -91.567544 44.510969 -90.676919 44.510969 -89.575356 Z M 44.510969 -89.575356 " transform="matrix(1,0,0,-1,3.407,27.3348)"/>
<path style=" stroke:none;fill-rule:nonzero;fill:rgb(0%,0%,0%);fill-opacity:1;" d="M 47.917969 159.429688 C 47.917969 158.332031 47.027344 157.4375 45.925781 157.4375 C 44.828125 157.4375 43.933594 158.332031 43.933594 159.429688 C 43.933594 160.53125 44.828125 161.421875 45.925781 161.421875 C 47.027344 161.421875 47.917969 160.53125 47.917969 159.429688 Z M 47.917969 159.429688 "/>
<g clip-path="url(#clip2)" clip-rule="nonzero">
<path style="fill:none;stroke-width:0.3985;stroke-linecap:butt;stroke-linejoin:miter;stroke:rgb(0%,0%,0%);stroke-opacity:1;stroke-miterlimit:10;" d="M 44.510969 -132.094888 C 44.510969 -130.997231 43.620344 -130.1027 42.518781 -130.1027 C 41.421125 -130.1027 40.526594 -130.997231 40.526594 -132.094888 C 40.526594 -133.19645 41.421125 -134.087075 42.518781 -134.087075 C 43.620344 -134.087075 44.510969 -133.19645 44.510969 -132.094888 Z M 44.510969 -132.094888 " transform="matrix(1,0,0,-1,3.407,27.3348)"/>
</g>
<path style="fill:none;stroke-width:0.3985;stroke-linecap:butt;stroke-linejoin:miter;stroke:rgb(0%,0%,0%);stroke-opacity:1;stroke-miterlimit:10;" d="M -0.00075 -132.094888 L -0.00075 -89.575356 L 42.518781 -89.575356 L 42.518781 -132.094888 Z M -0.00075 -132.094888 " transform="matrix(1,0,0,-1,3.407,27.3348)"/>
<path style="fill:none;stroke-width:0.3985;stroke-linecap:butt;stroke-linejoin:miter;stroke:rgb(0%,0%,0%);stroke-opacity:1;stroke-miterlimit:10;" d="M 14.175031 -117.923013 L 14.175031 -103.751138 L 28.346906 -103.751138 L 28.346906 -117.923013 Z M 14.175031 -117.923013 " transform="matrix(1,0,0,-1,3.407,27.3348)"/>
<g clip-path="url(#clip3)" clip-rule="nonzero">
<path style="fill:none;stroke-width:0.3985;stroke-linecap:butt;stroke-linejoin:miter;stroke:rgb(0%,0%,0%);stroke-opacity:1;stroke-miterlimit:10;" d="M -0.00075 -132.094888 L 14.175031 -117.923013 " transform="matrix(1,0,0,-1,3.407,27.3348)"/>
</g>
<g clip-path="url(#clip4)" clip-rule="nonzero">
<path style="fill:none;stroke-width:0.3985;stroke-linecap:butt;stroke-linejoin:miter;stroke:rgb(0%,0%,0%);stroke-opacity:1;stroke-miterlimit:10;" d="M 42.518781 -132.094888 L 28.346906 -117.923013 " transform="matrix(1,0,0,-1,3.407,27.3348)"/>
</g>
<path style="fill:none;stroke-width:0.3985;stroke-linecap:butt;stroke-linejoin:miter;stroke:rgb(0%,0%,0%);stroke-opacity:1;stroke-miterlimit:10;" d="M 42.518781 -89.575356 L 28.346906 -103.751138 " transform="matrix(1,0,0,-1,3.407,27.3348)"/>
<path style="fill:none;stroke-width:0.3985;stroke-linecap:butt;stroke-linejoin:miter;stroke:rgb(0%,0%,0%);stroke-opacity:1;stroke-miterlimit:10;" d="M -0.00075 -89.575356 L 14.175031 -103.751138 " transform="matrix(1,0,0,-1,3.407,27.3348)"/>
<path style=" stroke:none;fill-rule:nonzero;fill:rgb(0%,0%,0%);fill-opacity:1;" d="M 90.441406 159.429688 C 90.441406 158.332031 89.546875 157.4375 88.449219 157.4375 C 87.347656 157.4375 86.453125 158.332031 86.453125 159.429688 C 86.453125 160.53125 87.347656 161.421875 88.449219 161.421875 C 89.546875 161.421875 90.441406 160.53125 90.441406 159.429688 Z M 90.441406 159.429688 "/>
<g clip-path="url(#clip5)" clip-rule="nonzero">
<path style="fill:none;stroke-width:0.3985;stroke-linecap:butt;stroke-linejoin:miter;stroke:rgb(0%,0%,0%);stroke-opacity:1;stroke-miterlimit:10;" d="M 87.034406 -132.094888 C 87.034406 -130.997231 86.139875 -130.1027 85.042219 -130.1027 C 83.940656 -130.1027 83.046125 -130.997231 83.046125 -132.094888 C 83.046125 -133.19645 83.940656 -134.087075 85.042219 -134.087075 C 86.139875 -134.087075 87.034406 -133.19645 87.034406 -132.094888 Z M 87.034406 -132.094888 " transform="matrix(1,0,0,-1,3.407,27.3348)"/>
</g>
<path style="fill-rule:nonzero;fill:rgb(0%,0%,0%);fill-opacity:1;stroke-width:0.3985;stroke-linecap:butt;stroke-linejoin:miter;stroke:rgb(0%,0%,0%);stroke-opacity:1;stroke-miterlimit:10;" d="M 104.042219 -115.087075 C 104.042219 -113.989419 103.147688 -113.094888 102.050031 -113.094888 C 100.948469 -113.094888 100.057844 -113.989419 100.057844 -115.087075 C 100.057844 -116.188638 100.948469 -117.079263 102.050031 -117.079263 C 103.147688 -117.079263 104.042219 -116.188638 104.042219 -115.087075 Z M 104.042219 -115.087075 " transform="matrix(1,0,0,-1,3.407,27.3348)"/>
<path style="fill-rule:nonzero;fill:rgb(0%,0%,0%);fill-opacity:1;stroke-width:0.3985;stroke-linecap:butt;stroke-linejoin:miter;stroke:rgb(0%,0%,0%);stroke-opacity:1;stroke-miterlimit:10;" d="M 87.034406 -110.837075 C 87.034406 -109.735513 86.139875 -108.844888 85.042219 -108.844888 C 83.940656 -108.844888 83.046125 -109.735513 83.046125 -110.837075 C 83.046125 -111.934731 83.940656 -112.829263 85.042219 -112.829263 C 86.139875 -112.829263 87.034406 -111.934731 87.034406 -110.837075 Z M 87.034406 -110.837075 " transform="matrix(1,0,0,-1,3.407,27.3348)"/>
<path style=" stroke:none;fill-rule:nonzero;fill:rgb(0%,0%,0%);fill-opacity:1;" d="M 111.699219 159.429688 C 111.699219 158.332031 110.808594 157.4375 109.707031 157.4375 C 108.605469 157.4375 107.714844 158.332031 107.714844 159.429688 C 107.714844 160.53125 108.605469 161.421875 109.707031 161.421875 C 110.808594 161.421875 111.699219 160.53125 111.699219 159.429688 Z M 111.699219 159.429688 "/>
<g clip-path="url(#clip6)" clip-rule="nonzero">
<path style="fill:none;stroke-width:0.3985;stroke-linecap:butt;stroke-linejoin:miter;stroke:rgb(0%,0%,0%);stroke-opacity:1;stroke-miterlimit:10;" d="M 108.292219 -132.094888 C 108.292219 -130.997231 107.401594 -130.1027 106.300031 -130.1027 C 105.198469 -130.1027 104.307844 -130.997231 104.307844 -132.094888 C 104.307844 -133.19645 105.198469 -134.087075 106.300031 -134.087075 C 107.401594 -134.087075 108.292219 -133.19645 108.292219 -132.094888 Z M 108.292219 -132.094888 " transform="matrix(1,0,0,-1,3.407,27.3348)"/>
</g>
<path style="fill-rule:nonzero;fill:rgb(0%,0%,0%);fill-opacity:1;stroke-width:0.3985;stroke-linecap:butt;stroke-linejoin:miter;stroke:rgb(0%,0%,0%);stroke-opacity:1;stroke-miterlimit:10;" d="M 121.050031 -98.079263 C 121.050031 -96.981606 120.1555 -96.087075 119.057844 -96.087075 C 117.956281 -96.087075 117.065656 -96.981606 117.065656 -98.079263 C 117.065656 -99.180825 117.956281 -100.07145 119.057844 -100.07145 C 120.1555 -100.07145 121.050031 -99.180825 121.050031 -98.079263 Z M 121.050031 -98.079263 " transform="matrix(1,0,0,-1,3.407,27.3348)"/>
<path style="fill-rule:nonzero;fill:rgb(0%,0%,0%);fill-opacity:1;stroke-width:0.3985;stroke-linecap:butt;stroke-linejoin:miter;stroke:rgb(0%,0%,0%);stroke-opacity:1;stroke-miterlimit:10;" d="M 129.553938 -115.087075 C 129.553938 -113.989419 128.659406 -113.094888 127.56175 -113.094888 C 126.460188 -113.094888 125.569563 -113.989419 125.569563 -115.087075 C 125.569563 -116.188638 126.460188 -117.079263 127.56175 -117.079263 C 128.659406 -117.079263 129.553938 -116.188638 129.553938 -115.087075 Z M 129.553938 -115.087075 " transform="matrix(1,0,0,-1,3.407,27.3348)"/>
<path style=" stroke:none;fill-rule:nonzero;fill:rgb(0%,0%,0%);fill-opacity:1;" d="M 147.132812 159.429688 C 147.132812 158.332031 146.242188 157.4375 145.140625 157.4375 C 144.039062 157.4375 143.148438 158.332031 143.148438 159.429688 C 143.148438 160.53125 144.039062 161.421875 145.140625 161.421875 C 146.242188 161.421875 147.132812 160.53125 147.132812 159.429688 Z M 147.132812 159.429688 "/>
<g clip-path="url(#clip7)" clip-rule="nonzero">
<path style="fill:none;stroke-width:0.3985;stroke-linecap:butt;stroke-linejoin:miter;stroke:rgb(0%,0%,0%);stroke-opacity:1;stroke-miterlimit:10;" d="M 143.725813 -132.094888 C 143.725813 -130.997231 142.835188 -130.1027 141.733625 -130.1027 C 140.632063 -130.1027 139.741438 -130.997231 139.741438 -132.094888 C 139.741438 -133.19645 140.632063 -134.087075 141.733625 -134.087075 C 142.835188 -134.087075 143.725813 -133.19645 143.725813 -132.094888 Z M 143.725813 -132.094888 " transform="matrix(1,0,0,-1,3.407,27.3348)"/>
</g>
<path style="fill-rule:nonzero;fill:rgb(0%,0%,0%);fill-opacity:1;stroke-width:0.3985;stroke-linecap:butt;stroke-linejoin:miter;stroke:rgb(0%,0%,0%);stroke-opacity:1;stroke-miterlimit:10;" d="M 101.206281 -81.07145 C 101.206281 -79.969888 100.315656 -79.079263 99.214094 -79.079263 C 98.112531 -79.079263 97.221906 -79.969888 97.221906 -81.07145 C 97.221906 -82.173013 98.112531 -83.063638 99.214094 -83.063638 C 100.315656 -83.063638 101.206281 -82.173013 101.206281 -81.07145 Z M 101.206281 -81.07145 " transform="matrix(1,0,0,-1,3.407,27.3348)"/>
<path style="fill-rule:nonzero;fill:rgb(0%,0%,0%);fill-opacity:1;stroke-width:0.3985;stroke-linecap:butt;stroke-linejoin:miter;stroke:rgb(0%,0%,0%);stroke-opacity:1;stroke-miterlimit:10;" d="M 140.889875 -81.07145 C 140.889875 -79.969888 139.99925 -79.079263 138.897688 -79.079263 C 137.800031 -79.079263 136.9055 -79.969888 136.9055 -81.07145 C 136.9055 -82.173013 137.800031 -83.063638 138.897688 -83.063638 C 139.99925 -83.063638 140.889875 -82.173013 140.889875 -81.07145 Z M 140.889875 -81.07145 " transform="matrix(1,0,0,-1,3.407,27.3348)"/>
<g clip-path="url(#clip8)" clip-rule="nonzero">
<path style="fill:none;stroke-width:0.3985;stroke-linecap:butt;stroke-linejoin:miter;stroke:rgb(0%,0%,0%);stroke-opacity:1;stroke-miterlimit:10;" d="M 85.042219 -132.094888 L 102.050031 -115.087075 L 85.042219 -110.837075 " transform="matrix(1,0,0,-1,3.407,27.3348)"/>
</g>
<g clip-path="url(#clip9)" clip-rule="nonzero">
<path style="fill:none;stroke-width:0.3985;stroke-linecap:butt;stroke-linejoin:miter;stroke:rgb(0%,0%,0%);stroke-opacity:1;stroke-miterlimit:10;" d="M 106.300031 -132.094888 L 102.050031 -115.087075 L 119.057844 -98.079263 L 127.56175 -115.087075 L 141.733625 -132.094888 " transform="matrix(1,0,0,-1,3.407,27.3348)"/>
</g>
<path style="fill:none;stroke-width:0.3985;stroke-linecap:butt;stroke-linejoin:miter;stroke:rgb(0%,0%,0%);stroke-opacity:1;stroke-miterlimit:10;" d="M 99.214094 -81.07145 L 119.057844 -98.079263 L 138.897688 -81.07145 " transform="matrix(1,0,0,-1,3.407,27.3348)"/>
<path style=" stroke:none;fill-rule:nonzero;fill:rgb(0%,0%,0%);fill-opacity:1;" d="M 175.480469 159.429688 C 175.480469 158.332031 174.589844 157.4375 173.488281 157.4375 C 172.386719 157.4375 171.496094 158.332031 171.496094 159.429688 C 171.496094 160.53125 172.386719 161.421875 173.488281 161.421875 C 174.589844 161.421875 175.480469 160.53125 175.480469 159.429688 Z M 175.480469 159.429688 "/>
<g clip-path="url(#clip10)" clip-rule="nonzero">
<path style="fill:none;stroke-width:0.3985;stroke-linecap:butt;stroke-linejoin:miter;stroke:rgb(0%,0%,0%);stroke-opacity:1;stroke-miterlimit:10;" d="M 172.073469 -132.094888 C 172.073469 -130.997231 171.182844 -130.1027 170.081281 -130.1027 C 168.979719 -130.1027 168.089094 -130.997231 168.089094 -132.094888 C 168.089094 -133.19645 168.979719 -134.087075 170.081281 -134.087075 C 171.182844 -134.087075 172.073469 -133.19645 172.073469 -132.094888 Z M 172.073469 -132.094888 " transform="matrix(1,0,0,-1,3.407,27.3348)"/>
</g>
<path style=" stroke:none;fill-rule:nonzero;fill:rgb(0%,0%,0%);fill-opacity:1;" d="M 260.519531 159.429688 C 260.519531 158.332031 259.628906 157.4375 258.527344 157.4375 C 257.429688 157.4375 256.535156 158.332031 256.535156 159.429688 C 256.535156 160.53125 257.429688 161.421875 258.527344 161.421875 C 259.628906 161.421875 260.519531 160.53125 260.519531 159.429688 Z M 260.519531 159.429688 "/>
<g clip-path="url(#clip11)" clip-rule="nonzero">
<path style="fill:none;stroke-width:0.3985;stroke-linecap:butt;stroke-linejoin:miter;stroke:rgb(0%,0%,0%);stroke-opacity:1;stroke-miterlimit:10;" d="M 257.112531 -132.094888 C 257.112531 -130.997231 256.221906 -130.1027 255.120344 -130.1027 C 254.022688 -130.1027 253.128156 -130.997231 253.128156 -132.094888 C 253.128156 -133.19645 254.022688 -134.087075 255.120344 -134.087075 C 256.221906 -134.087075 257.112531 -133.19645 257.112531 -132.094888 Z M 257.112531 -132.094888 " transform="matrix(1,0,0,-1,3.407,27.3348)"/>
</g>
<path style="fill-rule:nonzero;fill:rgb(0%,0%,0%);fill-opacity:1;stroke-width:0.3985;stroke-linecap:butt;stroke-linejoin:miter;stroke:rgb(0%,0%,0%);stroke-opacity:1;stroke-miterlimit:10;" d="M 214.593 -69.731606 C 214.593 -68.63395 213.702375 -67.739419 212.600813 -67.739419 C 211.49925 -67.739419 210.608625 -68.63395 210.608625 -69.731606 C 210.608625 -70.833169 211.49925 -71.7277 212.600813 -71.7277 C 213.702375 -71.7277 214.593 -70.833169 214.593 -69.731606 Z M 214.593 -69.731606 " transform="matrix(1,0,0,-1,3.407,27.3348)"/>
<path style="fill-rule:nonzero;fill:rgb(0%,0%,0%);fill-opacity:1;stroke-width:0.3985;stroke-linecap:butt;stroke-linejoin:miter;stroke:rgb(0%,0%,0%);stroke-opacity:1;stroke-miterlimit:10;" d="M 186.245344 -117.923013 C 186.245344 -116.82145 185.354719 -115.930825 184.253156 -115.930825 C 183.1555 -115.930825 182.260969 -116.82145 182.260969 -117.923013 C 182.260969 -119.024575 183.1555 -119.9152 184.253156 -119.9152 C 185.354719 -119.9152 186.245344 -119.024575 186.245344 -117.923013 Z M 186.245344 -117.923013 " transform="matrix(1,0,0,-1,3.407,27.3348)"/>
<path style="fill-rule:nonzero;fill:rgb(0%,0%,0%);fill-opacity:1;stroke-width:0.3985;stroke-linecap:butt;stroke-linejoin:miter;stroke:rgb(0%,0%,0%);stroke-opacity:1;stroke-miterlimit:10;" d="M 214.593 -117.923013 C 214.593 -116.82145 213.702375 -115.930825 212.600813 -115.930825 C 211.49925 -115.930825 210.608625 -116.82145 210.608625 -117.923013 C 210.608625 -119.024575 211.49925 -119.9152 212.600813 -119.9152 C 213.702375 -119.9152 214.593 -119.024575 214.593 -117.923013 Z M 214.593 -117.923013 " transform="matrix(1,0,0,-1,3.407,27.3348)"/>
<path style="fill-rule:nonzero;fill:rgb(0%,0%,0%);fill-opacity:1;stroke-width:0.3985;stroke-linecap:butt;stroke-linejoin:miter;stroke:rgb(0%,0%,0%);stroke-opacity:1;stroke-miterlimit:10;" d="M 242.940656 -117.923013 C 242.940656 -116.82145 242.050031 -115.930825 240.948469 -115.930825 C 239.846906 -115.930825 238.956281 -116.82145 238.956281 -117.923013 C 238.956281 -119.024575 239.846906 -119.9152 240.948469 -119.9152 C 242.050031 -119.9152 242.940656 -119.024575 242.940656 -117.923013 Z M 242.940656 -117.923013 " transform="matrix(1,0,0,-1,3.407,27.3348)"/>
<path style="fill-rule:nonzero;fill:rgb(0%,0%,0%);fill-opacity:1;stroke-width:0.3985;stroke-linecap:butt;stroke-linejoin:miter;stroke:rgb(0%,0%,0%);stroke-opacity:1;stroke-miterlimit:10;" d="M 186.245344 -89.575356 C 186.245344 -88.473794 185.354719 -87.583169 184.253156 -87.583169 C 183.1555 -87.583169 182.260969 -88.473794 182.260969 -89.575356 C 182.260969 -90.676919 183.1555 -91.567544 184.253156 -91.567544 C 185.354719 -91.567544 186.245344 -90.676919 186.245344 -89.575356 Z M 186.245344 -89.575356 " transform="matrix(1,0,0,-1,3.407,27.3348)"/>
<path style="fill-rule:nonzero;fill:rgb(0%,0%,0%);fill-opacity:1;stroke-width:0.3985;stroke-linecap:butt;stroke-linejoin:miter;stroke:rgb(0%,0%,0%);stroke-opacity:1;stroke-miterlimit:10;" d="M 214.593 -89.575356 C 214.593 -88.473794 213.702375 -87.583169 212.600813 -87.583169 C 211.49925 -87.583169 210.608625 -88.473794 210.608625 -89.575356 C 210.608625 -90.676919 211.49925 -91.567544 212.600813 -91.567544 C 213.702375 -91.567544 214.593 -90.676919 214.593 -89.575356 Z M 214.593 -89.575356 " transform="matrix(1,0,0,-1,3.407,27.3348)"/>
<path style="fill-rule:nonzero;fill:rgb(0%,0%,0%);fill-opacity:1;stroke-width:0.3985;stroke-linecap:butt;stroke-linejoin:miter;stroke:rgb(0%,0%,0%);stroke-opacity:1;stroke-miterlimit:10;" d="M 242.940656 -89.575356 C 242.940656 -88.473794 242.050031 -87.583169 240.948469 -87.583169 C 239.846906 -87.583169 238.956281 -88.473794 238.956281 -89.575356 C 238.956281 -90.676919 239.846906 -91.567544 240.948469 -91.567544 C 242.050031 -91.567544 242.940656 -90.676919 242.940656 -89.575356 Z M 242.940656 -89.575356 " transform="matrix(1,0,0,-1,3.407,27.3348)"/>
<path style="fill:none;stroke-width:0.3985;stroke-linecap:butt;stroke-linejoin:miter;stroke:rgb(0%,0%,0%);stroke-opacity:1;stroke-miterlimit:10;" d="M 184.253156 -117.923013 L 184.253156 -89.575356 L 240.948469 -89.575356 L 240.948469 -117.923013 Z M 184.253156 -117.923013 " transform="matrix(1,0,0,-1,3.407,27.3348)"/>
<path style="fill:none;stroke-width:0.3985;stroke-linecap:butt;stroke-linejoin:miter;stroke:rgb(0%,0%,0%);stroke-opacity:1;stroke-miterlimit:10;" d="M 212.600813 -117.923013 L 212.600813 -69.731606 " transform="matrix(1,0,0,-1,3.407,27.3348)"/>
<g clip-path="url(#clip12)" clip-rule="nonzero">
<path style="fill:none;stroke-width:0.3985;stroke-linecap:butt;stroke-linejoin:miter;stroke:rgb(0%,0%,0%);stroke-opacity:1;stroke-miterlimit:10;" d="M 170.081281 -132.094888 L 184.253156 -117.923013 " transform="matrix(1,0,0,-1,3.407,27.3348)"/>
</g>
<g clip-path="url(#clip13)" clip-rule="nonzero">
<path style="fill:none;stroke-width:0.3985;stroke-linecap:butt;stroke-linejoin:miter;stroke:rgb(0%,0%,0%);stroke-opacity:1;stroke-miterlimit:10;" d="M 255.120344 -132.094888 L 240.948469 -117.923013 " transform="matrix(1,0,0,-1,3.407,27.3348)"/>
</g>
</g>
</svg>
