<?xml version="1.0" encoding="UTF-8"?>
<svg xmlns="http://www.w3.org/2000/svg" xmlns:xlink="http://www.w3.org/1999/xlink" width="286.16pt" height="59.0854pt" viewBox="0 0 286.16 59.0854" version="1.1">
<g id="surface1">
<path style="fill:none;stroke-width:0.3985;stroke-linecap:butt;stroke-linejoin:miter;stroke:rgb(0%,0%,0%);stroke-opacity:1;stroke-miterlimit:10;" d="M 0.0000625 0.00110875 L 56.695375 0.00110875 " transform="matrix(1,0,0,-1,1.414,57.92689)"/>
<path style="fill:none;stroke-width:0.3985;stroke-linecap:butt;stroke-linejoin:miter;stroke:rgb(0%,0%,0%);stroke-opacity:1;stroke-miterlimit:10;" d="M 0.0000625 0.00110875 L 0.0000625 56.692515 " transform="matrix(1,0,0,-1,1.414,57.92689)"/>
<path style="fill:none;stroke-width:0.3985;stroke-linecap:butt;stroke-linejoin:miter;stroke:rgb(0%,0%,0%);stroke-opacity:1;stroke-miterlimit:10;" d="M 0.0000625 14.172984 L 56.695375 14.172984 " transform="matrix(1,0,0,-1,1.414,57.92689)"/>
<path style="fill:none;stroke-width:0.3985;stroke-linecap:butt;stroke-linejoin:miter;stroke:rgb(0%,0%,0%);stroke-opacity:1;stroke-miterlimit:10;" d="M 14.171938 0.00110875 L 14.171938 56.692515 " transform="matrix(1,0,0,-1,1.414,57.92689)"/>
<path style="fill:none;stroke-width:0.3985;stroke-linecap:butt;stroke-linejoin:miter;stroke:rgb(0%,0%,0%);stroke-opacity:1;stroke-miterlimit:10;" d="M 0.0000625 28.344859 L 56.695375 28.344859 " transform="matrix(1,0,0,-1,1.414,57.92689)"/>
<path style="fill:none;stroke-width:0.3985;stroke-linecap:butt;stroke-linejoin:miter;stroke:rgb(0%,0%,0%);stroke-opacity:1;stroke-miterlimit:10;" d="M 28.347719 0.00110875 L 28.347719 56.692515 " transform="matrix(1,0,0,-1,1.414,57.92689)"/>
<path style="fill:none;stroke-width:0.3985;stroke-linecap:butt;stroke-linejoin:miter;stroke:rgb(0%,0%,0%);stroke-opacity:1;stroke-miterlimit:10;" d="M 0.0000625 42.52064 L 56.695375 42.52064 " transform="matrix(1,0,0,-1,1.414,57.92689)"/>
<path style="fill:none;stroke-width:0.3985;stroke-linecap:butt;stroke-linejoin:miter;stroke:rgb(0%,0%,0%);stroke-opacity:1;stroke-miterlimit:10;" d="M 42.519594 0.00110875 L 42.519594 56.692515 " transform="matrix(1,0,0,-1,1.414,57.92689)"/>
<path style="fill:none;stroke-width:0.3985;stroke-linecap:butt;stroke-linejoin:miter;stroke:rgb(0%,0%,0%);stroke-opacity:1;stroke-miterlimit:10;" d="M 0.0000625 56.692515 L 56.695375 56.692515 " transform="matrix(1,0,0,-1,1.414,57.92689)"/>
<path style="fill:none;stroke-width:0.3985;stroke-linecap:butt;stroke-linejoin:miter;stroke:rgb(0%,0%,0%);stroke-opacity:1;stroke-miterlimit:10;" d="M 56.695375 0.00110875 L 56.695375 56.692515 " transform="matrix(1,0,0,-1,1.414,57.92689)"/>
<path style=" stroke:none;fill-rule:nonzero;fill:rgb(0%,0%,0%);fill-opacity:1;" d="M 1.414062 57.925781 L 1.414062 43.753906 L 15.585938 43.753906 L 15.585938 57.925781 Z M 1.414062 57.925781 "/>
<path style="fill:none;stroke-width:1.59404;stroke-linecap:butt;stroke-linejoin:miter;stroke:rgb(0%,0%,100%);stroke-opacity:1;stroke-miterlimit:10;" d="M 7.086 21.258921 L 21.261781 21.258921 L 21.261781 7.087046 " transform="matrix(1,0,0,-1,1.414,57.92689)"/>
<path style="fill:none;stroke-width:1.59404;stroke-linecap:butt;stroke-linejoin:miter;stroke:rgb(0%,0%,100%);stroke-opacity:1;stroke-miterlimit:10;" d="M 21.261781 35.434703 L 35.433656 35.434703 L 35.433656 21.258921 " transform="matrix(1,0,0,-1,1.414,57.92689)"/>
<path style="fill:none;stroke-width:1.59404;stroke-linecap:butt;stroke-linejoin:miter;stroke:rgb(0%,0%,100%);stroke-opacity:1;stroke-miterlimit:10;" d="M 7.086 35.434703 L 7.086 49.606578 L 21.261781 49.606578 " transform="matrix(1,0,0,-1,1.414,57.92689)"/>
<path style="fill:none;stroke-width:1.59404;stroke-linecap:butt;stroke-linejoin:miter;stroke:rgb(0%,0%,100%);stroke-opacity:1;stroke-miterlimit:10;" d="M 35.433656 49.606578 L 49.605531 49.606578 L 49.605531 35.434703 " transform="matrix(1,0,0,-1,1.414,57.92689)"/>
<path style="fill:none;stroke-width:1.59404;stroke-linecap:butt;stroke-linejoin:miter;stroke:rgb(0%,0%,100%);stroke-opacity:1;stroke-miterlimit:10;" d="M 35.433656 7.087046 L 49.605531 7.087046 L 49.605531 21.258921 " transform="matrix(1,0,0,-1,1.414,57.92689)"/>
<path style="fill:none;stroke-width:0.3985;stroke-linecap:butt;stroke-linejoin:miter;stroke:rgb(0%,0%,0%);stroke-opacity:1;stroke-miterlimit:10;" d="M 113.386781 0.00110875 L 170.082094 0.00110875 " transform="matrix(1,0,0,-1,1.414,57.92689)"/>
<path style="fill:none;stroke-width:0.3985;stroke-linecap:butt;stroke-linejoin:miter;stroke:rgb(0%,0%,0%);stroke-opacity:1;stroke-miterlimit:10;" d="M 113.386781 0.00110875 L 113.386781 56.692515 " transform="matrix(1,0,0,-1,1.414,57.92689)"/>
<path style="fill:none;stroke-width:0.3985;stroke-linecap:butt;stroke-linejoin:miter;stroke:rgb(0%,0%,0%);stroke-opacity:1;stroke-miterlimit:10;" d="M 113.386781 14.172984 L 170.082094 14.172984 " transform="matrix(1,0,0,-1,1.414,57.92689)"/>
<path style="fill:none;stroke-width:0.3985;stroke-linecap:butt;stroke-linejoin:miter;stroke:rgb(0%,0%,0%);stroke-opacity:1;stroke-miterlimit:10;" d="M 127.562563 0.00110875 L 127.562563 56.692515 " transform="matrix(1,0,0,-1,1.414,57.92689)"/>
<path style="fill:none;stroke-width:0.3985;stroke-linecap:butt;stroke-linejoin:miter;stroke:rgb(0%,0%,0%);stroke-opacity:1;stroke-miterlimit:10;" d="M 113.386781 28.344859 L 170.082094 28.344859 " transform="matrix(1,0,0,-1,1.414,57.92689)"/>
<path style="fill:none;stroke-width:0.3985;stroke-linecap:butt;stroke-linejoin:miter;stroke:rgb(0%,0%,0%);stroke-opacity:1;stroke-miterlimit:10;" d="M 141.734438 0.00110875 L 141.734438 56.692515 " transform="matrix(1,0,0,-1,1.414,57.92689)"/>
<path style="fill:none;stroke-width:0.3985;stroke-linecap:butt;stroke-linejoin:miter;stroke:rgb(0%,0%,0%);stroke-opacity:1;stroke-miterlimit:10;" d="M 113.386781 42.52064 L 170.082094 42.52064 " transform="matrix(1,0,0,-1,1.414,57.92689)"/>
<path style="fill:none;stroke-width:0.3985;stroke-linecap:butt;stroke-linejoin:miter;stroke:rgb(0%,0%,0%);stroke-opacity:1;stroke-miterlimit:10;" d="M 155.906313 0.00110875 L 155.906313 56.692515 " transform="matrix(1,0,0,-1,1.414,57.92689)"/>
<path style="fill:none;stroke-width:0.3985;stroke-linecap:butt;stroke-linejoin:miter;stroke:rgb(0%,0%,0%);stroke-opacity:1;stroke-miterlimit:10;" d="M 113.386781 56.692515 L 170.082094 56.692515 " transform="matrix(1,0,0,-1,1.414,57.92689)"/>
<path style="fill:none;stroke-width:0.3985;stroke-linecap:butt;stroke-linejoin:miter;stroke:rgb(0%,0%,0%);stroke-opacity:1;stroke-miterlimit:10;" d="M 170.082094 0.00110875 L 170.082094 56.692515 " transform="matrix(1,0,0,-1,1.414,57.92689)"/>
<path style=" stroke:none;fill-rule:nonzero;fill:rgb(0%,0%,0%);fill-opacity:1;" d="M 143.148438 29.582031 L 157.320312 29.582031 L 157.320312 15.40625 L 143.148438 15.40625 Z M 143.148438 29.582031 "/>
<path style="fill:none;stroke-width:1.59404;stroke-linecap:butt;stroke-linejoin:miter;stroke:rgb(0%,0%,100%);stroke-opacity:1;stroke-miterlimit:10;" d="M 120.472719 21.258921 L 120.472719 7.087046 L 134.6485 7.087046 " transform="matrix(1,0,0,-1,1.414,57.92689)"/>
<path style="fill:none;stroke-width:1.59404;stroke-linecap:butt;stroke-linejoin:miter;stroke:rgb(0%,0%,100%);stroke-opacity:1;stroke-miterlimit:10;" d="M 134.6485 35.434703 L 134.6485 21.258921 L 148.820375 21.258921 " transform="matrix(1,0,0,-1,1.414,57.92689)"/>
<path style="fill:none;stroke-width:1.59404;stroke-linecap:butt;stroke-linejoin:miter;stroke:rgb(0%,0%,100%);stroke-opacity:1;stroke-miterlimit:10;" d="M 120.472719 35.434703 L 120.472719 49.606578 L 134.6485 49.606578 " transform="matrix(1,0,0,-1,1.414,57.92689)"/>
<path style="fill:none;stroke-width:1.59404;stroke-linecap:butt;stroke-linejoin:miter;stroke:rgb(0%,0%,100%);stroke-opacity:1;stroke-miterlimit:10;" d="M 148.820375 49.606578 L 162.99225 49.606578 L 162.99225 35.434703 " transform="matrix(1,0,0,-1,1.414,57.92689)"/>
<path style="fill:none;stroke-width:1.59404;stroke-linecap:butt;stroke-linejoin:miter;stroke:rgb(0%,0%,100%);stroke-opacity:1;stroke-miterlimit:10;" d="M 148.820375 7.087046 L 162.99225 7.087046 L 162.99225 21.258921 " transform="matrix(1,0,0,-1,1.414,57.92689)"/>
<path style="fill:none;stroke-width:0.3985;stroke-linecap:butt;stroke-linejoin:miter;stroke:rgb(0%,0%,0%);stroke-opacity:1;stroke-miterlimit:10;" d="M 226.7735 0.00110875 L 283.468813 0.00110875 " transform="matrix(1,0,0,-1,1.414,57.92689)"/>
<path style="fill:none;stroke-width:0.3985;stroke-linecap:butt;stroke-linejoin:miter;stroke:rgb(0%,0%,0%);stroke-opacity:1;stroke-miterlimit:10;" d="M 226.7735 0.00110875 L 226.7735 56.692515 " transform="matrix(1,0,0,-1,1.414,57.92689)"/>
<path style="fill:none;stroke-width:0.3985;stroke-linecap:butt;stroke-linejoin:miter;stroke:rgb(0%,0%,0%);stroke-opacity:1;stroke-miterlimit:10;" d="M 226.7735 14.172984 L 283.468813 14.172984 " transform="matrix(1,0,0,-1,1.414,57.92689)"/>
<path style="fill:none;stroke-width:0.3985;stroke-linecap:butt;stroke-linejoin:miter;stroke:rgb(0%,0%,0%);stroke-opacity:1;stroke-miterlimit:10;" d="M 240.949281 0.00110875 L 240.949281 56.692515 " transform="matrix(1,0,0,-1,1.414,57.92689)"/>
<path style="fill:none;stroke-width:0.3985;stroke-linecap:butt;stroke-linejoin:miter;stroke:rgb(0%,0%,0%);stroke-opacity:1;stroke-miterlimit:10;" d="M 226.7735 28.344859 L 283.468813 28.344859 " transform="matrix(1,0,0,-1,1.414,57.92689)"/>
<path style="fill:none;stroke-width:0.3985;stroke-linecap:butt;stroke-linejoin:miter;stroke:rgb(0%,0%,0%);stroke-opacity:1;stroke-miterlimit:10;" d="M 255.121156 0.00110875 L 255.121156 56.692515 " transform="matrix(1,0,0,-1,1.414,57.92689)"/>
<path style="fill:none;stroke-width:0.3985;stroke-linecap:butt;stroke-linejoin:miter;stroke:rgb(0%,0%,0%);stroke-opacity:1;stroke-miterlimit:10;" d="M 226.7735 42.52064 L 283.468813 42.52064 " transform="matrix(1,0,0,-1,1.414,57.92689)"/>
<path style="fill:none;stroke-width:0.3985;stroke-linecap:butt;stroke-linejoin:miter;stroke:rgb(0%,0%,0%);stroke-opacity:1;stroke-miterlimit:10;" d="M 269.293031 0.00110875 L 269.293031 56.692515 " transform="matrix(1,0,0,-1,1.414,57.92689)"/>
<path style="fill:none;stroke-width:0.3985;stroke-linecap:butt;stroke-linejoin:miter;stroke:rgb(0%,0%,0%);stroke-opacity:1;stroke-miterlimit:10;" d="M 226.7735 56.692515 L 283.468813 56.692515 " transform="matrix(1,0,0,-1,1.414,57.92689)"/>
<path style="fill:none;stroke-width:0.3985;stroke-linecap:butt;stroke-linejoin:miter;stroke:rgb(0%,0%,0%);stroke-opacity:1;stroke-miterlimit:10;" d="M 283.468813 0.00110875 L 283.468813 56.692515 " transform="matrix(1,0,0,-1,1.414,57.92689)"/>
<path style=" stroke:none;fill-rule:nonzero;fill:rgb(0%,0%,0%);fill-opacity:1;" d="M 242.363281 15.40625 L 242.363281 1.234375 L 256.535156 1.234375 L 256.535156 15.40625 Z M 242.363281 15.40625 "/>
<path style="fill:none;stroke-width:1.59404;stroke-linecap:butt;stroke-linejoin:miter;stroke:rgb(0%,0%,100%);stroke-opacity:1;stroke-miterlimit:10;" d="M 233.859438 21.258921 L 233.859438 7.087046 L 248.035219 7.087046 " transform="matrix(1,0,0,-1,1.414,57.92689)"/>
<path style="fill:none;stroke-width:1.59404;stroke-linecap:butt;stroke-linejoin:miter;stroke:rgb(0%,0%,100%);stroke-opacity:1;stroke-miterlimit:10;" d="M 248.035219 21.258921 L 262.207094 21.258921 L 262.207094 35.434703 " transform="matrix(1,0,0,-1,1.414,57.92689)"/>
<path style="fill:none;stroke-width:1.59404;stroke-linecap:butt;stroke-linejoin:miter;stroke:rgb(0%,0%,100%);stroke-opacity:1;stroke-miterlimit:10;" d="M 233.859438 49.606578 L 233.859438 35.434703 L 248.035219 35.434703 " transform="matrix(1,0,0,-1,1.414,57.92689)"/>
<path style="fill:none;stroke-width:1.59404;stroke-linecap:butt;stroke-linejoin:miter;stroke:rgb(0%,0%,100%);stroke-opacity:1;stroke-miterlimit:10;" d="M 262.207094 49.606578 L 276.382875 49.606578 L 276.382875 35.434703 " transform="matrix(1,0,0,-1,1.414,57.92689)"/>
<path style="fill:none;stroke-width:1.59404;stroke-linecap:butt;stroke-linejoin:miter;stroke:rgb(0%,0%,100%);stroke-opacity:1;stroke-miterlimit:10;" d="M 262.207094 7.087046 L 276.382875 7.087046 L 276.382875 21.258921 " transform="matrix(1,0,0,-1,1.414,57.92689)"/>
</g>
</svg>
