<?xml version="1.0" encoding="UTF-8"?>
<svg xmlns="http://www.w3.org/2000/svg" xmlns:xlink="http://www.w3.org/1999/xlink" width="286.16" height="59.12" viewBox="0 0 286.16 59.12">
<path fill="none" stroke-width="0.3985" stroke-linecap="butt" stroke-linejoin="miter" stroke="rgb(0%, 0%, 0%)" stroke-opacity="1" stroke-miterlimit="10" d="M 0.0000625 0.001375 L 56.695375 0.001375 " transform="matrix(1, 0, 0, -1, 1.414, 57.892)"/>
<path fill="none" stroke-width="0.3985" stroke-linecap="butt" stroke-linejoin="miter" stroke="rgb(0%, 0%, 0%)" stroke-opacity="1" stroke-miterlimit="10" d="M 0.0000625 0.001375 L 0.0000625 56.692781 " transform="matrix(1, 0, 0, -1, 1.414, 57.892)"/>
<path fill="none" stroke-width="0.3985" stroke-linecap="butt" stroke-linejoin="miter" stroke="rgb(0%, 0%, 0%)" stroke-opacity="1" stroke-miterlimit="10" d="M 0.0000625 14.17325 L 56.695375 14.17325 " transform="matrix(1, 0, 0, -1, 1.414, 57.892)"/>
<path fill="none" stroke-width="0.3985" stroke-linecap="butt" stroke-linejoin="miter" stroke="rgb(0%, 0%, 0%)" stroke-opacity="1" stroke-miterlimit="10" d="M 14.171938 0.001375 L 14.171938 56.692781 " transform="matrix(1, 0, 0, -1, 1.414, 57.892)"/>
<path fill="none" stroke-width="0.3985" stroke-linecap="butt" stroke-linejoin="miter" stroke="rgb(0%, 0%, 0%)" stroke-opacity="1" stroke-miterlimit="10" d="M 0.0000625 28.345125 L 56.695375 28.345125 " transform="matrix(1, 0, 0, -1, 1.414, 57.892)"/>
<path fill="none" stroke-width="0.3985" stroke-linecap="butt" stroke-linejoin="miter" stroke="rgb(0%, 0%, 0%)" stroke-opacity="1" stroke-miterlimit="10" d="M 28.347719 0.001375 L 28.347719 56.692781 " transform="matrix(1, 0, 0, -1, 1.414, 57.892)"/>
<path fill="none" stroke-width="0.3985" stroke-linecap="butt" stroke-linejoin="miter" stroke="rgb(0%, 0%, 0%)" stroke-opacity="1" stroke-miterlimit="10" d="M 0.0000625 42.520906 L 56.695375 42.520906 " transform="matrix(1, 0, 0, -1, 1.414, 57.892)"/>
<path fill="none" stroke-width="0.3985" stroke-linecap="butt" stroke-linejoin="miter" stroke="rgb(0%, 0%, 0%)" stroke-opacity="1" stroke-miterlimit="10" d="M 42.519594 0.001375 L 42.519594 56.692781 " transform="matrix(1, 0, 0, -1, 1.414, 57.892)"/>
<path fill="none" stroke-width="0.3985" stroke-linecap="butt" stroke-linejoin="miter" stroke="rgb(0%, 0%, 0%)" stroke-opacity="1" stroke-miterlimit="10" d="M 0.0000625 56.692781 L 56.695375 56.692781 " transform="matrix(1, 0, 0, -1, 1.414, 57.892)"/>
<path fill="none" stroke-width="0.3985" stroke-linecap="butt" stroke-linejoin="miter" stroke="rgb(0%, 0%, 0%)" stroke-opacity="1" stroke-miterlimit="10" d="M 56.695375 0.001375 L 56.695375 56.692781 " transform="matrix(1, 0, 0, -1, 1.414, 57.892)"/>
<path fill-rule="nonzero" fill="rgb(0%, 0%, 0%)" fill-opacity="1" d="M 1.414062 57.890625 L 1.414062 43.71875 L 15.585938 43.71875 L 15.585938 57.890625 Z M 1.414062 57.890625 "/>
<path fill="none" stroke-width="0.3985" stroke-linecap="butt" stroke-linejoin="miter" stroke="rgb(0%, 0%, 0%)" stroke-opacity="1" stroke-miterlimit="10" d="M 113.386781 0.001375 L 170.082094 0.001375 " transform="matrix(1, 0, 0, -1, 1.414, 57.892)"/>
<path fill="none" stroke-width="0.3985" stroke-linecap="butt" stroke-linejoin="miter" stroke="rgb(0%, 0%, 0%)" stroke-opacity="1" stroke-miterlimit="10" d="M 113.386781 0.001375 L 113.386781 56.692781 " transform="matrix(1, 0, 0, -1, 1.414, 57.892)"/>
<path fill="none" stroke-width="0.3985" stroke-linecap="butt" stroke-linejoin="miter" stroke="rgb(0%, 0%, 0%)" stroke-opacity="1" stroke-miterlimit="10" d="M 113.386781 14.17325 L 170.082094 14.17325 " transform="matrix(1, 0, 0, -1, 1.414, 57.892)"/>
<path fill="none" stroke-width="0.3985" stroke-linecap="butt" stroke-linejoin="miter" stroke="rgb(0%, 0%, 0%)" stroke-opacity="1" stroke-miterlimit="10" d="M 127.562563 0.001375 L 127.562563 56.692781 " transform="matrix(1, 0, 0, -1, 1.414, 57.892)"/>
<path fill="none" stroke-width="0.3985" stroke-linecap="butt" stroke-linejoin="miter" stroke="rgb(0%, 0%, 0%)" stroke-opacity="1" stroke-miterlimit="10" d="M 113.386781 28.345125 L 170.082094 28.345125 " transform="matrix(1, 0, 0, -1, 1.414, 57.892)"/>
<path fill="none" stroke-width="0.3985" stroke-linecap="butt" stroke-linejoin="miter" stroke="rgb(0%, 0%, 0%)" stroke-opacity="1" stroke-miterlimit="10" d="M 141.734438 0.001375 L 141.734438 56.692781 " transform="matrix(1, 0, 0, -1, 1.414, 57.892)"/>
<path fill="none" stroke-width="0.3985" stroke-linecap="butt" stroke-linejoin="miter" stroke="rgb(0%, 0%, 0%)" stroke-opacity="1" stroke-miterlimit="10" d="M 113.386781 42.520906 L 170.082094 42.520906 " transform="matrix(1, 0, 0, -1, 1.414, 57.892)"/>
<path fill="none" stroke-width="0.3985" stroke-linecap="butt" stroke-linejoin="miter" stroke="rgb(0%, 0%, 0%)" stroke-opacity="1" stroke-miterlimit="10" d="M 155.906313 0.001375 L 155.906313 56.692781 " transform="matrix(1, 0, 0, -1, 1.414, 57.892)"/>
<path fill="none" stroke-width="0.3985" stroke-linecap="butt" stroke-linejoin="miter" stroke="rgb(0%, 0%, 0%)" stroke-opacity="1" stroke-miterlimit="10" d="M 113.386781 56.692781 L 170.082094 56.692781 " transform="matrix(1, 0, 0, -1, 1.414, 57.892)"/>
<path fill="none" stroke-width="0.3985" stroke-linecap="butt" stroke-linejoin="miter" stroke="rgb(0%, 0%, 0%)" stroke-opacity="1" stroke-miterlimit="10" d="M 170.082094 0.001375 L 170.082094 56.692781 " transform="matrix(1, 0, 0, -1, 1.414, 57.892)"/>
<path fill-rule="nonzero" fill="rgb(0%, 0%, 0%)" fill-opacity="1" d="M 143.148438 29.546875 L 157.320312 29.546875 L 157.320312 15.371094 L 143.148438 15.371094 Z M 143.148438 29.546875 "/>
<path fill="none" stroke-width="0.3985" stroke-linecap="butt" stroke-linejoin="miter" stroke="rgb(0%, 0%, 0%)" stroke-opacity="1" stroke-miterlimit="10" d="M 226.7735 0.001375 L 283.468813 0.001375 " transform="matrix(1, 0, 0, -1, 1.414, 57.892)"/>
<path fill="none" stroke-width="0.3985" stroke-linecap="butt" stroke-linejoin="miter" stroke="rgb(0%, 0%, 0%)" stroke-opacity="1" stroke-miterlimit="10" d="M 226.7735 0.001375 L 226.7735 56.692781 " transform="matrix(1, 0, 0, -1, 1.414, 57.892)"/>
<path fill="none" stroke-width="0.3985" stroke-linecap="butt" stroke-linejoin="miter" stroke="rgb(0%, 0%, 0%)" stroke-opacity="1" stroke-miterlimit="10" d="M 226.7735 14.17325 L 283.468813 14.17325 " transform="matrix(1, 0, 0, -1, 1.414, 57.892)"/>
<path fill="none" stroke-width="0.3985" stroke-linecap="butt" stroke-linejoin="miter" stroke="rgb(0%, 0%, 0%)" stroke-opacity="1" stroke-miterlimit="10" d="M 240.949281 0.001375 L 240.949281 56.692781 " transform="matrix(1, 0, 0, -1, 1.414, 57.892)"/>
<path fill="none" stroke-width="0.3985" stroke-linecap="butt" stroke-linejoin="miter" stroke="rgb(0%, 0%, 0%)" stroke-opacity="1" stroke-miterlimit="10" d="M 226.7735 28.345125 L 283.468813 28.345125 " transform="matrix(1, 0, 0, -1, 1.414, 57.892)"/>
<path fill="none" stroke-width="0.3985" stroke-linecap="butt" stroke-linejoin="miter" stroke="rgb(0%, 0%, 0%)" stroke-opacity="1" stroke-miterlimit="10" d="M 255.121156 0.001375 L 255.121156 56.692781 " transform="matrix(1, 0, 0, -1, 1.414, 57.892)"/>
<path fill="none" stroke-width="0.3985" stroke-linecap="butt" stroke-linejoin="miter" stroke="rgb(0%, 0%, 0%)" stroke-opacity="1" stroke-miterlimit="10" d="M 226.7735 42.520906 L 283.468813 42.520906 " transform="matrix(1, 0, 0, -1, 1.414, 57.892)"/>
<path fill="none" stroke-width="0.3985" stroke-linecap="butt" stroke-linejoin="miter" stroke="rgb(0%, 0%, 0%)" stroke-opacity="1" stroke-miterlimit="10" d="M 269.293031 0.001375 L 269.293031 56.692781 " transform="matrix(1, 0, 0, -1, 1.414, 57.892)"/>
<path fill="none" stroke-width="0.3985" stroke-linecap="butt" stroke-linejoin="miter" stroke="rgb(0%, 0%, 0%)" stroke-opacity="1" stroke-miterlimit="10" d="M 226.7735 56.692781 L 283.468813 56.692781 " transform="matrix(1, 0, 0, -1, 1.414, 57.892)"/>
<path fill="none" stroke-width="0.3985" stroke-linecap="butt" stroke-linejoin="miter" stroke="rgb(0%, 0%, 0%)" stroke-opacity="1" stroke-miterlimit="10" d="M 283.468813 0.001375 L 283.468813 56.692781 " transform="matrix(1, 0, 0, -1, 1.414, 57.892)"/>
<path fill-rule="nonzero" fill="rgb(0%, 0%, 0%)" fill-opacity="1" d="M 242.363281 15.371094 L 242.363281 1.199219 L 256.535156 1.199219 L 256.535156 15.371094 Z M 242.363281 15.371094 "/>
</svg>
