<?xml version="1.0" encoding="UTF-8"?>
<svg xmlns="http://www.w3.org/2000/svg" xmlns:xlink="http://www.w3.org/1999/xlink" width="342.8pt" height="73.47668pt" viewBox="0 0 342.8 73.47668" version="1.1">
<g id="surface1">
<path style="fill:none;stroke-width:0.3985;stroke-linecap:butt;stroke-linejoin:miter;stroke:rgb(0%,0%,0%);stroke-opacity:1;stroke-miterlimit:10;" d="M 0.0000625 -0.001735 L 42.519594 -0.001735 " transform="matrix(1,0,0,-1,1.414,65.01389)"/>
<path style="fill:none;stroke-width:0.3985;stroke-linecap:butt;stroke-linejoin:miter;stroke:rgb(0%,0%,0%);stroke-opacity:1;stroke-miterlimit:10;" d="M 56.695375 -0.001735 L 141.734438 -0.001735 " transform="matrix(1,0,0,-1,1.414,65.01389)"/>
<path style="fill:none;stroke-width:0.3985;stroke-linecap:butt;stroke-linejoin:miter;stroke:rgb(0%,0%,0%);stroke-opacity:1;stroke-miterlimit:10;" d="M 0.0000625 14.174046 L 42.519594 14.174046 " transform="matrix(1,0,0,-1,1.414,65.01389)"/>
<path style="fill:none;stroke-width:0.3985;stroke-linecap:butt;stroke-linejoin:miter;stroke:rgb(0%,0%,0%);stroke-opacity:1;stroke-miterlimit:10;" d="M 56.695375 14.174046 L 141.734438 14.174046 " transform="matrix(1,0,0,-1,1.414,65.01389)"/>
<path style="fill:none;stroke-width:0.3985;stroke-linecap:butt;stroke-linejoin:miter;stroke:rgb(0%,0%,0%);stroke-opacity:1;stroke-miterlimit:10;" d="M 0.0000625 28.345921 L 42.519594 28.345921 " transform="matrix(1,0,0,-1,1.414,65.01389)"/>
<path style="fill:none;stroke-width:0.3985;stroke-linecap:butt;stroke-linejoin:miter;stroke:rgb(0%,0%,0%);stroke-opacity:1;stroke-miterlimit:10;" d="M 56.695375 28.345921 L 141.734438 28.345921 " transform="matrix(1,0,0,-1,1.414,65.01389)"/>
<path style="fill:none;stroke-width:0.3985;stroke-linecap:butt;stroke-linejoin:miter;stroke:rgb(0%,0%,0%);stroke-opacity:1;stroke-miterlimit:10;" d="M 0.0000625 42.521703 L 42.519594 42.521703 " transform="matrix(1,0,0,-1,1.414,65.01389)"/>
<path style="fill:none;stroke-width:0.3985;stroke-linecap:butt;stroke-linejoin:miter;stroke:rgb(0%,0%,0%);stroke-opacity:1;stroke-miterlimit:10;" d="M 56.695375 42.521703 L 141.734438 42.521703 " transform="matrix(1,0,0,-1,1.414,65.01389)"/>
<path style="fill:none;stroke-width:0.3985;stroke-linecap:butt;stroke-linejoin:miter;stroke:rgb(0%,0%,0%);stroke-opacity:1;stroke-miterlimit:10;" d="M 0.0000625 56.693578 L 42.519594 56.693578 " transform="matrix(1,0,0,-1,1.414,65.01389)"/>
<path style="fill:none;stroke-width:0.3985;stroke-linecap:butt;stroke-linejoin:miter;stroke:rgb(0%,0%,0%);stroke-opacity:1;stroke-miterlimit:10;" d="M 56.695375 56.693578 L 141.734438 56.693578 " transform="matrix(1,0,0,-1,1.414,65.01389)"/>
<path style="fill:none;stroke-width:0.3985;stroke-linecap:butt;stroke-linejoin:miter;stroke:rgb(0%,0%,0%);stroke-opacity:1;stroke-miterlimit:10;" d="M 0.0000625 -0.001735 L 0.0000625 56.693578 " transform="matrix(1,0,0,-1,1.414,65.01389)"/>
<path style="fill:none;stroke-width:0.3985;stroke-linecap:butt;stroke-linejoin:miter;stroke:rgb(0%,0%,0%);stroke-opacity:1;stroke-miterlimit:10;" d="M 14.171938 -0.001735 L 14.171938 56.693578 " transform="matrix(1,0,0,-1,1.414,65.01389)"/>
<path style="fill:none;stroke-width:0.3985;stroke-linecap:butt;stroke-linejoin:miter;stroke:rgb(0%,0%,0%);stroke-opacity:1;stroke-miterlimit:10;" d="M 28.347719 -0.001735 L 28.347719 56.693578 " transform="matrix(1,0,0,-1,1.414,65.01389)"/>
<path style="fill:none;stroke-width:0.3985;stroke-linecap:butt;stroke-linejoin:miter;stroke:rgb(0%,0%,0%);stroke-opacity:1;stroke-miterlimit:10;" d="M 42.519594 -0.001735 L 42.519594 56.693578 " transform="matrix(1,0,0,-1,1.414,65.01389)"/>
<path style="fill:none;stroke-width:0.3985;stroke-linecap:butt;stroke-linejoin:miter;stroke:rgb(0%,0%,0%);stroke-opacity:1;stroke-miterlimit:10;" d="M 56.695375 -0.001735 L 56.695375 56.693578 " transform="matrix(1,0,0,-1,1.414,65.01389)"/>
<path style="fill:none;stroke-width:0.3985;stroke-linecap:butt;stroke-linejoin:miter;stroke:rgb(0%,0%,0%);stroke-opacity:1;stroke-miterlimit:10;" d="M 70.86725 -0.001735 L 70.86725 56.693578 " transform="matrix(1,0,0,-1,1.414,65.01389)"/>
<path style="fill:none;stroke-width:0.3985;stroke-linecap:butt;stroke-linejoin:miter;stroke:rgb(0%,0%,0%);stroke-opacity:1;stroke-miterlimit:10;" d="M 85.039125 -0.001735 L 85.039125 56.693578 " transform="matrix(1,0,0,-1,1.414,65.01389)"/>
<path style="fill:none;stroke-width:0.3985;stroke-linecap:butt;stroke-linejoin:miter;stroke:rgb(0%,0%,0%);stroke-opacity:1;stroke-miterlimit:10;" d="M 99.214906 -0.001735 L 99.214906 56.693578 " transform="matrix(1,0,0,-1,1.414,65.01389)"/>
<path style="fill:none;stroke-width:0.3985;stroke-linecap:butt;stroke-linejoin:miter;stroke:rgb(0%,0%,0%);stroke-opacity:1;stroke-miterlimit:10;" d="M 113.386781 -0.001735 L 113.386781 56.693578 " transform="matrix(1,0,0,-1,1.414,65.01389)"/>
<path style="fill:none;stroke-width:0.3985;stroke-linecap:butt;stroke-linejoin:miter;stroke:rgb(0%,0%,0%);stroke-opacity:1;stroke-miterlimit:10;" d="M 127.562563 -0.001735 L 127.562563 56.693578 " transform="matrix(1,0,0,-1,1.414,65.01389)"/>
<path style="fill:none;stroke-width:0.3985;stroke-linecap:butt;stroke-linejoin:miter;stroke:rgb(0%,0%,0%);stroke-opacity:1;stroke-miterlimit:10;" d="M 141.734438 -0.001735 L 141.734438 56.693578 " transform="matrix(1,0,0,-1,1.414,65.01389)"/>
<path style="fill:none;stroke-width:0.3985;stroke-linecap:butt;stroke-linejoin:miter;stroke:rgb(0%,0%,0%);stroke-opacity:1;stroke-miterlimit:10;" d="M 212.601625 -7.087672 L 340.160219 -7.087672 " transform="matrix(1,0,0,-1,1.414,65.01389)"/>
<path style="fill:none;stroke-width:0.3985;stroke-linecap:butt;stroke-linejoin:miter;stroke:rgb(0%,0%,0%);stroke-opacity:1;stroke-miterlimit:10;" d="M 212.601625 7.088109 L 340.160219 7.088109 " transform="matrix(1,0,0,-1,1.414,65.01389)"/>
<path style="fill:none;stroke-width:0.3985;stroke-linecap:butt;stroke-linejoin:miter;stroke:rgb(0%,0%,0%);stroke-opacity:1;stroke-miterlimit:10;" d="M 212.601625 -7.087672 L 212.601625 7.088109 " transform="matrix(1,0,0,-1,1.414,65.01389)"/>
<path style="fill:none;stroke-width:0.3985;stroke-linecap:butt;stroke-linejoin:miter;stroke:rgb(0%,0%,0%);stroke-opacity:1;stroke-miterlimit:10;" d="M 212.601625 21.259984 L 212.601625 63.779515 " transform="matrix(1,0,0,-1,1.414,65.01389)"/>
<path style="fill:none;stroke-width:0.3985;stroke-linecap:butt;stroke-linejoin:miter;stroke:rgb(0%,0%,0%);stroke-opacity:1;stroke-miterlimit:10;" d="M 226.7735 -7.087672 L 226.7735 7.088109 " transform="matrix(1,0,0,-1,1.414,65.01389)"/>
<path style="fill:none;stroke-width:0.3985;stroke-linecap:butt;stroke-linejoin:miter;stroke:rgb(0%,0%,0%);stroke-opacity:1;stroke-miterlimit:10;" d="M 226.7735 21.259984 L 226.7735 63.779515 " transform="matrix(1,0,0,-1,1.414,65.01389)"/>
<path style="fill:none;stroke-width:0.3985;stroke-linecap:butt;stroke-linejoin:miter;stroke:rgb(0%,0%,0%);stroke-opacity:1;stroke-miterlimit:10;" d="M 240.949281 -7.087672 L 240.949281 7.088109 " transform="matrix(1,0,0,-1,1.414,65.01389)"/>
<path style="fill:none;stroke-width:0.3985;stroke-linecap:butt;stroke-linejoin:miter;stroke:rgb(0%,0%,0%);stroke-opacity:1;stroke-miterlimit:10;" d="M 240.949281 21.259984 L 240.949281 63.779515 " transform="matrix(1,0,0,-1,1.414,65.01389)"/>
<path style="fill:none;stroke-width:0.3985;stroke-linecap:butt;stroke-linejoin:miter;stroke:rgb(0%,0%,0%);stroke-opacity:1;stroke-miterlimit:10;" d="M 255.121156 -7.087672 L 255.121156 7.088109 " transform="matrix(1,0,0,-1,1.414,65.01389)"/>
<path style="fill:none;stroke-width:0.3985;stroke-linecap:butt;stroke-linejoin:miter;stroke:rgb(0%,0%,0%);stroke-opacity:1;stroke-miterlimit:10;" d="M 255.121156 21.259984 L 255.121156 63.779515 " transform="matrix(1,0,0,-1,1.414,65.01389)"/>
<path style="fill:none;stroke-width:0.3985;stroke-linecap:butt;stroke-linejoin:miter;stroke:rgb(0%,0%,0%);stroke-opacity:1;stroke-miterlimit:10;" d="M 269.293031 -7.087672 L 269.293031 7.088109 " transform="matrix(1,0,0,-1,1.414,65.01389)"/>
<path style="fill:none;stroke-width:0.3985;stroke-linecap:butt;stroke-linejoin:miter;stroke:rgb(0%,0%,0%);stroke-opacity:1;stroke-miterlimit:10;" d="M 269.293031 21.259984 L 269.293031 63.779515 " transform="matrix(1,0,0,-1,1.414,65.01389)"/>
<path style="fill:none;stroke-width:0.3985;stroke-linecap:butt;stroke-linejoin:miter;stroke:rgb(0%,0%,0%);stroke-opacity:1;stroke-miterlimit:10;" d="M 283.468813 -7.087672 L 283.468813 7.088109 " transform="matrix(1,0,0,-1,1.414,65.01389)"/>
<path style="fill:none;stroke-width:0.3985;stroke-linecap:butt;stroke-linejoin:miter;stroke:rgb(0%,0%,0%);stroke-opacity:1;stroke-miterlimit:10;" d="M 283.468813 21.259984 L 283.468813 63.779515 " transform="matrix(1,0,0,-1,1.414,65.01389)"/>
<path style="fill:none;stroke-width:0.3985;stroke-linecap:butt;stroke-linejoin:miter;stroke:rgb(0%,0%,0%);stroke-opacity:1;stroke-miterlimit:10;" d="M 297.640688 -7.087672 L 297.640688 7.088109 " transform="matrix(1,0,0,-1,1.414,65.01389)"/>
<path style="fill:none;stroke-width:0.3985;stroke-linecap:butt;stroke-linejoin:miter;stroke:rgb(0%,0%,0%);stroke-opacity:1;stroke-miterlimit:10;" d="M 297.640688 21.259984 L 297.640688 63.779515 " transform="matrix(1,0,0,-1,1.414,65.01389)"/>
<path style="fill:none;stroke-width:0.3985;stroke-linecap:butt;stroke-linejoin:miter;stroke:rgb(0%,0%,0%);stroke-opacity:1;stroke-miterlimit:10;" d="M 311.816469 -7.087672 L 311.816469 7.088109 " transform="matrix(1,0,0,-1,1.414,65.01389)"/>
<path style="fill:none;stroke-width:0.3985;stroke-linecap:butt;stroke-linejoin:miter;stroke:rgb(0%,0%,0%);stroke-opacity:1;stroke-miterlimit:10;" d="M 311.816469 21.259984 L 311.816469 63.779515 " transform="matrix(1,0,0,-1,1.414,65.01389)"/>
<path style="fill:none;stroke-width:0.3985;stroke-linecap:butt;stroke-linejoin:miter;stroke:rgb(0%,0%,0%);stroke-opacity:1;stroke-miterlimit:10;" d="M 325.988344 -7.087672 L 325.988344 7.088109 " transform="matrix(1,0,0,-1,1.414,65.01389)"/>
<path style="fill:none;stroke-width:0.3985;stroke-linecap:butt;stroke-linejoin:miter;stroke:rgb(0%,0%,0%);stroke-opacity:1;stroke-miterlimit:10;" d="M 325.988344 21.259984 L 325.988344 63.779515 " transform="matrix(1,0,0,-1,1.414,65.01389)"/>
<path style="fill:none;stroke-width:0.3985;stroke-linecap:butt;stroke-linejoin:miter;stroke:rgb(0%,0%,0%);stroke-opacity:1;stroke-miterlimit:10;" d="M 340.160219 -7.087672 L 340.160219 7.088109 " transform="matrix(1,0,0,-1,1.414,65.01389)"/>
<path style="fill:none;stroke-width:0.3985;stroke-linecap:butt;stroke-linejoin:miter;stroke:rgb(0%,0%,0%);stroke-opacity:1;stroke-miterlimit:10;" d="M 340.160219 21.259984 L 340.160219 63.779515 " transform="matrix(1,0,0,-1,1.414,65.01389)"/>
<path style="fill:none;stroke-width:0.3985;stroke-linecap:butt;stroke-linejoin:miter;stroke:rgb(0%,0%,0%);stroke-opacity:1;stroke-miterlimit:10;" d="M 212.601625 21.259984 L 340.160219 21.259984 " transform="matrix(1,0,0,-1,1.414,65.01389)"/>
<path style="fill:none;stroke-width:0.3985;stroke-linecap:butt;stroke-linejoin:miter;stroke:rgb(0%,0%,0%);stroke-opacity:1;stroke-miterlimit:10;" d="M 212.601625 35.431859 L 340.160219 35.431859 " transform="matrix(1,0,0,-1,1.414,65.01389)"/>
<path style="fill:none;stroke-width:0.3985;stroke-linecap:butt;stroke-linejoin:miter;stroke:rgb(0%,0%,0%);stroke-opacity:1;stroke-miterlimit:10;" d="M 212.601625 49.60764 L 340.160219 49.60764 " transform="matrix(1,0,0,-1,1.414,65.01389)"/>
<path style="fill:none;stroke-width:0.3985;stroke-linecap:butt;stroke-linejoin:miter;stroke:rgb(0%,0%,0%);stroke-opacity:1;stroke-miterlimit:10;" d="M 212.601625 63.779515 L 340.160219 63.779515 " transform="matrix(1,0,0,-1,1.414,65.01389)"/>
</g>
</svg>
