<?xml version="1.0" encoding="UTF-8"?>
<svg xmlns="http://www.w3.org/2000/svg" xmlns:xlink="http://www.w3.org/1999/xlink" width="104.72" height="20.24" viewBox="0 0 104.72 20.24">
<defs>
<clipPath id="clip-0">
<path clip-rule="nonzero" d="M 0 10 L 10 10 L 10 20.238281 L 0 20.238281 Z M 0 10 "/>
</clipPath>
<clipPath id="clip-1">
<path clip-rule="nonzero" d="M 9 10 L 24 10 L 24 20.238281 L 9 20.238281 Z M 9 10 "/>
</clipPath>
<clipPath id="clip-2">
<path clip-rule="nonzero" d="M 94 0 L 104.71875 0 L 104.71875 11 L 94 11 Z M 94 0 "/>
</clipPath>
<clipPath id="clip-3">
<path clip-rule="nonzero" d="M 94 0 L 104.71875 0 L 104.71875 11 L 94 11 Z M 94 0 "/>
</clipPath>
<clipPath id="clip-4">
<path clip-rule="nonzero" d="M 94 0 L 104.71875 0 L 104.71875 11 L 94 11 Z M 94 0 "/>
</clipPath>
<clipPath id="clip-5">
<path clip-rule="nonzero" d="M 38 10 L 53 10 L 53 20.238281 L 38 20.238281 Z M 38 10 "/>
</clipPath>
<clipPath id="clip-6">
<path clip-rule="nonzero" d="M 94 10 L 104.71875 10 L 104.71875 20.238281 L 94 20.238281 Z M 94 10 "/>
</clipPath>
<clipPath id="clip-7">
<path clip-rule="nonzero" d="M 52 10 L 67 10 L 67 20.238281 L 52 20.238281 Z M 52 10 "/>
</clipPath>
<clipPath id="clip-8">
<path clip-rule="nonzero" d="M 94 10 L 104.71875 10 L 104.71875 20.238281 L 94 20.238281 Z M 94 10 "/>
</clipPath>
<clipPath id="clip-9">
<path clip-rule="nonzero" d="M 66 10 L 81 10 L 81 20.238281 L 66 20.238281 Z M 66 10 "/>
</clipPath>
<clipPath id="clip-10">
<path clip-rule="nonzero" d="M 94 10 L 104.71875 10 L 104.71875 20.238281 L 94 20.238281 Z M 94 10 "/>
</clipPath>
<clipPath id="clip-11">
<path clip-rule="nonzero" d="M 80 10 L 95 10 L 95 20.238281 L 80 20.238281 Z M 80 10 "/>
</clipPath>
<clipPath id="clip-12">
<path clip-rule="nonzero" d="M 94 10 L 104.71875 10 L 104.71875 20.238281 L 94 20.238281 Z M 94 10 "/>
</clipPath>
</defs>
<path fill="none" stroke-width="0.79701" stroke-linecap="butt" stroke-linejoin="miter" stroke="rgb(0%, 0%, 0%)" stroke-opacity="1" stroke-miterlimit="10" d="M 0.0015 -14.173281 L 14.173375 -14.173281 " transform="matrix(1, 0, 0, -1, 2.686, 3.065)"/>
<path fill-rule="nonzero" fill="rgb(0%, 0%, 0%)" fill-opacity="1" d="M 4.179688 17.238281 C 4.179688 16.414062 3.511719 15.742188 2.6875 15.742188 C 1.859375 15.742188 1.191406 16.414062 1.191406 17.238281 C 1.191406 18.0625 1.859375 18.734375 2.6875 18.734375 C 3.511719 18.734375 4.179688 18.0625 4.179688 17.238281 Z M 4.179688 17.238281 "/>
<g clip-path="url(#clip-0)">
<path fill="none" stroke-width="0.3985" stroke-linecap="butt" stroke-linejoin="miter" stroke="rgb(0%, 0%, 0%)" stroke-opacity="1" stroke-miterlimit="10" d="M 1.493688 -14.173281 C 1.493688 -13.349062 0.825719 -12.677187 0.0015 -12.677187 C -0.826625 -12.677187 -1.494594 -13.349062 -1.494594 -14.173281 C -1.494594 -14.9975 -0.826625 -15.669375 0.0015 -15.669375 C 0.825719 -15.669375 1.493688 -14.9975 1.493688 -14.173281 Z M 1.493688 -14.173281 " transform="matrix(1, 0, 0, -1, 2.686, 3.065)"/>
</g>
<path fill-rule="nonzero" fill="rgb(0%, 0%, 0%)" fill-opacity="1" d="M 18.355469 17.238281 C 18.355469 16.414062 17.683594 15.742188 16.859375 15.742188 C 16.035156 15.742188 15.363281 16.414062 15.363281 17.238281 C 15.363281 18.0625 16.035156 18.734375 16.859375 18.734375 C 17.683594 18.734375 18.355469 18.0625 18.355469 17.238281 Z M 18.355469 17.238281 "/>
<g clip-path="url(#clip-1)">
<path fill="none" stroke-width="0.3985" stroke-linecap="butt" stroke-linejoin="miter" stroke="rgb(0%, 0%, 0%)" stroke-opacity="1" stroke-miterlimit="10" d="M 15.669469 -14.173281 C 15.669469 -13.349062 14.997594 -12.677187 14.173375 -12.677187 C 13.349156 -12.677187 12.677281 -13.349062 12.677281 -14.173281 C 12.677281 -14.9975 13.349156 -15.669375 14.173375 -15.669375 C 14.997594 -15.669375 15.669469 -14.9975 15.669469 -14.173281 Z M 15.669469 -14.173281 " transform="matrix(1, 0, 0, -1, 2.686, 3.065)"/>
</g>
<path fill="none" stroke-width="0.79701" stroke-linecap="butt" stroke-linejoin="miter" stroke="rgb(0%, 0%, 0%)" stroke-opacity="1" stroke-miterlimit="10" d="M 0.0015 -0.00140625 L 14.173375 -0.00140625 " transform="matrix(1, 0, 0, -1, 2.686, 3.065)"/>
<path fill-rule="nonzero" fill="rgb(0%, 0%, 0%)" fill-opacity="1" stroke-width="0.3985" stroke-linecap="butt" stroke-linejoin="miter" stroke="rgb(0%, 0%, 0%)" stroke-opacity="1" stroke-miterlimit="10" d="M 1.493688 -0.00140625 C 1.493688 0.826719 0.825719 1.494688 0.0015 1.494688 C -0.826625 1.494688 -1.494594 0.826719 -1.494594 -0.00140625 C -1.494594 -0.825625 -0.826625 -1.493594 0.0015 -1.493594 C 0.825719 -1.493594 1.493688 -0.825625 1.493688 -0.00140625 Z M 1.493688 -0.00140625 " transform="matrix(1, 0, 0, -1, 2.686, 3.065)"/>
<path fill-rule="nonzero" fill="rgb(0%, 0%, 0%)" fill-opacity="1" stroke-width="0.3985" stroke-linecap="butt" stroke-linejoin="miter" stroke="rgb(0%, 0%, 0%)" stroke-opacity="1" stroke-miterlimit="10" d="M 29.841344 -0.00140625 C 29.841344 0.826719 29.173375 1.494688 28.34525 1.494688 C 27.521031 1.494688 26.853063 0.826719 26.853063 -0.00140625 C 26.853063 -0.825625 27.521031 -1.493594 28.34525 -1.493594 C 29.173375 -1.493594 29.841344 -0.825625 29.841344 -0.00140625 Z M 29.841344 -0.00140625 " transform="matrix(1, 0, 0, -1, 2.686, 3.065)"/>
<path fill="none" stroke-width="0.79701" stroke-linecap="butt" stroke-linejoin="miter" stroke="rgb(0%, 0%, 0%)" stroke-opacity="1" stroke-miterlimit="10" d="M 14.173375 -0.00140625 L 28.34525 -0.00140625 " transform="matrix(1, 0, 0, -1, 2.686, 3.065)"/>
<path fill-rule="nonzero" fill="rgb(0%, 0%, 0%)" fill-opacity="1" stroke-width="0.3985" stroke-linecap="butt" stroke-linejoin="miter" stroke="rgb(0%, 0%, 0%)" stroke-opacity="1" stroke-miterlimit="10" d="M 15.669469 -0.00140625 C 15.669469 0.826719 14.997594 1.494688 14.173375 1.494688 C 13.349156 1.494688 12.677281 0.826719 12.677281 -0.00140625 C 12.677281 -0.825625 13.349156 -1.493594 14.173375 -1.493594 C 14.997594 -1.493594 15.669469 -0.825625 15.669469 -0.00140625 Z M 15.669469 -0.00140625 " transform="matrix(1, 0, 0, -1, 2.686, 3.065)"/>
<path fill-rule="nonzero" fill="rgb(0%, 0%, 0%)" fill-opacity="1" stroke-width="0.3985" stroke-linecap="butt" stroke-linejoin="miter" stroke="rgb(0%, 0%, 0%)" stroke-opacity="1" stroke-miterlimit="10" d="M 29.841344 -0.00140625 C 29.841344 0.826719 29.173375 1.494688 28.34525 1.494688 C 27.521031 1.494688 26.853063 0.826719 26.853063 -0.00140625 C 26.853063 -0.825625 27.521031 -1.493594 28.34525 -1.493594 C 29.173375 -1.493594 29.841344 -0.825625 29.841344 -0.00140625 Z M 29.841344 -0.00140625 " transform="matrix(1, 0, 0, -1, 2.686, 3.065)"/>
<path fill="none" stroke-width="0.79701" stroke-linecap="butt" stroke-linejoin="miter" stroke="rgb(0%, 0%, 0%)" stroke-opacity="1" stroke-miterlimit="10" d="M 56.692906 -0.00140625 L 70.868688 -0.00140625 " transform="matrix(1, 0, 0, -1, 2.686, 3.065)"/>
<path fill-rule="nonzero" fill="rgb(0%, 0%, 0%)" fill-opacity="1" stroke-width="0.3985" stroke-linecap="butt" stroke-linejoin="miter" stroke="rgb(0%, 0%, 0%)" stroke-opacity="1" stroke-miterlimit="10" d="M 58.189 -0.00140625 C 58.189 0.826719 57.517125 1.494688 56.692906 1.494688 C 55.868688 1.494688 55.200719 0.826719 55.200719 -0.00140625 C 55.200719 -0.825625 55.868688 -1.493594 56.692906 -1.493594 C 57.517125 -1.493594 58.189 -0.825625 58.189 -0.00140625 Z M 58.189 -0.00140625 " transform="matrix(1, 0, 0, -1, 2.686, 3.065)"/>
<path fill-rule="nonzero" fill="rgb(0%, 0%, 0%)" fill-opacity="1" d="M 103.394531 3.066406 C 103.394531 2.238281 102.726562 1.570312 101.898438 1.570312 C 101.074219 1.570312 100.40625 2.238281 100.40625 3.066406 C 100.40625 3.890625 101.074219 4.558594 101.898438 4.558594 C 102.726562 4.558594 103.394531 3.890625 103.394531 3.066406 Z M 103.394531 3.066406 "/>
<g clip-path="url(#clip-2)">
<path fill="none" stroke-width="0.3985" stroke-linecap="butt" stroke-linejoin="miter" stroke="rgb(0%, 0%, 0%)" stroke-opacity="1" stroke-miterlimit="10" d="M 100.708531 -0.00140625 C 100.708531 0.826719 100.040563 1.494688 99.212438 1.494688 C 98.388219 1.494688 97.72025 0.826719 97.72025 -0.00140625 C 97.72025 -0.825625 98.388219 -1.493594 99.212438 -1.493594 C 100.040563 -1.493594 100.708531 -0.825625 100.708531 -0.00140625 Z M 100.708531 -0.00140625 " transform="matrix(1, 0, 0, -1, 2.686, 3.065)"/>
</g>
<path fill="none" stroke-width="0.79701" stroke-linecap="butt" stroke-linejoin="miter" stroke="rgb(0%, 0%, 0%)" stroke-opacity="1" stroke-miterlimit="10" d="M 70.868688 -0.00140625 L 85.040563 -0.00140625 " transform="matrix(1, 0, 0, -1, 2.686, 3.065)"/>
<path fill-rule="nonzero" fill="rgb(0%, 0%, 0%)" fill-opacity="1" stroke-width="0.3985" stroke-linecap="butt" stroke-linejoin="miter" stroke="rgb(0%, 0%, 0%)" stroke-opacity="1" stroke-miterlimit="10" d="M 72.360875 -0.00140625 C 72.360875 0.826719 71.692906 1.494688 70.868688 1.494688 C 70.040563 1.494688 69.372594 0.826719 69.372594 -0.00140625 C 69.372594 -0.825625 70.040563 -1.493594 70.868688 -1.493594 C 71.692906 -1.493594 72.360875 -0.825625 72.360875 -0.00140625 Z M 72.360875 -0.00140625 " transform="matrix(1, 0, 0, -1, 2.686, 3.065)"/>
<path fill-rule="nonzero" fill="rgb(0%, 0%, 0%)" fill-opacity="1" d="M 103.394531 3.066406 C 103.394531 2.238281 102.726562 1.570312 101.898438 1.570312 C 101.074219 1.570312 100.40625 2.238281 100.40625 3.066406 C 100.40625 3.890625 101.074219 4.558594 101.898438 4.558594 C 102.726562 4.558594 103.394531 3.890625 103.394531 3.066406 Z M 103.394531 3.066406 "/>
<g clip-path="url(#clip-3)">
<path fill="none" stroke-width="0.3985" stroke-linecap="butt" stroke-linejoin="miter" stroke="rgb(0%, 0%, 0%)" stroke-opacity="1" stroke-miterlimit="10" d="M 100.708531 -0.00140625 C 100.708531 0.826719 100.040563 1.494688 99.212438 1.494688 C 98.388219 1.494688 97.72025 0.826719 97.72025 -0.00140625 C 97.72025 -0.825625 98.388219 -1.493594 99.212438 -1.493594 C 100.040563 -1.493594 100.708531 -0.825625 100.708531 -0.00140625 Z M 100.708531 -0.00140625 " transform="matrix(1, 0, 0, -1, 2.686, 3.065)"/>
</g>
<path fill="none" stroke-width="0.79701" stroke-linecap="butt" stroke-linejoin="miter" stroke="rgb(0%, 0%, 0%)" stroke-opacity="1" stroke-miterlimit="10" d="M 85.040563 -0.00140625 L 99.212438 -0.00140625 " transform="matrix(1, 0, 0, -1, 2.686, 3.065)"/>
<path fill-rule="nonzero" fill="rgb(0%, 0%, 0%)" fill-opacity="1" stroke-width="0.3985" stroke-linecap="butt" stroke-linejoin="miter" stroke="rgb(0%, 0%, 0%)" stroke-opacity="1" stroke-miterlimit="10" d="M 86.536656 -0.00140625 C 86.536656 0.826719 85.864781 1.494688 85.040563 1.494688 C 84.216344 1.494688 83.544469 0.826719 83.544469 -0.00140625 C 83.544469 -0.825625 84.216344 -1.493594 85.040563 -1.493594 C 85.864781 -1.493594 86.536656 -0.825625 86.536656 -0.00140625 Z M 86.536656 -0.00140625 " transform="matrix(1, 0, 0, -1, 2.686, 3.065)"/>
<path fill-rule="nonzero" fill="rgb(0%, 0%, 0%)" fill-opacity="1" d="M 103.394531 3.066406 C 103.394531 2.238281 102.726562 1.570312 101.898438 1.570312 C 101.074219 1.570312 100.40625 2.238281 100.40625 3.066406 C 100.40625 3.890625 101.074219 4.558594 101.898438 4.558594 C 102.726562 4.558594 103.394531 3.890625 103.394531 3.066406 Z M 103.394531 3.066406 "/>
<g clip-path="url(#clip-4)">
<path fill="none" stroke-width="0.3985" stroke-linecap="butt" stroke-linejoin="miter" stroke="rgb(0%, 0%, 0%)" stroke-opacity="1" stroke-miterlimit="10" d="M 100.708531 -0.00140625 C 100.708531 0.826719 100.040563 1.494688 99.212438 1.494688 C 98.388219 1.494688 97.72025 0.826719 97.72025 -0.00140625 C 97.72025 -0.825625 98.388219 -1.493594 99.212438 -1.493594 C 100.040563 -1.493594 100.708531 -0.825625 100.708531 -0.00140625 Z M 100.708531 -0.00140625 " transform="matrix(1, 0, 0, -1, 2.686, 3.065)"/>
</g>
<path fill="none" stroke-width="0.79701" stroke-linecap="butt" stroke-linejoin="miter" stroke="rgb(0%, 0%, 0%)" stroke-opacity="1" stroke-miterlimit="10" d="M 42.521031 -14.173281 L 56.692906 -14.173281 " transform="matrix(1, 0, 0, -1, 2.686, 3.065)"/>
<path fill-rule="nonzero" fill="rgb(0%, 0%, 0%)" fill-opacity="1" d="M 46.699219 17.238281 C 46.699219 16.414062 46.03125 15.742188 45.207031 15.742188 C 44.378906 15.742188 43.710938 16.414062 43.710938 17.238281 C 43.710938 18.0625 44.378906 18.734375 45.207031 18.734375 C 46.03125 18.734375 46.699219 18.0625 46.699219 17.238281 Z M 46.699219 17.238281 "/>
<g clip-path="url(#clip-5)">
<path fill="none" stroke-width="0.3985" stroke-linecap="butt" stroke-linejoin="miter" stroke="rgb(0%, 0%, 0%)" stroke-opacity="1" stroke-miterlimit="10" d="M 44.013219 -14.173281 C 44.013219 -13.349062 43.34525 -12.677187 42.521031 -12.677187 C 41.692906 -12.677187 41.024938 -13.349062 41.024938 -14.173281 C 41.024938 -14.9975 41.692906 -15.669375 42.521031 -15.669375 C 43.34525 -15.669375 44.013219 -14.9975 44.013219 -14.173281 Z M 44.013219 -14.173281 " transform="matrix(1, 0, 0, -1, 2.686, 3.065)"/>
</g>
<path fill-rule="nonzero" fill="rgb(0%, 0%, 0%)" fill-opacity="1" d="M 103.394531 17.238281 C 103.394531 16.414062 102.726562 15.742188 101.898438 15.742188 C 101.074219 15.742188 100.40625 16.414062 100.40625 17.238281 C 100.40625 18.0625 101.074219 18.734375 101.898438 18.734375 C 102.726562 18.734375 103.394531 18.0625 103.394531 17.238281 Z M 103.394531 17.238281 "/>
<g clip-path="url(#clip-6)">
<path fill="none" stroke-width="0.3985" stroke-linecap="butt" stroke-linejoin="miter" stroke="rgb(0%, 0%, 0%)" stroke-opacity="1" stroke-miterlimit="10" d="M 100.708531 -14.173281 C 100.708531 -13.349062 100.040563 -12.677187 99.212438 -12.677187 C 98.388219 -12.677187 97.72025 -13.349062 97.72025 -14.173281 C 97.72025 -14.9975 98.388219 -15.669375 99.212438 -15.669375 C 100.040563 -15.669375 100.708531 -14.9975 100.708531 -14.173281 Z M 100.708531 -14.173281 " transform="matrix(1, 0, 0, -1, 2.686, 3.065)"/>
</g>
<path fill="none" stroke-width="0.79701" stroke-linecap="butt" stroke-linejoin="miter" stroke="rgb(0%, 0%, 0%)" stroke-opacity="1" stroke-miterlimit="10" d="M 56.692906 -14.173281 L 70.868688 -14.173281 " transform="matrix(1, 0, 0, -1, 2.686, 3.065)"/>
<path fill-rule="nonzero" fill="rgb(0%, 0%, 0%)" fill-opacity="1" d="M 60.875 17.238281 C 60.875 16.414062 60.203125 15.742188 59.378906 15.742188 C 58.554688 15.742188 57.886719 16.414062 57.886719 17.238281 C 57.886719 18.0625 58.554688 18.734375 59.378906 18.734375 C 60.203125 18.734375 60.875 18.0625 60.875 17.238281 Z M 60.875 17.238281 "/>
<g clip-path="url(#clip-7)">
<path fill="none" stroke-width="0.3985" stroke-linecap="butt" stroke-linejoin="miter" stroke="rgb(0%, 0%, 0%)" stroke-opacity="1" stroke-miterlimit="10" d="M 58.189 -14.173281 C 58.189 -13.349062 57.517125 -12.677187 56.692906 -12.677187 C 55.868688 -12.677187 55.200719 -13.349062 55.200719 -14.173281 C 55.200719 -14.9975 55.868688 -15.669375 56.692906 -15.669375 C 57.517125 -15.669375 58.189 -14.9975 58.189 -14.173281 Z M 58.189 -14.173281 " transform="matrix(1, 0, 0, -1, 2.686, 3.065)"/>
</g>
<path fill-rule="nonzero" fill="rgb(0%, 0%, 0%)" fill-opacity="1" d="M 103.394531 17.238281 C 103.394531 16.414062 102.726562 15.742188 101.898438 15.742188 C 101.074219 15.742188 100.40625 16.414062 100.40625 17.238281 C 100.40625 18.0625 101.074219 18.734375 101.898438 18.734375 C 102.726562 18.734375 103.394531 18.0625 103.394531 17.238281 Z M 103.394531 17.238281 "/>
<g clip-path="url(#clip-8)">
<path fill="none" stroke-width="0.3985" stroke-linecap="butt" stroke-linejoin="miter" stroke="rgb(0%, 0%, 0%)" stroke-opacity="1" stroke-miterlimit="10" d="M 100.708531 -14.173281 C 100.708531 -13.349062 100.040563 -12.677187 99.212438 -12.677187 C 98.388219 -12.677187 97.72025 -13.349062 97.72025 -14.173281 C 97.72025 -14.9975 98.388219 -15.669375 99.212438 -15.669375 C 100.040563 -15.669375 100.708531 -14.9975 100.708531 -14.173281 Z M 100.708531 -14.173281 " transform="matrix(1, 0, 0, -1, 2.686, 3.065)"/>
</g>
<path fill="none" stroke-width="0.79701" stroke-linecap="butt" stroke-linejoin="miter" stroke="rgb(0%, 0%, 0%)" stroke-opacity="1" stroke-miterlimit="10" d="M 70.868688 -14.173281 L 85.040563 -14.173281 " transform="matrix(1, 0, 0, -1, 2.686, 3.065)"/>
<path fill-rule="nonzero" fill="rgb(0%, 0%, 0%)" fill-opacity="1" d="M 75.046875 17.238281 C 75.046875 16.414062 74.378906 15.742188 73.554688 15.742188 C 72.726562 15.742188 72.058594 16.414062 72.058594 17.238281 C 72.058594 18.0625 72.726562 18.734375 73.554688 18.734375 C 74.378906 18.734375 75.046875 18.0625 75.046875 17.238281 Z M 75.046875 17.238281 "/>
<g clip-path="url(#clip-9)">
<path fill="none" stroke-width="0.3985" stroke-linecap="butt" stroke-linejoin="miter" stroke="rgb(0%, 0%, 0%)" stroke-opacity="1" stroke-miterlimit="10" d="M 72.360875 -14.173281 C 72.360875 -13.349062 71.692906 -12.677187 70.868688 -12.677187 C 70.040563 -12.677187 69.372594 -13.349062 69.372594 -14.173281 C 69.372594 -14.9975 70.040563 -15.669375 70.868688 -15.669375 C 71.692906 -15.669375 72.360875 -14.9975 72.360875 -14.173281 Z M 72.360875 -14.173281 " transform="matrix(1, 0, 0, -1, 2.686, 3.065)"/>
</g>
<path fill-rule="nonzero" fill="rgb(0%, 0%, 0%)" fill-opacity="1" d="M 103.394531 17.238281 C 103.394531 16.414062 102.726562 15.742188 101.898438 15.742188 C 101.074219 15.742188 100.40625 16.414062 100.40625 17.238281 C 100.40625 18.0625 101.074219 18.734375 101.898438 18.734375 C 102.726562 18.734375 103.394531 18.0625 103.394531 17.238281 Z M 103.394531 17.238281 "/>
<g clip-path="url(#clip-10)">
<path fill="none" stroke-width="0.3985" stroke-linecap="butt" stroke-linejoin="miter" stroke="rgb(0%, 0%, 0%)" stroke-opacity="1" stroke-miterlimit="10" d="M 100.708531 -14.173281 C 100.708531 -13.349062 100.040563 -12.677187 99.212438 -12.677187 C 98.388219 -12.677187 97.72025 -13.349062 97.72025 -14.173281 C 97.72025 -14.9975 98.388219 -15.669375 99.212438 -15.669375 C 100.040563 -15.669375 100.708531 -14.9975 100.708531 -14.173281 Z M 100.708531 -14.173281 " transform="matrix(1, 0, 0, -1, 2.686, 3.065)"/>
</g>
<path fill="none" stroke-width="0.79701" stroke-linecap="butt" stroke-linejoin="miter" stroke="rgb(0%, 0%, 0%)" stroke-opacity="1" stroke-miterlimit="10" d="M 85.040563 -14.173281 L 99.212438 -14.173281 " transform="matrix(1, 0, 0, -1, 2.686, 3.065)"/>
<path fill-rule="nonzero" fill="rgb(0%, 0%, 0%)" fill-opacity="1" d="M 89.222656 17.238281 C 89.222656 16.414062 88.550781 15.742188 87.726562 15.742188 C 86.902344 15.742188 86.230469 16.414062 86.230469 17.238281 C 86.230469 18.0625 86.902344 18.734375 87.726562 18.734375 C 88.550781 18.734375 89.222656 18.0625 89.222656 17.238281 Z M 89.222656 17.238281 "/>
<g clip-path="url(#clip-11)">
<path fill="none" stroke-width="0.3985" stroke-linecap="butt" stroke-linejoin="miter" stroke="rgb(0%, 0%, 0%)" stroke-opacity="1" stroke-miterlimit="10" d="M 86.536656 -14.173281 C 86.536656 -13.349062 85.864781 -12.677187 85.040563 -12.677187 C 84.216344 -12.677187 83.544469 -13.349062 83.544469 -14.173281 C 83.544469 -14.9975 84.216344 -15.669375 85.040563 -15.669375 C 85.864781 -15.669375 86.536656 -14.9975 86.536656 -14.173281 Z M 86.536656 -14.173281 " transform="matrix(1, 0, 0, -1, 2.686, 3.065)"/>
</g>
<path fill-rule="nonzero" fill="rgb(0%, 0%, 0%)" fill-opacity="1" d="M 103.394531 17.238281 C 103.394531 16.414062 102.726562 15.742188 101.898438 15.742188 C 101.074219 15.742188 100.40625 16.414062 100.40625 17.238281 C 100.40625 18.0625 101.074219 18.734375 101.898438 18.734375 C 102.726562 18.734375 103.394531 18.0625 103.394531 17.238281 Z M 103.394531 17.238281 "/>
<g clip-path="url(#clip-12)">
<path fill="none" stroke-width="0.3985" stroke-linecap="butt" stroke-linejoin="miter" stroke="rgb(0%, 0%, 0%)" stroke-opacity="1" stroke-miterlimit="10" d="M 100.708531 -14.173281 C 100.708531 -13.349062 100.040563 -12.677187 99.212438 -12.677187 C 98.388219 -12.677187 97.72025 -13.349062 97.72025 -14.173281 C 97.72025 -14.9975 98.388219 -15.669375 99.212438 -15.669375 C 100.040563 -15.669375 100.708531 -14.9975 100.708531 -14.173281 Z M 100.708531 -14.173281 " transform="matrix(1, 0, 0, -1, 2.686, 3.065)"/>
</g>
</svg>
