<?xml version="1.0" encoding="UTF-8"?>
<svg xmlns="http://www.w3.org/2000/svg" xmlns:xlink="http://www.w3.org/1999/xlink" width="230.48" height="49.52" viewBox="0 0 230.48 49.52">
<defs>
<clipPath id="clip-0">
<path clip-rule="nonzero" d="M 0 13 L 47 13 L 47 49.519531 L 0 49.519531 Z M 0 13 "/>
</clipPath>
<clipPath id="clip-1">
<path clip-rule="nonzero" d="M 0 35 L 12 35 L 12 49.519531 L 0 49.519531 Z M 0 35 "/>
</clipPath>
<clipPath id="clip-2">
<path clip-rule="nonzero" d="M 45 13 L 90 13 L 90 49.519531 L 45 49.519531 Z M 45 13 "/>
</clipPath>
<clipPath id="clip-3">
<path clip-rule="nonzero" d="M 66 13 L 111 13 L 111 49.519531 L 66 49.519531 Z M 66 13 "/>
</clipPath>
<clipPath id="clip-4">
<path clip-rule="nonzero" d="M 70 38 L 86 38 L 86 49.519531 L 70 49.519531 Z M 70 38 "/>
</clipPath>
<clipPath id="clip-5">
<path clip-rule="nonzero" d="M 113 25 L 160 25 L 160 49.519531 L 113 49.519531 Z M 113 25 "/>
</clipPath>
<clipPath id="clip-6">
<path clip-rule="nonzero" d="M 137 13 L 175 13 L 175 49.519531 L 137 49.519531 Z M 137 13 "/>
</clipPath>
<clipPath id="clip-7">
<path clip-rule="nonzero" d="M 140 37 L 157 37 L 157 49.519531 L 140 49.519531 Z M 140 37 "/>
</clipPath>
<clipPath id="clip-8">
<path clip-rule="nonzero" d="M 204 0 L 230.480469 0 L 230.480469 36 L 204 36 Z M 204 0 "/>
</clipPath>
<clipPath id="clip-9">
<path clip-rule="nonzero" d="M 219 16 L 230.480469 16 L 230.480469 33 L 219 33 Z M 219 16 "/>
</clipPath>
<clipPath id="clip-10">
<path clip-rule="nonzero" d="M 173 13 L 207 13 L 207 49.519531 L 173 49.519531 Z M 173 13 "/>
</clipPath>
<clipPath id="clip-11">
<path clip-rule="nonzero" d="M 187 35 L 203 35 L 203 49.519531 L 187 49.519531 Z M 187 35 "/>
</clipPath>
<clipPath id="clip-12">
<path clip-rule="nonzero" d="M 204 13 L 230.480469 13 L 230.480469 49.519531 L 204 49.519531 Z M 204 13 "/>
</clipPath>
<clipPath id="clip-13">
<path clip-rule="nonzero" d="M 208 35 L 225 35 L 225 49.519531 L 208 49.519531 Z M 208 35 "/>
</clipPath>
</defs>
<path fill="none" stroke-width="0.79701" stroke-linecap="butt" stroke-linejoin="miter" stroke="rgb(0%, 0%, 0%)" stroke-opacity="1" stroke-miterlimit="10" d="M 21.260875 0.00178125 L -10.62975 18.411937 " transform="matrix(1, 0, 0, -1, 14.286, 24.701)"/>
<path fill-rule="nonzero" fill="rgb(0%, 0%, 0%)" fill-opacity="1" stroke-width="0.3985" stroke-linecap="butt" stroke-linejoin="miter" stroke="rgb(0%, 0%, 0%)" stroke-opacity="1" stroke-miterlimit="10" d="M 23.503062 0.00178125 C 23.503062 1.236156 22.499156 2.240062 21.260875 2.240062 C 20.022594 2.240062 19.018687 1.236156 19.018687 0.00178125 C 19.018687 -1.2365 20.022594 -2.240406 21.260875 -2.240406 C 22.499156 -2.240406 23.503062 -1.2365 23.503062 0.00178125 Z M 23.503062 0.00178125 " transform="matrix(1, 0, 0, -1, 14.286, 24.701)"/>
<path fill="none" stroke-width="0.79701" stroke-linecap="butt" stroke-linejoin="miter" stroke="rgb(0%, 0%, 0%)" stroke-opacity="1" stroke-miterlimit="10" d="M -10.62975 18.411937 L -10.62975 -18.412281 " transform="matrix(1, 0, 0, -1, 14.286, 24.701)"/>
<path fill-rule="nonzero" fill="rgb(0%, 0%, 0%)" fill-opacity="1" stroke-width="0.3985" stroke-linecap="butt" stroke-linejoin="miter" stroke="rgb(0%, 0%, 0%)" stroke-opacity="1" stroke-miterlimit="10" d="M -8.387563 18.411937 C -8.387563 19.650219 -9.391469 20.654125 -10.62975 20.654125 C -11.868031 20.654125 -12.871938 19.650219 -12.871938 18.411937 C -12.871938 17.173656 -11.868031 16.16975 -10.62975 16.16975 C -9.391469 16.16975 -8.387563 17.173656 -8.387563 18.411937 Z M -8.387563 18.411937 " transform="matrix(1, 0, 0, -1, 14.286, 24.701)"/>
<g clip-path="url(#clip-0)">
<path fill="none" stroke-width="0.79701" stroke-linecap="butt" stroke-linejoin="miter" stroke="rgb(0%, 0%, 0%)" stroke-opacity="1" stroke-miterlimit="10" d="M -10.62975 -18.412281 L 21.260875 0.00178125 " transform="matrix(1, 0, 0, -1, 14.286, 24.701)"/>
</g>
<path fill-rule="nonzero" fill="rgb(0%, 0%, 0%)" fill-opacity="1" d="M 5.898438 43.113281 C 5.898438 41.875 4.894531 40.871094 3.65625 40.871094 C 2.417969 40.871094 1.414062 41.875 1.414062 43.113281 C 1.414062 44.351562 2.417969 45.355469 3.65625 45.355469 C 4.894531 45.355469 5.898438 44.351562 5.898438 43.113281 Z M 5.898438 43.113281 "/>
<g clip-path="url(#clip-1)">
<path fill="none" stroke-width="0.3985" stroke-linecap="butt" stroke-linejoin="miter" stroke="rgb(0%, 0%, 0%)" stroke-opacity="1" stroke-miterlimit="10" d="M -8.387563 -18.412281 C -8.387563 -17.174 -9.391469 -16.170094 -10.62975 -16.170094 C -11.868031 -16.170094 -12.871938 -17.174 -12.871938 -18.412281 C -12.871938 -19.650563 -11.868031 -20.654469 -10.62975 -20.654469 C -9.391469 -20.654469 -8.387563 -19.650563 -8.387563 -18.412281 Z M -8.387563 -18.412281 " transform="matrix(1, 0, 0, -1, 14.286, 24.701)"/>
</g>
<path fill="none" stroke-width="0.79701" stroke-linecap="butt" stroke-linejoin="miter" stroke="rgb(0%, 0%, 0%)" stroke-opacity="1" stroke-miterlimit="10" d="M 85.042125 0.00178125 L 63.780406 21.259594 " transform="matrix(1, 0, 0, -1, 14.286, 24.701)"/>
<path fill-rule="nonzero" fill="rgb(0%, 0%, 0%)" fill-opacity="1" stroke-width="0.3985" stroke-linecap="butt" stroke-linejoin="miter" stroke="rgb(0%, 0%, 0%)" stroke-opacity="1" stroke-miterlimit="10" d="M 87.280406 0.00178125 C 87.280406 1.236156 86.2765 2.240062 85.042125 2.240062 C 83.803844 2.240062 82.799937 1.236156 82.799937 0.00178125 C 82.799937 -1.2365 83.803844 -2.240406 85.042125 -2.240406 C 86.2765 -2.240406 87.280406 -1.2365 87.280406 0.00178125 Z M 87.280406 0.00178125 " transform="matrix(1, 0, 0, -1, 14.286, 24.701)"/>
<path fill="none" stroke-width="0.79701" stroke-linecap="butt" stroke-linejoin="miter" stroke="rgb(0%, 0%, 0%)" stroke-opacity="1" stroke-miterlimit="10" d="M 63.780406 21.259594 L 42.518687 0.00178125 " transform="matrix(1, 0, 0, -1, 14.286, 24.701)"/>
<path fill-rule="nonzero" fill="rgb(0%, 0%, 0%)" fill-opacity="1" stroke-width="0.3985" stroke-linecap="butt" stroke-linejoin="miter" stroke="rgb(0%, 0%, 0%)" stroke-opacity="1" stroke-miterlimit="10" d="M 66.022594 21.259594 C 66.022594 22.497875 65.018687 23.501781 63.780406 23.501781 C 62.542125 23.501781 61.538219 22.497875 61.538219 21.259594 C 61.538219 20.021312 62.542125 19.017406 63.780406 19.017406 C 65.018687 19.017406 66.022594 20.021312 66.022594 21.259594 Z M 66.022594 21.259594 " transform="matrix(1, 0, 0, -1, 14.286, 24.701)"/>
<g clip-path="url(#clip-2)">
<path fill="none" stroke-width="0.79701" stroke-linecap="butt" stroke-linejoin="miter" stroke="rgb(0%, 0%, 0%)" stroke-opacity="1" stroke-miterlimit="10" d="M 42.518687 0.00178125 L 63.780406 -21.259938 " transform="matrix(1, 0, 0, -1, 14.286, 24.701)"/>
</g>
<path fill-rule="nonzero" fill="rgb(0%, 0%, 0%)" fill-opacity="1" stroke-width="0.3985" stroke-linecap="butt" stroke-linejoin="miter" stroke="rgb(0%, 0%, 0%)" stroke-opacity="1" stroke-miterlimit="10" d="M 44.760875 0.00178125 C 44.760875 1.236156 43.756969 2.240062 42.518687 2.240062 C 41.280406 2.240062 40.280406 1.236156 40.280406 0.00178125 C 40.280406 -1.2365 41.280406 -2.240406 42.518687 -2.240406 C 43.756969 -2.240406 44.760875 -1.2365 44.760875 0.00178125 Z M 44.760875 0.00178125 " transform="matrix(1, 0, 0, -1, 14.286, 24.701)"/>
<g clip-path="url(#clip-3)">
<path fill="none" stroke-width="0.79701" stroke-linecap="butt" stroke-linejoin="miter" stroke="rgb(0%, 0%, 0%)" stroke-opacity="1" stroke-miterlimit="10" d="M 63.780406 -21.259938 L 85.042125 0.00178125 " transform="matrix(1, 0, 0, -1, 14.286, 24.701)"/>
</g>
<path fill-rule="nonzero" fill="rgb(0%, 0%, 0%)" fill-opacity="1" d="M 80.308594 45.960938 C 80.308594 44.722656 79.304688 43.71875 78.066406 43.71875 C 76.828125 43.71875 75.824219 44.722656 75.824219 45.960938 C 75.824219 47.199219 76.828125 48.203125 78.066406 48.203125 C 79.304688 48.203125 80.308594 47.199219 80.308594 45.960938 Z M 80.308594 45.960938 "/>
<g clip-path="url(#clip-4)">
<path fill="none" stroke-width="0.3985" stroke-linecap="butt" stroke-linejoin="miter" stroke="rgb(0%, 0%, 0%)" stroke-opacity="1" stroke-miterlimit="10" d="M 66.022594 -21.259938 C 66.022594 -20.021656 65.018687 -19.01775 63.780406 -19.01775 C 62.542125 -19.01775 61.538219 -20.021656 61.538219 -21.259938 C 61.538219 -22.498219 62.542125 -23.502125 63.780406 -23.502125 C 65.018687 -23.502125 66.022594 -22.498219 66.022594 -21.259938 Z M 66.022594 -21.259938 " transform="matrix(1, 0, 0, -1, 14.286, 24.701)"/>
</g>
<path fill="none" stroke-width="0.79701" stroke-linecap="butt" stroke-linejoin="miter" stroke="rgb(0%, 0%, 0%)" stroke-opacity="1" stroke-miterlimit="10" d="M 148.819469 0.00178125 L 134.131969 20.220531 " transform="matrix(1, 0, 0, -1, 14.286, 24.701)"/>
<path fill-rule="nonzero" fill="rgb(0%, 0%, 0%)" fill-opacity="1" stroke-width="0.3985" stroke-linecap="butt" stroke-linejoin="miter" stroke="rgb(0%, 0%, 0%)" stroke-opacity="1" stroke-miterlimit="10" d="M 151.061656 0.00178125 C 151.061656 1.236156 150.05775 2.240062 148.819469 2.240062 C 147.581187 2.240062 146.577281 1.236156 146.577281 0.00178125 C 146.577281 -1.2365 147.581187 -2.240406 148.819469 -2.240406 C 150.05775 -2.240406 151.061656 -1.2365 151.061656 0.00178125 Z M 151.061656 0.00178125 " transform="matrix(1, 0, 0, -1, 14.286, 24.701)"/>
<path fill="none" stroke-width="0.79701" stroke-linecap="butt" stroke-linejoin="miter" stroke="rgb(0%, 0%, 0%)" stroke-opacity="1" stroke-miterlimit="10" d="M 134.131969 20.220531 L 110.362437 12.497875 " transform="matrix(1, 0, 0, -1, 14.286, 24.701)"/>
<path fill-rule="nonzero" fill="rgb(0%, 0%, 0%)" fill-opacity="1" stroke-width="0.3985" stroke-linecap="butt" stroke-linejoin="miter" stroke="rgb(0%, 0%, 0%)" stroke-opacity="1" stroke-miterlimit="10" d="M 136.37025 20.220531 C 136.37025 21.458812 135.37025 22.462719 134.131969 22.462719 C 132.893687 22.462719 131.889781 21.458812 131.889781 20.220531 C 131.889781 18.98225 132.893687 17.978344 134.131969 17.978344 C 135.37025 17.978344 136.37025 18.98225 136.37025 20.220531 Z M 136.37025 20.220531 " transform="matrix(1, 0, 0, -1, 14.286, 24.701)"/>
<path fill="none" stroke-width="0.79701" stroke-linecap="butt" stroke-linejoin="miter" stroke="rgb(0%, 0%, 0%)" stroke-opacity="1" stroke-miterlimit="10" d="M 110.362437 12.497875 L 110.362437 -12.498219 " transform="matrix(1, 0, 0, -1, 14.286, 24.701)"/>
<path fill-rule="nonzero" fill="rgb(0%, 0%, 0%)" fill-opacity="1" stroke-width="0.3985" stroke-linecap="butt" stroke-linejoin="miter" stroke="rgb(0%, 0%, 0%)" stroke-opacity="1" stroke-miterlimit="10" d="M 112.600719 12.497875 C 112.600719 13.736156 111.600719 14.736156 110.362437 14.736156 C 109.124156 14.736156 108.12025 13.736156 108.12025 12.497875 C 108.12025 11.259594 109.124156 10.255687 110.362437 10.255687 C 111.600719 10.255687 112.600719 11.259594 112.600719 12.497875 Z M 112.600719 12.497875 " transform="matrix(1, 0, 0, -1, 14.286, 24.701)"/>
<g clip-path="url(#clip-5)">
<path fill="none" stroke-width="0.79701" stroke-linecap="butt" stroke-linejoin="miter" stroke="rgb(0%, 0%, 0%)" stroke-opacity="1" stroke-miterlimit="10" d="M 110.362437 -12.498219 L 134.131969 -20.220875 " transform="matrix(1, 0, 0, -1, 14.286, 24.701)"/>
</g>
<path fill-rule="nonzero" fill="rgb(0%, 0%, 0%)" fill-opacity="1" stroke-width="0.3985" stroke-linecap="butt" stroke-linejoin="miter" stroke="rgb(0%, 0%, 0%)" stroke-opacity="1" stroke-miterlimit="10" d="M 112.600719 -12.498219 C 112.600719 -11.259938 111.600719 -10.256031 110.362437 -10.256031 C 109.124156 -10.256031 108.12025 -11.259938 108.12025 -12.498219 C 108.12025 -13.732594 109.124156 -14.7365 110.362437 -14.7365 C 111.600719 -14.7365 112.600719 -13.732594 112.600719 -12.498219 Z M 112.600719 -12.498219 " transform="matrix(1, 0, 0, -1, 14.286, 24.701)"/>
<g clip-path="url(#clip-6)">
<path fill="none" stroke-width="0.79701" stroke-linecap="butt" stroke-linejoin="miter" stroke="rgb(0%, 0%, 0%)" stroke-opacity="1" stroke-miterlimit="10" d="M 134.131969 -20.220875 L 148.819469 0.00178125 " transform="matrix(1, 0, 0, -1, 14.286, 24.701)"/>
</g>
<path fill-rule="nonzero" fill="rgb(0%, 0%, 0%)" fill-opacity="1" d="M 150.65625 44.921875 C 150.65625 43.683594 149.65625 42.679688 148.417969 42.679688 C 147.179688 42.679688 146.175781 43.683594 146.175781 44.921875 C 146.175781 46.160156 147.179688 47.164062 148.417969 47.164062 C 149.65625 47.164062 150.65625 46.160156 150.65625 44.921875 Z M 150.65625 44.921875 "/>
<g clip-path="url(#clip-7)">
<path fill="none" stroke-width="0.3985" stroke-linecap="butt" stroke-linejoin="miter" stroke="rgb(0%, 0%, 0%)" stroke-opacity="1" stroke-miterlimit="10" d="M 136.37025 -20.220875 C 136.37025 -18.982594 135.37025 -17.978688 134.131969 -17.978688 C 132.893687 -17.978688 131.889781 -18.982594 131.889781 -20.220875 C 131.889781 -21.459156 132.893687 -22.463063 134.131969 -22.463063 C 135.37025 -22.463063 136.37025 -21.459156 136.37025 -20.220875 Z M 136.37025 -20.220875 " transform="matrix(1, 0, 0, -1, 14.286, 24.701)"/>
</g>
<g clip-path="url(#clip-8)">
<path fill="none" stroke-width="0.79701" stroke-linecap="butt" stroke-linejoin="miter" stroke="rgb(0%, 0%, 0%)" stroke-opacity="1" stroke-miterlimit="10" d="M 212.600719 0.00178125 L 201.971812 18.411937 " transform="matrix(1, 0, 0, -1, 14.286, 24.701)"/>
</g>
<path fill-rule="nonzero" fill="rgb(0%, 0%, 0%)" fill-opacity="1" d="M 229.128906 24.699219 C 229.128906 23.464844 228.125 22.460938 226.886719 22.460938 C 225.648438 22.460938 224.644531 23.464844 224.644531 24.699219 C 224.644531 25.9375 225.648438 26.941406 226.886719 26.941406 C 228.125 26.941406 229.128906 25.9375 229.128906 24.699219 Z M 229.128906 24.699219 "/>
<g clip-path="url(#clip-9)">
<path fill="none" stroke-width="0.3985" stroke-linecap="butt" stroke-linejoin="miter" stroke="rgb(0%, 0%, 0%)" stroke-opacity="1" stroke-miterlimit="10" d="M 214.842906 0.00178125 C 214.842906 1.236156 213.839 2.240062 212.600719 2.240062 C 211.362437 2.240062 210.358531 1.236156 210.358531 0.00178125 C 210.358531 -1.2365 211.362437 -2.240406 212.600719 -2.240406 C 213.839 -2.240406 214.842906 -1.2365 214.842906 0.00178125 Z M 214.842906 0.00178125 " transform="matrix(1, 0, 0, -1, 14.286, 24.701)"/>
</g>
<path fill="none" stroke-width="0.79701" stroke-linecap="butt" stroke-linejoin="miter" stroke="rgb(0%, 0%, 0%)" stroke-opacity="1" stroke-miterlimit="10" d="M 201.971812 18.411937 L 180.710094 18.411937 " transform="matrix(1, 0, 0, -1, 14.286, 24.701)"/>
<path fill-rule="nonzero" fill="rgb(0%, 0%, 0%)" fill-opacity="1" stroke-width="0.3985" stroke-linecap="butt" stroke-linejoin="miter" stroke="rgb(0%, 0%, 0%)" stroke-opacity="1" stroke-miterlimit="10" d="M 204.214 18.411937 C 204.214 19.650219 203.210094 20.654125 201.971812 20.654125 C 200.733531 20.654125 199.729625 19.650219 199.729625 18.411937 C 199.729625 17.173656 200.733531 16.16975 201.971812 16.16975 C 203.210094 16.16975 204.214 17.173656 204.214 18.411937 Z M 204.214 18.411937 " transform="matrix(1, 0, 0, -1, 14.286, 24.701)"/>
<path fill="none" stroke-width="0.79701" stroke-linecap="butt" stroke-linejoin="miter" stroke="rgb(0%, 0%, 0%)" stroke-opacity="1" stroke-miterlimit="10" d="M 180.710094 18.411937 L 170.081187 0.00178125 " transform="matrix(1, 0, 0, -1, 14.286, 24.701)"/>
<path fill-rule="nonzero" fill="rgb(0%, 0%, 0%)" fill-opacity="1" stroke-width="0.3985" stroke-linecap="butt" stroke-linejoin="miter" stroke="rgb(0%, 0%, 0%)" stroke-opacity="1" stroke-miterlimit="10" d="M 182.952281 18.411937 C 182.952281 19.650219 181.948375 20.654125 180.710094 20.654125 C 179.471812 20.654125 178.467906 19.650219 178.467906 18.411937 C 178.467906 17.173656 179.471812 16.16975 180.710094 16.16975 C 181.948375 16.16975 182.952281 17.173656 182.952281 18.411937 Z M 182.952281 18.411937 " transform="matrix(1, 0, 0, -1, 14.286, 24.701)"/>
<g clip-path="url(#clip-10)">
<path fill="none" stroke-width="0.79701" stroke-linecap="butt" stroke-linejoin="miter" stroke="rgb(0%, 0%, 0%)" stroke-opacity="1" stroke-miterlimit="10" d="M 170.081187 0.00178125 L 180.710094 -18.412281 " transform="matrix(1, 0, 0, -1, 14.286, 24.701)"/>
</g>
<path fill-rule="nonzero" fill="rgb(0%, 0%, 0%)" fill-opacity="1" stroke-width="0.3985" stroke-linecap="butt" stroke-linejoin="miter" stroke="rgb(0%, 0%, 0%)" stroke-opacity="1" stroke-miterlimit="10" d="M 172.323375 0.00178125 C 172.323375 1.236156 171.319469 2.240062 170.081187 2.240062 C 168.842906 2.240062 167.839 1.236156 167.839 0.00178125 C 167.839 -1.2365 168.842906 -2.240406 170.081187 -2.240406 C 171.319469 -2.240406 172.323375 -1.2365 172.323375 0.00178125 Z M 172.323375 0.00178125 " transform="matrix(1, 0, 0, -1, 14.286, 24.701)"/>
<path fill="none" stroke-width="0.79701" stroke-linecap="butt" stroke-linejoin="miter" stroke="rgb(0%, 0%, 0%)" stroke-opacity="1" stroke-miterlimit="10" d="M 180.710094 -18.412281 L 201.971812 -18.412281 " transform="matrix(1, 0, 0, -1, 14.286, 24.701)"/>
<path fill-rule="nonzero" fill="rgb(0%, 0%, 0%)" fill-opacity="1" d="M 197.238281 43.113281 C 197.238281 41.875 196.234375 40.871094 194.996094 40.871094 C 193.757812 40.871094 192.753906 41.875 192.753906 43.113281 C 192.753906 44.351562 193.757812 45.355469 194.996094 45.355469 C 196.234375 45.355469 197.238281 44.351562 197.238281 43.113281 Z M 197.238281 43.113281 "/>
<g clip-path="url(#clip-11)">
<path fill="none" stroke-width="0.3985" stroke-linecap="butt" stroke-linejoin="miter" stroke="rgb(0%, 0%, 0%)" stroke-opacity="1" stroke-miterlimit="10" d="M 182.952281 -18.412281 C 182.952281 -17.174 181.948375 -16.170094 180.710094 -16.170094 C 179.471812 -16.170094 178.467906 -17.174 178.467906 -18.412281 C 178.467906 -19.650563 179.471812 -20.654469 180.710094 -20.654469 C 181.948375 -20.654469 182.952281 -19.650563 182.952281 -18.412281 Z M 182.952281 -18.412281 " transform="matrix(1, 0, 0, -1, 14.286, 24.701)"/>
</g>
<g clip-path="url(#clip-12)">
<path fill="none" stroke-width="0.79701" stroke-linecap="butt" stroke-linejoin="miter" stroke="rgb(0%, 0%, 0%)" stroke-opacity="1" stroke-miterlimit="10" d="M 201.971812 -18.412281 L 212.600719 0.00178125 " transform="matrix(1, 0, 0, -1, 14.286, 24.701)"/>
</g>
<path fill-rule="nonzero" fill="rgb(0%, 0%, 0%)" fill-opacity="1" d="M 218.5 43.113281 C 218.5 41.875 217.496094 40.871094 216.257812 40.871094 C 215.019531 40.871094 214.015625 41.875 214.015625 43.113281 C 214.015625 44.351562 215.019531 45.355469 216.257812 45.355469 C 217.496094 45.355469 218.5 44.351562 218.5 43.113281 Z M 218.5 43.113281 "/>
<g clip-path="url(#clip-13)">
<path fill="none" stroke-width="0.3985" stroke-linecap="butt" stroke-linejoin="miter" stroke="rgb(0%, 0%, 0%)" stroke-opacity="1" stroke-miterlimit="10" d="M 204.214 -18.412281 C 204.214 -17.174 203.210094 -16.170094 201.971812 -16.170094 C 200.733531 -16.170094 199.729625 -17.174 199.729625 -18.412281 C 199.729625 -19.650563 200.733531 -20.654469 201.971812 -20.654469 C 203.210094 -20.654469 204.214 -19.650563 204.214 -18.412281 Z M 204.214 -18.412281 " transform="matrix(1, 0, 0, -1, 14.286, 24.701)"/>
</g>
</svg>
