<?xml version="1.0" encoding="UTF-8"?>
<svg xmlns="http://www.w3.org/2000/svg" xmlns:xlink="http://www.w3.org/1999/xlink" width="116.24pt" height="115.6911pt" viewBox="0 0 116.24 115.6911" version="1.1">
<defs>
<clipPath id="clip1">
  <path d="M 57 0 L 59 0 L 59 115.691406 L 57 115.691406 Z M 57 0 "/>
</clipPath>
</defs>
<g id="surface1">
<path style=" stroke:none;fill-rule:nonzero;fill:rgb(50%,50%,50%);fill-opacity:1;" d="M 43.851562 72.019531 L 58.027344 72.019531 L 58.027344 57.84375 L 72.199219 57.84375 L 72.199219 43.671875 L 43.851562 43.671875 Z M 43.851562 72.019531 "/>
<path style="fill:none;stroke-width:0.3985;stroke-linecap:butt;stroke-linejoin:miter;stroke:rgb(0%,0%,0%);stroke-opacity:1;stroke-miterlimit:10;" d="M -0.00096875 0.0001175 L 113.38575 0.0001175 " transform="matrix(1,0,0,-1,1.333,114.53918)"/>
<path style="fill:none;stroke-width:0.3985;stroke-linecap:butt;stroke-linejoin:miter;stroke:rgb(0%,0%,0%);stroke-opacity:1;stroke-miterlimit:10;" d="M -0.00096875 0.0001175 L -0.00096875 113.386836 " transform="matrix(1,0,0,-1,1.333,114.53918)"/>
<path style="fill:none;stroke-width:0.3985;stroke-linecap:butt;stroke-linejoin:miter;stroke:rgb(0%,0%,0%);stroke-opacity:1;stroke-miterlimit:10;" d="M -0.00096875 14.171992 L 113.38575 14.171992 " transform="matrix(1,0,0,-1,1.333,114.53918)"/>
<path style="fill:none;stroke-width:0.3985;stroke-linecap:butt;stroke-linejoin:miter;stroke:rgb(0%,0%,0%);stroke-opacity:1;stroke-miterlimit:10;" d="M 14.174813 0.0001175 L 14.174813 113.386836 " transform="matrix(1,0,0,-1,1.333,114.53918)"/>
<path style="fill:none;stroke-width:0.3985;stroke-linecap:butt;stroke-linejoin:miter;stroke:rgb(0%,0%,0%);stroke-opacity:1;stroke-miterlimit:10;" d="M -0.00096875 28.347774 L 113.38575 28.347774 " transform="matrix(1,0,0,-1,1.333,114.53918)"/>
<path style="fill:none;stroke-width:0.3985;stroke-linecap:butt;stroke-linejoin:miter;stroke:rgb(0%,0%,0%);stroke-opacity:1;stroke-miterlimit:10;" d="M 28.346688 0.0001175 L 28.346688 113.386836 " transform="matrix(1,0,0,-1,1.333,114.53918)"/>
<path style="fill:none;stroke-width:0.3985;stroke-linecap:butt;stroke-linejoin:miter;stroke:rgb(0%,0%,0%);stroke-opacity:1;stroke-miterlimit:10;" d="M -0.00096875 42.519649 L 113.38575 42.519649 " transform="matrix(1,0,0,-1,1.333,114.53918)"/>
<path style="fill:none;stroke-width:0.3985;stroke-linecap:butt;stroke-linejoin:miter;stroke:rgb(0%,0%,0%);stroke-opacity:1;stroke-miterlimit:10;" d="M 42.518563 0.0001175 L 42.518563 113.386836 " transform="matrix(1,0,0,-1,1.333,114.53918)"/>
<path style="fill:none;stroke-width:0.3985;stroke-linecap:butt;stroke-linejoin:miter;stroke:rgb(0%,0%,0%);stroke-opacity:1;stroke-miterlimit:10;" d="M -0.00096875 56.69543 L 113.38575 56.69543 " transform="matrix(1,0,0,-1,1.333,114.53918)"/>
<path style="fill:none;stroke-width:0.3985;stroke-linecap:butt;stroke-linejoin:miter;stroke:rgb(0%,0%,0%);stroke-opacity:1;stroke-miterlimit:10;" d="M 56.694344 0.0001175 L 56.694344 113.386836 " transform="matrix(1,0,0,-1,1.333,114.53918)"/>
<path style="fill:none;stroke-width:0.3985;stroke-linecap:butt;stroke-linejoin:miter;stroke:rgb(0%,0%,0%);stroke-opacity:1;stroke-miterlimit:10;" d="M -0.00096875 70.867305 L 113.38575 70.867305 " transform="matrix(1,0,0,-1,1.333,114.53918)"/>
<path style="fill:none;stroke-width:0.3985;stroke-linecap:butt;stroke-linejoin:miter;stroke:rgb(0%,0%,0%);stroke-opacity:1;stroke-miterlimit:10;" d="M 70.866219 0.0001175 L 70.866219 113.386836 " transform="matrix(1,0,0,-1,1.333,114.53918)"/>
<path style="fill:none;stroke-width:0.3985;stroke-linecap:butt;stroke-linejoin:miter;stroke:rgb(0%,0%,0%);stroke-opacity:1;stroke-miterlimit:10;" d="M -0.00096875 85.03918 L 113.38575 85.03918 " transform="matrix(1,0,0,-1,1.333,114.53918)"/>
<path style="fill:none;stroke-width:0.3985;stroke-linecap:butt;stroke-linejoin:miter;stroke:rgb(0%,0%,0%);stroke-opacity:1;stroke-miterlimit:10;" d="M 85.042 0.0001175 L 85.042 113.386836 " transform="matrix(1,0,0,-1,1.333,114.53918)"/>
<path style="fill:none;stroke-width:0.3985;stroke-linecap:butt;stroke-linejoin:miter;stroke:rgb(0%,0%,0%);stroke-opacity:1;stroke-miterlimit:10;" d="M -0.00096875 99.214961 L 113.38575 99.214961 " transform="matrix(1,0,0,-1,1.333,114.53918)"/>
<path style="fill:none;stroke-width:0.3985;stroke-linecap:butt;stroke-linejoin:miter;stroke:rgb(0%,0%,0%);stroke-opacity:1;stroke-miterlimit:10;" d="M 99.213875 0.0001175 L 99.213875 113.386836 " transform="matrix(1,0,0,-1,1.333,114.53918)"/>
<path style="fill:none;stroke-width:0.3985;stroke-linecap:butt;stroke-linejoin:miter;stroke:rgb(0%,0%,0%);stroke-opacity:1;stroke-miterlimit:10;" d="M -0.00096875 113.386836 L 113.38575 113.386836 " transform="matrix(1,0,0,-1,1.333,114.53918)"/>
<path style="fill:none;stroke-width:0.3985;stroke-linecap:butt;stroke-linejoin:miter;stroke:rgb(0%,0%,0%);stroke-opacity:1;stroke-miterlimit:10;" d="M 113.38575 0.0001175 L 113.38575 113.386836 " transform="matrix(1,0,0,-1,1.333,114.53918)"/>
<path style=" stroke:none;fill-rule:nonzero;fill:rgb(0%,0%,0%);fill-opacity:1;" d="M 86.375 86.191406 L 86.375 72.019531 L 100.546875 72.019531 L 100.546875 86.191406 Z M 86.375 86.191406 "/>
<g clip-path="url(#clip1)" clip-rule="nonzero">
<path style="fill:none;stroke-width:1.19553;stroke-linecap:butt;stroke-linejoin:miter;stroke:rgb(0%,0%,0%);stroke-opacity:1;stroke-miterlimit:10;" d="M 56.694344 0.0001175 L 56.694344 113.386836 " transform="matrix(1,0,0,-1,1.333,114.53918)"/>
</g>
<path style="fill:none;stroke-width:1.19553;stroke-linecap:butt;stroke-linejoin:miter;stroke:rgb(0%,0%,0%);stroke-opacity:1;stroke-miterlimit:10;" d="M -0.00096875 56.69543 L 113.38575 56.69543 " transform="matrix(1,0,0,-1,1.333,114.53918)"/>
<path style="fill:none;stroke-width:1.59404;stroke-linecap:butt;stroke-linejoin:miter;stroke:rgb(0%,0%,100%);stroke-opacity:1;stroke-miterlimit:10;" d="M 63.780281 77.953242 L 77.952156 77.953242 L 77.952156 63.781367 " transform="matrix(1,0,0,-1,1.333,114.53918)"/>
<path style="fill:none;stroke-width:1.59404;stroke-linecap:butt;stroke-linejoin:miter;stroke:rgb(0%,0%,100%);stroke-opacity:1;stroke-miterlimit:10;" d="M 77.952156 92.129024 L 92.127938 92.129024 L 92.127938 77.953242 " transform="matrix(1,0,0,-1,1.333,114.53918)"/>
<path style="fill:none;stroke-width:1.59404;stroke-linecap:butt;stroke-linejoin:miter;stroke:rgb(0%,0%,100%);stroke-opacity:1;stroke-miterlimit:10;" d="M 63.780281 92.129024 L 63.780281 106.300899 L 77.952156 106.300899 " transform="matrix(1,0,0,-1,1.333,114.53918)"/>
<path style="fill:none;stroke-width:1.59404;stroke-linecap:butt;stroke-linejoin:miter;stroke:rgb(0%,0%,100%);stroke-opacity:1;stroke-miterlimit:10;" d="M 92.127938 106.300899 L 106.299813 106.300899 L 106.299813 92.129024 " transform="matrix(1,0,0,-1,1.333,114.53918)"/>
<path style="fill:none;stroke-width:1.59404;stroke-linecap:butt;stroke-linejoin:miter;stroke:rgb(0%,0%,100%);stroke-opacity:1;stroke-miterlimit:10;" d="M 92.127938 63.781367 L 106.299813 63.781367 L 106.299813 77.953242 " transform="matrix(1,0,0,-1,1.333,114.53918)"/>
<path style="fill:none;stroke-width:1.59404;stroke-linecap:butt;stroke-linejoin:miter;stroke:rgb(0%,0%,100%);stroke-opacity:1;stroke-miterlimit:10;" d="M 49.608406 35.433711 L 35.432625 35.433711 L 35.432625 49.605586 " transform="matrix(1,0,0,-1,1.333,114.53918)"/>
<path style="fill:none;stroke-width:1.59404;stroke-linecap:butt;stroke-linejoin:miter;stroke:rgb(0%,0%,100%);stroke-opacity:1;stroke-miterlimit:10;" d="M 35.432625 21.261836 L 21.26075 21.261836 L 21.26075 35.433711 " transform="matrix(1,0,0,-1,1.333,114.53918)"/>
<path style="fill:none;stroke-width:1.59404;stroke-linecap:butt;stroke-linejoin:miter;stroke:rgb(0%,0%,100%);stroke-opacity:1;stroke-miterlimit:10;" d="M 49.608406 21.261836 L 49.608406 7.086055 L 35.432625 7.086055 " transform="matrix(1,0,0,-1,1.333,114.53918)"/>
<path style="fill:none;stroke-width:1.59404;stroke-linecap:butt;stroke-linejoin:miter;stroke:rgb(0%,0%,100%);stroke-opacity:1;stroke-miterlimit:10;" d="M 21.26075 7.086055 L 7.084969 7.086055 L 7.084969 21.261836 " transform="matrix(1,0,0,-1,1.333,114.53918)"/>
<path style="fill:none;stroke-width:1.59404;stroke-linecap:butt;stroke-linejoin:miter;stroke:rgb(0%,0%,100%);stroke-opacity:1;stroke-miterlimit:10;" d="M 21.26075 49.605586 L 7.084969 49.605586 L 7.084969 35.433711 " transform="matrix(1,0,0,-1,1.333,114.53918)"/>
<path style="fill:none;stroke-width:1.59404;stroke-linecap:butt;stroke-linejoin:miter;stroke:rgb(0%,0%,100%);stroke-opacity:1;stroke-miterlimit:10;" d="M 35.432625 63.781367 L 35.432625 77.953242 L 49.608406 77.953242 " transform="matrix(1,0,0,-1,1.333,114.53918)"/>
<path style="fill:none;stroke-width:1.59404;stroke-linecap:butt;stroke-linejoin:miter;stroke:rgb(0%,0%,100%);stroke-opacity:1;stroke-miterlimit:10;" d="M 21.26075 77.953242 L 21.26075 92.129024 L 35.432625 92.129024 " transform="matrix(1,0,0,-1,1.333,114.53918)"/>
<path style="fill:none;stroke-width:1.59404;stroke-linecap:butt;stroke-linejoin:miter;stroke:rgb(0%,0%,100%);stroke-opacity:1;stroke-miterlimit:10;" d="M 21.26075 63.781367 L 7.084969 63.781367 L 7.084969 77.953242 " transform="matrix(1,0,0,-1,1.333,114.53918)"/>
<path style="fill:none;stroke-width:1.59404;stroke-linecap:butt;stroke-linejoin:miter;stroke:rgb(0%,0%,100%);stroke-opacity:1;stroke-miterlimit:10;" d="M 7.084969 92.129024 L 7.084969 106.300899 L 21.26075 106.300899 " transform="matrix(1,0,0,-1,1.333,114.53918)"/>
<path style="fill:none;stroke-width:1.59404;stroke-linecap:butt;stroke-linejoin:miter;stroke:rgb(0%,0%,100%);stroke-opacity:1;stroke-miterlimit:10;" d="M 49.608406 92.129024 L 49.608406 106.300899 L 35.432625 106.300899 " transform="matrix(1,0,0,-1,1.333,114.53918)"/>
<path style="fill:none;stroke-width:0.3985;stroke-linecap:butt;stroke-linejoin:miter;stroke:rgb(0%,0%,0%);stroke-opacity:1;stroke-miterlimit:10;" d="M 56.694344 0.0001175 L 113.38575 0.0001175 " transform="matrix(1,0,0,-1,1.333,114.53918)"/>
<path style="fill:none;stroke-width:0.3985;stroke-linecap:butt;stroke-linejoin:miter;stroke:rgb(0%,0%,0%);stroke-opacity:1;stroke-miterlimit:10;" d="M 56.694344 0.0001175 L 56.694344 56.69543 " transform="matrix(1,0,0,-1,1.333,114.53918)"/>
<path style="fill:none;stroke-width:0.3985;stroke-linecap:butt;stroke-linejoin:miter;stroke:rgb(0%,0%,0%);stroke-opacity:1;stroke-miterlimit:10;" d="M 56.694344 14.171992 L 113.38575 14.171992 " transform="matrix(1,0,0,-1,1.333,114.53918)"/>
<path style="fill:none;stroke-width:0.3985;stroke-linecap:butt;stroke-linejoin:miter;stroke:rgb(0%,0%,0%);stroke-opacity:1;stroke-miterlimit:10;" d="M 70.866219 0.0001175 L 70.866219 56.69543 " transform="matrix(1,0,0,-1,1.333,114.53918)"/>
<path style="fill:none;stroke-width:0.3985;stroke-linecap:butt;stroke-linejoin:miter;stroke:rgb(0%,0%,0%);stroke-opacity:1;stroke-miterlimit:10;" d="M 56.694344 28.347774 L 113.38575 28.347774 " transform="matrix(1,0,0,-1,1.333,114.53918)"/>
<path style="fill:none;stroke-width:0.3985;stroke-linecap:butt;stroke-linejoin:miter;stroke:rgb(0%,0%,0%);stroke-opacity:1;stroke-miterlimit:10;" d="M 85.042 0.0001175 L 85.042 56.69543 " transform="matrix(1,0,0,-1,1.333,114.53918)"/>
<path style="fill:none;stroke-width:0.3985;stroke-linecap:butt;stroke-linejoin:miter;stroke:rgb(0%,0%,0%);stroke-opacity:1;stroke-miterlimit:10;" d="M 56.694344 42.519649 L 113.38575 42.519649 " transform="matrix(1,0,0,-1,1.333,114.53918)"/>
<path style="fill:none;stroke-width:0.3985;stroke-linecap:butt;stroke-linejoin:miter;stroke:rgb(0%,0%,0%);stroke-opacity:1;stroke-miterlimit:10;" d="M 99.213875 0.0001175 L 99.213875 56.69543 " transform="matrix(1,0,0,-1,1.333,114.53918)"/>
<path style="fill:none;stroke-width:0.3985;stroke-linecap:butt;stroke-linejoin:miter;stroke:rgb(0%,0%,0%);stroke-opacity:1;stroke-miterlimit:10;" d="M 56.694344 56.69543 L 113.38575 56.69543 " transform="matrix(1,0,0,-1,1.333,114.53918)"/>
<path style="fill:none;stroke-width:0.3985;stroke-linecap:butt;stroke-linejoin:miter;stroke:rgb(0%,0%,0%);stroke-opacity:1;stroke-miterlimit:10;" d="M 113.38575 0.0001175 L 113.38575 56.69543 " transform="matrix(1,0,0,-1,1.333,114.53918)"/>
<path style=" stroke:none;fill-rule:nonzero;fill:rgb(0%,0%,0%);fill-opacity:1;" d="M 86.375 86.191406 L 100.546875 86.191406 L 100.546875 72.019531 L 86.375 72.019531 Z M 86.375 86.191406 "/>
<path style="fill:none;stroke-width:1.59404;stroke-linecap:butt;stroke-linejoin:miter;stroke:rgb(0%,0%,100%);stroke-opacity:1;stroke-miterlimit:10;" d="M 63.780281 21.261836 L 63.780281 7.086055 L 77.952156 7.086055 " transform="matrix(1,0,0,-1,1.333,114.53918)"/>
<path style="fill:none;stroke-width:1.59404;stroke-linecap:butt;stroke-linejoin:miter;stroke:rgb(0%,0%,100%);stroke-opacity:1;stroke-miterlimit:10;" d="M 77.952156 35.433711 L 77.952156 21.261836 L 92.127938 21.261836 " transform="matrix(1,0,0,-1,1.333,114.53918)"/>
<path style="fill:none;stroke-width:1.59404;stroke-linecap:butt;stroke-linejoin:miter;stroke:rgb(0%,0%,100%);stroke-opacity:1;stroke-miterlimit:10;" d="M 63.780281 35.433711 L 63.780281 49.605586 L 77.952156 49.605586 " transform="matrix(1,0,0,-1,1.333,114.53918)"/>
<path style="fill:none;stroke-width:1.59404;stroke-linecap:butt;stroke-linejoin:miter;stroke:rgb(0%,0%,100%);stroke-opacity:1;stroke-miterlimit:10;" d="M 92.127938 49.605586 L 106.299813 49.605586 L 106.299813 35.433711 " transform="matrix(1,0,0,-1,1.333,114.53918)"/>
<path style="fill:none;stroke-width:1.59404;stroke-linecap:butt;stroke-linejoin:miter;stroke:rgb(0%,0%,100%);stroke-opacity:1;stroke-miterlimit:10;" d="M 92.127938 7.086055 L 106.299813 7.086055 L 106.299813 21.261836 " transform="matrix(1,0,0,-1,1.333,114.53918)"/>
</g>
</svg>
