<?xml version="1.0" encoding="UTF-8"?>
<svg xmlns="http://www.w3.org/2000/svg" xmlns:xlink="http://www.w3.org/1999/xlink" width="205.04pt" height="62.92308pt" viewBox="0 0 205.04 62.92308" version="1.1">
<defs>
<clipPath id="clip1">
  <path d="M 6 45 L 38 45 L 38 62.921875 L 6 62.921875 Z M 6 45 "/>
</clipPath>
<clipPath id="clip2">
  <path d="M 24 52 L 40 52 L 40 62.921875 L 24 62.921875 Z M 24 52 "/>
</clipPath>
<clipPath id="clip3">
  <path d="M 26 45 L 58 45 L 58 62.921875 L 26 62.921875 Z M 26 45 "/>
</clipPath>
<clipPath id="clip4">
  <path d="M 194 38 L 205.039062 38 L 205.039062 54 L 194 54 Z M 194 38 "/>
</clipPath>
<clipPath id="clip5">
  <path d="M 194 9 L 205.039062 9 L 205.039062 26 L 194 26 Z M 194 9 "/>
</clipPath>
<clipPath id="clip6">
  <path d="M 167 11 L 205.039062 11 L 205.039062 52 L 167 52 Z M 167 11 "/>
</clipPath>
</defs>
<g id="surface1">
<path style="fill-rule:nonzero;fill:rgb(0%,0%,0%);fill-opacity:1;stroke-width:0.3985;stroke-linecap:butt;stroke-linejoin:miter;stroke:rgb(0%,0%,0%);stroke-opacity:1;stroke-miterlimit:10;" d="M 30.34075 -0.00132875 C 30.34075 1.100234 29.446219 1.990859 28.348562 1.990859 C 27.247 1.990859 26.352469 1.100234 26.352469 -0.00132875 C 26.352469 -1.098985 27.247 -1.993516 28.348562 -1.993516 C 29.446219 -1.993516 30.34075 -1.098985 30.34075 -0.00132875 Z M 30.34075 -0.00132875 " transform="matrix(1,0,0,-1,31.753,31.57289)"/>
<path style="fill:none;stroke-width:0.3985;stroke-linecap:butt;stroke-linejoin:miter;stroke:rgb(0%,0%,0%);stroke-opacity:1;stroke-miterlimit:10;" d="M 28.348562 -0.00132875 L 20.043875 20.045546 " transform="matrix(1,0,0,-1,31.753,31.57289)"/>
<path style="fill-rule:nonzero;fill:rgb(0%,0%,0%);fill-opacity:1;stroke-width:0.3985;stroke-linecap:butt;stroke-linejoin:miter;stroke:rgb(0%,0%,0%);stroke-opacity:1;stroke-miterlimit:10;" d="M 22.036062 20.045546 C 22.036062 21.143202 21.145437 22.037734 20.043875 22.037734 C 18.942312 22.037734 18.051687 21.143202 18.051687 20.045546 C 18.051687 18.943984 18.942312 18.053359 20.043875 18.053359 C 21.145437 18.053359 22.036062 18.943984 22.036062 20.045546 Z M 22.036062 20.045546 " transform="matrix(1,0,0,-1,31.753,31.57289)"/>
<path style="fill:none;stroke-width:0.3985;stroke-linecap:butt;stroke-linejoin:miter;stroke:rgb(0%,0%,0%);stroke-opacity:1;stroke-miterlimit:10;" d="M 20.043875 20.045546 L 0.00090625 28.346327 " transform="matrix(1,0,0,-1,31.753,31.57289)"/>
<path style="fill-rule:nonzero;fill:rgb(0%,0%,0%);fill-opacity:1;stroke-width:0.3985;stroke-linecap:butt;stroke-linejoin:miter;stroke:rgb(0%,0%,0%);stroke-opacity:1;stroke-miterlimit:10;" d="M 1.993094 28.346327 C 1.993094 29.44789 1.098562 30.338515 0.00090625 30.338515 C -1.100656 30.338515 -1.991281 29.44789 -1.991281 28.346327 C -1.991281 27.244765 -1.100656 26.35414 0.00090625 26.35414 C 1.098562 26.35414 1.993094 27.244765 1.993094 28.346327 Z M 1.993094 28.346327 " transform="matrix(1,0,0,-1,31.753,31.57289)"/>
<path style="fill:none;stroke-width:0.3985;stroke-linecap:butt;stroke-linejoin:miter;stroke:rgb(0%,0%,0%);stroke-opacity:1;stroke-miterlimit:10;" d="M 0.00090625 28.346327 L -20.045969 20.045546 " transform="matrix(1,0,0,-1,31.753,31.57289)"/>
<path style="fill-rule:nonzero;fill:rgb(0%,0%,0%);fill-opacity:1;stroke-width:0.3985;stroke-linecap:butt;stroke-linejoin:miter;stroke:rgb(0%,0%,0%);stroke-opacity:1;stroke-miterlimit:10;" d="M -18.049875 20.045546 C -18.049875 21.143202 -18.944406 22.037734 -20.045969 22.037734 C -21.143625 22.037734 -22.038156 21.143202 -22.038156 20.045546 C -22.038156 18.943984 -21.143625 18.053359 -20.045969 18.053359 C -18.944406 18.053359 -18.049875 18.943984 -18.049875 20.045546 Z M -18.049875 20.045546 " transform="matrix(1,0,0,-1,31.753,31.57289)"/>
<path style="fill:none;stroke-width:0.3985;stroke-linecap:butt;stroke-linejoin:miter;stroke:rgb(0%,0%,0%);stroke-opacity:1;stroke-miterlimit:10;" d="M -20.045969 20.045546 L -28.34675 -0.00132875 " transform="matrix(1,0,0,-1,31.753,31.57289)"/>
<path style="fill-rule:nonzero;fill:rgb(0%,0%,0%);fill-opacity:1;stroke-width:0.3985;stroke-linecap:butt;stroke-linejoin:miter;stroke:rgb(0%,0%,0%);stroke-opacity:1;stroke-miterlimit:10;" d="M -26.354563 -0.00132875 C -26.354563 1.100234 -27.245188 1.990859 -28.34675 1.990859 C -29.448313 1.990859 -30.338938 1.100234 -30.338938 -0.00132875 C -30.338938 -1.098985 -29.448313 -1.993516 -28.34675 -1.993516 C -27.245188 -1.993516 -26.354563 -1.098985 -26.354563 -0.00132875 Z M -26.354563 -0.00132875 " transform="matrix(1,0,0,-1,31.753,31.57289)"/>
<path style="fill:none;stroke-width:0.3985;stroke-linecap:butt;stroke-linejoin:miter;stroke:rgb(0%,0%,0%);stroke-opacity:1;stroke-miterlimit:10;" d="M -28.34675 -0.00132875 L -20.045969 -20.044298 " transform="matrix(1,0,0,-1,31.753,31.57289)"/>
<path style="fill-rule:nonzero;fill:rgb(0%,0%,0%);fill-opacity:1;stroke-width:0.3985;stroke-linecap:butt;stroke-linejoin:miter;stroke:rgb(0%,0%,0%);stroke-opacity:1;stroke-miterlimit:10;" d="M -18.049875 -20.044298 C -18.049875 -18.942735 -18.944406 -18.05211 -20.045969 -18.05211 C -21.143625 -18.05211 -22.038156 -18.942735 -22.038156 -20.044298 C -22.038156 -21.14586 -21.143625 -22.036485 -20.045969 -22.036485 C -18.944406 -22.036485 -18.049875 -21.14586 -18.049875 -20.044298 Z M -18.049875 -20.044298 " transform="matrix(1,0,0,-1,31.753,31.57289)"/>
<g clip-path="url(#clip1)" clip-rule="nonzero">
<path style="fill:none;stroke-width:0.3985;stroke-linecap:butt;stroke-linejoin:miter;stroke:rgb(0%,0%,0%);stroke-opacity:1;stroke-miterlimit:10;" d="M -20.045969 -20.044298 L 0.00090625 -28.345079 " transform="matrix(1,0,0,-1,31.753,31.57289)"/>
</g>
<path style=" stroke:none;fill-rule:nonzero;fill:rgb(0%,0%,0%);fill-opacity:1;" d="M 33.746094 59.917969 C 33.746094 58.820312 32.851562 57.925781 31.753906 57.925781 C 30.652344 57.925781 29.761719 58.820312 29.761719 59.917969 C 29.761719 61.019531 30.652344 61.914062 31.753906 61.914062 C 32.851562 61.914062 33.746094 61.019531 33.746094 59.917969 Z M 33.746094 59.917969 "/>
<g clip-path="url(#clip2)" clip-rule="nonzero">
<path style="fill:none;stroke-width:0.3985;stroke-linecap:butt;stroke-linejoin:miter;stroke:rgb(0%,0%,0%);stroke-opacity:1;stroke-miterlimit:10;" d="M 1.993094 -28.345079 C 1.993094 -27.247423 1.098562 -26.352891 0.00090625 -26.352891 C -1.100656 -26.352891 -1.991281 -27.247423 -1.991281 -28.345079 C -1.991281 -29.446641 -1.100656 -30.341173 0.00090625 -30.341173 C 1.098562 -30.341173 1.993094 -29.446641 1.993094 -28.345079 Z M 1.993094 -28.345079 " transform="matrix(1,0,0,-1,31.753,31.57289)"/>
</g>
<g clip-path="url(#clip3)" clip-rule="nonzero">
<path style="fill:none;stroke-width:0.3985;stroke-linecap:butt;stroke-linejoin:miter;stroke:rgb(0%,0%,0%);stroke-opacity:1;stroke-miterlimit:10;" d="M 0.00090625 -28.345079 L 20.043875 -20.044298 " transform="matrix(1,0,0,-1,31.753,31.57289)"/>
</g>
<path style="fill-rule:nonzero;fill:rgb(0%,0%,0%);fill-opacity:1;stroke-width:0.3985;stroke-linecap:butt;stroke-linejoin:miter;stroke:rgb(0%,0%,0%);stroke-opacity:1;stroke-miterlimit:10;" d="M 22.036062 -20.044298 C 22.036062 -18.942735 21.145437 -18.05211 20.043875 -18.05211 C 18.942312 -18.05211 18.051687 -18.942735 18.051687 -20.044298 C 18.051687 -21.14586 18.942312 -22.036485 20.043875 -22.036485 C 21.145437 -22.036485 22.036062 -21.14586 22.036062 -20.044298 Z M 22.036062 -20.044298 " transform="matrix(1,0,0,-1,31.753,31.57289)"/>
<path style="fill:none;stroke-width:0.3985;stroke-linecap:butt;stroke-linejoin:miter;stroke:rgb(0%,0%,0%);stroke-opacity:1;stroke-miterlimit:10;" d="M 20.043875 -20.044298 L 28.348562 -0.00132875 " transform="matrix(1,0,0,-1,31.753,31.57289)"/>
<path style="fill:none;stroke-width:0.3985;stroke-linecap:butt;stroke-linejoin:miter;stroke:rgb(0%,0%,0%);stroke-opacity:1;stroke-miterlimit:10;" d="M 28.348562 -0.00132875 L -28.34675 -0.00132875 " transform="matrix(1,0,0,-1,31.753,31.57289)"/>
<path style="fill:none;stroke-width:0.3985;stroke-linecap:butt;stroke-linejoin:miter;stroke:rgb(0%,0%,0%);stroke-opacity:1;stroke-miterlimit:10;" d="M 20.043875 20.045546 L -20.045969 -20.044298 " transform="matrix(1,0,0,-1,31.753,31.57289)"/>
<path style="fill:none;stroke-width:0.3985;stroke-linecap:butt;stroke-linejoin:miter;stroke:rgb(0%,0%,0%);stroke-opacity:1;stroke-miterlimit:10;" d="M 0.00090625 28.346327 L 0.00090625 -28.345079 " transform="matrix(1,0,0,-1,31.753,31.57289)"/>
<path style="fill:none;stroke-width:0.3985;stroke-linecap:butt;stroke-linejoin:miter;stroke:rgb(0%,0%,0%);stroke-opacity:1;stroke-miterlimit:10;" d="M -20.045969 20.045546 L 20.043875 -20.044298 " transform="matrix(1,0,0,-1,31.753,31.57289)"/>
<path style="fill-rule:nonzero;fill:rgb(0%,0%,0%);fill-opacity:1;stroke-width:0.3985;stroke-linecap:butt;stroke-linejoin:miter;stroke:rgb(0%,0%,0%);stroke-opacity:1;stroke-miterlimit:10;" d="M 87.032156 -14.173204 C 87.032156 -13.071641 86.141531 -12.181016 85.039969 -12.181016 C 83.938406 -12.181016 83.047781 -13.071641 83.047781 -14.173204 C 83.047781 -15.274766 83.938406 -16.165391 85.039969 -16.165391 C 86.141531 -16.165391 87.032156 -15.274766 87.032156 -14.173204 Z M 87.032156 -14.173204 " transform="matrix(1,0,0,-1,31.753,31.57289)"/>
<path style="fill-rule:nonzero;fill:rgb(0%,0%,0%);fill-opacity:1;stroke-width:0.3985;stroke-linecap:butt;stroke-linejoin:miter;stroke:rgb(0%,0%,0%);stroke-opacity:1;stroke-miterlimit:10;" d="M 115.379812 -14.173204 C 115.379812 -13.071641 114.489187 -12.181016 113.387625 -12.181016 C 112.286062 -12.181016 111.395437 -13.071641 111.395437 -14.173204 C 111.395437 -15.274766 112.286062 -16.165391 113.387625 -16.165391 C 114.489187 -16.165391 115.379812 -15.274766 115.379812 -14.173204 Z M 115.379812 -14.173204 " transform="matrix(1,0,0,-1,31.753,31.57289)"/>
<path style="fill-rule:nonzero;fill:rgb(0%,0%,0%);fill-opacity:1;stroke-width:0.3985;stroke-linecap:butt;stroke-linejoin:miter;stroke:rgb(0%,0%,0%);stroke-opacity:1;stroke-miterlimit:10;" d="M 115.379812 14.174452 C 115.379812 15.272109 114.489187 16.16664 113.387625 16.16664 C 112.286062 16.16664 111.395437 15.272109 111.395437 14.174452 C 111.395437 13.07289 112.286062 12.182265 113.387625 12.182265 C 114.489187 12.182265 115.379812 13.07289 115.379812 14.174452 Z M 115.379812 14.174452 " transform="matrix(1,0,0,-1,31.753,31.57289)"/>
<path style="fill-rule:nonzero;fill:rgb(0%,0%,0%);fill-opacity:1;stroke-width:0.3985;stroke-linecap:butt;stroke-linejoin:miter;stroke:rgb(0%,0%,0%);stroke-opacity:1;stroke-miterlimit:10;" d="M 87.032156 14.174452 C 87.032156 15.272109 86.141531 16.16664 85.039969 16.16664 C 83.938406 16.16664 83.047781 15.272109 83.047781 14.174452 C 83.047781 13.07289 83.938406 12.182265 85.039969 12.182265 C 86.141531 12.182265 87.032156 13.07289 87.032156 14.174452 Z M 87.032156 14.174452 " transform="matrix(1,0,0,-1,31.753,31.57289)"/>
<path style="fill-rule:nonzero;fill:rgb(0%,0%,0%);fill-opacity:1;stroke-width:0.3985;stroke-linecap:butt;stroke-linejoin:miter;stroke:rgb(0%,0%,0%);stroke-opacity:1;stroke-miterlimit:10;" d="M 143.727469 -14.173204 C 143.727469 -13.071641 142.832938 -12.181016 141.735281 -12.181016 C 140.633719 -12.181016 139.743094 -13.071641 139.743094 -14.173204 C 139.743094 -15.274766 140.633719 -16.165391 141.735281 -16.165391 C 142.832938 -16.165391 143.727469 -15.274766 143.727469 -14.173204 Z M 143.727469 -14.173204 " transform="matrix(1,0,0,-1,31.753,31.57289)"/>
<path style=" stroke:none;fill-rule:nonzero;fill:rgb(0%,0%,0%);fill-opacity:1;" d="M 203.828125 45.746094 C 203.828125 44.644531 202.933594 43.753906 201.832031 43.753906 C 200.734375 43.753906 199.839844 44.644531 199.839844 45.746094 C 199.839844 46.847656 200.734375 47.738281 201.832031 47.738281 C 202.933594 47.738281 203.828125 46.847656 203.828125 45.746094 Z M 203.828125 45.746094 "/>
<g clip-path="url(#clip4)" clip-rule="nonzero">
<path style="fill:none;stroke-width:0.3985;stroke-linecap:butt;stroke-linejoin:miter;stroke:rgb(0%,0%,0%);stroke-opacity:1;stroke-miterlimit:10;" d="M 172.075125 -14.173204 C 172.075125 -13.071641 171.180594 -12.181016 170.079031 -12.181016 C 168.981375 -12.181016 168.086844 -13.071641 168.086844 -14.173204 C 168.086844 -15.274766 168.981375 -16.165391 170.079031 -16.165391 C 171.180594 -16.165391 172.075125 -15.274766 172.075125 -14.173204 Z M 172.075125 -14.173204 " transform="matrix(1,0,0,-1,31.753,31.57289)"/>
</g>
<path style=" stroke:none;fill-rule:nonzero;fill:rgb(0%,0%,0%);fill-opacity:1;" d="M 203.828125 17.398438 C 203.828125 16.300781 202.933594 15.40625 201.832031 15.40625 C 200.734375 15.40625 199.839844 16.300781 199.839844 17.398438 C 199.839844 18.5 200.734375 19.390625 201.832031 19.390625 C 202.933594 19.390625 203.828125 18.5 203.828125 17.398438 Z M 203.828125 17.398438 "/>
<g clip-path="url(#clip5)" clip-rule="nonzero">
<path style="fill:none;stroke-width:0.3985;stroke-linecap:butt;stroke-linejoin:miter;stroke:rgb(0%,0%,0%);stroke-opacity:1;stroke-miterlimit:10;" d="M 172.075125 14.174452 C 172.075125 15.272109 171.180594 16.16664 170.079031 16.16664 C 168.981375 16.16664 168.086844 15.272109 168.086844 14.174452 C 168.086844 13.07289 168.981375 12.182265 170.079031 12.182265 C 171.180594 12.182265 172.075125 13.07289 172.075125 14.174452 Z M 172.075125 14.174452 " transform="matrix(1,0,0,-1,31.753,31.57289)"/>
</g>
<path style="fill-rule:nonzero;fill:rgb(0%,0%,0%);fill-opacity:1;stroke-width:0.3985;stroke-linecap:butt;stroke-linejoin:miter;stroke:rgb(0%,0%,0%);stroke-opacity:1;stroke-miterlimit:10;" d="M 143.727469 14.174452 C 143.727469 15.272109 142.832938 16.16664 141.735281 16.16664 C 140.633719 16.16664 139.743094 15.272109 139.743094 14.174452 C 139.743094 13.07289 140.633719 12.182265 141.735281 12.182265 C 142.832938 12.182265 143.727469 13.07289 143.727469 14.174452 Z M 143.727469 14.174452 " transform="matrix(1,0,0,-1,31.753,31.57289)"/>
<path style="fill:none;stroke-width:0.3985;stroke-linecap:butt;stroke-linejoin:miter;stroke:rgb(0%,0%,0%);stroke-opacity:1;stroke-miterlimit:10;" d="M 85.039969 -14.173204 L 113.387625 -14.173204 L 113.387625 14.174452 L 85.039969 14.174452 Z M 85.039969 -14.173204 " transform="matrix(1,0,0,-1,31.753,31.57289)"/>
<path style="fill:none;stroke-width:0.3985;stroke-linecap:butt;stroke-linejoin:miter;stroke:rgb(0%,0%,0%);stroke-opacity:1;stroke-miterlimit:10;" d="M 85.039969 -14.173204 L 113.387625 14.174452 " transform="matrix(1,0,0,-1,31.753,31.57289)"/>
<path style="fill:none;stroke-width:0.3985;stroke-linecap:butt;stroke-linejoin:miter;stroke:rgb(0%,0%,0%);stroke-opacity:1;stroke-miterlimit:10;" d="M 85.039969 14.174452 L 113.387625 -14.173204 " transform="matrix(1,0,0,-1,31.753,31.57289)"/>
<path style="fill:none;stroke-width:0.3985;stroke-linecap:butt;stroke-linejoin:miter;stroke:rgb(0%,0%,0%);stroke-opacity:1;stroke-miterlimit:10;" d="M 141.735281 -14.173204 L 170.079031 -14.173204 L 170.079031 14.174452 L 141.735281 14.174452 Z M 141.735281 -14.173204 " transform="matrix(1,0,0,-1,31.753,31.57289)"/>
<g clip-path="url(#clip6)" clip-rule="nonzero">
<path style="fill:none;stroke-width:0.3985;stroke-linecap:butt;stroke-linejoin:miter;stroke:rgb(0%,0%,0%);stroke-opacity:1;stroke-miterlimit:10;" d="M 141.735281 -14.173204 L 170.079031 14.174452 " transform="matrix(1,0,0,-1,31.753,31.57289)"/>
<path style="fill:none;stroke-width:0.3985;stroke-linecap:butt;stroke-linejoin:miter;stroke:rgb(0%,0%,0%);stroke-opacity:1;stroke-miterlimit:10;" d="M 141.735281 14.174452 L 170.079031 -14.173204 " transform="matrix(1,0,0,-1,31.753,31.57289)"/>
</g>
</g>
</svg>
