<?xml version="1.0" encoding="UTF-8"?>
<svg xmlns="http://www.w3.org/2000/svg" xmlns:xlink="http://www.w3.org/1999/xlink" width="290pt" height="62.92308pt" viewBox="0 0 290 62.92308" version="1.1">
<defs>
<clipPath id="clip1">
  <path d="M 236 48 L 252 48 L 252 62.921875 L 236 62.921875 Z M 236 48 "/>
</clipPath>
<clipPath id="clip2">
  <path d="M 250 52 L 267 52 L 267 62.921875 L 250 62.921875 Z M 250 52 "/>
</clipPath>
<clipPath id="clip3">
  <path d="M 265 48 L 281 48 L 281 62.921875 L 265 62.921875 Z M 265 48 "/>
</clipPath>
</defs>
<g id="surface1">
<path style="fill-rule:nonzero;fill:rgb(0%,0%,0%);fill-opacity:1;stroke-width:0.3985;stroke-linecap:butt;stroke-linejoin:miter;stroke:rgb(0%,0%,0%);stroke-opacity:1;stroke-miterlimit:10;" d="M 1.991438 -0.00132875 C 1.991438 1.100234 1.100813 1.990859 -0.00075 1.990859 C -1.102312 1.990859 -1.992937 1.100234 -1.992937 -0.00132875 C -1.992937 -1.098985 -1.102312 -1.993516 -0.00075 -1.993516 C 1.100813 -1.993516 1.991438 -1.098985 1.991438 -0.00132875 Z M 1.991438 -0.00132875 " transform="matrix(1,0,0,-1,3.407,31.57289)"/>
<path style="fill-rule:nonzero;fill:rgb(0%,0%,0%);fill-opacity:1;stroke-width:0.3985;stroke-linecap:butt;stroke-linejoin:miter;stroke:rgb(0%,0%,0%);stroke-opacity:1;stroke-miterlimit:10;" d="M 30.339094 -0.00132875 C 30.339094 1.100234 29.448469 1.990859 28.346906 1.990859 C 27.245344 1.990859 26.354719 1.100234 26.354719 -0.00132875 C 26.354719 -1.098985 27.245344 -1.993516 28.346906 -1.993516 C 29.448469 -1.993516 30.339094 -1.098985 30.339094 -0.00132875 Z M 30.339094 -0.00132875 " transform="matrix(1,0,0,-1,3.407,31.57289)"/>
<path style="fill-rule:nonzero;fill:rgb(0%,0%,0%);fill-opacity:1;stroke-width:0.3985;stroke-linecap:butt;stroke-linejoin:miter;stroke:rgb(0%,0%,0%);stroke-opacity:1;stroke-miterlimit:10;" d="M 58.68675 -0.00132875 C 58.68675 1.100234 57.792219 1.990859 56.694563 1.990859 C 55.593 1.990859 54.702375 1.100234 54.702375 -0.00132875 C 54.702375 -1.098985 55.593 -1.993516 56.694563 -1.993516 C 57.792219 -1.993516 58.68675 -1.098985 58.68675 -0.00132875 Z M 58.68675 -0.00132875 " transform="matrix(1,0,0,-1,3.407,31.57289)"/>
<path style="fill-rule:nonzero;fill:rgb(0%,0%,0%);fill-opacity:1;stroke-width:0.3985;stroke-linecap:butt;stroke-linejoin:miter;stroke:rgb(0%,0%,0%);stroke-opacity:1;stroke-miterlimit:10;" d="M 101.206281 -0.00132875 C 101.206281 1.100234 100.315656 1.990859 99.214094 1.990859 C 98.112531 1.990859 97.221906 1.100234 97.221906 -0.00132875 C 97.221906 -1.098985 98.112531 -1.993516 99.214094 -1.993516 C 100.315656 -1.993516 101.206281 -1.098985 101.206281 -0.00132875 Z M 101.206281 -0.00132875 " transform="matrix(1,0,0,-1,3.407,31.57289)"/>
<path style="fill-rule:nonzero;fill:rgb(0%,0%,0%);fill-opacity:1;stroke-width:0.3985;stroke-linecap:butt;stroke-linejoin:miter;stroke:rgb(0%,0%,0%);stroke-opacity:1;stroke-miterlimit:10;" d="M 129.553938 -0.00132875 C 129.553938 1.100234 128.659406 1.990859 127.56175 1.990859 C 126.460188 1.990859 125.569563 1.100234 125.569563 -0.00132875 C 125.569563 -1.098985 126.460188 -1.993516 127.56175 -1.993516 C 128.659406 -1.993516 129.553938 -1.098985 129.553938 -0.00132875 Z M 129.553938 -0.00132875 " transform="matrix(1,0,0,-1,3.407,31.57289)"/>
<path style="fill:none;stroke-width:0.3985;stroke-linecap:butt;stroke-linejoin:miter;stroke:rgb(0%,0%,0%);stroke-opacity:1;stroke-miterlimit:10;" d="M -0.00075 -0.00132875 L 63.7805 -0.00132875 " transform="matrix(1,0,0,-1,3.407,31.57289)"/>
<path style="fill:none;stroke-width:0.3985;stroke-linecap:butt;stroke-linejoin:miter;stroke:rgb(0%,0%,0%);stroke-opacity:1;stroke-miterlimit:10;" d="M 92.128156 -0.00132875 L 127.56175 -0.00132875 " transform="matrix(1,0,0,-1,3.407,31.57289)"/>
<path style="fill-rule:nonzero;fill:rgb(0%,0%,0%);fill-opacity:1;stroke-width:0.3985;stroke-linecap:butt;stroke-linejoin:miter;stroke:rgb(0%,0%,0%);stroke-opacity:1;stroke-miterlimit:10;" d="M 71.366438 -0.00132875 C 71.366438 0.276015 71.143781 0.498671 70.866438 0.498671 C 70.593 0.498671 70.370344 0.276015 70.370344 -0.00132875 C 70.370344 -0.274766 70.593 -0.497423 70.866438 -0.497423 C 71.143781 -0.497423 71.366438 -0.274766 71.366438 -0.00132875 Z M 71.366438 -0.00132875 " transform="matrix(1,0,0,-1,3.407,31.57289)"/>
<path style="fill-rule:nonzero;fill:rgb(0%,0%,0%);fill-opacity:1;stroke-width:0.3985;stroke-linecap:butt;stroke-linejoin:miter;stroke:rgb(0%,0%,0%);stroke-opacity:1;stroke-miterlimit:10;" d="M 78.452375 -0.00132875 C 78.452375 0.276015 78.229719 0.498671 77.952375 0.498671 C 77.678938 0.498671 77.456281 0.276015 77.456281 -0.00132875 C 77.456281 -0.274766 77.678938 -0.497423 77.952375 -0.497423 C 78.229719 -0.497423 78.452375 -0.274766 78.452375 -0.00132875 Z M 78.452375 -0.00132875 " transform="matrix(1,0,0,-1,3.407,31.57289)"/>
<path style="fill-rule:nonzero;fill:rgb(0%,0%,0%);fill-opacity:1;stroke-width:0.3985;stroke-linecap:butt;stroke-linejoin:miter;stroke:rgb(0%,0%,0%);stroke-opacity:1;stroke-miterlimit:10;" d="M 85.538313 -0.00132875 C 85.538313 0.276015 85.315656 0.498671 85.042219 0.498671 C 84.764875 0.498671 84.542219 0.276015 84.542219 -0.00132875 C 84.542219 -0.274766 84.764875 -0.497423 85.042219 -0.497423 C 85.315656 -0.497423 85.538313 -0.274766 85.538313 -0.00132875 Z M 85.538313 -0.00132875 " transform="matrix(1,0,0,-1,3.407,31.57289)"/>
<path style="fill-rule:nonzero;fill:rgb(0%,0%,0%);fill-opacity:1;stroke-width:0.3985;stroke-linecap:butt;stroke-linejoin:miter;stroke:rgb(0%,0%,0%);stroke-opacity:1;stroke-miterlimit:10;" d="M 257.112531 -0.00132875 C 257.112531 1.100234 256.221906 1.990859 255.120344 1.990859 C 254.022688 1.990859 253.128156 1.100234 253.128156 -0.00132875 C 253.128156 -1.098985 254.022688 -1.993516 255.120344 -1.993516 C 256.221906 -1.993516 257.112531 -1.098985 257.112531 -0.00132875 Z M 257.112531 -0.00132875 " transform="matrix(1,0,0,-1,3.407,31.57289)"/>
<path style="fill-rule:nonzero;fill:rgb(0%,0%,0%);fill-opacity:1;stroke-width:0.3985;stroke-linecap:butt;stroke-linejoin:miter;stroke:rgb(0%,0%,0%);stroke-opacity:1;stroke-miterlimit:10;" d="M 285.460188 -0.00132875 C 285.460188 1.100234 284.569563 1.990859 283.468 1.990859 C 282.366438 1.990859 281.475813 1.100234 281.475813 -0.00132875 C 281.475813 -1.098985 282.366438 -1.993516 283.468 -1.993516 C 284.569563 -1.993516 285.460188 -1.098985 285.460188 -0.00132875 Z M 285.460188 -0.00132875 " transform="matrix(1,0,0,-1,3.407,31.57289)"/>
<path style="fill:none;stroke-width:0.3985;stroke-linecap:butt;stroke-linejoin:miter;stroke:rgb(0%,0%,0%);stroke-opacity:1;stroke-miterlimit:10;" d="M 255.120344 -0.00132875 L 283.468 -0.00132875 " transform="matrix(1,0,0,-1,3.407,31.57289)"/>
<path style="fill-rule:nonzero;fill:rgb(0%,0%,0%);fill-opacity:1;stroke-width:0.3985;stroke-linecap:butt;stroke-linejoin:miter;stroke:rgb(0%,0%,0%);stroke-opacity:1;stroke-miterlimit:10;" d="M 281.663313 14.174452 C 281.663313 15.272109 280.772688 16.16664 279.671125 16.16664 C 278.569563 16.16664 277.678938 15.272109 277.678938 14.174452 C 277.678938 13.07289 278.569563 12.182265 279.671125 12.182265 C 280.772688 12.182265 281.663313 13.07289 281.663313 14.174452 Z M 281.663313 14.174452 " transform="matrix(1,0,0,-1,3.407,31.57289)"/>
<path style="fill:none;stroke-width:0.3985;stroke-linecap:butt;stroke-linejoin:miter;stroke:rgb(0%,0%,0%);stroke-opacity:1;stroke-miterlimit:10;" d="M 255.120344 -0.00132875 L 279.671125 14.174452 " transform="matrix(1,0,0,-1,3.407,31.57289)"/>
<path style="fill-rule:nonzero;fill:rgb(0%,0%,0%);fill-opacity:1;stroke-width:0.3985;stroke-linecap:butt;stroke-linejoin:miter;stroke:rgb(0%,0%,0%);stroke-opacity:1;stroke-miterlimit:10;" d="M 271.288313 24.549452 C 271.288313 25.651015 270.393781 26.54164 269.296125 26.54164 C 268.194563 26.54164 267.303938 25.651015 267.303938 24.549452 C 267.303938 23.44789 268.194563 22.557265 269.296125 22.557265 C 270.393781 22.557265 271.288313 23.44789 271.288313 24.549452 Z M 271.288313 24.549452 " transform="matrix(1,0,0,-1,3.407,31.57289)"/>
<path style="fill:none;stroke-width:0.3985;stroke-linecap:butt;stroke-linejoin:miter;stroke:rgb(0%,0%,0%);stroke-opacity:1;stroke-miterlimit:10;" d="M 255.120344 -0.00132875 L 269.296125 24.549452 " transform="matrix(1,0,0,-1,3.407,31.57289)"/>
<path style="fill-rule:nonzero;fill:rgb(0%,0%,0%);fill-opacity:1;stroke-width:0.3985;stroke-linecap:butt;stroke-linejoin:miter;stroke:rgb(0%,0%,0%);stroke-opacity:1;stroke-miterlimit:10;" d="M 257.112531 28.346327 C 257.112531 29.44789 256.221906 30.338515 255.120344 30.338515 C 254.022688 30.338515 253.128156 29.44789 253.128156 28.346327 C 253.128156 27.244765 254.022688 26.35414 255.120344 26.35414 C 256.221906 26.35414 257.112531 27.244765 257.112531 28.346327 Z M 257.112531 28.346327 " transform="matrix(1,0,0,-1,3.407,31.57289)"/>
<path style="fill:none;stroke-width:0.3985;stroke-linecap:butt;stroke-linejoin:miter;stroke:rgb(0%,0%,0%);stroke-opacity:1;stroke-miterlimit:10;" d="M 255.120344 -0.00132875 L 255.120344 28.346327 " transform="matrix(1,0,0,-1,3.407,31.57289)"/>
<path style="fill-rule:nonzero;fill:rgb(0%,0%,0%);fill-opacity:1;stroke-width:0.3985;stroke-linecap:butt;stroke-linejoin:miter;stroke:rgb(0%,0%,0%);stroke-opacity:1;stroke-miterlimit:10;" d="M 242.940656 24.549452 C 242.940656 25.651015 242.050031 26.54164 240.948469 26.54164 C 239.846906 26.54164 238.956281 25.651015 238.956281 24.549452 C 238.956281 23.44789 239.846906 22.557265 240.948469 22.557265 C 242.050031 22.557265 242.940656 23.44789 242.940656 24.549452 Z M 242.940656 24.549452 " transform="matrix(1,0,0,-1,3.407,31.57289)"/>
<path style="fill:none;stroke-width:0.3985;stroke-linecap:butt;stroke-linejoin:miter;stroke:rgb(0%,0%,0%);stroke-opacity:1;stroke-miterlimit:10;" d="M 255.120344 -0.00132875 L 240.948469 24.549452 " transform="matrix(1,0,0,-1,3.407,31.57289)"/>
<path style="fill-rule:nonzero;fill:rgb(0%,0%,0%);fill-opacity:1;stroke-width:0.3985;stroke-linecap:butt;stroke-linejoin:miter;stroke:rgb(0%,0%,0%);stroke-opacity:1;stroke-miterlimit:10;" d="M 232.565656 14.174452 C 232.565656 15.272109 231.671125 16.16664 230.573469 16.16664 C 229.471906 16.16664 228.581281 15.272109 228.581281 14.174452 C 228.581281 13.07289 229.471906 12.182265 230.573469 12.182265 C 231.671125 12.182265 232.565656 13.07289 232.565656 14.174452 Z M 232.565656 14.174452 " transform="matrix(1,0,0,-1,3.407,31.57289)"/>
<path style="fill:none;stroke-width:0.3985;stroke-linecap:butt;stroke-linejoin:miter;stroke:rgb(0%,0%,0%);stroke-opacity:1;stroke-miterlimit:10;" d="M 255.120344 -0.00132875 L 230.573469 14.174452 " transform="matrix(1,0,0,-1,3.407,31.57289)"/>
<path style="fill-rule:nonzero;fill:rgb(0%,0%,0%);fill-opacity:1;stroke-width:0.3985;stroke-linecap:butt;stroke-linejoin:miter;stroke:rgb(0%,0%,0%);stroke-opacity:1;stroke-miterlimit:10;" d="M 228.768781 -0.00132875 C 228.768781 1.100234 227.87425 1.990859 226.772688 1.990859 C 225.675031 1.990859 224.7805 1.100234 224.7805 -0.00132875 C 224.7805 -1.098985 225.675031 -1.993516 226.772688 -1.993516 C 227.87425 -1.993516 228.768781 -1.098985 228.768781 -0.00132875 Z M 228.768781 -0.00132875 " transform="matrix(1,0,0,-1,3.407,31.57289)"/>
<path style="fill:none;stroke-width:0.3985;stroke-linecap:butt;stroke-linejoin:miter;stroke:rgb(0%,0%,0%);stroke-opacity:1;stroke-miterlimit:10;" d="M 255.120344 -0.00132875 L 226.772688 -0.00132875 " transform="matrix(1,0,0,-1,3.407,31.57289)"/>
<path style="fill-rule:nonzero;fill:rgb(0%,0%,0%);fill-opacity:1;stroke-width:0.3985;stroke-linecap:butt;stroke-linejoin:miter;stroke:rgb(0%,0%,0%);stroke-opacity:1;stroke-miterlimit:10;" d="M 232.565656 -14.173204 C 232.565656 -13.071641 231.671125 -12.181016 230.573469 -12.181016 C 229.471906 -12.181016 228.581281 -13.071641 228.581281 -14.173204 C 228.581281 -15.274766 229.471906 -16.165391 230.573469 -16.165391 C 231.671125 -16.165391 232.565656 -15.274766 232.565656 -14.173204 Z M 232.565656 -14.173204 " transform="matrix(1,0,0,-1,3.407,31.57289)"/>
<path style="fill:none;stroke-width:0.3985;stroke-linecap:butt;stroke-linejoin:miter;stroke:rgb(0%,0%,0%);stroke-opacity:1;stroke-miterlimit:10;" d="M 255.120344 -0.00132875 L 230.573469 -14.173204 " transform="matrix(1,0,0,-1,3.407,31.57289)"/>
<path style=" stroke:none;fill-rule:nonzero;fill:rgb(0%,0%,0%);fill-opacity:1;" d="M 246.347656 56.121094 C 246.347656 55.023438 245.457031 54.128906 244.355469 54.128906 C 243.253906 54.128906 242.363281 55.023438 242.363281 56.121094 C 242.363281 57.222656 243.253906 58.113281 244.355469 58.113281 C 245.457031 58.113281 246.347656 57.222656 246.347656 56.121094 Z M 246.347656 56.121094 "/>
<g clip-path="url(#clip1)" clip-rule="nonzero">
<path style="fill:none;stroke-width:0.3985;stroke-linecap:butt;stroke-linejoin:miter;stroke:rgb(0%,0%,0%);stroke-opacity:1;stroke-miterlimit:10;" d="M 242.940656 -24.548204 C 242.940656 -23.450548 242.050031 -22.556016 240.948469 -22.556016 C 239.846906 -22.556016 238.956281 -23.450548 238.956281 -24.548204 C 238.956281 -25.649766 239.846906 -26.540391 240.948469 -26.540391 C 242.050031 -26.540391 242.940656 -25.649766 242.940656 -24.548204 Z M 242.940656 -24.548204 " transform="matrix(1,0,0,-1,3.407,31.57289)"/>
</g>
<path style="fill:none;stroke-width:0.3985;stroke-linecap:butt;stroke-linejoin:miter;stroke:rgb(0%,0%,0%);stroke-opacity:1;stroke-miterlimit:10;" d="M 255.120344 -0.00132875 L 240.948469 -24.548204 " transform="matrix(1,0,0,-1,3.407,31.57289)"/>
<path style=" stroke:none;fill-rule:nonzero;fill:rgb(0%,0%,0%);fill-opacity:1;" d="M 260.519531 59.917969 C 260.519531 58.820312 259.628906 57.925781 258.527344 57.925781 C 257.429688 57.925781 256.535156 58.820312 256.535156 59.917969 C 256.535156 61.019531 257.429688 61.914062 258.527344 61.914062 C 259.628906 61.914062 260.519531 61.019531 260.519531 59.917969 Z M 260.519531 59.917969 "/>
<g clip-path="url(#clip2)" clip-rule="nonzero">
<path style="fill:none;stroke-width:0.3985;stroke-linecap:butt;stroke-linejoin:miter;stroke:rgb(0%,0%,0%);stroke-opacity:1;stroke-miterlimit:10;" d="M 257.112531 -28.345079 C 257.112531 -27.247423 256.221906 -26.352891 255.120344 -26.352891 C 254.022688 -26.352891 253.128156 -27.247423 253.128156 -28.345079 C 253.128156 -29.446641 254.022688 -30.341173 255.120344 -30.341173 C 256.221906 -30.341173 257.112531 -29.446641 257.112531 -28.345079 Z M 257.112531 -28.345079 " transform="matrix(1,0,0,-1,3.407,31.57289)"/>
</g>
<path style="fill:none;stroke-width:0.3985;stroke-linecap:butt;stroke-linejoin:miter;stroke:rgb(0%,0%,0%);stroke-opacity:1;stroke-miterlimit:10;" d="M 255.120344 -0.00132875 L 255.120344 -28.345079 " transform="matrix(1,0,0,-1,3.407,31.57289)"/>
<path style=" stroke:none;fill-rule:nonzero;fill:rgb(0%,0%,0%);fill-opacity:1;" d="M 274.695312 56.121094 C 274.695312 55.023438 273.800781 54.128906 272.703125 54.128906 C 271.601562 54.128906 270.710938 55.023438 270.710938 56.121094 C 270.710938 57.222656 271.601562 58.113281 272.703125 58.113281 C 273.800781 58.113281 274.695312 57.222656 274.695312 56.121094 Z M 274.695312 56.121094 "/>
<g clip-path="url(#clip3)" clip-rule="nonzero">
<path style="fill:none;stroke-width:0.3985;stroke-linecap:butt;stroke-linejoin:miter;stroke:rgb(0%,0%,0%);stroke-opacity:1;stroke-miterlimit:10;" d="M 271.288313 -24.548204 C 271.288313 -23.450548 270.393781 -22.556016 269.296125 -22.556016 C 268.194563 -22.556016 267.303938 -23.450548 267.303938 -24.548204 C 267.303938 -25.649766 268.194563 -26.540391 269.296125 -26.540391 C 270.393781 -26.540391 271.288313 -25.649766 271.288313 -24.548204 Z M 271.288313 -24.548204 " transform="matrix(1,0,0,-1,3.407,31.57289)"/>
</g>
<path style="fill:none;stroke-width:0.3985;stroke-linecap:butt;stroke-linejoin:miter;stroke:rgb(0%,0%,0%);stroke-opacity:1;stroke-miterlimit:10;" d="M 255.120344 -0.00132875 L 269.296125 -24.548204 " transform="matrix(1,0,0,-1,3.407,31.57289)"/>
<path style="fill-rule:nonzero;fill:rgb(0%,0%,0%);fill-opacity:1;stroke-width:0.3985;stroke-linecap:butt;stroke-linejoin:miter;stroke:rgb(0%,0%,0%);stroke-opacity:1;stroke-miterlimit:10;" d="M 277.335188 -18.220079 C 277.335188 -17.946641 277.112531 -17.723985 276.835188 -17.723985 C 276.56175 -17.723985 276.339094 -17.946641 276.339094 -18.220079 C 276.339094 -18.497423 276.56175 -18.720079 276.835188 -18.720079 C 277.112531 -18.720079 277.335188 -18.497423 277.335188 -18.220079 Z M 277.335188 -18.220079 " transform="matrix(1,0,0,-1,3.407,31.57289)"/>
<path style="fill-rule:nonzero;fill:rgb(0%,0%,0%);fill-opacity:1;stroke-width:0.3985;stroke-linecap:butt;stroke-linejoin:miter;stroke:rgb(0%,0%,0%);stroke-opacity:1;stroke-miterlimit:10;" d="M 280.167219 -14.173204 C 280.167219 -13.899766 279.944563 -13.67711 279.671125 -13.67711 C 279.393781 -13.67711 279.171125 -13.899766 279.171125 -14.173204 C 279.171125 -14.446641 279.393781 -14.673204 279.671125 -14.673204 C 279.944563 -14.673204 280.167219 -14.446641 280.167219 -14.173204 Z M 280.167219 -14.173204 " transform="matrix(1,0,0,-1,3.407,31.57289)"/>
<path style="fill-rule:nonzero;fill:rgb(0%,0%,0%);fill-opacity:1;stroke-width:0.3985;stroke-linecap:butt;stroke-linejoin:miter;stroke:rgb(0%,0%,0%);stroke-opacity:1;stroke-miterlimit:10;" d="M 282.257063 -9.696641 C 282.257063 -9.419298 282.034406 -9.196641 281.757063 -9.196641 C 281.483625 -9.196641 281.260969 -9.419298 281.260969 -9.696641 C 281.260969 -9.970079 281.483625 -10.192735 281.757063 -10.192735 C 282.034406 -10.192735 282.257063 -9.970079 282.257063 -9.696641 Z M 282.257063 -9.696641 " transform="matrix(1,0,0,-1,3.407,31.57289)"/>
</g>
</svg>
