<?xml version="1.0" encoding="UTF-8"?>
<svg xmlns="http://www.w3.org/2000/svg" xmlns:xlink="http://www.w3.org/1999/xlink" width="318.32" height="62.96" viewBox="0 0 318.32 62.96">
<defs>
<clipPath id="clip-0">
<path clip-rule="nonzero" d="M 307 23 L 318.320312 23 L 318.320312 40 L 307 40 Z M 307 23 "/>
</clipPath>
<clipPath id="clip-1">
<path clip-rule="nonzero" d="M 279 52 L 295 52 L 295 62.960938 L 279 62.960938 Z M 279 52 "/>
</clipPath>
</defs>
<path fill-rule="nonzero" fill="rgb(0%, 0%, 0%)" fill-opacity="1" stroke-width="0.3985" stroke-linecap="butt" stroke-linejoin="miter" stroke="rgb(0%, 0%, 0%)" stroke-opacity="1" stroke-miterlimit="10" d="M 1.991438 -0.0010625 C 1.991438 1.1005 1.100813 1.991125 -0.00075 1.991125 C -1.102312 1.991125 -1.992937 1.1005 -1.992937 -0.0010625 C -1.992937 -1.098719 -1.102312 -1.99325 -0.00075 -1.99325 C 1.100813 -1.99325 1.991438 -1.098719 1.991438 -0.0010625 Z M 1.991438 -0.0010625 " transform="matrix(1, 0, 0, -1, 3.407, 31.538)"/>
<path fill-rule="nonzero" fill="rgb(0%, 0%, 0%)" fill-opacity="1" stroke-width="0.3985" stroke-linecap="butt" stroke-linejoin="miter" stroke="rgb(0%, 0%, 0%)" stroke-opacity="1" stroke-miterlimit="10" d="M 30.339094 -0.0010625 C 30.339094 1.1005 29.448469 1.991125 28.346906 1.991125 C 27.245344 1.991125 26.354719 1.1005 26.354719 -0.0010625 C 26.354719 -1.098719 27.245344 -1.99325 28.346906 -1.99325 C 29.448469 -1.99325 30.339094 -1.098719 30.339094 -0.0010625 Z M 30.339094 -0.0010625 " transform="matrix(1, 0, 0, -1, 3.407, 31.538)"/>
<path fill-rule="nonzero" fill="rgb(0%, 0%, 0%)" fill-opacity="1" stroke-width="0.3985" stroke-linecap="butt" stroke-linejoin="miter" stroke="rgb(0%, 0%, 0%)" stroke-opacity="1" stroke-miterlimit="10" d="M 58.68675 -0.0010625 C 58.68675 1.1005 57.792219 1.991125 56.694563 1.991125 C 55.593 1.991125 54.702375 1.1005 54.702375 -0.0010625 C 54.702375 -1.098719 55.593 -1.99325 56.694563 -1.99325 C 57.792219 -1.99325 58.68675 -1.098719 58.68675 -0.0010625 Z M 58.68675 -0.0010625 " transform="matrix(1, 0, 0, -1, 3.407, 31.538)"/>
<path fill-rule="nonzero" fill="rgb(0%, 0%, 0%)" fill-opacity="1" stroke-width="0.3985" stroke-linecap="butt" stroke-linejoin="miter" stroke="rgb(0%, 0%, 0%)" stroke-opacity="1" stroke-miterlimit="10" d="M 87.034406 -0.0010625 C 87.034406 1.1005 86.139875 1.991125 85.042219 1.991125 C 83.940656 1.991125 83.046125 1.1005 83.046125 -0.0010625 C 83.046125 -1.098719 83.940656 -1.99325 85.042219 -1.99325 C 86.139875 -1.99325 87.034406 -1.098719 87.034406 -0.0010625 Z M 87.034406 -0.0010625 " transform="matrix(1, 0, 0, -1, 3.407, 31.538)"/>
<path fill-rule="nonzero" fill="rgb(0%, 0%, 0%)" fill-opacity="1" stroke-width="0.3985" stroke-linecap="butt" stroke-linejoin="miter" stroke="rgb(0%, 0%, 0%)" stroke-opacity="1" stroke-miterlimit="10" d="M 115.378156 -0.0010625 C 115.378156 1.1005 114.487531 1.991125 113.385969 1.991125 C 112.288313 1.991125 111.393781 1.1005 111.393781 -0.0010625 C 111.393781 -1.098719 112.288313 -1.99325 113.385969 -1.99325 C 114.487531 -1.99325 115.378156 -1.098719 115.378156 -0.0010625 Z M 115.378156 -0.0010625 " transform="matrix(1, 0, 0, -1, 3.407, 31.538)"/>
<path fill="none" stroke-width="0.3985" stroke-linecap="butt" stroke-linejoin="miter" stroke="rgb(0%, 0%, 0%)" stroke-opacity="1" stroke-miterlimit="10" d="M -0.00075 -0.0010625 L 113.385969 -0.0010625 " transform="matrix(1, 0, 0, -1, 3.407, 31.538)"/>
<path fill-rule="nonzero" fill="rgb(0%, 0%, 0%)" fill-opacity="1" stroke-width="0.3985" stroke-linecap="butt" stroke-linejoin="miter" stroke="rgb(0%, 0%, 0%)" stroke-opacity="1" stroke-miterlimit="10" d="M 143.725813 -0.0010625 C 143.725813 1.1005 142.835188 1.991125 141.733625 1.991125 C 140.632063 1.991125 139.741438 1.1005 139.741438 -0.0010625 C 139.741438 -1.098719 140.632063 -1.99325 141.733625 -1.99325 C 142.835188 -1.99325 143.725813 -1.098719 143.725813 -0.0010625 Z M 143.725813 -0.0010625 " transform="matrix(1, 0, 0, -1, 3.407, 31.538)"/>
<path fill-rule="nonzero" fill="rgb(0%, 0%, 0%)" fill-opacity="1" stroke-width="0.3985" stroke-linecap="butt" stroke-linejoin="miter" stroke="rgb(0%, 0%, 0%)" stroke-opacity="1" stroke-miterlimit="10" d="M 172.073469 -0.0010625 C 172.073469 1.1005 171.182844 1.991125 170.081281 1.991125 C 168.979719 1.991125 168.089094 1.1005 168.089094 -0.0010625 C 168.089094 -1.098719 168.979719 -1.99325 170.081281 -1.99325 C 171.182844 -1.99325 172.073469 -1.098719 172.073469 -0.0010625 Z M 172.073469 -0.0010625 " transform="matrix(1, 0, 0, -1, 3.407, 31.538)"/>
<path fill-rule="nonzero" fill="rgb(0%, 0%, 0%)" fill-opacity="1" stroke-width="0.3985" stroke-linecap="butt" stroke-linejoin="miter" stroke="rgb(0%, 0%, 0%)" stroke-opacity="1" stroke-miterlimit="10" d="M 200.421125 -0.0010625 C 200.421125 1.1005 199.526594 1.991125 198.428938 1.991125 C 197.327375 1.991125 196.43675 1.1005 196.43675 -0.0010625 C 196.43675 -1.098719 197.327375 -1.99325 198.428938 -1.99325 C 199.526594 -1.99325 200.421125 -1.098719 200.421125 -0.0010625 Z M 200.421125 -0.0010625 " transform="matrix(1, 0, 0, -1, 3.407, 31.538)"/>
<path fill-rule="nonzero" fill="rgb(0%, 0%, 0%)" fill-opacity="1" stroke-width="0.3985" stroke-linecap="butt" stroke-linejoin="miter" stroke="rgb(0%, 0%, 0%)" stroke-opacity="1" stroke-miterlimit="10" d="M 220.260969 14.174719 C 220.260969 15.272375 219.370344 16.166906 218.268781 16.166906 C 217.171125 16.166906 216.276594 15.272375 216.276594 14.174719 C 216.276594 13.073156 217.171125 12.182531 218.268781 12.182531 C 219.370344 12.182531 220.260969 13.073156 220.260969 14.174719 Z M 220.260969 14.174719 " transform="matrix(1, 0, 0, -1, 3.407, 31.538)"/>
<path fill-rule="nonzero" fill="rgb(0%, 0%, 0%)" fill-opacity="1" stroke-width="0.3985" stroke-linecap="butt" stroke-linejoin="miter" stroke="rgb(0%, 0%, 0%)" stroke-opacity="1" stroke-miterlimit="10" d="M 220.260969 -14.172938 C 220.260969 -13.071375 219.370344 -12.18075 218.268781 -12.18075 C 217.171125 -12.18075 216.276594 -13.071375 216.276594 -14.172938 C 216.276594 -15.2745 217.171125 -16.165125 218.268781 -16.165125 C 219.370344 -16.165125 220.260969 -15.2745 220.260969 -14.172938 Z M 220.260969 -14.172938 " transform="matrix(1, 0, 0, -1, 3.407, 31.538)"/>
<path fill="none" stroke-width="0.3985" stroke-linecap="butt" stroke-linejoin="miter" stroke="rgb(0%, 0%, 0%)" stroke-opacity="1" stroke-miterlimit="10" d="M 141.733625 -0.0010625 L 198.428938 -0.0010625 " transform="matrix(1, 0, 0, -1, 3.407, 31.538)"/>
<path fill="none" stroke-width="0.3985" stroke-linecap="butt" stroke-linejoin="miter" stroke="rgb(0%, 0%, 0%)" stroke-opacity="1" stroke-miterlimit="10" d="M 218.268781 -14.172938 L 198.428938 -0.0010625 L 218.268781 14.174719 " transform="matrix(1, 0, 0, -1, 3.407, 31.538)"/>
<path fill-rule="nonzero" fill="rgb(0%, 0%, 0%)" fill-opacity="1" stroke-width="0.3985" stroke-linecap="butt" stroke-linejoin="miter" stroke="rgb(0%, 0%, 0%)" stroke-opacity="1" stroke-miterlimit="10" d="M 257.112531 -0.0010625 C 257.112531 1.1005 256.221906 1.991125 255.120344 1.991125 C 254.022688 1.991125 253.128156 1.1005 253.128156 -0.0010625 C 253.128156 -1.098719 254.022688 -1.99325 255.120344 -1.99325 C 256.221906 -1.99325 257.112531 -1.098719 257.112531 -0.0010625 Z M 257.112531 -0.0010625 " transform="matrix(1, 0, 0, -1, 3.407, 31.538)"/>
<path fill-rule="nonzero" fill="rgb(0%, 0%, 0%)" fill-opacity="1" stroke-width="0.3985" stroke-linecap="butt" stroke-linejoin="miter" stroke="rgb(0%, 0%, 0%)" stroke-opacity="1" stroke-miterlimit="10" d="M 285.460188 -0.0010625 C 285.460188 1.1005 284.569563 1.991125 283.468 1.991125 C 282.366438 1.991125 281.475813 1.1005 281.475813 -0.0010625 C 281.475813 -1.098719 282.366438 -1.99325 283.468 -1.99325 C 284.569563 -1.99325 285.460188 -1.098719 285.460188 -0.0010625 Z M 285.460188 -0.0010625 " transform="matrix(1, 0, 0, -1, 3.407, 31.538)"/>
<path fill-rule="nonzero" fill="rgb(0%, 0%, 0%)" fill-opacity="1" d="M 317.214844 31.539062 C 317.214844 30.4375 316.324219 29.546875 315.222656 29.546875 C 314.121094 29.546875 313.230469 30.4375 313.230469 31.539062 C 313.230469 32.636719 314.121094 33.53125 315.222656 33.53125 C 316.324219 33.53125 317.214844 32.636719 317.214844 31.539062 Z M 317.214844 31.539062 "/>
<g clip-path="url(#clip-0)">
<path fill="none" stroke-width="0.3985" stroke-linecap="butt" stroke-linejoin="miter" stroke="rgb(0%, 0%, 0%)" stroke-opacity="1" stroke-miterlimit="10" d="M 313.807844 -0.0010625 C 313.807844 1.1005 312.917219 1.991125 311.815656 1.991125 C 310.714094 1.991125 309.823469 1.1005 309.823469 -0.0010625 C 309.823469 -1.098719 310.714094 -1.99325 311.815656 -1.99325 C 312.917219 -1.99325 313.807844 -1.098719 313.807844 -0.0010625 Z M 313.807844 -0.0010625 " transform="matrix(1, 0, 0, -1, 3.407, 31.538)"/>
</g>
<path fill-rule="nonzero" fill="rgb(0%, 0%, 0%)" fill-opacity="1" stroke-width="0.3985" stroke-linecap="butt" stroke-linejoin="miter" stroke="rgb(0%, 0%, 0%)" stroke-opacity="1" stroke-miterlimit="10" d="M 285.460188 28.346594 C 285.460188 29.448156 284.569563 30.338781 283.468 30.338781 C 282.366438 30.338781 281.475813 29.448156 281.475813 28.346594 C 281.475813 27.245031 282.366438 26.354406 283.468 26.354406 C 284.569563 26.354406 285.460188 27.245031 285.460188 28.346594 Z M 285.460188 28.346594 " transform="matrix(1, 0, 0, -1, 3.407, 31.538)"/>
<path fill-rule="nonzero" fill="rgb(0%, 0%, 0%)" fill-opacity="1" d="M 288.867188 59.886719 C 288.867188 58.785156 287.976562 57.890625 286.875 57.890625 C 285.773438 57.890625 284.882812 58.785156 284.882812 59.886719 C 284.882812 60.984375 285.773438 61.878906 286.875 61.878906 C 287.976562 61.878906 288.867188 60.984375 288.867188 59.886719 Z M 288.867188 59.886719 "/>
<g clip-path="url(#clip-1)">
<path fill="none" stroke-width="0.3985" stroke-linecap="butt" stroke-linejoin="miter" stroke="rgb(0%, 0%, 0%)" stroke-opacity="1" stroke-miterlimit="10" d="M 285.460188 -28.348719 C 285.460188 -27.247156 284.569563 -26.352625 283.468 -26.352625 C 282.366438 -26.352625 281.475813 -27.247156 281.475813 -28.348719 C 281.475813 -29.446375 282.366438 -30.340906 283.468 -30.340906 C 284.569563 -30.340906 285.460188 -29.446375 285.460188 -28.348719 Z M 285.460188 -28.348719 " transform="matrix(1, 0, 0, -1, 3.407, 31.538)"/>
</g>
<path fill="none" stroke-width="0.3985" stroke-linecap="butt" stroke-linejoin="miter" stroke="rgb(0%, 0%, 0%)" stroke-opacity="1" stroke-miterlimit="10" d="M 255.120344 -0.0010625 L 311.815656 -0.0010625 " transform="matrix(1, 0, 0, -1, 3.407, 31.538)"/>
<path fill="none" stroke-width="0.3985" stroke-linecap="butt" stroke-linejoin="miter" stroke="rgb(0%, 0%, 0%)" stroke-opacity="1" stroke-miterlimit="10" d="M 283.468 -28.348719 L 283.468 28.346594 " transform="matrix(1, 0, 0, -1, 3.407, 31.538)"/>
</svg>
