<?xml version="1.0" encoding="UTF-8"?>
<svg xmlns="http://www.w3.org/2000/svg" xmlns:xlink="http://www.w3.org/1999/xlink" width="130.16" height="59.12" viewBox="0 0 130.16 59.12">
<path fill="none" stroke-width="0.3985" stroke-linecap="butt" stroke-linejoin="miter" stroke="rgb(0%, 0%, 0%)" stroke-opacity="1" stroke-miterlimit="10" d="M 0.0000625 0.001375 L 127.562563 0.001375 " transform="matrix(1, 0, 0, -1, 1.414, 57.892)"/>
<path fill="none" stroke-width="0.3985" stroke-linecap="butt" stroke-linejoin="miter" stroke="rgb(0%, 0%, 0%)" stroke-opacity="1" stroke-miterlimit="10" d="M 0.0000625 14.17325 L 127.562563 14.17325 " transform="matrix(1, 0, 0, -1, 1.414, 57.892)"/>
<path fill="none" stroke-width="0.3985" stroke-linecap="butt" stroke-linejoin="miter" stroke="rgb(0%, 0%, 0%)" stroke-opacity="1" stroke-miterlimit="10" d="M 0.0000625 28.345125 L 127.562563 28.345125 " transform="matrix(1, 0, 0, -1, 1.414, 57.892)"/>
<path fill="none" stroke-width="0.3985" stroke-linecap="butt" stroke-linejoin="miter" stroke="rgb(0%, 0%, 0%)" stroke-opacity="1" stroke-miterlimit="10" d="M 0.0000625 42.520906 L 127.562563 42.520906 " transform="matrix(1, 0, 0, -1, 1.414, 57.892)"/>
<path fill="none" stroke-width="0.3985" stroke-linecap="butt" stroke-linejoin="miter" stroke="rgb(0%, 0%, 0%)" stroke-opacity="1" stroke-miterlimit="10" d="M 0.0000625 56.692781 L 127.562563 56.692781 " transform="matrix(1, 0, 0, -1, 1.414, 57.892)"/>
<path fill="none" stroke-width="0.3985" stroke-linecap="butt" stroke-linejoin="miter" stroke="rgb(0%, 0%, 0%)" stroke-opacity="1" stroke-miterlimit="10" d="M 0.0000625 0.001375 L 0.0000625 56.692781 " transform="matrix(1, 0, 0, -1, 1.414, 57.892)"/>
<path fill="none" stroke-width="0.3985" stroke-linecap="butt" stroke-linejoin="miter" stroke="rgb(0%, 0%, 0%)" stroke-opacity="1" stroke-miterlimit="10" d="M 14.171938 0.001375 L 14.171938 56.692781 " transform="matrix(1, 0, 0, -1, 1.414, 57.892)"/>
<path fill="none" stroke-width="0.3985" stroke-linecap="butt" stroke-linejoin="miter" stroke="rgb(0%, 0%, 0%)" stroke-opacity="1" stroke-miterlimit="10" d="M 28.347719 0.001375 L 28.347719 56.692781 " transform="matrix(1, 0, 0, -1, 1.414, 57.892)"/>
<path fill="none" stroke-width="0.3985" stroke-linecap="butt" stroke-linejoin="miter" stroke="rgb(0%, 0%, 0%)" stroke-opacity="1" stroke-miterlimit="10" d="M 42.519594 0.001375 L 42.519594 56.692781 " transform="matrix(1, 0, 0, -1, 1.414, 57.892)"/>
<path fill="none" stroke-width="0.3985" stroke-linecap="butt" stroke-linejoin="miter" stroke="rgb(0%, 0%, 0%)" stroke-opacity="1" stroke-miterlimit="10" d="M 56.695375 0.001375 L 56.695375 56.692781 " transform="matrix(1, 0, 0, -1, 1.414, 57.892)"/>
<path fill="none" stroke-width="0.3985" stroke-linecap="butt" stroke-linejoin="miter" stroke="rgb(0%, 0%, 0%)" stroke-opacity="1" stroke-miterlimit="10" d="M 70.86725 0.001375 L 70.86725 56.692781 " transform="matrix(1, 0, 0, -1, 1.414, 57.892)"/>
<path fill="none" stroke-width="0.3985" stroke-linecap="butt" stroke-linejoin="miter" stroke="rgb(0%, 0%, 0%)" stroke-opacity="1" stroke-miterlimit="10" d="M 85.039125 0.001375 L 85.039125 56.692781 " transform="matrix(1, 0, 0, -1, 1.414, 57.892)"/>
<path fill="none" stroke-width="0.3985" stroke-linecap="butt" stroke-linejoin="miter" stroke="rgb(0%, 0%, 0%)" stroke-opacity="1" stroke-miterlimit="10" d="M 99.214906 0.001375 L 99.214906 56.692781 " transform="matrix(1, 0, 0, -1, 1.414, 57.892)"/>
<path fill="none" stroke-width="0.3985" stroke-linecap="butt" stroke-linejoin="miter" stroke="rgb(0%, 0%, 0%)" stroke-opacity="1" stroke-miterlimit="10" d="M 113.386781 0.001375 L 113.386781 56.692781 " transform="matrix(1, 0, 0, -1, 1.414, 57.892)"/>
<path fill="none" stroke-width="0.3985" stroke-linecap="butt" stroke-linejoin="miter" stroke="rgb(0%, 0%, 0%)" stroke-opacity="1" stroke-miterlimit="10" d="M 127.562563 0.001375 L 127.562563 56.692781 " transform="matrix(1, 0, 0, -1, 1.414, 57.892)"/>
</svg>
