<?xml version="1.0" encoding="UTF-8"?>
<svg xmlns="http://www.w3.org/2000/svg" xmlns:xlink="http://www.w3.org/1999/xlink" width="161.36" height="104.72" viewBox="0 0 161.36 104.72">
<defs>
<clipPath id="clip-0">
<path clip-rule="nonzero" d="M 0 0 L 76 0 L 76 104.71875 L 0 104.71875 Z M 0 0 "/>
</clipPath>
<clipPath id="clip-1">
<path clip-rule="nonzero" d="M 12 26 L 59 26 L 59 104.71875 L 12 104.71875 Z M 12 26 "/>
</clipPath>
<clipPath id="clip-2">
<path clip-rule="nonzero" d="M 86 0 L 161.359375 0 L 161.359375 104.71875 L 86 104.71875 Z M 86 0 "/>
</clipPath>
</defs>
<g clip-path="url(#clip-0)">
<path fill="none" stroke-width="0.3985" stroke-linecap="butt" stroke-linejoin="miter" stroke="rgb(0%, 0%, 0%)" stroke-opacity="1" stroke-miterlimit="10" d="M 34.015312 0.00034375 C 34.015312 28.180031 18.78875 51.023781 -0.0003125 51.023781 C -18.785469 51.023781 -34.015938 28.180031 -34.015938 0.00034375 C -34.015938 -28.179344 -18.785469 -51.023094 -0.0003125 -51.023094 C 18.78875 -51.023094 34.015312 -28.179344 34.015312 0.00034375 Z M 34.015312 0.00034375 " transform="matrix(1, 0, 0, -1, 35.43, 52.223)"/>
</g>
<path fill="none" stroke-width="0.3985" stroke-linecap="butt" stroke-linejoin="miter" stroke="rgb(0%, 0%, 0%)" stroke-opacity="1" stroke-miterlimit="10" d="M 17.0075 22.676125 C 17.0075 35.203469 9.394219 45.355812 -0.0003125 45.355812 C -9.394844 45.355812 -17.008125 35.203469 -17.008125 22.676125 C -17.008125 10.152687 -9.394844 0.00034375 -0.0003125 0.00034375 C 9.394219 0.00034375 17.0075 10.152687 17.0075 22.676125 Z M 17.0075 22.676125 " transform="matrix(1, 0, 0, -1, 35.43, 52.223)"/>
<g clip-path="url(#clip-1)">
<path fill="none" stroke-width="0.3985" stroke-linecap="butt" stroke-linejoin="miter" stroke="rgb(0%, 0%, 0%)" stroke-opacity="1" stroke-miterlimit="10" d="M 17.0075 -13.605125 C 17.0075 5.180031 9.394219 20.4105 -0.0003125 20.4105 C -9.394844 20.4105 -17.008125 5.180031 -17.008125 -13.605125 C -17.008125 -32.394188 -9.394844 -47.624656 -0.0003125 -47.624656 C 9.394219 -47.624656 17.0075 -32.394188 17.0075 -13.605125 Z M 17.0075 -13.605125 " transform="matrix(1, 0, 0, -1, 35.43, 52.223)"/>
</g>
<path fill-rule="nonzero" fill="rgb(0%, 0%, 0%)" fill-opacity="1" stroke-width="0.3985" stroke-linecap="butt" stroke-linejoin="miter" stroke="rgb(0%, 0%, 0%)" stroke-opacity="1" stroke-miterlimit="10" d="M 2.390312 34.015969 C 2.390312 35.336281 1.32 36.406594 -0.0003125 36.406594 C -1.320625 36.406594 -2.390938 35.336281 -2.390938 34.015969 C -2.390938 32.695656 -1.320625 31.625344 -0.0003125 31.625344 C 1.32 31.625344 2.390312 32.695656 2.390312 34.015969 Z M 2.390312 34.015969 " transform="matrix(1, 0, 0, -1, 35.43, 52.223)"/>
<path fill-rule="nonzero" fill="rgb(0%, 0%, 0%)" fill-opacity="1" stroke-width="0.3985" stroke-linecap="butt" stroke-linejoin="miter" stroke="rgb(0%, 0%, 0%)" stroke-opacity="1" stroke-miterlimit="10" d="M 2.390312 11.340187 C 2.390312 12.6605 1.32 13.730812 -0.0003125 13.730812 C -1.320625 13.730812 -2.390938 12.6605 -2.390938 11.340187 C -2.390938 10.019875 -1.320625 8.949562 -0.0003125 8.949562 C 1.32 8.949562 2.390312 10.019875 2.390312 11.340187 Z M 2.390312 11.340187 " transform="matrix(1, 0, 0, -1, 35.43, 52.223)"/>
<path fill-rule="nonzero" fill="rgb(0%, 0%, 0%)" fill-opacity="1" stroke-width="0.3985" stroke-linecap="butt" stroke-linejoin="miter" stroke="rgb(0%, 0%, 0%)" stroke-opacity="1" stroke-miterlimit="10" d="M 2.390312 -11.3395 C 2.390312 -10.019188 1.32 -8.948875 -0.0003125 -8.948875 C -1.320625 -8.948875 -2.390938 -10.019188 -2.390938 -11.3395 C -2.390938 -12.659813 -1.320625 -13.730125 -0.0003125 -13.730125 C 1.32 -13.730125 2.390312 -12.659813 2.390312 -11.3395 Z M 2.390312 -11.3395 " transform="matrix(1, 0, 0, -1, 35.43, 52.223)"/>
<path fill-rule="nonzero" fill="rgb(0%, 0%, 0%)" fill-opacity="1" stroke-width="0.3985" stroke-linecap="butt" stroke-linejoin="miter" stroke="rgb(0%, 0%, 0%)" stroke-opacity="1" stroke-miterlimit="10" d="M 2.390312 -34.015281 C 2.390312 -32.694969 1.32 -31.624656 -0.0003125 -31.624656 C -1.320625 -31.624656 -2.390938 -32.694969 -2.390938 -34.015281 C -2.390938 -35.335594 -1.320625 -36.405906 -0.0003125 -36.405906 C 1.32 -36.405906 2.390312 -35.335594 2.390312 -34.015281 Z M 2.390312 -34.015281 " transform="matrix(1, 0, 0, -1, 35.43, 52.223)"/>
<g clip-path="url(#clip-2)">
<path fill="none" stroke-width="0.3985" stroke-linecap="butt" stroke-linejoin="miter" stroke="rgb(0%, 0%, 0%)" stroke-opacity="1" stroke-miterlimit="10" d="M 124.72625 0.00034375 C 124.72625 28.180031 109.495781 51.023781 90.710625 51.023781 C 71.921562 51.023781 56.695 28.180031 56.695 0.00034375 C 56.695 -28.179344 71.921562 -51.023094 90.710625 -51.023094 C 109.495781 -51.023094 124.72625 -28.179344 124.72625 0.00034375 Z M 124.72625 0.00034375 " transform="matrix(1, 0, 0, -1, 35.43, 52.223)"/>
</g>
<path fill-rule="nonzero" fill="rgb(0%, 0%, 0%)" fill-opacity="1" stroke-width="0.3985" stroke-linecap="butt" stroke-linejoin="miter" stroke="rgb(0%, 0%, 0%)" stroke-opacity="1" stroke-miterlimit="10" d="M 93.10125 22.676125 C 93.10125 23.996437 92.030937 25.06675 90.710625 25.06675 C 89.390312 25.06675 88.32 23.996437 88.32 22.676125 C 88.32 21.355812 89.390312 20.2855 90.710625 20.2855 C 92.030937 20.2855 93.10125 21.355812 93.10125 22.676125 Z M 93.10125 22.676125 " transform="matrix(1, 0, 0, -1, 35.43, 52.223)"/>
<path fill-rule="nonzero" fill="rgb(0%, 0%, 0%)" fill-opacity="1" stroke-width="0.3985" stroke-linecap="butt" stroke-linejoin="miter" stroke="rgb(0%, 0%, 0%)" stroke-opacity="1" stroke-miterlimit="10" d="M 93.10125 0.00034375 C 93.10125 1.320656 92.030937 2.390969 90.710625 2.390969 C 89.390312 2.390969 88.32 1.320656 88.32 0.00034375 C 88.32 -1.319969 89.390312 -2.390281 90.710625 -2.390281 C 92.030937 -2.390281 93.10125 -1.319969 93.10125 0.00034375 Z M 93.10125 0.00034375 " transform="matrix(1, 0, 0, -1, 35.43, 52.223)"/>
<path fill-rule="nonzero" fill="rgb(0%, 0%, 0%)" fill-opacity="1" stroke-width="0.3985" stroke-linecap="butt" stroke-linejoin="miter" stroke="rgb(0%, 0%, 0%)" stroke-opacity="1" stroke-miterlimit="10" d="M 93.10125 -22.679344 C 93.10125 -21.355125 92.030937 -20.284813 90.710625 -20.284813 C 89.390312 -20.284813 88.32 -21.355125 88.32 -22.679344 C 88.32 -23.999656 89.390312 -25.069969 90.710625 -25.069969 C 92.030937 -25.069969 93.10125 -23.999656 93.10125 -22.679344 Z M 93.10125 -22.679344 " transform="matrix(1, 0, 0, -1, 35.43, 52.223)"/>
<path fill="none" stroke-width="1.19553" stroke-linecap="butt" stroke-linejoin="miter" stroke="rgb(0%, 0%, 0%)" stroke-opacity="1" stroke-miterlimit="10" d="M 4.534844 34.015969 L 82.737969 25.562844 " transform="matrix(1, 0, 0, -1, 35.43, 52.223)"/>
<path fill-rule="nonzero" fill="rgb(0%, 0%, 0%)" fill-opacity="1" d="M 123.871094 27.277344 C 122.214844 26.777344 119.570312 25.53125 117.789062 24.214844 L 117.277344 28.96875 C 119.296875 28.066406 122.148438 27.410156 123.871094 27.277344 "/>
<path fill="none" stroke-width="1.19553" stroke-linecap="butt" stroke-linejoin="miter" stroke="rgb(0%, 0%, 0%)" stroke-opacity="1" stroke-miterlimit="10" d="M 4.534844 11.340187 L 82.737969 2.883156 " transform="matrix(1, 0, 0, -1, 35.43, 52.223)"/>
<path fill-rule="nonzero" fill="rgb(0%, 0%, 0%)" fill-opacity="1" d="M 123.871094 49.957031 C 122.214844 49.457031 119.570312 48.207031 117.789062 46.894531 L 117.277344 51.648438 C 119.296875 50.742188 122.148438 50.089844 123.871094 49.957031 "/>
<path fill="none" stroke-width="1.19553" stroke-linecap="butt" stroke-linejoin="miter" stroke="rgb(0%, 0%, 0%)" stroke-opacity="1" stroke-miterlimit="10" d="M 2.269219 -11.3395 L 83.058281 18.426125 " transform="matrix(1, 0, 0, -1, 35.43, 52.223)"/>
<path fill-rule="nonzero" fill="rgb(0%, 0%, 0%)" fill-opacity="1" d="M 123.871094 31.8125 C 122.167969 32.101562 119.242188 32.160156 117.0625 31.773438 L 118.714844 36.261719 C 120.125 34.554688 122.386719 32.699219 123.871094 31.8125 "/>
<path fill="none" stroke-width="1.19553" stroke-linecap="butt" stroke-linejoin="miter" stroke="rgb(0%, 0%, 0%)" stroke-opacity="1" stroke-miterlimit="10" d="M 2.269219 -34.015281 L 83.058281 -4.249656 " transform="matrix(1, 0, 0, -1, 35.43, 52.223)"/>
<path fill-rule="nonzero" fill="rgb(0%, 0%, 0%)" fill-opacity="1" d="M 123.871094 54.492188 C 122.167969 54.78125 119.242188 54.835938 117.0625 54.453125 L 118.714844 58.9375 C 120.125 57.230469 122.386719 55.378906 123.871094 54.492188 "/>
</svg>
