<?xml version="1.0" encoding="UTF-8"?>
<svg xmlns="http://www.w3.org/2000/svg" xmlns:xlink="http://www.w3.org/1999/xlink" width="25.52" height="47.6" viewBox="0 0 25.52 47.6">
<defs>
<clipPath id="clip-0">
<path clip-rule="nonzero" d="M 0 45 L 2 45 L 2 47.601562 L 0 47.601562 Z M 0 45 "/>
</clipPath>
<clipPath id="clip-1">
<path clip-rule="nonzero" d="M 0 0 L 25.519531 0 L 25.519531 47.601562 L 0 47.601562 Z M 0 0 "/>
</clipPath>
<clipPath id="clip-2">
<path clip-rule="nonzero" d="M 0 45 L 2 45 L 2 47.601562 L 0 47.601562 Z M 0 45 "/>
</clipPath>
</defs>
<g clip-path="url(#clip-0)">
<path fill="none" stroke-width="1.19553" stroke-linecap="butt" stroke-linejoin="miter" stroke="rgb(0%, 0%, 0%)" stroke-opacity="1" stroke-miterlimit="10" d="M -0.00096875 -0.00065625 L -0.00096875 -0.00065625 " transform="matrix(1, 0, 0, -1, 1.333, 46.472)"/>
</g>
<g clip-path="url(#clip-1)">
<path fill="none" stroke-width="1.19553" stroke-linecap="butt" stroke-linejoin="miter" stroke="rgb(0%, 0%, 0%)" stroke-opacity="1" stroke-miterlimit="10" d="M 22.678719 45.354812 L -0.00096875 -0.00065625 " transform="matrix(1, 0, 0, -1, 1.333, 46.472)"/>
</g>
<g clip-path="url(#clip-2)">
<path fill="none" stroke-width="1.19553" stroke-linecap="butt" stroke-linejoin="miter" stroke="rgb(0%, 0%, 0%)" stroke-opacity="1" stroke-miterlimit="10" d="M -0.00096875 -0.00065625 L -0.00096875 -0.00065625 " transform="matrix(1, 0, 0, -1, 1.333, 46.472)"/>
</g>
</svg>
