<?xml version="1.0" encoding="UTF-8"?>
<svg xmlns="http://www.w3.org/2000/svg" xmlns:xlink="http://www.w3.org/1999/xlink" width="318.32pt" height="62.92308pt" viewBox="0 0 318.32 62.92308" version="1.1">
<defs>
<clipPath id="clip1">
  <path d="M 307 23 L 318.320312 23 L 318.320312 40 L 307 40 Z M 307 23 "/>
</clipPath>
<clipPath id="clip2">
  <path d="M 279 52 L 295 52 L 295 62.921875 L 279 62.921875 Z M 279 52 "/>
</clipPath>
</defs>
<g id="surface1">
<path style="fill-rule:nonzero;fill:rgb(0%,0%,0%);fill-opacity:1;stroke-width:0.3985;stroke-linecap:butt;stroke-linejoin:miter;stroke:rgb(0%,0%,0%);stroke-opacity:1;stroke-miterlimit:10;" d="M 1.991438 -0.00132875 C 1.991438 1.100234 1.100813 1.990859 -0.00075 1.990859 C -1.102312 1.990859 -1.992937 1.100234 -1.992937 -0.00132875 C -1.992937 -1.098985 -1.102312 -1.993516 -0.00075 -1.993516 C 1.100813 -1.993516 1.991438 -1.098985 1.991438 -0.00132875 Z M 1.991438 -0.00132875 " transform="matrix(1,0,0,-1,3.407,31.57289)"/>
<path style="fill-rule:nonzero;fill:rgb(0%,0%,0%);fill-opacity:1;stroke-width:0.3985;stroke-linecap:butt;stroke-linejoin:miter;stroke:rgb(0%,0%,0%);stroke-opacity:1;stroke-miterlimit:10;" d="M 30.339094 -0.00132875 C 30.339094 1.100234 29.448469 1.990859 28.346906 1.990859 C 27.245344 1.990859 26.354719 1.100234 26.354719 -0.00132875 C 26.354719 -1.098985 27.245344 -1.993516 28.346906 -1.993516 C 29.448469 -1.993516 30.339094 -1.098985 30.339094 -0.00132875 Z M 30.339094 -0.00132875 " transform="matrix(1,0,0,-1,3.407,31.57289)"/>
<path style="fill-rule:nonzero;fill:rgb(0%,0%,0%);fill-opacity:1;stroke-width:0.3985;stroke-linecap:butt;stroke-linejoin:miter;stroke:rgb(0%,0%,0%);stroke-opacity:1;stroke-miterlimit:10;" d="M 58.68675 -0.00132875 C 58.68675 1.100234 57.792219 1.990859 56.694563 1.990859 C 55.593 1.990859 54.702375 1.100234 54.702375 -0.00132875 C 54.702375 -1.098985 55.593 -1.993516 56.694563 -1.993516 C 57.792219 -1.993516 58.68675 -1.098985 58.68675 -0.00132875 Z M 58.68675 -0.00132875 " transform="matrix(1,0,0,-1,3.407,31.57289)"/>
<path style="fill-rule:nonzero;fill:rgb(0%,0%,0%);fill-opacity:1;stroke-width:0.3985;stroke-linecap:butt;stroke-linejoin:miter;stroke:rgb(0%,0%,0%);stroke-opacity:1;stroke-miterlimit:10;" d="M 87.034406 -0.00132875 C 87.034406 1.100234 86.139875 1.990859 85.042219 1.990859 C 83.940656 1.990859 83.046125 1.100234 83.046125 -0.00132875 C 83.046125 -1.098985 83.940656 -1.993516 85.042219 -1.993516 C 86.139875 -1.993516 87.034406 -1.098985 87.034406 -0.00132875 Z M 87.034406 -0.00132875 " transform="matrix(1,0,0,-1,3.407,31.57289)"/>
<path style="fill-rule:nonzero;fill:rgb(0%,0%,0%);fill-opacity:1;stroke-width:0.3985;stroke-linecap:butt;stroke-linejoin:miter;stroke:rgb(0%,0%,0%);stroke-opacity:1;stroke-miterlimit:10;" d="M 115.378156 -0.00132875 C 115.378156 1.100234 114.487531 1.990859 113.385969 1.990859 C 112.288313 1.990859 111.393781 1.100234 111.393781 -0.00132875 C 111.393781 -1.098985 112.288313 -1.993516 113.385969 -1.993516 C 114.487531 -1.993516 115.378156 -1.098985 115.378156 -0.00132875 Z M 115.378156 -0.00132875 " transform="matrix(1,0,0,-1,3.407,31.57289)"/>
<path style="fill:none;stroke-width:0.3985;stroke-linecap:butt;stroke-linejoin:miter;stroke:rgb(0%,0%,0%);stroke-opacity:1;stroke-miterlimit:10;" d="M -0.00075 -0.00132875 L 113.385969 -0.00132875 " transform="matrix(1,0,0,-1,3.407,31.57289)"/>
<path style="fill-rule:nonzero;fill:rgb(0%,0%,0%);fill-opacity:1;stroke-width:0.3985;stroke-linecap:butt;stroke-linejoin:miter;stroke:rgb(0%,0%,0%);stroke-opacity:1;stroke-miterlimit:10;" d="M 143.725813 -0.00132875 C 143.725813 1.100234 142.835188 1.990859 141.733625 1.990859 C 140.632063 1.990859 139.741438 1.100234 139.741438 -0.00132875 C 139.741438 -1.098985 140.632063 -1.993516 141.733625 -1.993516 C 142.835188 -1.993516 143.725813 -1.098985 143.725813 -0.00132875 Z M 143.725813 -0.00132875 " transform="matrix(1,0,0,-1,3.407,31.57289)"/>
<path style="fill-rule:nonzero;fill:rgb(0%,0%,0%);fill-opacity:1;stroke-width:0.3985;stroke-linecap:butt;stroke-linejoin:miter;stroke:rgb(0%,0%,0%);stroke-opacity:1;stroke-miterlimit:10;" d="M 172.073469 -0.00132875 C 172.073469 1.100234 171.182844 1.990859 170.081281 1.990859 C 168.979719 1.990859 168.089094 1.100234 168.089094 -0.00132875 C 168.089094 -1.098985 168.979719 -1.993516 170.081281 -1.993516 C 171.182844 -1.993516 172.073469 -1.098985 172.073469 -0.00132875 Z M 172.073469 -0.00132875 " transform="matrix(1,0,0,-1,3.407,31.57289)"/>
<path style="fill-rule:nonzero;fill:rgb(0%,0%,0%);fill-opacity:1;stroke-width:0.3985;stroke-linecap:butt;stroke-linejoin:miter;stroke:rgb(0%,0%,0%);stroke-opacity:1;stroke-miterlimit:10;" d="M 200.421125 -0.00132875 C 200.421125 1.100234 199.526594 1.990859 198.428938 1.990859 C 197.327375 1.990859 196.43675 1.100234 196.43675 -0.00132875 C 196.43675 -1.098985 197.327375 -1.993516 198.428938 -1.993516 C 199.526594 -1.993516 200.421125 -1.098985 200.421125 -0.00132875 Z M 200.421125 -0.00132875 " transform="matrix(1,0,0,-1,3.407,31.57289)"/>
<path style="fill-rule:nonzero;fill:rgb(0%,0%,0%);fill-opacity:1;stroke-width:0.3985;stroke-linecap:butt;stroke-linejoin:miter;stroke:rgb(0%,0%,0%);stroke-opacity:1;stroke-miterlimit:10;" d="M 220.260969 14.174452 C 220.260969 15.272109 219.370344 16.16664 218.268781 16.16664 C 217.171125 16.16664 216.276594 15.272109 216.276594 14.174452 C 216.276594 13.07289 217.171125 12.182265 218.268781 12.182265 C 219.370344 12.182265 220.260969 13.07289 220.260969 14.174452 Z M 220.260969 14.174452 " transform="matrix(1,0,0,-1,3.407,31.57289)"/>
<path style="fill-rule:nonzero;fill:rgb(0%,0%,0%);fill-opacity:1;stroke-width:0.3985;stroke-linecap:butt;stroke-linejoin:miter;stroke:rgb(0%,0%,0%);stroke-opacity:1;stroke-miterlimit:10;" d="M 220.260969 -14.173204 C 220.260969 -13.071641 219.370344 -12.181016 218.268781 -12.181016 C 217.171125 -12.181016 216.276594 -13.071641 216.276594 -14.173204 C 216.276594 -15.274766 217.171125 -16.165391 218.268781 -16.165391 C 219.370344 -16.165391 220.260969 -15.274766 220.260969 -14.173204 Z M 220.260969 -14.173204 " transform="matrix(1,0,0,-1,3.407,31.57289)"/>
<path style="fill:none;stroke-width:0.3985;stroke-linecap:butt;stroke-linejoin:miter;stroke:rgb(0%,0%,0%);stroke-opacity:1;stroke-miterlimit:10;" d="M 141.733625 -0.00132875 L 198.428938 -0.00132875 " transform="matrix(1,0,0,-1,3.407,31.57289)"/>
<path style="fill:none;stroke-width:0.3985;stroke-linecap:butt;stroke-linejoin:miter;stroke:rgb(0%,0%,0%);stroke-opacity:1;stroke-miterlimit:10;" d="M 218.268781 -14.173204 L 198.428938 -0.00132875 L 218.268781 14.174452 " transform="matrix(1,0,0,-1,3.407,31.57289)"/>
<path style="fill-rule:nonzero;fill:rgb(0%,0%,0%);fill-opacity:1;stroke-width:0.3985;stroke-linecap:butt;stroke-linejoin:miter;stroke:rgb(0%,0%,0%);stroke-opacity:1;stroke-miterlimit:10;" d="M 257.112531 -0.00132875 C 257.112531 1.100234 256.221906 1.990859 255.120344 1.990859 C 254.022688 1.990859 253.128156 1.100234 253.128156 -0.00132875 C 253.128156 -1.098985 254.022688 -1.993516 255.120344 -1.993516 C 256.221906 -1.993516 257.112531 -1.098985 257.112531 -0.00132875 Z M 257.112531 -0.00132875 " transform="matrix(1,0,0,-1,3.407,31.57289)"/>
<path style="fill-rule:nonzero;fill:rgb(0%,0%,0%);fill-opacity:1;stroke-width:0.3985;stroke-linecap:butt;stroke-linejoin:miter;stroke:rgb(0%,0%,0%);stroke-opacity:1;stroke-miterlimit:10;" d="M 285.460188 -0.00132875 C 285.460188 1.100234 284.569563 1.990859 283.468 1.990859 C 282.366438 1.990859 281.475813 1.100234 281.475813 -0.00132875 C 281.475813 -1.098985 282.366438 -1.993516 283.468 -1.993516 C 284.569563 -1.993516 285.460188 -1.098985 285.460188 -0.00132875 Z M 285.460188 -0.00132875 " transform="matrix(1,0,0,-1,3.407,31.57289)"/>
<path style=" stroke:none;fill-rule:nonzero;fill:rgb(0%,0%,0%);fill-opacity:1;" d="M 317.214844 31.574219 C 317.214844 30.472656 316.324219 29.582031 315.222656 29.582031 C 314.121094 29.582031 313.230469 30.472656 313.230469 31.574219 C 313.230469 32.671875 314.121094 33.566406 315.222656 33.566406 C 316.324219 33.566406 317.214844 32.671875 317.214844 31.574219 Z M 317.214844 31.574219 "/>
<g clip-path="url(#clip1)" clip-rule="nonzero">
<path style="fill:none;stroke-width:0.3985;stroke-linecap:butt;stroke-linejoin:miter;stroke:rgb(0%,0%,0%);stroke-opacity:1;stroke-miterlimit:10;" d="M 313.807844 -0.00132875 C 313.807844 1.100234 312.917219 1.990859 311.815656 1.990859 C 310.714094 1.990859 309.823469 1.100234 309.823469 -0.00132875 C 309.823469 -1.098985 310.714094 -1.993516 311.815656 -1.993516 C 312.917219 -1.993516 313.807844 -1.098985 313.807844 -0.00132875 Z M 313.807844 -0.00132875 " transform="matrix(1,0,0,-1,3.407,31.57289)"/>
</g>
<path style="fill-rule:nonzero;fill:rgb(0%,0%,0%);fill-opacity:1;stroke-width:0.3985;stroke-linecap:butt;stroke-linejoin:miter;stroke:rgb(0%,0%,0%);stroke-opacity:1;stroke-miterlimit:10;" d="M 285.460188 28.346327 C 285.460188 29.44789 284.569563 30.338515 283.468 30.338515 C 282.366438 30.338515 281.475813 29.44789 281.475813 28.346327 C 281.475813 27.244765 282.366438 26.35414 283.468 26.35414 C 284.569563 26.35414 285.460188 27.244765 285.460188 28.346327 Z M 285.460188 28.346327 " transform="matrix(1,0,0,-1,3.407,31.57289)"/>
<path style=" stroke:none;fill-rule:nonzero;fill:rgb(0%,0%,0%);fill-opacity:1;" d="M 288.867188 59.917969 C 288.867188 58.820312 287.976562 57.925781 286.875 57.925781 C 285.773438 57.925781 284.882812 58.820312 284.882812 59.917969 C 284.882812 61.019531 285.773438 61.914062 286.875 61.914062 C 287.976562 61.914062 288.867188 61.019531 288.867188 59.917969 Z M 288.867188 59.917969 "/>
<g clip-path="url(#clip2)" clip-rule="nonzero">
<path style="fill:none;stroke-width:0.3985;stroke-linecap:butt;stroke-linejoin:miter;stroke:rgb(0%,0%,0%);stroke-opacity:1;stroke-miterlimit:10;" d="M 285.460188 -28.345079 C 285.460188 -27.247423 284.569563 -26.352891 283.468 -26.352891 C 282.366438 -26.352891 281.475813 -27.247423 281.475813 -28.345079 C 281.475813 -29.446641 282.366438 -30.341173 283.468 -30.341173 C 284.569563 -30.341173 285.460188 -29.446641 285.460188 -28.345079 Z M 285.460188 -28.345079 " transform="matrix(1,0,0,-1,3.407,31.57289)"/>
</g>
<path style="fill:none;stroke-width:0.3985;stroke-linecap:butt;stroke-linejoin:miter;stroke:rgb(0%,0%,0%);stroke-opacity:1;stroke-miterlimit:10;" d="M 255.120344 -0.00132875 L 311.815656 -0.00132875 " transform="matrix(1,0,0,-1,3.407,31.57289)"/>
<path style="fill:none;stroke-width:0.3985;stroke-linecap:butt;stroke-linejoin:miter;stroke:rgb(0%,0%,0%);stroke-opacity:1;stroke-miterlimit:10;" d="M 283.468 -28.345079 L 283.468 28.346327 " transform="matrix(1,0,0,-1,3.407,31.57289)"/>
</g>
</svg>
