<?xml version="1.0" encoding="UTF-8"?>
<svg xmlns="http://www.w3.org/2000/svg" xmlns:xlink="http://www.w3.org/1999/xlink" width="206.96pt" height="104.65779pt" viewBox="0 0 206.96 104.65779" version="1.1">
<defs>
<clipPath id="clip1">
  <path d="M 0 0 L 206.960938 0 L 206.960938 104.65625 L 0 104.65625 Z M 0 0 "/>
</clipPath>
</defs>
<g id="surface1">
<path style=" stroke:none;fill-rule:nonzero;fill:rgb(100%,98.724365%,75%);fill-opacity:1;" d="M 205.507812 52.257812 C 205.507812 24.078125 159.820312 1.234375 103.460938 1.234375 C 47.101562 1.234375 1.414062 24.078125 1.414062 52.257812 C 1.414062 80.4375 47.101562 103.28125 103.460938 103.28125 C 159.820312 103.28125 205.507812 80.4375 205.507812 52.257812 Z M 205.507812 52.257812 "/>
<g clip-path="url(#clip1)" clip-rule="nonzero">
<path style="fill:none;stroke-width:0.3985;stroke-linecap:butt;stroke-linejoin:miter;stroke:rgb(0%,0%,0%);stroke-opacity:1;stroke-dasharray:0.3985,1.99255;stroke-miterlimit:10;" d="M 102.046813 -0.0009225 C 102.046813 28.178765 56.359313 51.022515 -0.0000625 51.022515 C -56.359437 51.022515 -102.046937 28.178765 -102.046937 -0.0009225 C -102.046937 -28.18061 -56.359437 -51.02436 -0.0000625 -51.02436 C 56.359313 -51.02436 102.046813 -28.18061 102.046813 -0.0009225 Z M 102.046813 -0.0009225 " transform="matrix(1,0,0,-1,103.461,52.25689)"/>
</g>
<path style="fill-rule:nonzero;fill:rgb(100%,75%,75%);fill-opacity:1;stroke-width:0.79701;stroke-linecap:butt;stroke-linejoin:miter;stroke:rgb(0%,0%,0%);stroke-opacity:1;stroke-miterlimit:10;" d="M -18.36725 -0.0009225 L -43.878969 25.510796 L -69.390687 -0.0009225 L -43.878969 -25.512641 Z M -18.36725 -0.0009225 " transform="matrix(1,0,0,-1,103.461,52.25689)"/>
<path style="fill-rule:nonzero;fill:rgb(0%,0%,0%);fill-opacity:1;stroke-width:0.3985;stroke-linecap:butt;stroke-linejoin:miter;stroke:rgb(0%,0%,0%);stroke-opacity:1;stroke-miterlimit:10;" d="M -16.574281 -0.0009225 C -16.574281 0.991265 -17.378969 1.792046 -18.36725 1.792046 C -19.359437 1.792046 -20.160219 0.991265 -20.160219 -0.0009225 C -20.160219 -0.989204 -19.359437 -1.793891 -18.36725 -1.793891 C -17.378969 -1.793891 -16.574281 -0.989204 -16.574281 -0.0009225 Z M -16.574281 -0.0009225 " transform="matrix(1,0,0,-1,103.461,52.25689)"/>
<path style="fill-rule:nonzero;fill:rgb(0%,0%,0%);fill-opacity:1;stroke-width:0.3985;stroke-linecap:butt;stroke-linejoin:miter;stroke:rgb(0%,0%,0%);stroke-opacity:1;stroke-miterlimit:10;" d="M -42.086 25.510796 C -42.086 26.502984 -42.890687 27.303765 -43.878969 27.303765 C -44.871156 27.303765 -45.671937 26.502984 -45.671937 25.510796 C -45.671937 24.522515 -44.871156 23.717827 -43.878969 23.717827 C -42.890687 23.717827 -42.086 24.522515 -42.086 25.510796 Z M -42.086 25.510796 " transform="matrix(1,0,0,-1,103.461,52.25689)"/>
<path style="fill-rule:nonzero;fill:rgb(0%,0%,0%);fill-opacity:1;stroke-width:0.3985;stroke-linecap:butt;stroke-linejoin:miter;stroke:rgb(0%,0%,0%);stroke-opacity:1;stroke-miterlimit:10;" d="M -67.597719 -0.0009225 C -67.597719 0.991265 -68.402406 1.792046 -69.390687 1.792046 C -70.382875 1.792046 -71.187562 0.991265 -71.187562 -0.0009225 C -71.187562 -0.989204 -70.382875 -1.793891 -69.390687 -1.793891 C -68.402406 -1.793891 -67.597719 -0.989204 -67.597719 -0.0009225 Z M -67.597719 -0.0009225 " transform="matrix(1,0,0,-1,103.461,52.25689)"/>
<path style="fill-rule:nonzero;fill:rgb(0%,0%,0%);fill-opacity:1;stroke-width:0.3985;stroke-linecap:butt;stroke-linejoin:miter;stroke:rgb(0%,0%,0%);stroke-opacity:1;stroke-miterlimit:10;" d="M -42.086 -25.512641 C -42.086 -24.520454 -42.890687 -23.719673 -43.878969 -23.719673 C -44.871156 -23.719673 -45.671937 -24.520454 -45.671937 -25.512641 C -45.671937 -26.500923 -44.871156 -27.30561 -43.878969 -27.30561 C -42.890687 -27.30561 -42.086 -26.500923 -42.086 -25.512641 Z M -42.086 -25.512641 " transform="matrix(1,0,0,-1,103.461,52.25689)"/>
<path style="fill-rule:nonzero;fill:rgb(75%,75%,100%);fill-opacity:1;stroke-width:0.79701;stroke-linecap:butt;stroke-linejoin:miter;stroke:rgb(0%,0%,0%);stroke-opacity:1;stroke-miterlimit:10;" d="M 69.394469 -0.0009225 L 43.878844 25.510796 L 18.367125 -0.0009225 L 43.878844 -25.512641 Z M 69.394469 -0.0009225 " transform="matrix(1,0,0,-1,103.461,52.25689)"/>
<path style="fill-rule:nonzero;fill:rgb(0%,0%,0%);fill-opacity:1;stroke-width:0.3985;stroke-linecap:butt;stroke-linejoin:miter;stroke:rgb(0%,0%,0%);stroke-opacity:1;stroke-miterlimit:10;" d="M 71.187438 -0.0009225 C 71.187438 0.991265 70.38275 1.792046 69.394469 1.792046 C 68.402281 1.792046 67.597594 0.991265 67.597594 -0.0009225 C 67.597594 -0.989204 68.402281 -1.793891 69.394469 -1.793891 C 70.38275 -1.793891 71.187438 -0.989204 71.187438 -0.0009225 Z M 71.187438 -0.0009225 " transform="matrix(1,0,0,-1,103.461,52.25689)"/>
<path style="fill-rule:nonzero;fill:rgb(0%,0%,0%);fill-opacity:1;stroke-width:0.3985;stroke-linecap:butt;stroke-linejoin:miter;stroke:rgb(0%,0%,0%);stroke-opacity:1;stroke-miterlimit:10;" d="M 45.675719 25.510796 C 45.675719 26.502984 44.871031 27.303765 43.878844 27.303765 C 42.890563 27.303765 42.085875 26.502984 42.085875 25.510796 C 42.085875 24.522515 42.890563 23.717827 43.878844 23.717827 C 44.871031 23.717827 45.675719 24.522515 45.675719 25.510796 Z M 45.675719 25.510796 " transform="matrix(1,0,0,-1,103.461,52.25689)"/>
<path style="fill-rule:nonzero;fill:rgb(0%,0%,0%);fill-opacity:1;stroke-width:0.3985;stroke-linecap:butt;stroke-linejoin:miter;stroke:rgb(0%,0%,0%);stroke-opacity:1;stroke-miterlimit:10;" d="M 20.160094 -0.0009225 C 20.160094 0.991265 19.359313 1.792046 18.367125 1.792046 C 17.378844 1.792046 16.574156 0.991265 16.574156 -0.0009225 C 16.574156 -0.989204 17.378844 -1.793891 18.367125 -1.793891 C 19.359313 -1.793891 20.160094 -0.989204 20.160094 -0.0009225 Z M 20.160094 -0.0009225 " transform="matrix(1,0,0,-1,103.461,52.25689)"/>
<path style="fill-rule:nonzero;fill:rgb(0%,0%,0%);fill-opacity:1;stroke-width:0.3985;stroke-linecap:butt;stroke-linejoin:miter;stroke:rgb(0%,0%,0%);stroke-opacity:1;stroke-miterlimit:10;" d="M 45.675719 -25.512641 C 45.675719 -24.520454 44.871031 -23.719673 43.878844 -23.719673 C 42.890563 -23.719673 42.085875 -24.520454 42.085875 -25.512641 C 42.085875 -26.500923 42.890563 -27.30561 43.878844 -27.30561 C 44.871031 -27.30561 45.675719 -26.500923 45.675719 -25.512641 Z M 45.675719 -25.512641 " transform="matrix(1,0,0,-1,103.461,52.25689)"/>
<path style="fill:none;stroke-width:0.79701;stroke-linecap:butt;stroke-linejoin:miter;stroke:rgb(0%,0%,0%);stroke-opacity:1;stroke-miterlimit:10;" d="M -18.36725 -0.0009225 L 18.367125 -0.0009225 " transform="matrix(1,0,0,-1,103.461,52.25689)"/>
</g>
</svg>
