<?xml version="1.0" encoding="UTF-8"?>
<svg xmlns="http://www.w3.org/2000/svg" xmlns:xlink="http://www.w3.org/1999/xlink" width="290" height="62.96" viewBox="0 0 290 62.96">
<defs>
<clipPath id="clip-0">
<path clip-rule="nonzero" d="M 236 48 L 252 48 L 252 62.960938 L 236 62.960938 Z M 236 48 "/>
</clipPath>
<clipPath id="clip-1">
<path clip-rule="nonzero" d="M 250 52 L 267 52 L 267 62.960938 L 250 62.960938 Z M 250 52 "/>
</clipPath>
<clipPath id="clip-2">
<path clip-rule="nonzero" d="M 265 48 L 281 48 L 281 62.960938 L 265 62.960938 Z M 265 48 "/>
</clipPath>
</defs>
<path fill-rule="nonzero" fill="rgb(0%, 0%, 0%)" fill-opacity="1" stroke-width="0.3985" stroke-linecap="butt" stroke-linejoin="miter" stroke="rgb(0%, 0%, 0%)" stroke-opacity="1" stroke-miterlimit="10" d="M 1.991438 -0.0010625 C 1.991438 1.1005 1.100813 1.991125 -0.00075 1.991125 C -1.102312 1.991125 -1.992937 1.1005 -1.992937 -0.0010625 C -1.992937 -1.098719 -1.102312 -1.99325 -0.00075 -1.99325 C 1.100813 -1.99325 1.991438 -1.098719 1.991438 -0.0010625 Z M 1.991438 -0.0010625 " transform="matrix(1, 0, 0, -1, 3.407, 31.538)"/>
<path fill-rule="nonzero" fill="rgb(0%, 0%, 0%)" fill-opacity="1" stroke-width="0.3985" stroke-linecap="butt" stroke-linejoin="miter" stroke="rgb(0%, 0%, 0%)" stroke-opacity="1" stroke-miterlimit="10" d="M 30.339094 -0.0010625 C 30.339094 1.1005 29.448469 1.991125 28.346906 1.991125 C 27.245344 1.991125 26.354719 1.1005 26.354719 -0.0010625 C 26.354719 -1.098719 27.245344 -1.99325 28.346906 -1.99325 C 29.448469 -1.99325 30.339094 -1.098719 30.339094 -0.0010625 Z M 30.339094 -0.0010625 " transform="matrix(1, 0, 0, -1, 3.407, 31.538)"/>
<path fill-rule="nonzero" fill="rgb(0%, 0%, 0%)" fill-opacity="1" stroke-width="0.3985" stroke-linecap="butt" stroke-linejoin="miter" stroke="rgb(0%, 0%, 0%)" stroke-opacity="1" stroke-miterlimit="10" d="M 58.68675 -0.0010625 C 58.68675 1.1005 57.792219 1.991125 56.694563 1.991125 C 55.593 1.991125 54.702375 1.1005 54.702375 -0.0010625 C 54.702375 -1.098719 55.593 -1.99325 56.694563 -1.99325 C 57.792219 -1.99325 58.68675 -1.098719 58.68675 -0.0010625 Z M 58.68675 -0.0010625 " transform="matrix(1, 0, 0, -1, 3.407, 31.538)"/>
<path fill-rule="nonzero" fill="rgb(0%, 0%, 0%)" fill-opacity="1" stroke-width="0.3985" stroke-linecap="butt" stroke-linejoin="miter" stroke="rgb(0%, 0%, 0%)" stroke-opacity="1" stroke-miterlimit="10" d="M 101.206281 -0.0010625 C 101.206281 1.1005 100.315656 1.991125 99.214094 1.991125 C 98.112531 1.991125 97.221906 1.1005 97.221906 -0.0010625 C 97.221906 -1.098719 98.112531 -1.99325 99.214094 -1.99325 C 100.315656 -1.99325 101.206281 -1.098719 101.206281 -0.0010625 Z M 101.206281 -0.0010625 " transform="matrix(1, 0, 0, -1, 3.407, 31.538)"/>
<path fill-rule="nonzero" fill="rgb(0%, 0%, 0%)" fill-opacity="1" stroke-width="0.3985" stroke-linecap="butt" stroke-linejoin="miter" stroke="rgb(0%, 0%, 0%)" stroke-opacity="1" stroke-miterlimit="10" d="M 129.553938 -0.0010625 C 129.553938 1.1005 128.659406 1.991125 127.56175 1.991125 C 126.460188 1.991125 125.569563 1.1005 125.569563 -0.0010625 C 125.569563 -1.098719 126.460188 -1.99325 127.56175 -1.99325 C 128.659406 -1.99325 129.553938 -1.098719 129.553938 -0.0010625 Z M 129.553938 -0.0010625 " transform="matrix(1, 0, 0, -1, 3.407, 31.538)"/>
<path fill="none" stroke-width="0.3985" stroke-linecap="butt" stroke-linejoin="miter" stroke="rgb(0%, 0%, 0%)" stroke-opacity="1" stroke-miterlimit="10" d="M -0.00075 -0.0010625 L 63.7805 -0.0010625 " transform="matrix(1, 0, 0, -1, 3.407, 31.538)"/>
<path fill="none" stroke-width="0.3985" stroke-linecap="butt" stroke-linejoin="miter" stroke="rgb(0%, 0%, 0%)" stroke-opacity="1" stroke-miterlimit="10" d="M 92.128156 -0.0010625 L 127.56175 -0.0010625 " transform="matrix(1, 0, 0, -1, 3.407, 31.538)"/>
<path fill-rule="nonzero" fill="rgb(0%, 0%, 0%)" fill-opacity="1" stroke-width="0.3985" stroke-linecap="butt" stroke-linejoin="miter" stroke="rgb(0%, 0%, 0%)" stroke-opacity="1" stroke-miterlimit="10" d="M 71.366438 -0.0010625 C 71.366438 0.276281 71.143781 0.498937 70.866438 0.498937 C 70.593 0.498937 70.370344 0.276281 70.370344 -0.0010625 C 70.370344 -0.2745 70.593 -0.497156 70.866438 -0.497156 C 71.143781 -0.497156 71.366438 -0.2745 71.366438 -0.0010625 Z M 71.366438 -0.0010625 " transform="matrix(1, 0, 0, -1, 3.407, 31.538)"/>
<path fill-rule="nonzero" fill="rgb(0%, 0%, 0%)" fill-opacity="1" stroke-width="0.3985" stroke-linecap="butt" stroke-linejoin="miter" stroke="rgb(0%, 0%, 0%)" stroke-opacity="1" stroke-miterlimit="10" d="M 78.452375 -0.0010625 C 78.452375 0.276281 78.229719 0.498937 77.952375 0.498937 C 77.678938 0.498937 77.456281 0.276281 77.456281 -0.0010625 C 77.456281 -0.2745 77.678938 -0.497156 77.952375 -0.497156 C 78.229719 -0.497156 78.452375 -0.2745 78.452375 -0.0010625 Z M 78.452375 -0.0010625 " transform="matrix(1, 0, 0, -1, 3.407, 31.538)"/>
<path fill-rule="nonzero" fill="rgb(0%, 0%, 0%)" fill-opacity="1" stroke-width="0.3985" stroke-linecap="butt" stroke-linejoin="miter" stroke="rgb(0%, 0%, 0%)" stroke-opacity="1" stroke-miterlimit="10" d="M 85.538313 -0.0010625 C 85.538313 0.276281 85.315656 0.498937 85.042219 0.498937 C 84.764875 0.498937 84.542219 0.276281 84.542219 -0.0010625 C 84.542219 -0.2745 84.764875 -0.497156 85.042219 -0.497156 C 85.315656 -0.497156 85.538313 -0.2745 85.538313 -0.0010625 Z M 85.538313 -0.0010625 " transform="matrix(1, 0, 0, -1, 3.407, 31.538)"/>
<path fill-rule="nonzero" fill="rgb(0%, 0%, 0%)" fill-opacity="1" stroke-width="0.3985" stroke-linecap="butt" stroke-linejoin="miter" stroke="rgb(0%, 0%, 0%)" stroke-opacity="1" stroke-miterlimit="10" d="M 257.112531 -0.0010625 C 257.112531 1.1005 256.221906 1.991125 255.120344 1.991125 C 254.022688 1.991125 253.128156 1.1005 253.128156 -0.0010625 C 253.128156 -1.098719 254.022688 -1.99325 255.120344 -1.99325 C 256.221906 -1.99325 257.112531 -1.098719 257.112531 -0.0010625 Z M 257.112531 -0.0010625 " transform="matrix(1, 0, 0, -1, 3.407, 31.538)"/>
<path fill-rule="nonzero" fill="rgb(0%, 0%, 0%)" fill-opacity="1" stroke-width="0.3985" stroke-linecap="butt" stroke-linejoin="miter" stroke="rgb(0%, 0%, 0%)" stroke-opacity="1" stroke-miterlimit="10" d="M 285.460188 -0.0010625 C 285.460188 1.1005 284.569563 1.991125 283.468 1.991125 C 282.366438 1.991125 281.475813 1.1005 281.475813 -0.0010625 C 281.475813 -1.098719 282.366438 -1.99325 283.468 -1.99325 C 284.569563 -1.99325 285.460188 -1.098719 285.460188 -0.0010625 Z M 285.460188 -0.0010625 " transform="matrix(1, 0, 0, -1, 3.407, 31.538)"/>
<path fill="none" stroke-width="0.3985" stroke-linecap="butt" stroke-linejoin="miter" stroke="rgb(0%, 0%, 0%)" stroke-opacity="1" stroke-miterlimit="10" d="M 255.120344 -0.0010625 L 283.468 -0.0010625 " transform="matrix(1, 0, 0, -1, 3.407, 31.538)"/>
<path fill-rule="nonzero" fill="rgb(0%, 0%, 0%)" fill-opacity="1" stroke-width="0.3985" stroke-linecap="butt" stroke-linejoin="miter" stroke="rgb(0%, 0%, 0%)" stroke-opacity="1" stroke-miterlimit="10" d="M 281.663313 14.174719 C 281.663313 15.272375 280.772688 16.166906 279.671125 16.166906 C 278.569563 16.166906 277.678938 15.272375 277.678938 14.174719 C 277.678938 13.073156 278.569563 12.182531 279.671125 12.182531 C 280.772688 12.182531 281.663313 13.073156 281.663313 14.174719 Z M 281.663313 14.174719 " transform="matrix(1, 0, 0, -1, 3.407, 31.538)"/>
<path fill="none" stroke-width="0.3985" stroke-linecap="butt" stroke-linejoin="miter" stroke="rgb(0%, 0%, 0%)" stroke-opacity="1" stroke-miterlimit="10" d="M 255.120344 -0.0010625 L 279.671125 14.174719 " transform="matrix(1, 0, 0, -1, 3.407, 31.538)"/>
<path fill-rule="nonzero" fill="rgb(0%, 0%, 0%)" fill-opacity="1" stroke-width="0.3985" stroke-linecap="butt" stroke-linejoin="miter" stroke="rgb(0%, 0%, 0%)" stroke-opacity="1" stroke-miterlimit="10" d="M 271.288313 24.549719 C 271.288313 25.651281 270.393781 26.541906 269.296125 26.541906 C 268.194563 26.541906 267.303938 25.651281 267.303938 24.549719 C 267.303938 23.448156 268.194563 22.557531 269.296125 22.557531 C 270.393781 22.557531 271.288313 23.448156 271.288313 24.549719 Z M 271.288313 24.549719 " transform="matrix(1, 0, 0, -1, 3.407, 31.538)"/>
<path fill="none" stroke-width="0.3985" stroke-linecap="butt" stroke-linejoin="miter" stroke="rgb(0%, 0%, 0%)" stroke-opacity="1" stroke-miterlimit="10" d="M 255.120344 -0.0010625 L 269.296125 24.549719 " transform="matrix(1, 0, 0, -1, 3.407, 31.538)"/>
<path fill-rule="nonzero" fill="rgb(0%, 0%, 0%)" fill-opacity="1" stroke-width="0.3985" stroke-linecap="butt" stroke-linejoin="miter" stroke="rgb(0%, 0%, 0%)" stroke-opacity="1" stroke-miterlimit="10" d="M 257.112531 28.346594 C 257.112531 29.448156 256.221906 30.338781 255.120344 30.338781 C 254.022688 30.338781 253.128156 29.448156 253.128156 28.346594 C 253.128156 27.245031 254.022688 26.354406 255.120344 26.354406 C 256.221906 26.354406 257.112531 27.245031 257.112531 28.346594 Z M 257.112531 28.346594 " transform="matrix(1, 0, 0, -1, 3.407, 31.538)"/>
<path fill="none" stroke-width="0.3985" stroke-linecap="butt" stroke-linejoin="miter" stroke="rgb(0%, 0%, 0%)" stroke-opacity="1" stroke-miterlimit="10" d="M 255.120344 -0.0010625 L 255.120344 28.346594 " transform="matrix(1, 0, 0, -1, 3.407, 31.538)"/>
<path fill-rule="nonzero" fill="rgb(0%, 0%, 0%)" fill-opacity="1" stroke-width="0.3985" stroke-linecap="butt" stroke-linejoin="miter" stroke="rgb(0%, 0%, 0%)" stroke-opacity="1" stroke-miterlimit="10" d="M 242.940656 24.549719 C 242.940656 25.651281 242.050031 26.541906 240.948469 26.541906 C 239.846906 26.541906 238.956281 25.651281 238.956281 24.549719 C 238.956281 23.448156 239.846906 22.557531 240.948469 22.557531 C 242.050031 22.557531 242.940656 23.448156 242.940656 24.549719 Z M 242.940656 24.549719 " transform="matrix(1, 0, 0, -1, 3.407, 31.538)"/>
<path fill="none" stroke-width="0.3985" stroke-linecap="butt" stroke-linejoin="miter" stroke="rgb(0%, 0%, 0%)" stroke-opacity="1" stroke-miterlimit="10" d="M 255.120344 -0.0010625 L 240.948469 24.549719 " transform="matrix(1, 0, 0, -1, 3.407, 31.538)"/>
<path fill-rule="nonzero" fill="rgb(0%, 0%, 0%)" fill-opacity="1" stroke-width="0.3985" stroke-linecap="butt" stroke-linejoin="miter" stroke="rgb(0%, 0%, 0%)" stroke-opacity="1" stroke-miterlimit="10" d="M 232.565656 14.174719 C 232.565656 15.272375 231.671125 16.166906 230.573469 16.166906 C 229.471906 16.166906 228.581281 15.272375 228.581281 14.174719 C 228.581281 13.073156 229.471906 12.182531 230.573469 12.182531 C 231.671125 12.182531 232.565656 13.073156 232.565656 14.174719 Z M 232.565656 14.174719 " transform="matrix(1, 0, 0, -1, 3.407, 31.538)"/>
<path fill="none" stroke-width="0.3985" stroke-linecap="butt" stroke-linejoin="miter" stroke="rgb(0%, 0%, 0%)" stroke-opacity="1" stroke-miterlimit="10" d="M 255.120344 -0.0010625 L 230.573469 14.174719 " transform="matrix(1, 0, 0, -1, 3.407, 31.538)"/>
<path fill-rule="nonzero" fill="rgb(0%, 0%, 0%)" fill-opacity="1" stroke-width="0.3985" stroke-linecap="butt" stroke-linejoin="miter" stroke="rgb(0%, 0%, 0%)" stroke-opacity="1" stroke-miterlimit="10" d="M 228.768781 -0.0010625 C 228.768781 1.1005 227.87425 1.991125 226.772688 1.991125 C 225.675031 1.991125 224.7805 1.1005 224.7805 -0.0010625 C 224.7805 -1.098719 225.675031 -1.99325 226.772688 -1.99325 C 227.87425 -1.99325 228.768781 -1.098719 228.768781 -0.0010625 Z M 228.768781 -0.0010625 " transform="matrix(1, 0, 0, -1, 3.407, 31.538)"/>
<path fill="none" stroke-width="0.3985" stroke-linecap="butt" stroke-linejoin="miter" stroke="rgb(0%, 0%, 0%)" stroke-opacity="1" stroke-miterlimit="10" d="M 255.120344 -0.0010625 L 226.772688 -0.0010625 " transform="matrix(1, 0, 0, -1, 3.407, 31.538)"/>
<path fill-rule="nonzero" fill="rgb(0%, 0%, 0%)" fill-opacity="1" stroke-width="0.3985" stroke-linecap="butt" stroke-linejoin="miter" stroke="rgb(0%, 0%, 0%)" stroke-opacity="1" stroke-miterlimit="10" d="M 232.565656 -14.172938 C 232.565656 -13.071375 231.671125 -12.18075 230.573469 -12.18075 C 229.471906 -12.18075 228.581281 -13.071375 228.581281 -14.172938 C 228.581281 -15.2745 229.471906 -16.165125 230.573469 -16.165125 C 231.671125 -16.165125 232.565656 -15.2745 232.565656 -14.172938 Z M 232.565656 -14.172938 " transform="matrix(1, 0, 0, -1, 3.407, 31.538)"/>
<path fill="none" stroke-width="0.3985" stroke-linecap="butt" stroke-linejoin="miter" stroke="rgb(0%, 0%, 0%)" stroke-opacity="1" stroke-miterlimit="10" d="M 255.120344 -0.0010625 L 230.573469 -14.172938 " transform="matrix(1, 0, 0, -1, 3.407, 31.538)"/>
<path fill-rule="nonzero" fill="rgb(0%, 0%, 0%)" fill-opacity="1" d="M 246.347656 56.085938 C 246.347656 54.988281 245.457031 54.09375 244.355469 54.09375 C 243.253906 54.09375 242.363281 54.988281 242.363281 56.085938 C 242.363281 57.1875 243.253906 58.078125 244.355469 58.078125 C 245.457031 58.078125 246.347656 57.1875 246.347656 56.085938 Z M 246.347656 56.085938 "/>
<g clip-path="url(#clip-0)">
<path fill="none" stroke-width="0.3985" stroke-linecap="butt" stroke-linejoin="miter" stroke="rgb(0%, 0%, 0%)" stroke-opacity="1" stroke-miterlimit="10" d="M 242.940656 -24.547938 C 242.940656 -23.450281 242.050031 -22.55575 240.948469 -22.55575 C 239.846906 -22.55575 238.956281 -23.450281 238.956281 -24.547938 C 238.956281 -25.6495 239.846906 -26.540125 240.948469 -26.540125 C 242.050031 -26.540125 242.940656 -25.6495 242.940656 -24.547938 Z M 242.940656 -24.547938 " transform="matrix(1, 0, 0, -1, 3.407, 31.538)"/>
</g>
<path fill="none" stroke-width="0.3985" stroke-linecap="butt" stroke-linejoin="miter" stroke="rgb(0%, 0%, 0%)" stroke-opacity="1" stroke-miterlimit="10" d="M 255.120344 -0.0010625 L 240.948469 -24.547938 " transform="matrix(1, 0, 0, -1, 3.407, 31.538)"/>
<path fill-rule="nonzero" fill="rgb(0%, 0%, 0%)" fill-opacity="1" d="M 260.519531 59.886719 C 260.519531 58.785156 259.628906 57.890625 258.527344 57.890625 C 257.429688 57.890625 256.535156 58.785156 256.535156 59.886719 C 256.535156 60.984375 257.429688 61.878906 258.527344 61.878906 C 259.628906 61.878906 260.519531 60.984375 260.519531 59.886719 Z M 260.519531 59.886719 "/>
<g clip-path="url(#clip-1)">
<path fill="none" stroke-width="0.3985" stroke-linecap="butt" stroke-linejoin="miter" stroke="rgb(0%, 0%, 0%)" stroke-opacity="1" stroke-miterlimit="10" d="M 257.112531 -28.348719 C 257.112531 -27.247156 256.221906 -26.352625 255.120344 -26.352625 C 254.022688 -26.352625 253.128156 -27.247156 253.128156 -28.348719 C 253.128156 -29.446375 254.022688 -30.340906 255.120344 -30.340906 C 256.221906 -30.340906 257.112531 -29.446375 257.112531 -28.348719 Z M 257.112531 -28.348719 " transform="matrix(1, 0, 0, -1, 3.407, 31.538)"/>
</g>
<path fill="none" stroke-width="0.3985" stroke-linecap="butt" stroke-linejoin="miter" stroke="rgb(0%, 0%, 0%)" stroke-opacity="1" stroke-miterlimit="10" d="M 255.120344 -0.0010625 L 255.120344 -28.348719 " transform="matrix(1, 0, 0, -1, 3.407, 31.538)"/>
<path fill-rule="nonzero" fill="rgb(0%, 0%, 0%)" fill-opacity="1" d="M 274.695312 56.085938 C 274.695312 54.988281 273.800781 54.09375 272.703125 54.09375 C 271.601562 54.09375 270.710938 54.988281 270.710938 56.085938 C 270.710938 57.1875 271.601562 58.078125 272.703125 58.078125 C 273.800781 58.078125 274.695312 57.1875 274.695312 56.085938 Z M 274.695312 56.085938 "/>
<g clip-path="url(#clip-2)">
<path fill="none" stroke-width="0.3985" stroke-linecap="butt" stroke-linejoin="miter" stroke="rgb(0%, 0%, 0%)" stroke-opacity="1" stroke-miterlimit="10" d="M 271.288313 -24.547938 C 271.288313 -23.450281 270.393781 -22.55575 269.296125 -22.55575 C 268.194563 -22.55575 267.303938 -23.450281 267.303938 -24.547938 C 267.303938 -25.6495 268.194563 -26.540125 269.296125 -26.540125 C 270.393781 -26.540125 271.288313 -25.6495 271.288313 -24.547938 Z M 271.288313 -24.547938 " transform="matrix(1, 0, 0, -1, 3.407, 31.538)"/>
</g>
<path fill="none" stroke-width="0.3985" stroke-linecap="butt" stroke-linejoin="miter" stroke="rgb(0%, 0%, 0%)" stroke-opacity="1" stroke-miterlimit="10" d="M 255.120344 -0.0010625 L 269.296125 -24.547938 " transform="matrix(1, 0, 0, -1, 3.407, 31.538)"/>
<path fill-rule="nonzero" fill="rgb(0%, 0%, 0%)" fill-opacity="1" stroke-width="0.3985" stroke-linecap="butt" stroke-linejoin="miter" stroke="rgb(0%, 0%, 0%)" stroke-opacity="1" stroke-miterlimit="10" d="M 277.335188 -18.219813 C 277.335188 -17.946375 277.112531 -17.723719 276.835188 -17.723719 C 276.56175 -17.723719 276.339094 -17.946375 276.339094 -18.219813 C 276.339094 -18.497156 276.56175 -18.719813 276.835188 -18.719813 C 277.112531 -18.719813 277.335188 -18.497156 277.335188 -18.219813 Z M 277.335188 -18.219813 " transform="matrix(1, 0, 0, -1, 3.407, 31.538)"/>
<path fill-rule="nonzero" fill="rgb(0%, 0%, 0%)" fill-opacity="1" stroke-width="0.3985" stroke-linecap="butt" stroke-linejoin="miter" stroke="rgb(0%, 0%, 0%)" stroke-opacity="1" stroke-miterlimit="10" d="M 280.167219 -14.172938 C 280.167219 -13.8995 279.944563 -13.676844 279.671125 -13.676844 C 279.393781 -13.676844 279.171125 -13.8995 279.171125 -14.172938 C 279.171125 -14.450281 279.393781 -14.672938 279.671125 -14.672938 C 279.944563 -14.672938 280.167219 -14.450281 280.167219 -14.172938 Z M 280.167219 -14.172938 " transform="matrix(1, 0, 0, -1, 3.407, 31.538)"/>
<path fill-rule="nonzero" fill="rgb(0%, 0%, 0%)" fill-opacity="1" stroke-width="0.3985" stroke-linecap="butt" stroke-linejoin="miter" stroke="rgb(0%, 0%, 0%)" stroke-opacity="1" stroke-miterlimit="10" d="M 282.257063 -9.696375 C 282.257063 -9.419031 282.034406 -9.196375 281.757063 -9.196375 C 281.483625 -9.196375 281.260969 -9.419031 281.260969 -9.696375 C 281.260969 -9.969813 281.483625 -10.192469 281.757063 -10.192469 C 282.034406 -10.192469 282.257063 -9.969813 282.257063 -9.696375 Z M 282.257063 -9.696375 " transform="matrix(1, 0, 0, -1, 3.407, 31.538)"/>
</svg>
